# This file uses centimeters as units for non-parametric coordinates.

mtllib CabinetVari_2.mtl
g default
v -49.595463 227.083557 43.740482
v 49.513252 227.083557 43.740482
v -49.595463 301.390167 43.740482
v 49.513252 301.390167 43.740482
v -49.595463 301.390167 -69.386635
v 49.513252 301.390167 -69.386635
v -49.595463 227.083557 -69.386635
v 49.513252 227.083557 -69.386635
v -49.595463 291.304169 43.740482
v 49.513252 291.304169 43.740482
v -49.595463 296.672638 43.740482
v 49.513252 296.672638 43.740482
v -49.595463 291.304169 40.113911
v 49.513252 291.304169 40.113911
v 49.513252 296.672638 40.113911
v -49.595463 296.672638 40.113911
v -49.595478 152.776886 63.814224
v 49.513241 152.776886 63.814224
v -49.595478 227.083466 63.814224
v 49.513241 227.083466 63.814224
v -49.595478 227.083466 -49.312889
v 49.513241 227.083466 -49.312889
v -49.595478 152.776886 -49.312889
v 49.513241 152.776886 -49.312889
v -49.595478 216.997467 63.814224
v 49.513241 216.997467 63.814224
v -49.595478 222.365936 63.814224
v 49.513241 222.365936 63.814224
v -49.595478 216.997467 60.187653
v 49.513241 216.997467 60.187653
v 49.513241 222.365936 60.187653
v -49.595478 222.365936 60.187653
v -43.843983 227.083466 57.705612
v 43.761745 227.083466 57.705612
v 43.761745 227.083466 -43.204277
v -43.843983 227.083466 -43.204277
v -43.843983 156.728180 57.705612
v 43.761745 156.728180 57.705612
v 43.761745 156.728180 -43.204277
v -43.843983 156.728180 -43.204277
v -49.595474 78.470215 39.736317
v 49.513241 78.470215 39.736317
v -49.595474 152.776794 39.736317
v 49.513241 152.776794 39.736317
v -49.595474 152.776794 -73.390793
v 49.513241 152.776794 -73.390793
v -49.595474 78.470215 -73.390793
v 49.513241 78.470215 -73.390793
v -49.595474 142.690796 39.736317
v 49.513241 142.690796 39.736317
v -49.595474 148.059326 39.736317
v 49.513241 148.059326 39.736317
v -49.595474 142.690796 36.109753
v 49.513241 142.690796 36.109753
v 49.513241 148.059326 36.109753
v -49.595474 148.059326 36.109753
v -49.595474 4.163635 44.642750
v 49.513241 4.163635 44.642750
v -49.595474 78.470215 44.642750
v 49.513241 78.470215 44.642750
v -49.595474 78.470215 -68.484367
v 49.513241 78.470215 -68.484367
v -49.595474 4.163635 -68.484367
v 49.513241 4.163635 -68.484367
v -49.595474 68.384216 44.642750
v 49.513241 68.384216 44.642750
v -49.595474 73.752747 44.642750
v 49.513241 73.752747 44.642750
v -49.595474 68.384216 41.016178
v 49.513241 68.384216 41.016178
v 49.513241 73.752747 41.016178
v -49.595474 73.752747 41.016178
v -53.884987 0.000000 40.709003
v 53.884991 0.000000 40.708988
v -53.884991 309.141907 40.708996
v 53.884991 309.141907 40.708996
v -53.884991 309.141907 -75.144798
v 53.884991 309.141907 -75.144798
v -53.884991 0.000000 -75.144791
v 53.884991 0.000000 -75.144798
v -50.093269 4.163727 40.708996
v 50.093204 4.163727 40.708988
v -50.093273 304.978210 40.708996
v 50.093197 304.978210 40.708996
v -50.093277 304.978210 -72.084984
v 50.093197 304.978210 -72.084984
v -50.093273 4.163727 -72.084984
v 50.093204 4.163727 -72.084991
vt 0.187661 0.844199
vt 0.312608 0.844056
vt 0.312608 0.849793
vt 0.187661 0.849936
vt 0.738308 0.456412
vt 0.858844 0.456412
vt 0.858844 0.593997
vt 0.738308 0.593997
vt 0.141079 0.543598
vt 0.261615 0.543598
vt 0.261615 0.681183
vt 0.141079 0.681183
vt 0.312608 0.844051
vt 0.187661 0.844204
vt 0.189812 0.759565
vt 0.310348 0.759422
vt 0.310348 0.837527
vt 0.189812 0.837670
vt 0.187661 0.837675
vt 0.052235 0.759728
vt 0.007812 0.695465
vt 0.128348 0.695465
vt 0.128348 0.701994
vt 0.007812 0.701994
vt 0.896253 0.423264
vt 0.896253 0.302726
vt 0.986623 0.302726
vt 0.986623 0.423264
vt 0.007812 0.691054
vt 0.128348 0.691054
vt 0.128348 0.706405
vt 0.007812 0.706405
vt 0.052235 0.850100
vt 0.447941 0.849630
vt 0.447941 0.759258
vt 0.312608 0.837521
vt 0.294088 0.664134
vt 0.294088 0.543598
vt 0.299825 0.543598
vt 0.299825 0.664134
vt 0.753115 0.869461
vt 0.859661 0.869461
vt 0.859661 0.992188
vt 0.753115 0.992188
vt 0.871574 0.456412
vt 0.992110 0.456412
vt 0.992110 0.593997
vt 0.871574 0.593997
vt 0.980887 0.145398
vt 0.980887 0.140987
vt 0.986624 0.145398
vt 0.986624 0.155269
vt 0.980887 0.159680
vt 0.980887 0.155269
vt 0.560620 0.990222
vt 0.560620 0.869686
vt 0.638725 0.869686
vt 0.638725 0.990222
vt 0.896253 0.155269
vt 0.974358 0.155269
vt 0.974358 0.159680
vt 0.896253 0.292854
vt 0.274345 0.664133
vt 0.274345 0.543598
vt 0.280874 0.543598
vt 0.280874 0.664133
vt 0.476711 0.519002
vt 0.476711 0.398466
vt 0.567083 0.398466
vt 0.567083 0.519002
vt 0.447097 0.504071
vt 0.447097 0.383535
vt 0.451507 0.383535
vt 0.451507 0.504071
vt 0.303434 0.393662
vt 0.303434 0.514198
vt 0.299023 0.514198
vt 0.299023 0.393662
vt 0.986624 0.292854
vt 0.986624 0.007812
vt 0.896253 0.007812
vt 0.974358 0.140987
vt 0.974358 0.145398
vt 0.896253 0.145398
vt 0.738308 0.603868
vt 0.858844 0.603868
vt 0.851849 0.611297
vt 0.745303 0.611297
vt 0.858844 0.741453
vt 0.851849 0.734024
vt 0.738308 0.741453
vt 0.745303 0.734024
vt 0.084127 0.533726
vt 0.147877 0.533726
vt 0.147877 0.393662
vt 0.084127 0.393662
vt 0.224191 0.533726
vt 0.224191 0.393662
vt 0.287941 0.533726
vt 0.287941 0.393662
vt 0.007812 0.533726
vt 0.007812 0.393662
vt 0.187661 0.944462
vt 0.312608 0.944319
vt 0.312608 0.950057
vt 0.187661 0.950200
vt 0.871574 0.603868
vt 0.992110 0.603868
vt 0.992110 0.741453
vt 0.871574 0.741453
vt 0.871574 0.751325
vt 0.992110 0.751325
vt 0.992110 0.888910
vt 0.871574 0.888910
vt 0.312608 0.944314
vt 0.187661 0.944468
vt 0.189812 0.859828
vt 0.310348 0.859685
vt 0.310348 0.937790
vt 0.189812 0.937933
vt 0.187661 0.937938
vt 0.052235 0.859992
vt 0.141079 0.695465
vt 0.261614 0.695465
vt 0.261614 0.701994
vt 0.141079 0.701994
vt 0.649464 0.990119
vt 0.649464 0.869581
vt 0.739834 0.869581
vt 0.739834 0.990119
vt 0.141079 0.691054
vt 0.261614 0.691054
vt 0.261614 0.706405
vt 0.141079 0.706405
vt 0.052235 0.950363
vt 0.447941 0.949893
vt 0.447941 0.859521
vt 0.312608 0.937785
vt 0.597330 0.854021
vt 0.722277 0.853877
vt 0.722277 0.859615
vt 0.597330 0.859758
vt 0.007812 0.543598
vt 0.128348 0.543598
vt 0.128348 0.681183
vt 0.007812 0.681183
vt 0.605042 0.540714
vt 0.725578 0.540714
vt 0.725578 0.678299
vt 0.605042 0.678299
vt 0.722277 0.853872
vt 0.597330 0.854026
vt 0.599482 0.769387
vt 0.720018 0.769243
vt 0.720018 0.847348
vt 0.599482 0.847492
vt 0.597330 0.847497
vt 0.461904 0.769550
vt 0.605042 0.692581
vt 0.725578 0.692581
vt 0.725578 0.699110
vt 0.605042 0.699110
vt 0.476711 0.649411
vt 0.476711 0.528874
vt 0.567082 0.528874
vt 0.567082 0.649411
vt 0.605042 0.688170
vt 0.725578 0.688170
vt 0.725578 0.703521
vt 0.605042 0.703521
vt 0.461904 0.859922
vt 0.857610 0.859451
vt 0.857610 0.769080
vt 0.722277 0.847343
vt 0.461904 0.759508
vt 0.466517 0.754444
vt 0.588362 0.754444
vt 0.592974 0.759508
vt 0.884185 0.148714
vt 0.753115 0.148714
vt 0.753115 0.007812
vt 0.884185 0.007812
vt 0.884185 0.299486
vt 0.753115 0.299486
vt 0.753115 0.158585
vt 0.884185 0.158585
vt 0.588362 0.388595
vt 0.466517 0.388595
vt 0.461904 0.383531
vt 0.592974 0.383531
vt 0.435677 0.749387
vt 0.313831 0.749387
vt 0.313831 0.383535
vt 0.435677 0.383535
vt 0.301723 0.383790
vt 0.160822 0.383790
vt 0.160822 0.007812
vt 0.301723 0.007812
vt 0.741048 0.383790
vt 0.609977 0.383790
vt 0.609977 0.007812
vt 0.741048 0.007812
vt 0.148714 0.383790
vt 0.007812 0.383790
vt 0.007812 0.007812
vt 0.148714 0.007812
vt 0.726888 0.530842
vt 0.605042 0.530842
vt 0.605042 0.393661
vt 0.726888 0.393661
vt 0.461904 0.373659
vt 0.461904 0.007812
vt 0.599085 0.007812
vt 0.599085 0.373659
vt 0.753115 0.309358
vt 0.874960 0.309358
vt 0.874960 0.446540
vt 0.753115 0.446540
vt 0.451010 0.007812
vt 0.451010 0.373663
vt 0.313831 0.373663
vt 0.313831 0.007812
vn 0.000000 0.000000 1.000000
vn 0.000000 0.000000 1.000000
vn 0.000000 0.000000 1.000000
vn 0.000000 0.000000 1.000000
vn 0.000000 1.000000 0.000000
vn 0.000000 1.000000 0.000000
vn 0.000000 1.000000 0.000000
vn 0.000000 1.000000 0.000000
vn 0.000000 -1.000000 0.000000
vn 0.000000 -1.000000 0.000000
vn 0.000000 -1.000000 0.000000
vn 0.000000 -1.000000 0.000000
vn 1.000000 0.000000 0.000000
vn 1.000000 0.000002 0.000000
vn 1.000000 0.000002 0.000000
vn -1.000000 0.000000 0.000000
vn -1.000000 0.000000 0.000000
vn -1.000000 0.000000 0.000000
vn 0.000000 0.000000 1.000000
vn 0.000000 0.000000 1.000000
vn 0.000000 0.000000 1.000000
vn 0.000000 0.000000 1.000000
vn -1.000000 0.000000 0.000000
vn -1.000000 0.000000 0.000000
vn -1.000000 0.000000 0.000000
vn -1.000000 0.000000 0.000000
vn 0.000000 0.000000 1.000000
vn 0.000000 0.000000 1.000000
vn 0.000000 0.000000 1.000000
vn 0.000000 0.000000 1.000000
vn 0.000000 0.000000 -1.000000
vn 0.000000 0.000000 -1.000000
vn 0.000000 0.000000 -1.000000
vn 0.000000 0.000000 -1.000000
vn 0.000000 1.000000 0.000000
vn 0.000000 1.000000 0.000000
vn 0.000000 1.000000 0.000000
vn 0.000000 1.000000 0.000000
vn 0.000000 -1.000000 0.000000
vn 0.000000 -1.000000 0.000000
vn 0.000000 -1.000000 0.000000
vn 0.000000 -1.000000 0.000000
vn -1.000000 0.000000 0.000000
vn -1.000000 0.000000 0.000000
vn -1.000000 0.000000 0.000000
vn -1.000000 0.000000 0.000000
vn -1.000000 0.000000 0.000000
vn 1.000000 0.000002 0.000000
vn 1.000000 -0.000000 0.000000
vn 1.000000 0.000000 0.000000
vn 1.000000 0.000000 0.000000
vn 1.000000 -0.000000 0.000000
vn 1.000000 -0.000000 0.000000
vn 1.000000 -0.000000 0.000000
vn 0.000000 0.000000 1.000000
vn 0.000000 0.000000 1.000000
vn 0.000000 0.000000 1.000000
vn 0.000000 0.000000 1.000000
vn 0.000000 1.000000 0.000000
vn 0.000000 1.000000 0.000000
vn 0.000000 1.000000 0.000000
vn 0.000000 1.000000 0.000000
vn 0.000000 -1.000000 0.000000
vn 0.000000 -1.000000 0.000000
vn 0.000000 -1.000000 0.000000
vn 0.000000 -1.000000 0.000000
vn 1.000000 0.000000 0.000000
vn 1.000000 0.000000 0.000000
vn 1.000000 0.000000 0.000000
vn -1.000000 0.000000 0.000000
vn -1.000000 0.000000 0.000000
vn -1.000000 0.000000 0.000000
vn 0.000000 0.000000 1.000000
vn 0.000000 0.000000 1.000000
vn 0.000000 0.000000 1.000000
vn 0.000000 0.000000 1.000000
vn -1.000000 0.000000 0.000000
vn -1.000000 0.000000 0.000000
vn -1.000000 0.000000 0.000000
vn -1.000000 0.000000 0.000000
vn 0.000000 0.000000 1.000000
vn 0.000000 0.000000 1.000000
vn 0.000000 0.000000 1.000000
vn 0.000000 0.000000 1.000000
vn 0.000000 0.000000 -1.000000
vn 0.000000 0.000000 -1.000000
vn 0.000000 0.000000 -1.000000
vn 0.000000 0.000000 -1.000000
vn 0.000000 1.000000 0.000000
vn 0.000000 1.000000 0.000000
vn 0.000000 1.000000 0.000000
vn 0.000000 1.000000 0.000000
vn 0.000000 -1.000000 0.000000
vn 0.000000 -1.000000 0.000000
vn 0.000000 -1.000000 0.000000
vn 0.000000 -1.000000 0.000000
vn -1.000000 0.000000 0.000000
vn -1.000000 0.000000 0.000000
vn -1.000000 0.000000 0.000000
vn -1.000000 0.000000 0.000000
vn -1.000000 0.000000 0.000000
vn 1.000000 0.000000 0.000000
vn 1.000000 0.000000 0.000000
vn 1.000000 0.000000 0.000000
vn 1.000000 0.000000 0.000000
vn 1.000000 0.000000 0.000000
vn 1.000000 0.000000 0.000000
vn 1.000000 0.000000 0.000000
vn 0.000000 1.000000 0.000001
vn 0.000000 1.000000 0.000001
vn 0.000000 1.000000 0.000001
vn 0.000000 1.000000 0.000001
vn 0.000000 1.000000 -0.000001
vn 0.000000 1.000000 -0.000001
vn 0.000000 1.000000 -0.000001
vn 0.000000 1.000000 -0.000001
vn 0.000000 0.000000 -1.000000
vn 0.000000 0.000000 -1.000000
vn 0.000000 0.000000 -1.000000
vn 0.000000 0.000000 -1.000000
vn -1.000000 0.000000 0.000000
vn -1.000000 0.000000 0.000000
vn -1.000000 0.000000 0.000000
vn -1.000000 0.000000 0.000000
vn 0.000000 0.000000 1.000000
vn 0.000000 0.000000 1.000000
vn 0.000000 0.000000 1.000000
vn 0.000000 0.000000 1.000000
vn 1.000000 0.000000 0.000000
vn 1.000000 0.000000 0.000000
vn 1.000000 0.000000 0.000000
vn 1.000000 0.000000 0.000000
vn 0.000000 0.000000 1.000000
vn 0.000000 0.000000 1.000000
vn 0.000000 0.000000 1.000000
vn 0.000000 0.000000 1.000000
vn 0.000000 1.000000 0.000000
vn 0.000000 1.000000 0.000000
vn 0.000000 1.000000 0.000000
vn 0.000000 1.000000 0.000000
vn 0.000000 -1.000000 0.000000
vn 0.000000 -1.000000 0.000000
vn 0.000000 -1.000000 0.000000
vn 0.000000 -1.000000 0.000000
vn 1.000000 0.000000 0.000000
vn 1.000000 0.000002 0.000000
vn 1.000000 0.000002 0.000000
vn -1.000000 0.000002 0.000000
vn -1.000000 0.000002 0.000000
vn -1.000000 0.000000 0.000000
vn 0.000000 0.000000 1.000000
vn 0.000000 0.000000 1.000000
vn 0.000000 0.000000 1.000000
vn 0.000000 0.000000 1.000000
vn -1.000000 -0.000000 0.000000
vn -1.000000 -0.000000 0.000000
vn -1.000000 -0.000000 0.000000
vn -1.000000 -0.000000 0.000000
vn 0.000000 0.000000 1.000000
vn 0.000000 0.000000 1.000000
vn 0.000000 0.000000 1.000000
vn 0.000000 0.000000 1.000000
vn 0.000000 0.000000 -1.000000
vn 0.000000 0.000000 -1.000000
vn 0.000000 0.000000 -1.000000
vn 0.000000 0.000000 -1.000000
vn 0.000000 1.000000 0.000000
vn 0.000000 1.000000 0.000000
vn 0.000000 1.000000 0.000000
vn 0.000000 1.000000 0.000000
vn 0.000000 -1.000000 0.000000
vn 0.000000 -1.000000 0.000000
vn 0.000000 -1.000000 0.000000
vn 0.000000 -1.000000 0.000000
vn -1.000000 0.000002 0.000000
vn -1.000000 0.000000 0.000000
vn -1.000000 0.000000 0.000000
vn -1.000000 0.000000 0.000000
vn -1.000000 0.000000 0.000000
vn 1.000000 0.000002 0.000000
vn 1.000000 -0.000000 0.000000
vn 1.000000 0.000000 0.000000
vn 1.000000 0.000000 0.000000
vn 1.000000 -0.000000 0.000000
vn 1.000000 -0.000000 0.000000
vn 1.000000 -0.000000 0.000000
vn 0.000000 0.000000 1.000000
vn 0.000000 0.000000 1.000000
vn 0.000000 0.000000 1.000000
vn 0.000000 0.000000 1.000000
vn 0.000000 1.000000 0.000000
vn 0.000000 1.000000 0.000000
vn 0.000000 1.000000 0.000000
vn 0.000000 1.000000 0.000000
vn 0.000000 -1.000000 0.000000
vn 0.000000 -1.000000 0.000000
vn 0.000000 -1.000000 0.000000
vn 0.000000 -1.000000 0.000000
vn 1.000000 0.000000 0.000000
vn 1.000000 0.000000 0.000000
vn 1.000000 0.000000 0.000000
vn -1.000000 -0.000002 0.000000
vn -1.000000 -0.000002 0.000000
vn -1.000000 0.000000 0.000000
vn 0.000000 0.000000 1.000000
vn 0.000000 0.000000 1.000000
vn 0.000000 0.000000 1.000000
vn 0.000000 0.000000 1.000000
vn -1.000000 0.000000 0.000000
vn -1.000000 0.000000 0.000000
vn -1.000000 0.000000 0.000000
vn -1.000000 0.000000 0.000000
vn 0.000000 0.000000 1.000000
vn 0.000000 0.000000 1.000000
vn 0.000000 0.000000 1.000000
vn 0.000000 0.000000 1.000000
vn 0.000000 0.000000 -1.000000
vn 0.000000 0.000000 -1.000000
vn 0.000000 0.000000 -1.000000
vn 0.000000 0.000000 -1.000000
vn 0.000000 1.000000 0.000000
vn 0.000000 1.000000 0.000000
vn 0.000000 1.000000 0.000000
vn 0.000000 1.000000 0.000000
vn 0.000000 -1.000000 0.000000
vn 0.000000 -1.000000 0.000000
vn 0.000000 -1.000000 0.000000
vn 0.000000 -1.000000 0.000000
vn -1.000000 -0.000002 0.000000
vn -1.000000 0.000000 0.000000
vn -1.000000 0.000000 0.000000
vn -1.000000 0.000000 0.000000
vn -1.000000 0.000000 0.000000
vn 1.000000 0.000000 0.000000
vn 1.000000 0.000000 0.000000
vn 1.000000 0.000000 0.000000
vn 1.000000 0.000000 0.000000
vn 1.000000 0.000000 0.000000
vn 1.000000 0.000000 0.000000
vn 1.000000 0.000000 0.000000
vn 0.000000 0.000000 1.000000
vn 0.000000 0.000000 1.000000
vn 0.000000 0.000000 1.000000
vn 0.000000 0.000000 1.000000
vn 0.000000 1.000000 0.000000
vn 0.000000 1.000000 0.000000
vn 0.000000 1.000000 0.000000
vn 0.000000 1.000000 0.000000
vn 0.000000 -1.000000 0.000000
vn 0.000000 -1.000000 0.000000
vn 0.000000 -1.000000 0.000000
vn 0.000000 -1.000000 0.000000
vn 0.000000 0.000001 1.000000
vn 0.000000 0.000001 1.000000
vn 0.000000 0.000001 1.000000
vn 0.000000 0.000001 1.000000
vn 0.000001 0.000000 1.000000
vn 0.000001 0.000000 1.000000
vn 0.000001 0.000000 1.000000
vn 0.000001 0.000000 1.000000
vn 0.000000 -0.000000 1.000000
vn 0.000000 -0.000000 1.000000
vn 0.000000 -0.000000 1.000000
vn 0.000000 -0.000000 1.000000
vn 0.000000 -0.000000 1.000000
vn 0.000000 -0.000000 1.000000
vn 0.000000 -0.000000 1.000000
vn 0.000000 -0.000000 1.000000
vn 1.000000 0.000000 0.000000
vn 1.000000 0.000000 0.000000
vn 1.000000 0.000000 0.000000
vn 1.000000 0.000000 0.000000
vn -0.000000 -0.000000 -1.000000
vn -0.000000 -0.000000 -1.000000
vn -0.000000 -0.000000 -1.000000
vn -0.000000 -0.000000 -1.000000
vn -1.000000 -0.000000 0.000000
vn -1.000000 -0.000000 0.000000
vn -1.000000 -0.000000 0.000000
vn -1.000000 -0.000000 0.000000
vn 0.000000 -1.000000 -0.000000
vn 0.000000 -1.000000 -0.000000
vn 0.000000 -1.000000 -0.000000
vn 0.000000 -1.000000 -0.000000
vn 1.000000 0.000000 -0.000000
vn 1.000000 0.000000 -0.000000
vn 1.000000 0.000000 -0.000000
vn 1.000000 0.000000 -0.000000
vn 0.000000 1.000000 -0.000000
vn 0.000000 1.000000 -0.000000
vn 0.000000 1.000000 -0.000000
vn 0.000000 1.000000 -0.000000
vn -1.000000 -0.000000 0.000000
vn -1.000000 -0.000000 0.000000
vn -1.000000 -0.000000 0.000000
vn -1.000000 -0.000000 0.000000
s off
g polySurface12
usemtl initialShadingGroup
f 11/1/1 12/2/2 4/3/3 3/4/4
f 3/5/5 4/6/6 6/7/7 5/8/8
f 7/9/9 8/10/10 2/11/11 1/12/12
s 1
f 12/2/13 15/13/14 4/3/15
s 2
f 3/4/16 16/14/17 11/1/18
s off
f 1/15/19 2/16/20 10/17/21 9/18/22
f 1/15/23 9/18/24 13/19/25 7/20/26
f 13/21/27 14/22/28 15/23/29 16/24/30
f 5/25/31 6/26/32 8/27/33 7/28/34
f 9/29/35 10/30/36 14/22/37 13/21/38
f 12/31/39 11/32/40 16/24/41 15/23/42
s 2
f 5/33/43 16/14/17 3/4/16
s off
f 16/14/44 5/33/45 7/20/46 13/19/47
s 1
f 4/3/15 15/13/14 6/34/48
s 3
f 8/35/49 6/34/50 15/13/51 14/36/52
f 8/35/49 14/36/52 10/17/53 2/16/54
s off
f 27/37/55 28/38/56 20/39/57 19/40/58
f 37/41/59 38/42/60 39/43/61 40/44/62
f 23/45/63 24/46/64 18/47/65 17/48/66
s 4
f 28/49/67 31/50/68 20/51/69
s 5
f 19/52/70 32/53/71 27/54/72
s off
f 17/55/73 18/56/74 26/57/75 25/58/76
f 17/59/77 25/60/78 29/61/79 23/62/80
f 29/63/81 30/64/82 31/65/83 32/66/84
f 21/67/85 22/68/86 24/69/87 23/70/88
f 25/71/89 26/72/90 30/73/91 29/74/92
f 28/75/93 27/76/94 32/77/95 31/78/96
s 5
f 21/79/97 32/53/71 19/52/70
s off
f 32/53/98 21/79/99 23/62/100 29/61/101
s 4
f 20/51/69 31/50/68 22/80/102
s 6
f 24/81/103 22/80/104 31/50/105 30/82/106
f 24/81/103 30/82/106 26/83/107 18/84/108
s 7
f 19/85/109 20/86/110 34/87/111 33/88/112
f 20/86/110 22/89/113 35/90/114 34/87/111
f 22/89/113 21/91/115 36/92/116 35/90/114
f 21/91/115 19/85/109 33/88/112 36/92/116
s off
f 33/93/117 34/94/118 38/95/119 37/96/120
f 34/94/121 35/97/122 39/98/123 38/95/124
f 35/97/125 36/99/126 40/100/127 39/98/128
f 36/101/129 33/93/130 37/96/131 40/102/132
f 51/103/133 52/104/134 44/105/135 43/106/136
f 43/107/137 44/108/138 46/109/139 45/110/140
f 47/111/141 48/112/142 42/113/143 41/114/144
s 8
f 52/104/145 55/115/146 44/105/147
s 9
f 43/106/148 56/116/149 51/103/150
s off
f 41/117/151 42/118/152 50/119/153 49/120/154
f 41/117/155 49/120/156 53/121/157 47/122/158
f 53/123/159 54/124/160 55/125/161 56/126/162
f 45/127/163 46/128/164 48/129/165 47/130/166
f 49/131/167 50/132/168 54/124/169 53/123/170
f 52/133/171 51/134/172 56/126/173 55/125/174
s 9
f 45/135/175 56/116/149 43/106/148
s off
f 56/116/176 45/135/177 47/122/178 53/121/179
s 8
f 44/105/147 55/115/146 46/136/180
s 10
f 48/137/181 46/136/182 55/115/183 54/138/184
f 48/137/181 54/138/184 50/119/185 42/118/186
s off
f 67/139/187 68/140/188 60/141/189 59/142/190
f 59/143/191 60/144/192 62/145/193 61/146/194
f 63/147/195 64/148/196 58/149/197 57/150/198
s 11
f 68/140/199 71/151/200 60/141/201
s 12
f 59/142/202 72/152/203 67/139/204
s off
f 57/153/205 58/154/206 66/155/207 65/156/208
f 57/153/209 65/156/210 69/157/211 63/158/212
f 69/159/213 70/160/214 71/161/215 72/162/216
f 61/163/217 62/164/218 64/165/219 63/166/220
f 65/167/221 66/168/222 70/160/223 69/159/224
f 68/169/225 67/170/226 72/162/227 71/161/228
s 12
f 61/171/229 72/152/203 59/142/202
s off
f 72/152/230 61/171/231 63/158/232 69/157/233
s 11
f 60/141/201 71/151/200 62/172/234
s 13
f 64/173/235 62/172/236 71/151/237 70/174/238
f 64/173/235 70/174/238 66/155/239 58/154/240
s off
f 75/175/241 83/176/242 84/177/243 76/178/244
f 78/179/245 77/180/246 75/181/247 76/182/248
f 74/183/249 73/184/250 79/185/251 80/186/252
f 82/187/253 81/188/254 73/189/255 74/190/256
f 73/189/257 81/188/258 83/176/259 75/175/260
f 86/191/261 85/192/262 87/193/263 88/194/264
f 76/178/265 84/177/266 82/187/267 74/190/268
f 78/195/269 76/196/270 74/197/271 80/198/272
f 80/199/273 79/200/274 77/201/275 78/202/276
f 75/203/277 77/204/278 79/205/279 73/206/280
f 84/207/281 83/208/282 85/209/283 86/210/284
f 83/211/285 81/212/286 87/213/287 85/214/288
f 81/215/289 82/216/290 88/217/291 87/218/292
f 82/219/293 84/220/294 86/221/295 88/222/296
