# This file uses centimeters as units for non-parametric coordinates.

mtllib CabinetVari_3.mtl
g default
v -49.595478 4.163635 81.190361
v 49.513241 4.163635 81.190361
v -49.595478 78.470215 81.190361
v 49.513241 78.470215 81.190361
v -49.595478 78.470215 -31.936752
v 49.513241 78.470215 -31.936752
v -49.595478 4.163635 -31.936752
v 49.513241 4.163635 -31.936752
v -49.595478 68.384216 81.190361
v 49.513241 68.384216 81.190361
v -49.595478 73.752686 81.190361
v 49.513241 73.752686 81.190361
v -49.595478 68.384216 77.563789
v 49.513241 68.384216 77.563789
v 49.513241 73.752686 77.563789
v -49.595478 73.752686 77.563789
v -43.843983 78.470215 75.081749
v 43.761745 78.470215 75.081749
v 43.761745 78.470215 -25.828140
v -43.843983 78.470215 -25.828140
v -43.843983 8.114929 75.081749
v 43.761745 8.114929 75.081749
v 43.761745 8.114929 -25.828140
v -43.843983 8.114929 -25.828140
v -49.595474 78.470215 43.440025
v 49.513241 78.470215 43.440025
v -49.595474 152.776794 43.440025
v 49.513241 152.776794 43.440025
v -49.595474 152.776794 -69.687080
v 49.513241 152.776794 -69.687080
v -49.595474 78.470215 -69.687080
v 49.513241 78.470215 -69.687080
v -49.595474 142.690796 43.440025
v 49.513241 142.690796 43.440025
v -49.595474 148.059326 43.440025
v 49.513241 148.059326 43.440025
v -49.595474 142.690796 39.813461
v 49.513241 142.690796 39.813461
v 49.513241 148.059326 39.813461
v -49.595474 148.059326 39.813461
v -53.884987 0.000000 40.709003
v 53.884991 0.000000 40.708988
v -53.884991 309.141907 40.708996
v 53.884991 309.141907 40.708996
v -53.884991 309.141907 -75.144798
v 53.884991 309.141907 -75.144798
v -53.884991 0.000000 -75.144791
v 53.884991 0.000000 -75.144798
v -50.093269 4.163727 40.708996
v 50.093204 4.163727 40.708988
v -50.093273 304.978210 40.708996
v 50.093197 304.978210 40.708996
v -50.093277 304.978210 -72.084984
v 50.093197 304.978210 -72.084984
v -50.093273 4.163727 -72.084984
v 50.093204 4.163727 -72.084991
v -49.595463 227.083557 45.749241
v 49.513252 227.083557 45.749241
v -49.595463 301.390167 45.749241
v 49.513252 301.390167 45.749241
v -49.595463 301.390167 -67.377876
v 49.513252 301.390167 -67.377876
v -49.595463 227.083557 -67.377876
v 49.513252 227.083557 -67.377876
v -49.595463 291.304169 45.749241
v 49.513252 291.304169 45.749241
v -49.595463 296.672638 45.749241
v 49.513252 296.672638 45.749241
v -49.595463 291.304169 42.122669
v 49.513252 291.304169 42.122669
v 49.513252 296.672638 42.122669
v -49.595463 296.672638 42.122669
v -49.595478 152.776794 58.301048
v 49.513241 152.776794 58.301048
v -49.595478 227.083374 58.301048
v 49.513241 227.083374 58.301048
v -49.595478 227.083374 -54.826065
v 49.513241 227.083374 -54.826065
v -49.595478 152.776794 -54.826065
v 49.513241 152.776794 -54.826065
v -49.595478 216.997375 58.301048
v 49.513241 216.997375 58.301048
v -49.595478 222.365845 58.301048
v 49.513241 222.365845 58.301048
v -49.595478 216.997375 54.674477
v 49.513241 216.997375 54.674477
v 49.513241 222.365845 54.674477
v -49.595478 222.365845 54.674477
v -43.843983 227.083374 52.192436
v 43.761745 227.083374 52.192436
v 43.761745 227.083374 -48.717453
v -43.843983 227.083374 -48.717453
v -43.843983 156.728088 52.192436
v 43.761745 156.728088 52.192436
v 43.761745 156.728088 -48.717453
v -43.843983 156.728088 -48.717453
vt 0.294088 0.664134
vt 0.294088 0.543598
vt 0.299825 0.543598
vt 0.299825 0.664134
vt 0.753115 0.869461
vt 0.859661 0.869461
vt 0.859661 0.992188
vt 0.753115 0.992188
vt 0.871574 0.456412
vt 0.992110 0.456412
vt 0.992110 0.593997
vt 0.871574 0.593997
vt 0.980887 0.145398
vt 0.980887 0.140987
vt 0.986624 0.145398
vt 0.986624 0.155269
vt 0.980887 0.159680
vt 0.980887 0.155269
vt 0.560620 0.990222
vt 0.560620 0.869686
vt 0.638725 0.869686
vt 0.638725 0.990222
vt 0.896253 0.155269
vt 0.974358 0.155269
vt 0.974358 0.159680
vt 0.896253 0.292854
vt 0.274345 0.664133
vt 0.274345 0.543598
vt 0.280874 0.543598
vt 0.280874 0.664133
vt 0.476711 0.519002
vt 0.476711 0.398466
vt 0.567083 0.398466
vt 0.567083 0.519002
vt 0.447097 0.504071
vt 0.447097 0.383535
vt 0.451507 0.383535
vt 0.451507 0.504071
vt 0.303434 0.393662
vt 0.303434 0.514198
vt 0.299023 0.514198
vt 0.299023 0.393662
vt 0.986624 0.292854
vt 0.986624 0.007812
vt 0.896253 0.007812
vt 0.974358 0.140987
vt 0.974358 0.145398
vt 0.896253 0.145398
vt 0.738308 0.603868
vt 0.858844 0.603868
vt 0.851849 0.611297
vt 0.745303 0.611297
vt 0.858844 0.741453
vt 0.851849 0.734024
vt 0.738308 0.741453
vt 0.745303 0.734024
vt 0.084127 0.533726
vt 0.147877 0.533726
vt 0.147877 0.393662
vt 0.084127 0.393662
vt 0.224191 0.533726
vt 0.224191 0.393662
vt 0.287941 0.533726
vt 0.287941 0.393662
vt 0.007812 0.533726
vt 0.007812 0.393662
vt 0.187661 0.944462
vt 0.312608 0.944319
vt 0.312608 0.950057
vt 0.187661 0.950200
vt 0.871574 0.603868
vt 0.992110 0.603868
vt 0.992110 0.741453
vt 0.871574 0.741453
vt 0.871574 0.751325
vt 0.992110 0.751325
vt 0.992110 0.888910
vt 0.871574 0.888910
vt 0.312608 0.944314
vt 0.187661 0.944468
vt 0.189812 0.859828
vt 0.310348 0.859685
vt 0.310348 0.937790
vt 0.189812 0.937933
vt 0.187661 0.937938
vt 0.052235 0.859992
vt 0.141079 0.695465
vt 0.261614 0.695465
vt 0.261614 0.701994
vt 0.141079 0.701994
vt 0.649464 0.990119
vt 0.649464 0.869581
vt 0.739834 0.869581
vt 0.739834 0.990119
vt 0.141079 0.691054
vt 0.261614 0.691054
vt 0.261614 0.706405
vt 0.141079 0.706405
vt 0.052235 0.950363
vt 0.447941 0.949893
vt 0.447941 0.859521
vt 0.312608 0.937785
vt 0.461904 0.759508
vt 0.466517 0.754444
vt 0.588362 0.754444
vt 0.592974 0.759508
vt 0.884185 0.148714
vt 0.753115 0.148714
vt 0.753115 0.007812
vt 0.884185 0.007812
vt 0.884185 0.299486
vt 0.753115 0.299486
vt 0.753115 0.158585
vt 0.884185 0.158585
vt 0.588362 0.388595
vt 0.466517 0.388595
vt 0.461904 0.383531
vt 0.592974 0.383531
vt 0.435677 0.749387
vt 0.313831 0.749387
vt 0.313831 0.383535
vt 0.435677 0.383535
vt 0.301723 0.383790
vt 0.160822 0.383790
vt 0.160822 0.007812
vt 0.301723 0.007812
vt 0.741048 0.383790
vt 0.609977 0.383790
vt 0.609977 0.007812
vt 0.741048 0.007812
vt 0.148714 0.383790
vt 0.007812 0.383790
vt 0.007812 0.007812
vt 0.148714 0.007812
vt 0.726888 0.530842
vt 0.605042 0.530842
vt 0.605042 0.393661
vt 0.726888 0.393661
vt 0.461904 0.373659
vt 0.461904 0.007812
vt 0.599085 0.007812
vt 0.599085 0.373659
vt 0.753115 0.309358
vt 0.874960 0.309358
vt 0.874960 0.446540
vt 0.753115 0.446540
vt 0.451010 0.007812
vt 0.451010 0.373663
vt 0.313831 0.373663
vt 0.313831 0.007812
vt 0.187661 0.844199
vt 0.312608 0.844056
vt 0.312608 0.849793
vt 0.187661 0.849936
vt 0.738308 0.456412
vt 0.858844 0.456412
vt 0.858844 0.593997
vt 0.738308 0.593997
vt 0.141079 0.543598
vt 0.261615 0.543598
vt 0.261615 0.681183
vt 0.141079 0.681183
vt 0.312608 0.844051
vt 0.187661 0.844204
vt 0.189812 0.759565
vt 0.310348 0.759422
vt 0.310348 0.837527
vt 0.189812 0.837670
vt 0.187661 0.837675
vt 0.052235 0.759728
vt 0.007812 0.695465
vt 0.128348 0.695465
vt 0.128348 0.701994
vt 0.007812 0.701994
vt 0.896253 0.423264
vt 0.896253 0.302726
vt 0.986623 0.302726
vt 0.986623 0.423264
vt 0.007812 0.691054
vt 0.128348 0.691054
vt 0.128348 0.706405
vt 0.007812 0.706405
vt 0.052235 0.850100
vt 0.447941 0.849630
vt 0.447941 0.759258
vt 0.312608 0.837521
vt 0.294088 0.664134
vt 0.294088 0.543598
vt 0.299825 0.543598
vt 0.299825 0.664134
vt 0.753115 0.869461
vt 0.859661 0.869461
vt 0.859661 0.992188
vt 0.753115 0.992188
vt 0.871574 0.456412
vt 0.992110 0.456412
vt 0.992110 0.593997
vt 0.871574 0.593997
vt 0.980887 0.145398
vt 0.980887 0.140987
vt 0.986624 0.145398
vt 0.986624 0.155269
vt 0.980887 0.159680
vt 0.980887 0.155269
vt 0.560620 0.990222
vt 0.560620 0.869686
vt 0.638725 0.869686
vt 0.638725 0.990222
vt 0.896253 0.155269
vt 0.974358 0.155269
vt 0.974358 0.159680
vt 0.896253 0.292854
vt 0.274345 0.664133
vt 0.274345 0.543598
vt 0.280874 0.543598
vt 0.280874 0.664133
vt 0.476711 0.519002
vt 0.476711 0.398466
vt 0.567083 0.398466
vt 0.567083 0.519002
vt 0.447097 0.504071
vt 0.447097 0.383535
vt 0.451507 0.383535
vt 0.451507 0.504071
vt 0.303434 0.393662
vt 0.303434 0.514198
vt 0.299023 0.514198
vt 0.299023 0.393662
vt 0.986624 0.292854
vt 0.986624 0.007812
vt 0.896253 0.007812
vt 0.974358 0.140987
vt 0.974358 0.145398
vt 0.896253 0.145398
vt 0.738308 0.603868
vt 0.858844 0.603868
vt 0.851849 0.611297
vt 0.745303 0.611297
vt 0.858844 0.741453
vt 0.851849 0.734024
vt 0.738308 0.741453
vt 0.745303 0.734024
vt 0.084127 0.533726
vt 0.147877 0.533726
vt 0.147877 0.393662
vt 0.084127 0.393662
vt 0.224191 0.533726
vt 0.224191 0.393662
vt 0.287941 0.533726
vt 0.287941 0.393662
vt 0.007812 0.533726
vt 0.007812 0.393662
vn 0.000000 0.000000 1.000000
vn 0.000000 0.000000 1.000000
vn 0.000000 0.000000 1.000000
vn 0.000000 0.000000 1.000000
vn 0.000000 1.000000 0.000000
vn 0.000000 1.000000 0.000000
vn 0.000000 1.000000 0.000000
vn 0.000000 1.000000 0.000000
vn 0.000000 -1.000000 0.000000
vn 0.000000 -1.000000 0.000000
vn 0.000000 -1.000000 0.000000
vn 0.000000 -1.000000 0.000000
vn 1.000000 0.000000 0.000000
vn 1.000000 0.000000 0.000000
vn 1.000000 0.000000 0.000000
vn -1.000000 0.000000 0.000000
vn -1.000000 0.000000 0.000000
vn -1.000000 0.000000 0.000000
vn 0.000000 0.000000 1.000000
vn 0.000000 0.000000 1.000000
vn 0.000000 0.000000 1.000000
vn 0.000000 0.000000 1.000000
vn -1.000000 0.000000 0.000000
vn -1.000000 0.000000 0.000000
vn -1.000000 0.000000 0.000000
vn -1.000000 0.000000 0.000000
vn 0.000000 0.000000 1.000000
vn 0.000000 0.000000 1.000000
vn 0.000000 0.000000 1.000000
vn 0.000000 0.000000 1.000000
vn 0.000000 0.000000 -1.000000
vn 0.000000 0.000000 -1.000000
vn 0.000000 0.000000 -1.000000
vn 0.000000 0.000000 -1.000000
vn 0.000000 1.000000 0.000000
vn 0.000000 1.000000 0.000000
vn 0.000000 1.000000 0.000000
vn 0.000000 1.000000 0.000000
vn 0.000000 -1.000000 0.000000
vn 0.000000 -1.000000 0.000000
vn 0.000000 -1.000000 0.000000
vn 0.000000 -1.000000 0.000000
vn -1.000000 0.000000 0.000000
vn -1.000000 0.000000 0.000000
vn -1.000000 0.000000 0.000000
vn -1.000000 0.000000 0.000000
vn -1.000000 0.000000 0.000000
vn 1.000000 0.000000 0.000000
vn 1.000000 0.000000 0.000000
vn 1.000000 0.000000 0.000000
vn 1.000000 0.000000 0.000000
vn 1.000000 0.000000 0.000000
vn 1.000000 0.000000 0.000000
vn 1.000000 0.000000 0.000000
vn 0.000000 1.000000 0.000000
vn 0.000000 1.000000 0.000000
vn 0.000000 1.000000 0.000000
vn 0.000000 1.000000 0.000000
vn 0.000000 1.000000 -0.000000
vn 0.000000 1.000000 -0.000000
vn 0.000000 1.000000 -0.000000
vn 0.000000 1.000000 -0.000000
vn 0.000000 0.000000 -1.000000
vn 0.000000 0.000000 -1.000000
vn 0.000000 0.000000 -1.000000
vn 0.000000 0.000000 -1.000000
vn -1.000000 0.000000 0.000000
vn -1.000000 0.000000 0.000000
vn -1.000000 0.000000 0.000000
vn -1.000000 0.000000 0.000000
vn 0.000000 0.000000 1.000000
vn 0.000000 0.000000 1.000000
vn 0.000000 0.000000 1.000000
vn 0.000000 0.000000 1.000000
vn 1.000000 0.000000 0.000000
vn 1.000000 0.000000 0.000000
vn 1.000000 0.000000 0.000000
vn 1.000000 0.000000 0.000000
vn 0.000000 0.000000 1.000000
vn 0.000000 0.000000 1.000000
vn 0.000000 0.000000 1.000000
vn 0.000000 0.000000 1.000000
vn 0.000000 1.000000 0.000000
vn 0.000000 1.000000 0.000000
vn 0.000000 1.000000 0.000000
vn 0.000000 1.000000 0.000000
vn 0.000000 -1.000000 0.000000
vn 0.000000 -1.000000 0.000000
vn 0.000000 -1.000000 0.000000
vn 0.000000 -1.000000 0.000000
vn 1.000000 0.000000 0.000000
vn 1.000000 0.000000 0.000000
vn 1.000000 0.000000 0.000000
vn -1.000000 0.000002 0.000000
vn -1.000000 0.000002 0.000000
vn -1.000000 0.000000 0.000000
vn 0.000000 0.000000 1.000000
vn 0.000000 0.000000 1.000000
vn 0.000000 0.000000 1.000000
vn 0.000000 0.000000 1.000000
vn -1.000000 -0.000000 0.000000
vn -1.000000 -0.000000 0.000000
vn -1.000000 -0.000000 0.000000
vn -1.000000 -0.000000 0.000000
vn 0.000000 0.000000 1.000000
vn 0.000000 0.000000 1.000000
vn 0.000000 0.000000 1.000000
vn 0.000000 0.000000 1.000000
vn 0.000000 0.000000 -1.000000
vn 0.000000 0.000000 -1.000000
vn 0.000000 0.000000 -1.000000
vn 0.000000 0.000000 -1.000000
vn 0.000000 1.000000 0.000000
vn 0.000000 1.000000 0.000000
vn 0.000000 1.000000 0.000000
vn 0.000000 1.000000 0.000000
vn 0.000000 -1.000000 0.000000
vn 0.000000 -1.000000 0.000000
vn 0.000000 -1.000000 0.000000
vn 0.000000 -1.000000 0.000000
vn -1.000000 0.000002 0.000000
vn -1.000000 0.000000 0.000000
vn -1.000000 0.000000 0.000000
vn -1.000000 0.000000 0.000000
vn -1.000000 0.000000 0.000000
vn 1.000000 0.000000 0.000000
vn 1.000000 0.000000 0.000000
vn 1.000000 0.000000 0.000000
vn 1.000000 0.000000 0.000000
vn 1.000000 0.000000 0.000000
vn 1.000000 0.000000 0.000000
vn 1.000000 0.000000 0.000000
vn 0.000000 0.000000 1.000000
vn 0.000000 0.000000 1.000000
vn 0.000000 0.000000 1.000000
vn 0.000000 0.000000 1.000000
vn 0.000000 1.000000 0.000000
vn 0.000000 1.000000 0.000000
vn 0.000000 1.000000 0.000000
vn 0.000000 1.000000 0.000000
vn 0.000000 -1.000000 0.000000
vn 0.000000 -1.000000 0.000000
vn 0.000000 -1.000000 0.000000
vn 0.000000 -1.000000 0.000000
vn 0.000000 0.000001 1.000000
vn 0.000000 0.000001 1.000000
vn 0.000000 0.000001 1.000000
vn 0.000000 0.000001 1.000000
vn 0.000001 0.000000 1.000000
vn 0.000001 0.000000 1.000000
vn 0.000001 0.000000 1.000000
vn 0.000001 0.000000 1.000000
vn 0.000000 -0.000000 1.000000
vn 0.000000 -0.000000 1.000000
vn 0.000000 -0.000000 1.000000
vn 0.000000 -0.000000 1.000000
vn 0.000000 -0.000000 1.000000
vn 0.000000 -0.000000 1.000000
vn 0.000000 -0.000000 1.000000
vn 0.000000 -0.000000 1.000000
vn 1.000000 0.000000 0.000000
vn 1.000000 0.000000 0.000000
vn 1.000000 0.000000 0.000000
vn 1.000000 0.000000 0.000000
vn -0.000000 -0.000000 -1.000000
vn -0.000000 -0.000000 -1.000000
vn -0.000000 -0.000000 -1.000000
vn -0.000000 -0.000000 -1.000000
vn -1.000000 -0.000000 0.000000
vn -1.000000 -0.000000 0.000000
vn -1.000000 -0.000000 0.000000
vn -1.000000 -0.000000 0.000000
vn 0.000000 -1.000000 -0.000000
vn 0.000000 -1.000000 -0.000000
vn 0.000000 -1.000000 -0.000000
vn 0.000000 -1.000000 -0.000000
vn 1.000000 0.000000 -0.000000
vn 1.000000 0.000000 -0.000000
vn 1.000000 0.000000 -0.000000
vn 1.000000 0.000000 -0.000000
vn 0.000000 1.000000 -0.000000
vn 0.000000 1.000000 -0.000000
vn 0.000000 1.000000 -0.000000
vn 0.000000 1.000000 -0.000000
vn -1.000000 -0.000000 0.000000
vn -1.000000 -0.000000 0.000000
vn -1.000000 -0.000000 0.000000
vn -1.000000 -0.000000 0.000000
vn 0.000000 0.000000 1.000000
vn 0.000000 0.000000 1.000000
vn 0.000000 0.000000 1.000000
vn 0.000000 0.000000 1.000000
vn 0.000000 1.000000 0.000000
vn 0.000000 1.000000 0.000000
vn 0.000000 1.000000 0.000000
vn 0.000000 1.000000 0.000000
vn 0.000000 -1.000000 0.000000
vn 0.000000 -1.000000 0.000000
vn 0.000000 -1.000000 0.000000
vn 0.000000 -1.000000 0.000000
vn 1.000000 0.000000 0.000000
vn 1.000000 0.000002 0.000000
vn 1.000000 0.000002 0.000000
vn -1.000000 0.000000 0.000000
vn -1.000000 0.000000 0.000000
vn -1.000000 0.000000 0.000000
vn 0.000000 0.000000 1.000000
vn 0.000000 0.000000 1.000000
vn 0.000000 0.000000 1.000000
vn 0.000000 0.000000 1.000000
vn -1.000000 0.000000 0.000000
vn -1.000000 0.000000 0.000000
vn -1.000000 0.000000 0.000000
vn -1.000000 0.000000 0.000000
vn 0.000000 0.000000 1.000000
vn 0.000000 0.000000 1.000000
vn 0.000000 0.000000 1.000000
vn 0.000000 0.000000 1.000000
vn 0.000000 0.000000 -1.000000
vn 0.000000 0.000000 -1.000000
vn 0.000000 0.000000 -1.000000
vn 0.000000 0.000000 -1.000000
vn 0.000000 1.000000 0.000000
vn 0.000000 1.000000 0.000000
vn 0.000000 1.000000 0.000000
vn 0.000000 1.000000 0.000000
vn 0.000000 -1.000000 0.000000
vn 0.000000 -1.000000 0.000000
vn 0.000000 -1.000000 0.000000
vn 0.000000 -1.000000 0.000000
vn -1.000000 0.000000 0.000000
vn -1.000000 0.000000 0.000000
vn -1.000000 0.000000 0.000000
vn -1.000000 0.000000 0.000000
vn -1.000000 0.000000 0.000000
vn 1.000000 0.000002 0.000000
vn 1.000000 -0.000000 0.000000
vn 1.000000 0.000000 0.000000
vn 1.000000 0.000000 0.000000
vn 1.000000 -0.000000 0.000000
vn 1.000000 -0.000000 0.000000
vn 1.000000 -0.000000 0.000000
vn 0.000000 0.000000 1.000000
vn 0.000000 0.000000 1.000000
vn 0.000000 0.000000 1.000000
vn 0.000000 0.000000 1.000000
vn 0.000000 1.000000 0.000000
vn 0.000000 1.000000 0.000000
vn 0.000000 1.000000 0.000000
vn 0.000000 1.000000 0.000000
vn 0.000000 -1.000000 0.000000
vn 0.000000 -1.000000 0.000000
vn 0.000000 -1.000000 0.000000
vn 0.000000 -1.000000 0.000000
vn 1.000000 0.000000 0.000000
vn 1.000000 0.000000 0.000000
vn 1.000000 0.000000 0.000000
vn -1.000000 0.000000 0.000000
vn -1.000000 0.000000 0.000000
vn -1.000000 0.000000 0.000000
vn 0.000000 0.000000 1.000000
vn 0.000000 0.000000 1.000000
vn 0.000000 0.000000 1.000000
vn 0.000000 0.000000 1.000000
vn -1.000000 0.000000 0.000000
vn -1.000000 0.000000 0.000000
vn -1.000000 0.000000 0.000000
vn -1.000000 0.000000 0.000000
vn 0.000000 0.000000 1.000000
vn 0.000000 0.000000 1.000000
vn 0.000000 0.000000 1.000000
vn 0.000000 0.000000 1.000000
vn 0.000000 0.000000 -1.000000
vn 0.000000 0.000000 -1.000000
vn 0.000000 0.000000 -1.000000
vn 0.000000 0.000000 -1.000000
vn 0.000000 1.000000 0.000000
vn 0.000000 1.000000 0.000000
vn 0.000000 1.000000 0.000000
vn 0.000000 1.000000 0.000000
vn 0.000000 -1.000000 0.000000
vn 0.000000 -1.000000 0.000000
vn 0.000000 -1.000000 0.000000
vn 0.000000 -1.000000 0.000000
vn -1.000000 0.000000 0.000000
vn -1.000000 0.000000 0.000000
vn -1.000000 0.000000 0.000000
vn -1.000000 0.000000 0.000000
vn -1.000000 0.000000 0.000000
vn 1.000000 0.000000 0.000000
vn 1.000000 0.000000 0.000000
vn 1.000000 0.000000 0.000000
vn 1.000000 0.000000 0.000000
vn 1.000000 0.000000 0.000000
vn 1.000000 0.000000 0.000000
vn 1.000000 0.000000 0.000000
vn 0.000000 1.000000 0.000001
vn 0.000000 1.000000 0.000001
vn 0.000000 1.000000 0.000001
vn 0.000000 1.000000 0.000001
vn 0.000000 1.000000 -0.000001
vn 0.000000 1.000000 -0.000001
vn 0.000000 1.000000 -0.000001
vn 0.000000 1.000000 -0.000001
vn 0.000000 0.000000 -1.000000
vn 0.000000 0.000000 -1.000000
vn 0.000000 0.000000 -1.000000
vn 0.000000 0.000000 -1.000000
vn -1.000000 0.000000 0.000000
vn -1.000000 0.000000 0.000000
vn -1.000000 0.000000 0.000000
vn -1.000000 0.000000 0.000000
vn 0.000000 0.000000 1.000000
vn 0.000000 0.000000 1.000000
vn 0.000000 0.000000 1.000000
vn 0.000000 0.000000 1.000000
vn 1.000000 0.000000 0.000000
vn 1.000000 0.000000 0.000000
vn 1.000000 0.000000 0.000000
vn 1.000000 0.000000 0.000000
s off
g polySurface14
usemtl initialShadingGroup
f 11/1/1 12/2/2 4/3/3 3/4/4
f 21/5/5 22/6/6 23/7/7 24/8/8
f 7/9/9 8/10/10 2/11/11 1/12/12
s 1
f 12/13/13 15/14/14 4/15/15
s 2
f 3/16/16 16/17/17 11/18/18
s off
f 1/19/19 2/20/20 10/21/21 9/22/22
f 1/23/23 9/24/24 13/25/25 7/26/26
f 13/27/27 14/28/28 15/29/29 16/30/30
f 5/31/31 6/32/32 8/33/33 7/34/34
f 9/35/35 10/36/36 14/37/37 13/38/38
f 12/39/39 11/40/40 16/41/41 15/42/42
s 2
f 5/43/43 16/17/17 3/16/16
s off
f 16/17/44 5/43/45 7/26/46 13/25/47
s 1
f 4/15/15 15/14/14 6/44/48
s 3
f 8/45/49 6/44/50 15/14/51 14/46/52
f 8/45/49 14/46/52 10/47/53 2/48/54
s 4
f 3/49/55 4/50/56 18/51/57 17/52/58
f 4/50/56 6/53/59 19/54/60 18/51/57
f 6/53/59 5/55/61 20/56/62 19/54/60
f 5/55/61 3/49/55 17/52/58 20/56/62
s off
f 17/57/63 18/58/64 22/59/65 21/60/66
f 18/58/67 19/61/68 23/62/69 22/59/70
f 19/61/71 20/63/72 24/64/73 23/62/74
f 20/65/75 17/57/76 21/60/77 24/66/78
f 35/67/79 36/68/80 28/69/81 27/70/82
f 27/71/83 28/72/84 30/73/85 29/74/86
f 31/75/87 32/76/88 26/77/89 25/78/90
s 5
f 36/68/91 39/79/92 28/69/93
s 6
f 27/70/94 40/80/95 35/67/96
s off
f 25/81/97 26/82/98 34/83/99 33/84/100
f 25/81/101 33/84/102 37/85/103 31/86/104
f 37/87/105 38/88/106 39/89/107 40/90/108
f 29/91/109 30/92/110 32/93/111 31/94/112
f 33/95/113 34/96/114 38/88/115 37/87/116
f 36/97/117 35/98/118 40/90/119 39/89/120
s 6
f 29/99/121 40/80/95 27/70/94
s off
f 40/80/122 29/99/123 31/86/124 37/85/125
s 5
f 28/69/93 39/79/92 30/100/126
s 7
f 32/101/127 30/100/128 39/79/129 38/102/130
f 32/101/127 38/102/130 34/83/131 26/82/132
s off
f 43/103/133 51/104/134 52/105/135 44/106/136
f 46/107/137 45/108/138 43/109/139 44/110/140
f 42/111/141 41/112/142 47/113/143 48/114/144
f 50/115/145 49/116/146 41/117/147 42/118/148
f 41/117/149 49/116/150 51/104/151 43/103/152
f 54/119/153 53/120/154 55/121/155 56/122/156
f 44/106/157 52/105/158 50/115/159 42/118/160
f 46/123/161 44/124/162 42/125/163 48/126/164
f 48/127/165 47/128/166 45/129/167 46/130/168
f 43/131/169 45/132/170 47/133/171 41/134/172
f 52/135/173 51/136/174 53/137/175 54/138/176
f 51/139/177 49/140/178 55/141/179 53/142/180
f 49/143/181 50/144/182 56/145/183 55/146/184
f 50/147/185 52/148/186 54/149/187 56/150/188
f 67/151/189 68/152/190 60/153/191 59/154/192
f 59/155/193 60/156/194 62/157/195 61/158/196
f 63/159/197 64/160/198 58/161/199 57/162/200
s 8
f 68/152/201 71/163/202 60/153/203
s 9
f 59/154/204 72/164/205 67/151/206
s off
f 57/165/207 58/166/208 66/167/209 65/168/210
f 57/165/211 65/168/212 69/169/213 63/170/214
f 69/171/215 70/172/216 71/173/217 72/174/218
f 61/175/219 62/176/220 64/177/221 63/178/222
f 65/179/223 66/180/224 70/172/225 69/171/226
f 68/181/227 67/182/228 72/174/229 71/173/230
s 9
f 61/183/231 72/164/205 59/154/204
s off
f 72/164/232 61/183/233 63/170/234 69/169/235
s 8
f 60/153/203 71/163/202 62/184/236
s 10
f 64/185/237 62/184/238 71/163/239 70/186/240
f 64/185/237 70/186/240 66/167/241 58/166/242
s off
f 83/187/243 84/188/244 76/189/245 75/190/246
f 93/191/247 94/192/248 95/193/249 96/194/250
f 79/195/251 80/196/252 74/197/253 73/198/254
s 11
f 84/199/255 87/200/256 76/201/257
s 12
f 75/202/258 88/203/259 83/204/260
s off
f 73/205/261 74/206/262 82/207/263 81/208/264
f 73/209/265 81/210/266 85/211/267 79/212/268
f 85/213/269 86/214/270 87/215/271 88/216/272
f 77/217/273 78/218/274 80/219/275 79/220/276
f 81/221/277 82/222/278 86/223/279 85/224/280
f 84/225/281 83/226/282 88/227/283 87/228/284
s 12
f 77/229/285 88/203/259 75/202/258
s off
f 88/203/286 77/229/287 79/212/288 85/211/289
s 11
f 76/201/257 87/200/256 78/230/290
s 13
f 80/231/291 78/230/292 87/200/293 86/232/294
f 80/231/291 86/232/294 82/233/295 74/234/296
s 14
f 75/235/297 76/236/298 90/237/299 89/238/300
f 76/236/298 78/239/301 91/240/302 90/237/299
f 78/239/301 77/241/303 92/242/304 91/240/302
f 77/241/303 75/235/297 89/238/300 92/242/304
s off
f 89/243/305 90/244/306 94/245/307 93/246/308
f 90/244/309 91/247/310 95/248/311 94/245/312
f 91/247/313 92/249/314 96/250/315 95/248/316
f 92/251/317 89/243/318 93/246/319 96/252/320
