# This file uses centimeters as units for non-parametric coordinates.

mtllib Cabinet2.mtl
g default
v -127.793793 0.000000 55.726629
v 127.790070 -0.005753 55.726606
v -127.793793 0.000000 -58.382860
v 127.790070 -0.005722 -58.382860
v 122.901642 -0.005753 55.726606
v -122.709076 0.000015 55.726629
v -125.883148 0.000000 -54.836443
v 125.879425 -0.005753 -54.836443
v 127.793854 457.548904 55.726530
v 125.883331 457.549149 -54.836443
v -125.883209 457.555252 -54.836443
v -127.793854 457.560989 55.726629
v -127.793854 457.555252 -58.382860
v 127.793854 457.541458 -58.382860
v 122.905304 456.008621 55.726606
v -122.709137 455.998062 55.726629
v -122.715302 455.992508 -54.836458
v 122.899200 456.008621 -54.836458
v 122.901642 2.023651 55.726606
v -122.709076 2.029327 55.726629
v -122.709076 2.029312 -54.836458
v 122.901642 2.023651 -54.836458
v -125.883148 0.000000 51.930555
v -125.883209 457.560806 51.930555
v 125.883331 457.549149 51.930532
v 125.879425 -0.005753 51.930532
v -127.793854 457.555252 -54.836443
v -127.793793 0.000000 -54.836443
v 127.793854 457.541458 -54.836443
v 127.790070 -0.005722 -54.836443
v -127.793793 0.000000 51.930555
v -127.793854 457.560806 51.930555
v 127.793854 457.548904 51.930479
v 127.790070 -0.005753 51.930532
vt 0.843753 0.499501
vt 0.694208 0.500505
vt 0.694208 0.996094
vt 0.847594 0.003906
vt 0.847594 0.499501
vt 0.965306 0.499501
vt 0.971487 0.003906
vt 0.967375 0.499501
vt 0.967375 0.003906
vt 0.574426 0.500505
vt 0.574426 0.996094
vt 0.238282 0.996089
vt 0.238282 0.504382
vt 0.358036 0.504382
vt 0.358036 0.996083
vt 0.707033 0.500513
vt 0.826788 0.500513
vt 0.826788 0.992237
vt 0.707033 0.992237
vt 0.365235 0.504385
vt 0.484990 0.504385
vt 0.484990 0.770413
vt 0.365235 0.770413
vt 0.836349 0.003906
vt 0.836347 0.495631
vt 0.570314 0.495613
vt 0.570321 0.003912
vt 0.971487 0.499501
vt 0.275442 0.006104
vt 0.280737 0.003906
vt 0.280741 0.499497
vt 0.275446 0.497829
vt 0.275442 0.003906
vt 0.003906 0.499510
vt 0.009414 0.497817
vt 0.009414 0.006110
vt 0.009414 0.003913
vt 0.003906 0.003912
vt 0.111328 0.504389
vt 0.231083 0.504383
vt 0.231083 0.770415
vt 0.111328 0.770422
vt 0.570314 0.500505
vt 0.576495 0.500505
vt 0.570314 0.996094
vt 0.576495 0.996094
vt 0.692138 0.500505
vt 0.698049 0.500505
vt 0.692138 0.996094
vt 0.698049 0.996094
vt 0.965306 0.003906
vt 0.843753 0.003906
vt 0.849663 0.003906
vt 0.849663 0.499501
vt 0.260379 0.285755
vt 0.260379 0.013060
vt 0.264221 0.010990
vt 0.264221 0.287825
vt 0.144737 0.013060
vt 0.144737 0.285755
vt 0.260379 0.010990
vt 0.260379 0.287825
vt 0.140625 0.010990
vt 0.140625 0.287825
vt 0.144737 0.010990
vt 0.144737 0.287825
vt 0.833987 0.781214
vt 0.837828 0.779145
vt 0.837828 0.781214
vt 0.833987 0.504384
vt 0.837828 0.506453
vt 0.837828 0.504384
vt 0.953471 0.506453
vt 0.953471 0.779145
vt 0.957582 0.509679
vt 0.957582 0.775707
vt 0.957582 0.504384
vt 0.957582 0.781214
vt 0.953471 0.504384
vt 0.953471 0.781214
vt 0.563945 0.003921
vt 0.563941 0.499504
vt 0.287110 0.499498
vt 0.287110 0.003906
vn 0.000039 0.999999 -0.001087
vn 0.000039 0.999999 -0.001087
vn 0.000039 0.999999 -0.001087
vn 0.000039 0.999999 -0.001087
vn 0.000009 0.000000 1.000000
vn 0.000009 0.000000 1.000000
vn 0.000009 0.000000 1.000000
vn 0.000009 0.000000 1.000000
vn 1.000000 -0.000009 0.000000
vn 1.000000 -0.000009 0.000000
vn 1.000000 -0.000009 0.000000
vn 1.000000 -0.000009 0.000000
vn 1.000000 -0.000008 0.000000
vn 1.000000 -0.000008 0.000000
vn 1.000000 -0.000008 0.000000
vn 1.000000 -0.000008 0.000000
vn -0.000000 0.000000 -1.000000
vn -0.000000 0.000000 -1.000000
vn -0.000000 0.000000 -1.000000
vn -0.000000 0.000000 -1.000000
vn -1.000000 -0.000000 0.000000
vn -1.000000 -0.000000 0.000000
vn -1.000000 -0.000000 0.000000
vn -1.000000 -0.000000 0.000000
vn -1.000000 -0.000000 0.000000
vn -1.000000 -0.000000 0.000000
vn -1.000000 -0.000000 0.000000
vn -1.000000 -0.000000 0.000000
vn -0.000001 0.000000 1.000000
vn -0.000001 0.000000 1.000000
vn -0.000001 0.000000 1.000000
vn -0.000001 0.000000 1.000000
vn 1.000000 0.000007 -0.000028
vn 1.000000 0.000007 -0.000028
vn 1.000000 0.000007 -0.000028
vn 1.000000 0.000007 -0.000028
vn 0.000000 0.000000 1.000000
vn 0.000000 0.000000 1.000000
vn 0.000000 0.000000 1.000000
vn 0.000000 0.000000 1.000000
vn -1.000000 0.000001 0.000028
vn -1.000000 0.000001 0.000028
vn -1.000000 0.000001 0.000028
vn -1.000000 0.000001 0.000028
vn 0.000054 -1.000000 0.000025
vn 0.000054 -1.000000 0.000025
vn 0.000054 -1.000000 0.000025
vn 0.000054 -1.000000 0.000025
vn 0.000035 1.000000 -0.000026
vn 0.000035 1.000000 -0.000026
vn 0.000035 1.000000 -0.000026
vn 0.000035 1.000000 -0.000026
vn 0.000000 0.000025 1.000000
vn 0.000000 0.000025 1.000000
vn 0.000000 0.000025 1.000000
vn 0.000000 0.000025 1.000000
vn 0.000000 0.000000 1.000000
vn 0.000000 0.000000 1.000000
vn 0.000000 0.000000 1.000000
vn -0.000000 0.000000 1.000000
vn -0.000000 0.000000 1.000000
vn -0.000000 0.000000 1.000000
vn 0.000023 1.000000 -0.000000
vn 0.000023 1.000000 -0.000000
vn 0.000023 1.000000 -0.000000
vn 0.000023 1.000000 -0.000000
vn 0.000000 0.000000 1.000000
vn 0.000000 0.000000 1.000000
vn 0.000000 0.000000 1.000000
vn 0.000000 0.000000 1.000000
vn -1.000000 -0.000000 0.000000
vn -1.000000 -0.000000 0.000000
vn -1.000000 -0.000000 0.000000
vn -1.000000 -0.000000 0.000000
vn 0.000047 1.000000 -0.000016
vn 0.000047 1.000000 -0.000016
vn 0.000047 1.000000 -0.000016
vn 0.000047 1.000000 -0.000016
vn 1.000000 -0.000008 0.000000
vn 1.000000 -0.000008 0.000000
vn 1.000000 -0.000008 0.000000
vn 1.000000 -0.000008 0.000000
vn 0.000000 1.000000 0.000000
vn 0.000000 1.000000 0.000000
vn 0.000000 1.000000 0.000000
vn 0.000000 0.000000 1.000000
vn 0.000000 0.000000 1.000000
vn 0.000000 0.000000 1.000000
vn 0.000000 0.000000 1.000000
vn 0.000000 -1.000000 0.000000
vn 0.000000 -1.000000 0.000000
vn 0.000000 -1.000000 0.000000
vn 0.004025 0.999992 0.000000
vn 0.004025 0.999992 0.000000
vn 0.004025 0.999992 0.000000
vn 0.000002 0.000000 1.000000
vn 0.000002 0.000000 1.000000
vn 0.000002 0.000000 1.000000
vn 0.000002 0.000000 1.000000
vn 0.000016 -1.000000 0.000000
vn 0.000016 -1.000000 0.000000
vn 0.000016 -1.000000 0.000000
vn 0.000000 -1.000000 0.000000
vn 0.000000 -1.000000 0.000000
vn 0.000000 -1.000000 0.000000
vn 0.000000 0.000000 -1.000000
vn 0.000000 0.000000 -1.000000
vn 0.000000 0.000000 -1.000000
vn 0.000000 0.000000 -1.000000
vn 0.000000 1.000000 -0.000067
vn 0.000000 1.000000 -0.000067
vn 0.000000 1.000000 -0.000067
vn 0.000128 1.000000 0.000000
vn 0.000128 1.000000 0.000000
vn 0.000128 1.000000 0.000000
vn -0.000011 -0.000000 -1.000000
vn -0.000011 -0.000000 -1.000000
vn -0.000011 -0.000000 -1.000000
vn -0.000011 -0.000000 -1.000000
vn 0.000000 -1.000000 0.000000
vn 0.000000 -1.000000 0.000000
vn 0.000000 -1.000000 0.000000
vn -0.000023 -1.000000 0.000000
vn -0.000023 -1.000000 0.000000
vn -0.000023 -1.000000 0.000000
vn -0.000023 -1.000000 0.000000
vn -0.000023 -1.000000 -0.000009
vn -0.000023 -1.000000 -0.000009
vn -0.000023 -1.000000 -0.000009
vn -0.000023 -1.000000 -0.000009
vn 0.000003 -1.000000 0.000000
vn 0.000003 -1.000000 0.000000
vn 0.000003 -1.000000 0.000000
vn 0.000000 -1.000000 0.000000
vn 0.000000 -1.000000 0.000000
vn 0.000000 -1.000000 0.000000
vn -0.000023 -1.000000 0.000008
vn -0.000023 -1.000000 0.000008
vn -0.000023 -1.000000 0.000008
vn -0.000023 -1.000000 0.000008
s off
g polySurface23 pCube36
usemtl initialShadingGroup
f 11/55/1 10/56/2 14/57/3 13/58/4
f 19/29/5 2/30/6 9/31/7 15/32/8
f 25/46/9 26/44/10 8/47/11 10/49/12
f 30/2/13 4/48/14 14/50/15 29/3/16
f 14/81/17 4/82/18 3/83/19 13/84/20
f 3/52/21 28/4/22 27/5/23 13/1/24
f 7/53/25 23/51/26 24/6/27 11/54/28
f 1/38/29 20/36/30 16/35/31 12/34/32
f 16/12/33 20/13/34 21/14/35 17/15/36
f 22/24/37 18/25/38 17/26/39 21/27/40
f 22/16/41 19/17/42 15/18/43 18/19/44
f 18/39/45 15/40/46 16/41/47 17/42/48
f 25/59/49 10/56/50 11/55/51 24/60/52
f 15/32/53 9/31/54 12/34/55 16/35/56
f 2/30/57 19/29/58 5/33/59
f 6/37/60 20/36/61 1/38/62
f 19/20/63 22/21/64 21/22/65 20/23/66
f 5/33/67 19/29/68 20/36/69 6/37/70
f 32/8/71 31/9/72 1/7/73 12/28/74
f 9/63/75 25/59/76 24/60/77 12/64/78
f 2/43/79 34/10/80 33/11/81 9/45/82
f 11/55/83 13/58/84 27/62/85
f 7/53/86 11/54/87 27/5/88 28/4/89
f 3/67/90 7/68/91 28/69/92
f 14/57/93 10/56/94 29/61/95
f 10/49/96 8/47/97 30/2/98 29/3/99
f 8/71/100 4/70/101 30/72/102
f 23/74/103 1/78/104 31/80/105
f 24/6/106 23/51/107 31/9/108 32/8/109
f 12/64/110 24/60/111 32/66/112
f 25/59/113 9/63/114 33/65/115
f 26/44/116 25/46/117 33/11/118 34/10/119
f 2/77/120 26/73/121 34/79/122
f 8/71/123 26/73/124 23/74/125 7/68/126
f 4/70/127 8/71/128 7/68/129 3/67/130
f 6/76/131 1/78/132 23/74/133
f 2/77/134 5/75/135 26/73/136
f 26/73/137 5/75/138 6/76/139 23/74/140
