# This file uses centimeters as units for non-parametric coordinates.

mtllib Shelves_2.mtl
g default
v 65.933074 0.000000 139.109068
v 83.774352 0.000000 139.109068
v 65.933074 493.759148 139.109068
v 83.774352 493.759148 139.109068
v 65.933074 493.759148 111.093229
v 83.774352 493.759148 111.093229
v 65.933074 0.000000 111.093229
v 83.774352 0.000000 111.093229
v 65.933074 0.000000 -111.093157
v 83.774352 0.000000 -111.093157
v 65.933074 493.759148 -111.093157
v 83.774352 493.759148 -111.093157
v 65.933074 493.759148 -139.109041
v 83.774352 493.759148 -139.109041
v 65.933074 0.000000 -139.109041
v 83.774352 0.000000 -139.109041
v -65.933046 19.511017 139.109037
v 65.933104 19.511017 139.109037
v -65.933046 19.510971 -139.109041
v 65.933104 19.510971 -139.109041
v -62.930101 24.318329 139.109037
v 62.930083 24.318329 139.109037
v -62.930101 24.318298 -136.112154
v 62.930083 24.318298 -136.112154
v 65.933104 464.492699 -139.109041
v 62.930083 459.685387 -136.112154
v -65.933030 464.492699 -139.109041
v -62.930101 459.685387 -136.112154
v -65.933030 464.492760 139.109037
v -62.930101 459.685387 139.109037
v 62.930083 459.685387 139.109037
v 65.933104 464.492760 139.109037
v -83.774369 0.000000 -111.093157
v -65.933046 0.000000 -111.093157
v -83.774369 493.759148 -111.093157
v -65.933046 493.759148 -111.093157
v -83.774369 493.759148 -139.109041
v -65.933046 493.759148 -139.109041
v -83.774369 0.000000 -139.109041
v -65.933046 0.000000 -139.109041
v -83.774369 0.000000 139.109068
v -65.933046 0.000000 139.109068
v -83.774369 493.759148 139.109068
v -65.933046 493.759148 139.109068
v -83.774369 493.759148 111.093229
v -65.933046 493.759148 111.093229
v -83.774369 0.000000 111.093229
v -65.933046 0.000000 111.093229
vt 0.854894 0.007812
vt 0.869931 0.423978
vt 0.893545 0.423978
vt 0.908582 0.423978
vt 0.893545 0.007812
vt 0.854894 0.423978
vt 0.831281 0.423978
vt 0.869931 0.007812
vt 0.908582 0.007812
vt 0.831281 0.007812
vt 0.974694 0.073544
vt 0.989731 0.073544
vt 0.989731 0.097157
vt 0.974694 0.097157
vt 0.946936 0.073544
vt 0.961974 0.073544
vt 0.961974 0.097157
vt 0.946936 0.097157
vt 0.743382 0.433231
vt 0.758420 0.433231
vt 0.758420 0.849396
vt 0.743382 0.849396
vt 0.919179 0.040678
vt 0.934216 0.040678
vt 0.934216 0.064291
vt 0.919179 0.064291
vt 0.797071 0.849396
vt 0.782033 0.849396
vt 0.782033 0.433231
vt 0.797071 0.433231
vt 0.946936 0.040678
vt 0.961974 0.040678
vt 0.961974 0.064291
vt 0.946936 0.064291
vt 0.820684 0.433231
vt 0.820684 0.849396
vt 0.255534 0.396170
vt 0.253002 0.392118
vt 0.364146 0.392118
vt 0.361615 0.396170
vt 0.599648 0.992188
vt 0.493566 0.992188
vt 0.493566 0.760217
vt 0.599648 0.760217
vt 0.831281 0.667727
vt 0.831281 0.433231
vt 0.942424 0.433231
vt 0.942424 0.667727
vt 0.377911 0.392118
vt 0.483992 0.392118
vt 0.483992 0.759068
vt 0.377911 0.759068
vt 0.118956 0.767172
vt 0.007812 0.767172
vt 0.007812 0.392119
vt 0.118956 0.392119
vt 0.255534 0.763120
vt 0.253002 0.767172
vt 0.498192 0.384015
vt 0.730163 0.384015
vt 0.730163 0.750964
vt 0.498192 0.750964
vt 0.007812 0.007812
vt 0.242309 0.007813
vt 0.242309 0.382866
vt 0.007812 0.382866
vt 0.498192 0.007812
vt 0.730163 0.007813
vt 0.730163 0.374762
vt 0.498192 0.374762
vt 0.364146 0.767172
vt 0.361615 0.763120
vt 0.253002 0.007813
vt 0.487499 0.007812
vt 0.487499 0.382866
vt 0.253002 0.382866
vt 0.942424 0.911476
vt 0.831281 0.911476
vt 0.831281 0.676980
vt 0.942424 0.676980
vt 0.609222 0.992187
vt 0.609222 0.760217
vt 0.715303 0.760217
vt 0.715303 0.992187
vt 0.194985 0.392119
vt 0.210022 0.392119
vt 0.210022 0.808284
vt 0.194985 0.808284
vt 0.946936 0.007813
vt 0.961974 0.007813
vt 0.961974 0.031426
vt 0.946936 0.031426
vt 0.171371 0.808284
vt 0.156334 0.808284
vt 0.156334 0.392119
vt 0.171371 0.392119
vt 0.919179 0.007813
vt 0.934216 0.007813
vt 0.934216 0.031426
vt 0.919179 0.031426
vt 0.132721 0.392119
vt 0.132721 0.808284
vt 0.782033 0.007812
vt 0.797071 0.007812
vt 0.797071 0.423978
vt 0.782033 0.423978
vt 0.974694 0.040678
vt 0.989731 0.040678
vt 0.989731 0.064291
vt 0.974694 0.064291
vt 0.758420 0.423978
vt 0.743382 0.423978
vt 0.743382 0.007812
vt 0.758420 0.007812
vt 0.974694 0.007813
vt 0.989731 0.007813
vt 0.989731 0.031426
vt 0.974694 0.031426
vt 0.820684 0.007812
vt 0.820684 0.423978
vn 0.000000 0.000000 1.000000
vn 0.000000 0.000000 1.000000
vn 0.000000 0.000000 1.000000
vn 0.000000 0.000000 1.000000
vn 0.000000 1.000000 0.000000
vn 0.000000 1.000000 0.000000
vn 0.000000 1.000000 0.000000
vn 0.000000 1.000000 0.000000
vn 0.000000 0.000000 -1.000000
vn 0.000000 0.000000 -1.000000
vn 0.000000 0.000000 -1.000000
vn 0.000000 0.000000 -1.000000
vn 0.000000 -1.000000 0.000000
vn 0.000000 -1.000000 0.000000
vn 0.000000 -1.000000 0.000000
vn 0.000000 -1.000000 0.000000
vn 1.000000 0.000000 0.000000
vn 1.000000 0.000000 0.000000
vn 1.000000 0.000000 0.000000
vn 1.000000 0.000000 0.000000
vn -1.000000 0.000000 0.000000
vn -1.000000 0.000000 0.000000
vn -1.000000 0.000000 0.000000
vn -1.000000 0.000000 0.000000
vn 0.000000 0.000000 1.000000
vn 0.000000 0.000000 1.000000
vn 0.000000 0.000000 1.000000
vn 0.000000 0.000000 1.000000
vn 0.000000 1.000000 0.000000
vn 0.000000 1.000000 0.000000
vn 0.000000 1.000000 0.000000
vn 0.000000 1.000000 0.000000
vn 0.000000 0.000000 -1.000000
vn 0.000000 0.000000 -1.000000
vn 0.000000 0.000000 -1.000000
vn 0.000000 0.000000 -1.000000
vn 0.000000 -1.000000 0.000000
vn 0.000000 -1.000000 0.000000
vn 0.000000 -1.000000 0.000000
vn 0.000000 -1.000000 0.000000
vn 1.000000 0.000000 0.000000
vn 1.000000 0.000000 0.000000
vn 1.000000 0.000000 0.000000
vn 1.000000 0.000000 0.000000
vn -1.000000 0.000000 0.000000
vn -1.000000 0.000000 0.000000
vn -1.000000 0.000000 0.000000
vn -1.000000 0.000000 0.000000
vn 0.000000 0.000000 1.000000
vn 0.000000 0.000000 1.000000
vn 0.000000 0.000000 1.000000
vn 0.000000 0.000000 1.000000
vn 0.000000 1.000000 -0.000000
vn 0.000000 1.000000 -0.000000
vn 0.000000 1.000000 -0.000000
vn 0.000000 1.000000 -0.000000
vn 0.000000 -1.000000 0.000000
vn 0.000000 -1.000000 0.000000
vn 0.000000 -1.000000 0.000000
vn 0.000000 -1.000000 0.000000
vn 0.000000 0.000000 1.000000
vn 0.000000 0.000000 1.000000
vn 0.000000 0.000000 1.000000
vn 0.000000 0.000000 1.000000
vn 0.000000 0.000000 -1.000000
vn 0.000000 0.000000 -1.000000
vn 0.000000 0.000000 -1.000000
vn 0.000000 0.000000 -1.000000
vn 0.000000 0.000000 1.000000
vn 0.000000 0.000000 1.000000
vn 0.000000 0.000000 1.000000
vn 0.000000 0.000000 1.000000
vn 1.000000 0.000000 0.000000
vn 1.000000 0.000000 0.000000
vn 1.000000 0.000000 0.000000
vn 1.000000 0.000000 0.000000
vn -1.000000 0.000000 -0.000000
vn -1.000000 0.000000 -0.000000
vn -1.000000 0.000000 -0.000000
vn -1.000000 0.000000 -0.000000
vn -1.000000 0.000000 0.000000
vn -1.000000 0.000000 0.000000
vn -1.000000 0.000000 0.000000
vn -1.000000 0.000000 0.000000
vn 0.000000 0.000000 1.000000
vn 0.000000 0.000000 1.000000
vn 0.000000 0.000000 1.000000
vn 0.000000 0.000000 1.000000
vn 1.000000 0.000000 0.000000
vn 1.000000 0.000000 0.000000
vn 1.000000 0.000000 0.000000
vn 1.000000 0.000000 0.000000
vn 0.000000 0.000000 1.000000
vn 0.000000 0.000000 1.000000
vn 0.000000 0.000000 1.000000
vn 0.000000 0.000000 1.000000
vn 0.000000 1.000000 -0.000000
vn 0.000000 1.000000 -0.000000
vn 0.000000 1.000000 -0.000000
vn 0.000000 1.000000 -0.000000
vn 0.000000 -1.000000 0.000000
vn 0.000000 -1.000000 0.000000
vn 0.000000 -1.000000 0.000000
vn 0.000000 -1.000000 0.000000
vn 0.000000 0.000000 1.000000
vn 0.000000 0.000000 1.000000
vn 0.000000 0.000000 1.000000
vn 0.000000 0.000000 1.000000
vn 0.000000 1.000000 0.000000
vn 0.000000 1.000000 0.000000
vn 0.000000 1.000000 0.000000
vn 0.000000 1.000000 0.000000
vn 0.000000 0.000000 -1.000000
vn 0.000000 0.000000 -1.000000
vn 0.000000 0.000000 -1.000000
vn 0.000000 0.000000 -1.000000
vn 0.000000 -1.000000 0.000000
vn 0.000000 -1.000000 0.000000
vn 0.000000 -1.000000 0.000000
vn 0.000000 -1.000000 0.000000
vn 1.000000 0.000000 0.000000
vn 1.000000 0.000000 0.000000
vn 1.000000 0.000000 0.000000
vn 1.000000 0.000000 0.000000
vn -1.000000 0.000000 0.000000
vn -1.000000 0.000000 0.000000
vn -1.000000 0.000000 0.000000
vn -1.000000 0.000000 0.000000
vn 0.000000 0.000000 1.000000
vn 0.000000 0.000000 1.000000
vn 0.000000 0.000000 1.000000
vn 0.000000 0.000000 1.000000
vn 0.000000 1.000000 0.000000
vn 0.000000 1.000000 0.000000
vn 0.000000 1.000000 0.000000
vn 0.000000 1.000000 0.000000
vn 0.000000 0.000000 -1.000000
vn 0.000000 0.000000 -1.000000
vn 0.000000 0.000000 -1.000000
vn 0.000000 0.000000 -1.000000
vn 0.000000 -1.000000 0.000000
vn 0.000000 -1.000000 0.000000
vn 0.000000 -1.000000 0.000000
vn 0.000000 -1.000000 0.000000
vn 1.000000 0.000000 0.000000
vn 1.000000 0.000000 0.000000
vn 1.000000 0.000000 0.000000
vn 1.000000 0.000000 0.000000
vn -1.000000 0.000000 0.000000
vn -1.000000 0.000000 0.000000
vn -1.000000 0.000000 0.000000
vn -1.000000 0.000000 0.000000
s off
g polySurface65
usemtl lambert26SG
f 1/1/1 2/8/2 4/2/3 3/6/4
f 3/11/5 4/12/6 6/13/7 5/14/8
f 5/4/9 6/3/10 8/5/11 7/9/12
f 7/15/13 8/16/14 2/17/15 1/18/16
f 2/8/17 8/5/18 6/3/19 4/2/20
f 7/10/21 1/1/22 3/6/23 5/7/24
f 9/19/25 10/20/26 12/21/27 11/22/28
f 11/23/29 12/24/30 14/25/31 13/26/32
f 13/27/33 14/28/34 16/29/35 15/30/36
f 15/31/37 16/32/38 10/33/39 9/34/40
f 10/20/41 16/29/42 14/28/43 12/21/44
f 15/30/45 9/35/46 11/36/47 13/27/48
f 21/37/49 17/38/50 18/39/51 22/40/52
f 24/41/53 23/42/54 21/43/55 22/44/56
f 17/45/57 19/46/58 20/47/59 18/48/60
f 23/49/61 24/50/62 26/51/63 28/52/64
f 20/53/65 19/54/66 27/55/67 25/56/68
f 17/38/69 21/37/70 30/57/71 29/58/72
f 21/59/73 23/60/74 28/61/75 30/62/76
f 19/63/77 17/64/78 29/65/79 27/66/80
f 24/67/81 22/68/82 31/69/83 26/70/84
f 22/40/85 18/39/86 32/71/87 31/72/88
f 18/73/89 20/74/90 25/75/91 32/76/92
f 29/58/93 30/57/94 31/72/95 32/71/96
f 25/77/97 27/78/98 29/79/99 32/80/100
f 30/81/101 28/82/102 26/83/103 31/84/104
f 33/85/105 34/86/106 36/87/107 35/88/108
f 35/89/109 36/90/110 38/91/111 37/92/112
f 37/93/113 38/94/114 40/95/115 39/96/116
f 39/97/117 40/98/118 34/99/119 33/100/120
f 34/101/121 40/95/122 38/94/123 36/102/124
f 39/96/125 33/85/126 35/88/127 37/93/128
f 41/103/129 42/104/130 44/105/131 43/106/132
f 43/107/133 44/108/134 46/109/135 45/110/136
f 45/111/137 46/112/138 48/113/139 47/114/140
f 47/115/141 48/116/142 42/117/143 41/118/144
f 42/104/145 48/119/146 46/120/147 44/105/148
f 47/114/149 41/103/150 43/106/151 45/111/152
