# This file uses centimeters as units for non-parametric coordinates.

mtllib CabinetVari_2.mtl
g default
v -49.595478 227.083588 57.686953
v 49.513241 227.083588 57.686953
v -49.595478 301.390167 57.686953
v 49.513241 301.390167 57.686953
v -49.595478 301.390167 -55.440153
v 49.513241 301.390167 -55.440153
v -49.595478 227.083588 -55.440153
v 49.513241 227.083588 -55.440153
v -49.595478 291.304169 57.686953
v 49.513241 291.304169 57.686953
v -49.595478 296.672699 57.686953
v 49.513241 296.672699 57.686953
v -49.595478 291.304169 54.060389
v 49.513241 291.304169 54.060389
v 49.513241 296.672699 54.060389
v -49.595478 296.672699 54.060389
v -53.884983 0.000000 55.268526
v 53.884991 0.000000 55.268511
v -53.884991 309.141907 55.268518
v 53.884991 309.141907 55.268518
v -53.884991 309.141907 -60.585279
v 53.884991 309.141907 -60.585279
v -53.884991 0.000000 -60.585272
v 53.884991 0.000000 -60.585279
v -50.093266 4.163727 55.268518
v 50.093204 4.163727 55.268511
v -50.093273 304.978210 55.268518
v 50.093197 304.978210 55.268518
v -50.093281 304.978210 -57.525465
v 50.093197 304.978210 -57.525465
v -50.093273 4.163727 -57.525465
v 50.093204 4.163727 -57.525473
v -49.595478 79.666840 60.585279
v 49.513241 79.666840 60.585279
v -49.595478 153.973419 60.585279
v 49.513241 153.973419 60.585279
v -49.595478 153.973419 -52.541826
v 49.513241 153.973419 -52.541826
v -49.595478 79.666840 -52.541826
v 49.513241 79.666840 -52.541826
v -49.595478 143.887421 60.585279
v 49.513241 143.887421 60.585279
v -49.595478 149.255951 60.585279
v 49.513241 149.255951 60.585279
v -49.595478 143.887421 56.958715
v 49.513241 143.887421 56.958715
v 49.513241 149.255951 56.958715
v -49.595478 149.255951 56.958715
v -49.595478 4.163727 57.999544
v 49.513241 4.163727 57.999544
v -49.595478 78.470306 57.999544
v 49.513241 78.470306 57.999544
v -49.595478 78.470306 -55.127562
v 49.513241 78.470306 -55.127562
v -49.595478 4.163727 -55.127562
v 49.513241 4.163727 -55.127562
v -49.595478 68.384308 57.999544
v 49.513241 68.384308 57.999544
v -49.595478 73.752838 57.999544
v 49.513241 73.752838 57.999544
v -49.595478 68.384308 54.372980
v 49.513241 68.384308 54.372980
v 49.513241 73.752838 54.372980
v -49.595478 73.752838 54.372980
vt 0.194803 0.986074
vt 0.324258 0.985925
vt 0.324258 0.991870
vt 0.194803 0.992018
vt 0.614635 0.558156
vt 0.739520 0.558156
vt 0.739520 0.700705
vt 0.614635 0.700705
vt 0.166520 0.406691
vt 0.291405 0.406691
vt 0.291405 0.549240
vt 0.166520 0.549240
vt 0.324258 0.985920
vt 0.194803 0.986079
vt 0.197032 0.898386
vt 0.321917 0.898238
vt 0.321917 0.979161
vt 0.197032 0.979309
vt 0.194803 0.979314
vt 0.054491 0.898556
vt 0.750003 0.626375
vt 0.874888 0.626375
vt 0.874888 0.633139
vt 0.750003 0.633139
vt 0.343899 0.669885
vt 0.343899 0.544998
vt 0.437530 0.544998
vt 0.437530 0.669885
vt 0.750003 0.621805
vt 0.874888 0.621805
vt 0.874888 0.637709
vt 0.750003 0.637709
vt 0.054491 0.992188
vt 0.464474 0.991700
vt 0.464474 0.898068
vt 0.324258 0.979155
vt 0.325227 0.785736
vt 0.330006 0.780489
vt 0.456248 0.780489
vt 0.461026 0.785736
vt 0.918477 0.153797
vt 0.782678 0.153797
vt 0.782678 0.007812
vt 0.918477 0.007812
vt 0.918477 0.309117
vt 0.782678 0.309117
vt 0.782678 0.163133
vt 0.918477 0.163133
vt 0.456248 0.401441
vt 0.330006 0.401441
vt 0.325227 0.396194
vt 0.461026 0.396194
vt 0.600841 0.775250
vt 0.474599 0.775250
vt 0.474599 0.396198
vt 0.600841 0.396198
vt 0.312505 0.397355
vt 0.166520 0.397355
vt 0.166520 0.007812
vt 0.312505 0.007812
vt 0.769106 0.397354
vt 0.633307 0.397354
vt 0.633307 0.007812
vt 0.769106 0.007812
vt 0.153797 0.397355
vt 0.007812 0.397355
vt 0.007812 0.007812
vt 0.153797 0.007812
vt 0.740877 0.548820
vt 0.614635 0.548820
vt 0.614635 0.406690
vt 0.740877 0.406690
vt 0.325227 0.386858
vt 0.325227 0.007812
vt 0.467358 0.007812
vt 0.467358 0.386858
vt 0.782678 0.318453
vt 0.908919 0.318453
vt 0.908919 0.460584
vt 0.782678 0.460584
vt 0.621396 0.007812
vt 0.621396 0.386863
vt 0.479267 0.386863
vt 0.479267 0.007812
vt 0.512218 0.882712
vt 0.641673 0.882564
vt 0.641673 0.888508
vt 0.512218 0.888656
vt 0.143181 0.558575
vt 0.268065 0.558575
vt 0.268065 0.701124
vt 0.143181 0.701124
vt 0.007812 0.406691
vt 0.132697 0.406691
vt 0.132697 0.549240
vt 0.007812 0.549240
vt 0.641673 0.882558
vt 0.512218 0.882718
vt 0.514447 0.795024
vt 0.639332 0.794876
vt 0.639332 0.875799
vt 0.514447 0.875947
vt 0.512218 0.875953
vt 0.371906 0.795194
vt 0.750003 0.651615
vt 0.874888 0.651615
vt 0.874888 0.658379
vt 0.750003 0.658379
vt 0.343899 0.535663
vt 0.343899 0.410776
vt 0.437530 0.410776
vt 0.437530 0.535663
vt 0.750003 0.647045
vt 0.874888 0.647045
vt 0.874888 0.662949
vt 0.750003 0.662949
vt 0.371906 0.888826
vt 0.781888 0.888339
vt 0.781888 0.794707
vt 0.641673 0.875793
vt 0.614911 0.985577
vt 0.744366 0.985429
vt 0.744366 0.991373
vt 0.614911 0.991522
vt 0.007812 0.558575
vt 0.132697 0.558575
vt 0.132697 0.701124
vt 0.007812 0.701124
vt 0.754671 0.469920
vt 0.879556 0.469920
vt 0.879556 0.612469
vt 0.754671 0.612469
vt 0.744366 0.985423
vt 0.614911 0.985583
vt 0.617141 0.897890
vt 0.742025 0.897741
vt 0.742025 0.978664
vt 0.617141 0.978812
vt 0.614911 0.978818
vt 0.474599 0.898059
vt 0.750003 0.676855
vt 0.874888 0.676855
vt 0.874888 0.683619
vt 0.750003 0.683619
vt 0.890039 0.594807
vt 0.890039 0.469920
vt 0.983670 0.469920
vt 0.983670 0.594807
vt 0.750003 0.672285
vt 0.874888 0.672285
vt 0.874888 0.688189
vt 0.750003 0.688189
vt 0.474599 0.991691
vt 0.884582 0.991204
vt 0.884582 0.897572
vt 0.744366 0.978659
vn 0.000000 0.000000 1.000000
vn 0.000000 0.000000 1.000000
vn 0.000000 0.000000 1.000000
vn 0.000000 0.000000 1.000000
vn 0.000000 1.000000 0.000000
vn 0.000000 1.000000 0.000000
vn 0.000000 1.000000 0.000000
vn 0.000000 1.000000 0.000000
vn 0.000000 -1.000000 0.000000
vn 0.000000 -1.000000 0.000000
vn 0.000000 -1.000000 0.000000
vn 0.000000 -1.000000 0.000000
vn 1.000000 0.000000 0.000000
vn 1.000000 0.000001 0.000000
vn 1.000000 0.000001 0.000000
vn -1.000000 -0.000004 0.000000
vn -1.000000 -0.000004 0.000000
vn -1.000000 0.000000 0.000000
vn 0.000000 0.000000 1.000000
vn 0.000000 0.000000 1.000000
vn 0.000000 0.000000 1.000000
vn 0.000000 0.000000 1.000000
vn -1.000000 0.000000 0.000000
vn -1.000000 0.000000 0.000000
vn -1.000000 0.000000 0.000000
vn -1.000000 0.000000 0.000000
vn 0.000000 0.000000 1.000000
vn 0.000000 0.000000 1.000000
vn 0.000000 0.000000 1.000000
vn 0.000000 0.000000 1.000000
vn 0.000000 0.000000 -1.000000
vn 0.000000 0.000000 -1.000000
vn 0.000000 0.000000 -1.000000
vn 0.000000 0.000000 -1.000000
vn 0.000000 1.000000 0.000000
vn 0.000000 1.000000 0.000000
vn 0.000000 1.000000 0.000000
vn 0.000000 1.000000 0.000000
vn 0.000000 -1.000000 0.000000
vn 0.000000 -1.000000 0.000000
vn 0.000000 -1.000000 0.000000
vn 0.000000 -1.000000 0.000000
vn -1.000000 -0.000004 0.000000
vn -1.000000 0.000000 0.000000
vn -1.000000 0.000000 0.000000
vn -1.000000 0.000000 0.000000
vn -1.000000 0.000000 0.000000
vn 1.000000 0.000001 0.000000
vn 1.000000 -0.000000 0.000000
vn 1.000000 0.000000 0.000000
vn 1.000000 0.000000 0.000000
vn 1.000000 -0.000000 0.000000
vn 1.000000 -0.000000 0.000000
vn 1.000000 -0.000000 0.000000
vn 0.000000 0.000000 1.000000
vn 0.000000 0.000000 1.000000
vn 0.000000 0.000000 1.000000
vn 0.000000 0.000000 1.000000
vn 0.000000 1.000000 0.000000
vn 0.000000 1.000000 0.000000
vn 0.000000 1.000000 0.000000
vn 0.000000 1.000000 0.000000
vn 0.000000 -1.000000 0.000000
vn 0.000000 -1.000000 0.000000
vn 0.000000 -1.000000 0.000000
vn 0.000000 -1.000000 0.000000
vn 0.000000 0.000001 1.000000
vn 0.000000 0.000001 1.000000
vn 0.000000 0.000001 1.000000
vn 0.000000 0.000001 1.000000
vn 0.000002 0.000000 1.000000
vn 0.000002 0.000000 1.000000
vn 0.000002 0.000000 1.000000
vn 0.000002 0.000000 1.000000
vn 0.000000 -0.000000 1.000000
vn 0.000000 -0.000000 1.000000
vn 0.000000 -0.000000 1.000000
vn 0.000000 -0.000000 1.000000
vn 0.000002 -0.000000 1.000000
vn 0.000002 -0.000000 1.000000
vn 0.000002 -0.000000 1.000000
vn 0.000002 -0.000000 1.000000
vn 1.000000 0.000000 0.000000
vn 1.000000 0.000000 0.000000
vn 1.000000 0.000000 0.000000
vn 1.000000 0.000000 0.000000
vn 0.000000 -0.000000 -1.000000
vn 0.000000 -0.000000 -1.000000
vn 0.000000 -0.000000 -1.000000
vn 0.000000 -0.000000 -1.000000
vn -1.000000 -0.000000 0.000000
vn -1.000000 -0.000000 0.000000
vn -1.000000 -0.000000 0.000000
vn -1.000000 -0.000000 0.000000
vn 0.000000 -1.000000 -0.000000
vn 0.000000 -1.000000 -0.000000
vn 0.000000 -1.000000 -0.000000
vn 0.000000 -1.000000 -0.000000
vn 1.000000 0.000000 -0.000000
vn 1.000000 0.000000 -0.000000
vn 1.000000 0.000000 -0.000000
vn 1.000000 0.000000 -0.000000
vn 0.000000 1.000000 -0.000000
vn 0.000000 1.000000 -0.000000
vn 0.000000 1.000000 -0.000000
vn 0.000000 1.000000 -0.000000
vn -1.000000 -0.000000 0.000000
vn -1.000000 -0.000000 0.000000
vn -1.000000 -0.000000 0.000000
vn -1.000000 -0.000000 0.000000
vn 0.000000 0.000000 1.000000
vn 0.000000 0.000000 1.000000
vn 0.000000 0.000000 1.000000
vn 0.000000 0.000000 1.000000
vn 0.000000 1.000000 0.000000
vn 0.000000 1.000000 0.000000
vn 0.000000 1.000000 0.000000
vn 0.000000 1.000000 0.000000
vn 0.000000 -1.000000 0.000000
vn 0.000000 -1.000000 0.000000
vn 0.000000 -1.000000 0.000000
vn 0.000000 -1.000000 0.000000
vn 1.000000 0.000000 0.000000
vn 1.000000 0.000001 0.000000
vn 1.000000 0.000001 0.000000
vn -1.000000 -0.000004 0.000000
vn -1.000000 -0.000004 0.000000
vn -1.000000 0.000000 0.000000
vn 0.000000 0.000000 1.000000
vn 0.000000 0.000000 1.000000
vn 0.000000 0.000000 1.000000
vn 0.000000 0.000000 1.000000
vn -1.000000 0.000000 0.000000
vn -1.000000 0.000000 0.000000
vn -1.000000 0.000000 0.000000
vn -1.000000 0.000000 0.000000
vn 0.000000 0.000000 1.000000
vn 0.000000 0.000000 1.000000
vn 0.000000 0.000000 1.000000
vn 0.000000 0.000000 1.000000
vn 0.000000 0.000000 -1.000000
vn 0.000000 0.000000 -1.000000
vn 0.000000 0.000000 -1.000000
vn 0.000000 0.000000 -1.000000
vn 0.000000 1.000000 0.000000
vn 0.000000 1.000000 0.000000
vn 0.000000 1.000000 0.000000
vn 0.000000 1.000000 0.000000
vn 0.000000 -1.000000 0.000000
vn 0.000000 -1.000000 0.000000
vn 0.000000 -1.000000 0.000000
vn 0.000000 -1.000000 0.000000
vn -1.000000 -0.000004 0.000000
vn -1.000000 0.000000 0.000000
vn -1.000000 0.000000 0.000000
vn -1.000000 0.000000 0.000000
vn -1.000000 0.000000 0.000000
vn 1.000000 0.000001 0.000000
vn 1.000000 -0.000000 0.000000
vn 1.000000 0.000000 0.000000
vn 1.000000 0.000000 0.000000
vn 1.000000 -0.000000 0.000000
vn 1.000000 -0.000000 0.000000
vn 1.000000 -0.000000 0.000000
vn 0.000000 0.000000 1.000000
vn 0.000000 0.000000 1.000000
vn 0.000000 0.000000 1.000000
vn 0.000000 0.000000 1.000000
vn 0.000000 1.000000 0.000000
vn 0.000000 1.000000 0.000000
vn 0.000000 1.000000 0.000000
vn 0.000000 1.000000 0.000000
vn 0.000000 -1.000000 0.000000
vn 0.000000 -1.000000 0.000000
vn 0.000000 -1.000000 0.000000
vn 0.000000 -1.000000 0.000000
vn 1.000000 0.000000 0.000000
vn 1.000000 0.000001 0.000000
vn 1.000000 0.000001 0.000000
vn -1.000000 -0.000004 0.000000
vn -1.000000 -0.000004 0.000000
vn -1.000000 0.000000 0.000000
vn 0.000000 0.000000 1.000000
vn 0.000000 0.000000 1.000000
vn 0.000000 0.000000 1.000000
vn 0.000000 0.000000 1.000000
vn -1.000000 0.000000 0.000000
vn -1.000000 0.000000 0.000000
vn -1.000000 0.000000 0.000000
vn -1.000000 0.000000 0.000000
vn 0.000000 0.000000 1.000000
vn 0.000000 0.000000 1.000000
vn 0.000000 0.000000 1.000000
vn 0.000000 0.000000 1.000000
vn 0.000000 0.000000 -1.000000
vn 0.000000 0.000000 -1.000000
vn 0.000000 0.000000 -1.000000
vn 0.000000 0.000000 -1.000000
vn 0.000000 1.000000 0.000000
vn 0.000000 1.000000 0.000000
vn 0.000000 1.000000 0.000000
vn 0.000000 1.000000 0.000000
vn 0.000000 -1.000000 0.000000
vn 0.000000 -1.000000 0.000000
vn 0.000000 -1.000000 0.000000
vn 0.000000 -1.000000 0.000000
vn -1.000000 -0.000004 0.000000
vn -1.000000 0.000000 0.000000
vn -1.000000 0.000000 0.000000
vn -1.000000 0.000000 0.000000
vn -1.000000 0.000000 0.000000
vn 1.000000 0.000001 0.000000
vn 1.000000 -0.000000 0.000000
vn 1.000000 0.000000 0.000000
vn 1.000000 0.000000 0.000000
vn 1.000000 -0.000000 0.000000
vn 1.000000 -0.000000 0.000000
vn 1.000000 -0.000000 0.000000
s off
g polySurface38
usemtl initialShadingGroup
f 11/1/1 12/2/2 4/3/3 3/4/4
f 3/5/5 4/6/6 6/7/7 5/8/8
f 7/9/9 8/10/10 2/11/11 1/12/12
s 1
f 12/2/13 15/13/14 4/3/15
s 2
f 3/4/16 16/14/17 11/1/18
s off
f 1/15/19 2/16/20 10/17/21 9/18/22
f 1/15/23 9/18/24 13/19/25 7/20/26
f 13/21/27 14/22/28 15/23/29 16/24/30
f 5/25/31 6/26/32 8/27/33 7/28/34
f 9/29/35 10/30/36 14/22/37 13/21/38
f 12/31/39 11/32/40 16/24/41 15/23/42
s 2
f 5/33/43 16/14/17 3/4/16
s off
f 16/14/44 5/33/45 7/20/46 13/19/47
s 1
f 4/3/15 15/13/14 6/34/48
s 3
f 8/35/49 6/34/50 15/13/51 14/36/52
f 8/35/49 14/36/52 10/17/53 2/16/54
s off
f 19/37/55 27/38/56 28/39/57 20/40/58
f 22/41/59 21/42/60 19/43/61 20/44/62
f 18/45/63 17/46/64 23/47/65 24/48/66
f 26/49/67 25/50/68 17/51/69 18/52/70
f 17/51/71 25/50/72 27/38/73 19/37/74
f 30/53/75 29/54/76 31/55/77 32/56/78
f 20/40/79 28/39/80 26/49/81 18/52/82
f 22/57/83 20/58/84 18/59/85 24/60/86
f 24/61/87 23/62/88 21/63/89 22/64/90
f 19/65/91 21/66/92 23/67/93 17/68/94
f 28/69/95 27/70/96 29/71/97 30/72/98
f 27/73/99 25/74/100 31/75/101 29/76/102
f 25/77/103 26/78/104 32/79/105 31/80/106
f 26/81/107 28/82/108 30/83/109 32/84/110
f 43/85/111 44/86/112 36/87/113 35/88/114
f 35/89/115 36/90/116 38/91/117 37/92/118
f 39/93/119 40/94/120 34/95/121 33/96/122
s 4
f 44/86/123 47/97/124 36/87/125
s 5
f 35/88/126 48/98/127 43/85/128
s off
f 33/99/129 34/100/130 42/101/131 41/102/132
f 33/99/133 41/102/134 45/103/135 39/104/136
f 45/105/137 46/106/138 47/107/139 48/108/140
f 37/109/141 38/110/142 40/111/143 39/112/144
f 41/113/145 42/114/146 46/106/147 45/105/148
f 44/115/149 43/116/150 48/108/151 47/107/152
s 5
f 37/117/153 48/98/127 35/88/126
s off
f 48/98/154 37/117/155 39/104/156 45/103/157
s 4
f 36/87/125 47/97/124 38/118/158
s 6
f 40/119/159 38/118/160 47/97/161 46/120/162
f 40/119/159 46/120/162 42/101/163 34/100/164
s off
f 59/121/165 60/122/166 52/123/167 51/124/168
f 51/125/169 52/126/170 54/127/171 53/128/172
f 55/129/173 56/130/174 50/131/175 49/132/176
s 7
f 60/122/177 63/133/178 52/123/179
s 8
f 51/124/180 64/134/181 59/121/182
s off
f 49/135/183 50/136/184 58/137/185 57/138/186
f 49/135/187 57/138/188 61/139/189 55/140/190
f 61/141/191 62/142/192 63/143/193 64/144/194
f 53/145/195 54/146/196 56/147/197 55/148/198
f 57/149/199 58/150/200 62/142/201 61/141/202
f 60/151/203 59/152/204 64/144/205 63/143/206
s 8
f 53/153/207 64/134/181 51/124/180
s off
f 64/134/208 53/153/209 55/140/210 61/139/211
s 7
f 52/123/179 63/133/178 54/154/212
s 9
f 56/155/213 54/154/214 63/133/215 62/156/216
f 56/155/213 62/156/216 58/137/217 50/136/218
