# This file uses centimeters as units for non-parametric coordinates.

mtllib CardboardBox_Closed.mtl
g default
v -39.192520 -0.000000 28.105641
v 39.192520 -0.000000 28.105641
v -39.192520 49.259125 28.105641
v 39.192520 49.259125 28.105641
v -39.192520 49.259125 -28.105641
v 39.192520 49.259125 -28.105641
v -39.192520 -0.000000 -28.105641
v 39.192520 -0.000000 -28.105641
v -37.176859 -0.000000 25.506419
v -37.176859 -0.000000 -25.506392
v -37.176896 49.259125 -25.506392
v -37.176896 49.259125 25.506419
v 37.176822 -0.000000 25.506419
v 37.176822 -0.000000 -25.506392
v 37.176822 49.259125 -25.506392
v 37.176822 49.259125 25.506419
v -37.176896 11.295294 -25.506392
v -37.176896 11.295294 25.506419
v 37.176822 11.295294 25.506419
v 37.176822 11.295294 -25.506392
v -39.192520 68.209753 -2.932003
v -37.176896 67.065559 -3.022485
v 37.176822 67.065559 -3.022485
v 39.192520 68.209753 -2.932003
v -39.192520 52.674084 -20.765359
v -37.176896 51.406097 -21.311738
v 39.192520 52.674084 -20.765359
v 37.176822 51.406097 -21.311738
vt 0.447485 0.992188
vt 0.447485 0.786007
vt 0.653666 0.786007
vt 0.653666 0.992188
vt 0.007812 0.860172
vt 0.007812 0.653992
vt 0.213993 0.653992
vt 0.213993 0.860172
vt 0.968202 0.007936
vt 0.968202 0.195048
vt 0.809299 0.195048
vt 0.809299 0.007936
vt 0.968201 0.204208
vt 0.968201 0.391321
vt 0.809299 0.391321
vt 0.809299 0.204208
vt 0.536008 0.572165
vt 0.536008 0.336130
vt 0.542696 0.324103
vt 0.542696 0.584191
vt 0.289296 0.572165
vt 0.289296 0.336130
vt 0.282608 0.324103
vt 0.282608 0.584191
vt 0.788857 0.776847
vt 0.552824 0.776847
vt 0.552824 0.530135
vt 0.788857 0.530135
vt 0.225090 0.638124
vt 0.237153 0.644832
vt 0.010349 0.644832
vt 0.007812 0.638124
vt 0.225090 0.390671
vt 0.007812 0.390671
vt 0.237153 0.383962
vt 0.010349 0.383962
vt 0.561983 0.520975
vt 0.561983 0.260570
vt 0.788383 0.260570
vt 0.788383 0.520975
vt 0.983337 0.682499
vt 0.983337 0.422415
vt 0.990025 0.434442
vt 0.990025 0.670471
vt 0.985445 0.267901
vt 0.978757 0.255873
vt 0.978757 0.019840
vt 0.985445 0.007812
vt 0.007812 0.374802
vt 0.007812 0.109865
vt 0.272755 0.109865
vt 0.272755 0.374802
vt 0.007812 0.007936
vt 0.272755 0.007936
vt 0.282608 0.314943
vt 0.289441 0.308772
vt 0.541489 0.308772
vt 0.548321 0.314943
vt 0.289441 0.212720
vt 0.541489 0.212720
vt 0.289441 0.007936
vt 0.541489 0.007936
vt 0.971556 0.691332
vt 0.965017 0.697866
vt 0.965017 0.443769
vt 0.971556 0.450304
vt 0.552824 0.251410
vt 0.552824 0.007936
vt 0.796297 0.007936
vt 0.796297 0.251410
vt 0.250549 0.824301
vt 0.250549 0.593351
vt 0.438194 0.593351
vt 0.438194 0.824301
vt 0.877998 0.525322
vt 0.877998 0.512011
vt 0.982057 0.396869
vt 0.988743 0.396405
vt 0.800140 0.467739
vt 0.800140 0.454428
vt 0.910876 0.583333
vt 0.904190 0.582870
vn 1.000000 0.000000 0.000000
vn 1.000000 0.000000 0.000000
vn 1.000000 0.000000 0.000000
vn 1.000000 0.000000 0.000000
vn 0.000000 -1.000000 0.000000
vn 0.000000 -1.000000 0.000000
vn 0.000000 -1.000000 0.000000
vn 0.000000 -1.000000 0.000000
vn -1.000000 0.000000 0.000000
vn -1.000000 0.000000 0.000000
vn -1.000000 0.000000 0.000000
vn -1.000000 0.000000 0.000000
vn 0.000000 -1.000000 0.000000
vn 0.000000 -1.000000 0.000000
vn 0.000000 -1.000000 0.000000
vn 0.000000 -1.000000 0.000000
vn 0.000000 -1.000000 0.000000
vn 0.000000 -1.000000 0.000000
vn 0.000000 -1.000000 0.000000
vn 0.000000 -1.000000 0.000000
vn 0.000000 -1.000000 0.000000
vn 0.000000 -1.000000 0.000000
vn 0.000000 -1.000000 0.000000
vn 0.000000 -1.000000 0.000000
vn 0.000000 -1.000000 0.000000
vn 0.000000 -1.000000 0.000000
vn 0.000000 -1.000000 0.000000
vn 0.000000 -1.000000 0.000000
vn 0.000000 0.000000 -1.000000
vn 0.000000 0.000000 -1.000000
vn 0.000000 0.000000 -1.000000
vn 0.000000 0.000000 -1.000000
vn 0.000000 -0.078833 0.996888
vn 0.000000 -0.078833 0.996888
vn 0.000000 -0.078833 0.996888
vn 0.000000 -0.078833 0.996888
vn 0.000000 1.000000 0.000000
vn 0.000000 1.000000 0.000000
vn 0.000000 1.000000 0.000000
vn 0.000000 1.000000 0.000000
vn 0.000000 0.395728 -0.918368
vn 0.000000 0.395728 -0.918368
vn 0.000000 0.395727 -0.918368
vn 0.000000 0.395728 -0.918368
vn 0.000000 0.000000 1.000000
vn 0.000000 0.000000 1.000000
vn 0.000000 0.000000 1.000000
vn 0.000000 0.000000 1.000000
vn 1.000000 0.000000 0.000000
vn 1.000000 0.000000 0.000000
vn 1.000000 0.000000 0.000000
vn 1.000000 0.000000 0.000000
vn 0.000000 0.000000 -1.000000
vn 0.000000 0.000000 -1.000000
vn 0.000000 0.000000 -1.000000
vn 0.000000 0.000000 -1.000000
vn -1.000000 0.000000 0.000000
vn -1.000000 0.000000 0.000000
vn -1.000000 0.000000 0.000000
vn -1.000000 0.000000 0.000000
vn 0.000000 0.000000 1.000000
vn 0.000000 0.000000 1.000000
vn 0.000000 0.000000 1.000000
vn 0.000000 0.000000 1.000000
vn -0.517527 -0.677552 0.522579
vn -0.517527 -0.677552 0.522579
vn -0.517527 -0.677552 0.522579
vn -0.517527 -0.677552 0.522579
vn 0.000000 -0.783933 0.620846
vn 0.000000 -0.783933 0.620846
vn 0.000000 -0.783933 0.620846
vn 0.000000 -0.783933 0.620846
vn 0.517513 -0.677559 0.522584
vn 0.517513 -0.677559 0.522584
vn 0.517513 -0.677559 0.522584
vn 0.517513 -0.677559 0.522584
vn 0.000000 0.798926 -0.601429
vn 0.000000 0.798926 -0.601429
vn 0.000000 0.798926 -0.601429
vn 0.000000 0.798926 -0.601429
vn -0.338126 -0.939515 -0.054609
vn -0.338126 -0.939515 -0.054609
vn -0.338126 -0.939515 -0.054609
vn -0.338126 -0.939515 -0.054609
vn 0.000000 0.997567 0.069707
vn 0.000000 0.997567 0.069707
vn 0.000000 0.997567 0.069707
vn 0.000000 0.997567 0.069707
vn 0.338115 -0.939519 -0.054610
vn 0.338115 -0.939519 -0.054610
vn 0.338115 -0.939519 -0.054610
vn 0.338115 -0.939519 -0.054610
vn 0.000000 -0.998950 -0.045810
vn 0.000000 -0.998950 -0.045810
vn 0.000000 -0.998950 -0.045810
vn 0.000000 -0.998950 -0.045810
vn 0.000000 1.000000 0.000000
vn 0.000000 1.000000 0.000000
vn 0.000000 1.000000 0.000000
vn 0.000000 1.000000 0.000000
vn 0.000000 1.000000 0.000000
vn 0.000000 1.000000 0.000000
vn 0.000000 1.000000 0.000000
vn 0.000000 1.000000 0.000000
s off
g pCube98
usemtl pCube98SG
f 4/1/1 2/2/2 8/3/3 6/4/4
f 13/17/5 14/18/6 8/19/7 2/20/8
f 5/5/9 7/6/10 1/7/11 3/8/12
f 7/23/13 10/22/14 9/21/15 1/24/16
f 1/24/17 9/21/18 13/17/19 2/20/20
f 9/21/21 10/22/22 14/18/23 13/17/24
f 10/22/25 7/23/26 8/19/27 14/18/28
f 7/49/29 5/50/30 6/51/31 8/52/32
f 21/55/33 22/56/34 23/57/35 24/58/36
f 17/25/37 18/26/38 19/27/39 20/28/40
f 26/63/41 25/64/42 27/65/43 28/66/44
f 3/67/45 1/68/46 2/69/47 4/70/48
f 11/9/49 12/10/50 18/11/51 17/12/52
f 12/71/53 16/72/54 19/73/55 18/74/56
f 16/13/57 15/14/58 20/15/59 19/16/60
f 15/60/61 11/59/62 17/61/63 20/62/64
f 5/75/65 11/76/66 22/77/67 21/78/68
f 11/59/69 15/60/70 23/57/71 22/56/72
f 15/79/73 6/80/74 24/81/75 23/82/76
f 6/51/77 5/50/78 21/53/79 24/54/80
f 12/29/81 3/30/82 25/31/83 26/32/84
f 3/37/85 4/38/86 27/39/87 25/40/88
f 4/35/89 16/33/90 28/34/91 27/36/92
f 16/33/93 12/29/94 26/32/95 28/34/96
f 5/41/97 3/42/98 12/43/99 11/44/100
f 6/45/101 15/46/102 16/47/103 4/48/104
