# This file uses centimeters as units for non-parametric coordinates.

mtllib Clock.mtl
g default
v 0.000000 -65.601482 12.231763
v 24.463485 -55.178854 12.231763
v 0.000000 65.601587 12.231763
v 24.463485 55.178907 12.231763
v 0.000000 65.601587 -12.231763
v 24.463485 55.178907 -12.231763
v 0.000000 -65.601482 -12.231763
v 24.463485 -55.178854 -12.231763
v 24.463485 18.392960 5.758338
v 24.463485 -18.392960 5.758338
v 24.463485 18.392960 -5.758327
v 24.463485 -18.392960 -5.758327
v 57.781963 12.843296 5.758338
v 57.781963 -12.843243 5.758338
v 57.781963 -12.843243 -5.758327
v 57.781963 12.843296 -5.758327
v 242.366960 83.500446 21.967936
v 242.366960 -83.500289 21.967936
v 242.366960 -83.500289 -21.967927
v 242.366960 83.500446 -21.967927
v 57.781963 83.500446 21.967936
v 57.781963 -83.500289 21.967936
v 57.781963 83.500446 -21.967927
v 57.781963 -83.500289 -21.967927
v 65.631889 -91.350247 21.967936
v 65.631889 -91.350247 -21.967927
v 234.517104 -91.350247 -21.967927
v 234.517104 -91.350247 21.967936
v 65.631889 91.350300 21.967936
v 65.631889 91.350300 -21.967927
v 234.517104 91.350300 21.967936
v 234.517104 91.350300 -21.967927
v 238.219683 -81.782396 -21.967927
v 232.799228 -87.202898 -21.967927
v 67.349835 -87.202898 -21.967927
v 61.929333 -81.782396 -21.967927
v 61.929333 81.782554 -21.967927
v 67.349788 87.203003 -21.967927
v 232.799228 87.203003 -21.967927
v 238.219683 81.782554 -21.967927
v 238.219683 81.782554 21.967936
v 232.799228 87.203003 21.967936
v 67.349788 87.203003 21.967936
v 61.929333 81.782554 21.967936
v 61.929333 -81.782396 21.967936
v 67.349835 -87.202898 21.967936
v 232.799228 -87.202898 21.967936
v 238.219683 -81.782396 21.967936
v 238.219683 -81.782396 -17.461882
v 232.799228 -87.202898 -17.461882
v 67.349835 -87.202898 -17.461882
v 61.929333 -81.782396 -17.461882
v 61.929333 81.782554 -17.461882
v 67.349788 87.203003 -17.461882
v 232.799228 87.203003 -17.461882
v 238.219683 81.782554 -17.461882
v 238.219683 81.782554 17.461890
v 232.799228 87.203003 17.461890
v 67.349788 87.203003 17.461890
v 61.929333 81.782554 17.461890
v 61.929333 -81.782396 17.461890
v 67.349835 -87.202898 17.461890
v 232.799228 -87.202898 17.461890
v 238.219683 -81.782396 17.461890
vt 0.500416 0.248854
vt 0.659844 0.142447
vt 0.534336 0.097169
vt 0.616397 0.142447
vt 0.534041 0.248854
vt 0.600239 0.142447
vt 0.557226 0.142447
vt 0.473891 0.094999
vt 0.473891 0.324562
vt 0.155510 0.047533
vt 0.120201 0.047723
vt 0.155401 0.031706
vt 0.120091 0.031896
vt 0.473763 0.585168
vt 0.750102 0.085704
vt 0.978299 0.086944
vt 0.473763 0.342860
vt 0.464354 0.330210
vt 0.464354 0.098425
vt 0.727626 0.320862
vt 0.727626 0.091299
vt 0.713865 0.080665
vt 0.484073 0.084050
vt 0.717444 0.331810
vt 0.487652 0.335195
vt 0.748368 0.079809
vt 0.736775 0.090828
vt 0.980042 0.081022
vt 0.991240 0.092674
vt 0.989815 0.321873
vt 0.978222 0.332893
vt 0.746549 0.331681
vt 0.735350 0.320028
vt 0.458459 0.328644
vt 0.452693 0.336054
vt 0.458459 0.100405
vt 0.451428 0.093354
vt 0.224094 0.093986
vt 0.218327 0.101396
vt 0.218327 0.329635
vt 0.225359 0.336686
vt 0.698581 0.342009
vt 0.976488 0.326998
vt 0.748292 0.325759
vt 0.698581 0.584318
vt 0.212433 0.099829
vt 0.212433 0.331615
vt 0.600239 0.096567
vt 0.616397 0.096567
vt 0.659844 0.096567
vt 0.557226 0.096567
vt 0.525242 0.198292
vt 0.525340 0.147730
vt 0.509412 0.198292
vt 0.509511 0.147730
vt 0.542098 0.142447
vt 0.542098 0.096567
vt 0.500711 0.097169
vt 0.670964 0.275045
vt 0.670933 0.094709
vt 0.704558 0.094703
vt 0.704589 0.275039
vt 0.405685 0.101081
vt 0.442234 0.101081
vt 0.442234 0.134706
vt 0.405685 0.134706
vt 0.360214 0.101207
vt 0.396763 0.101207
vt 0.396763 0.134832
vt 0.360214 0.134832
vt 0.938420 0.094355
vt 0.924265 0.128052
vt 0.772582 0.128823
vt 0.758086 0.095271
vt 0.203294 0.089307
vt 0.189355 0.123094
vt 0.037680 0.124835
vt 0.022969 0.091377
vt 0.759878 0.006178
vt 0.992034 0.004929
vt 0.007966 0.070604
vt 0.760296 0.066556
vt 0.500209 0.067956
vt 0.268053 0.069204
vt 0.267635 0.008826
vt 0.499791 0.007577
vt 0.745035 0.066638
vt 0.022809 0.010143
vt 0.023227 0.070521
vt 0.515470 0.067873
vt 0.515052 0.007495
vt 0.252374 0.008908
vt 0.744617 0.006260
vt 0.252792 0.069287
vt 0.992452 0.065307
vt 0.007548 0.010225
vt 0.452693 0.341892
vt 0.225359 0.342653
vt 0.224094 0.088147
vt 0.451428 0.087387
vt 0.240396 0.350264
vt 0.247836 0.357724
vt 0.247530 0.585131
vt 0.240070 0.592572
vt 0.015253 0.592270
vt 0.015578 0.349962
vt 0.007812 0.584809
vt 0.008118 0.357402
vt 0.956248 0.340430
vt 0.967570 0.351278
vt 0.961869 0.353610
vt 0.956248 0.346119
vt 0.967570 0.583452
vt 0.961869 0.581060
vt 0.729026 0.339227
vt 0.729026 0.344941
vt 0.954948 0.594187
vt 0.954948 0.588473
vt 0.716404 0.349962
vt 0.722105 0.352353
vt 0.727726 0.592984
vt 0.727726 0.587295
vt 0.716404 0.582136
vt 0.722105 0.579804
vt 0.741252 0.318327
vt 0.742672 0.092656
vt 0.706031 0.576839
vt 0.706031 0.349432
vt 0.983917 0.320045
vt 0.985338 0.094376
vt 0.466313 0.350339
vt 0.466313 0.577746
vt 0.479592 0.322117
vt 0.479592 0.097277
vt 0.487652 0.329459
vt 0.717444 0.326143
vt 0.721925 0.318584
vt 0.721925 0.093743
vt 0.713865 0.086401
vt 0.484073 0.089717
vn 0.000000 0.000000 1.000000
vn 0.000000 0.000000 1.000000
vn 0.000000 0.000000 1.000000
vn 0.000000 0.000000 1.000000
vn 1.000000 0.000000 0.000000
vn 1.000000 0.000000 0.000000
vn 1.000000 0.000000 0.000000
vn 1.000000 0.000000 0.000000
vn 0.000000 0.000000 -1.000000
vn 0.000000 0.000000 -1.000000
vn 0.000000 0.000000 -1.000000
vn 0.000000 0.000000 -1.000000
vn 1.000000 0.000000 0.000000
vn 1.000000 0.000000 0.000000
vn 1.000000 0.000000 0.000000
vn 1.000000 0.000000 0.000000
vn 0.391959 0.919983 0.000000
vn 0.391959 0.919983 0.000000
vn 0.391959 0.919983 0.000000
vn 0.391959 0.919983 0.000000
vn 1.000000 -0.000000 0.000000
vn 1.000000 -0.000000 0.000000
vn 1.000000 -0.000000 0.000000
vn 1.000000 -0.000000 0.000000
vn 1.000000 0.000000 0.000000
vn 1.000000 0.000000 0.000000
vn 1.000000 0.000000 0.000000
vn 1.000000 0.000000 0.000000
vn 1.000000 0.000000 0.000000
vn 1.000000 0.000000 0.000000
vn 1.000000 0.000000 0.000000
vn 1.000000 0.000000 0.000000
vn 0.391957 -0.919983 0.000000
vn 0.391957 -0.919983 0.000000
vn 0.391957 -0.919983 0.000000
vn 0.391957 -0.919983 0.000000
vn -1.000000 0.000000 0.000000
vn -1.000000 0.000000 0.000000
vn -1.000000 0.000000 0.000000
vn -1.000000 0.000000 0.000000
vn -0.000000 0.000000 1.000000
vn -0.000000 0.000000 1.000000
vn -0.000000 0.000000 1.000000
vn -0.000000 0.000000 1.000000
vn 0.164302 -0.986410 0.000000
vn 0.164302 -0.986410 0.000000
vn 0.164302 -0.986410 0.000000
vn 0.164302 -0.986410 0.000000
vn -0.000000 0.000000 -1.000000
vn -0.000000 0.000000 -1.000000
vn -0.000000 0.000000 -1.000000
vn -0.000000 0.000000 -1.000000
vn 0.164301 0.986410 0.000000
vn 0.164301 0.986410 0.000000
vn 0.164301 0.986410 0.000000
vn 0.164301 0.986410 0.000000
vn 0.000000 0.000000 -1.000000
vn 0.000000 0.000000 -1.000000
vn 0.000000 0.000000 -1.000000
vn 0.000000 0.000000 -1.000000
vn 0.000000 0.000000 1.000000
vn 0.000000 0.000000 1.000000
vn 0.000000 0.000000 1.000000
vn 0.000000 0.000000 1.000000
vn -1.000000 0.000000 0.000000
vn -1.000000 0.000000 0.000000
vn -1.000000 0.000000 0.000000
vn -1.000000 0.000000 0.000000
vn -1.000000 0.000000 0.000000
vn -1.000000 0.000000 0.000000
vn -1.000000 0.000000 0.000000
vn -1.000000 0.000000 0.000000
vn -0.707108 -0.707105 0.000000
vn -0.707108 -0.707105 0.000000
vn -0.707108 -0.707105 0.000000
vn -0.707108 -0.707105 0.000000
vn 0.707111 -0.707102 0.000000
vn 0.707111 -0.707102 0.000000
vn 0.707111 -0.707102 0.000000
vn 0.707111 -0.707102 0.000000
vn -0.707104 0.707110 0.000000
vn -0.707104 0.707110 0.000000
vn -0.707104 0.707110 0.000000
vn -0.707104 0.707110 0.000000
vn 0.707107 0.707107 0.000000
vn 0.707107 0.707107 0.000000
vn 0.707107 0.707107 0.000000
vn 0.707107 0.707107 0.000000
vn 0.000000 -1.000000 0.000000
vn 0.000000 -1.000000 0.000000
vn 0.000000 -1.000000 0.000000
vn 0.000000 -1.000000 0.000000
vn 0.000000 1.000000 0.000000
vn 0.000000 1.000000 0.000000
vn 0.000000 1.000000 0.000000
vn 0.000000 1.000000 0.000000
vn -1.000000 -0.000000 0.000000
vn -1.000000 -0.000000 0.000000
vn -1.000000 -0.000000 0.000000
vn -1.000000 -0.000000 0.000000
vn -1.000000 0.000000 0.000000
vn -1.000000 0.000000 0.000000
vn -1.000000 0.000000 0.000000
vn -1.000000 0.000000 0.000000
vn -0.000000 0.000000 -1.000000
vn -0.000000 0.000000 -1.000000
vn -0.000000 0.000000 -1.000000
vn -0.000000 0.000000 -1.000000
vn 0.000000 0.000000 -1.000000
vn 0.000000 0.000000 -1.000000
vn 0.000000 0.000000 -1.000000
vn 0.000000 0.000000 -1.000000
vn 0.000000 0.000000 -1.000000
vn 0.000000 0.000000 -1.000000
vn 0.000000 0.000000 -1.000000
vn 0.000000 0.000000 -1.000000
vn 0.000000 0.000000 -1.000000
vn 0.000000 0.000000 -1.000000
vn -0.000000 0.000000 -1.000000
vn -0.000000 0.000000 -1.000000
vn -0.000000 0.000000 1.000000
vn 0.000000 0.000000 1.000000
vn 0.000000 0.000000 1.000000
vn -0.000000 0.000000 1.000000
vn -0.000000 0.000000 1.000000
vn -0.000000 0.000000 1.000000
vn 0.000000 0.000000 1.000000
vn -0.000000 0.000000 1.000000
vn 0.000000 0.000000 1.000000
vn 0.000000 0.000000 1.000000
vn -0.000000 0.000000 1.000000
vn -0.000000 0.000000 1.000000
vn 0.000000 0.000000 1.000000
vn 0.000000 0.000000 1.000000
vn -0.000000 0.000000 1.000000
vn 0.000000 0.000000 1.000000
vn -0.707110 0.707104 0.000000
vn -0.707110 0.707104 0.000000
vn -0.707110 0.707104 0.000000
vn -0.707110 0.707104 0.000000
vn 0.000000 1.000000 0.000000
vn 0.000000 1.000000 0.000000
vn 0.000000 1.000000 0.000000
vn 0.000000 1.000000 0.000000
vn 0.707107 0.707107 0.000000
vn 0.707107 0.707107 0.000000
vn 0.707107 0.707107 0.000000
vn 0.707107 0.707107 0.000000
vn 1.000000 0.000000 0.000000
vn 1.000000 0.000000 0.000000
vn 1.000000 0.000000 0.000000
vn 1.000000 0.000000 0.000000
vn 0.707106 -0.707107 0.000000
vn 0.707106 -0.707107 0.000000
vn 0.707106 -0.707107 0.000000
vn 0.707106 -0.707107 0.000000
vn 0.000000 -1.000000 0.000000
vn 0.000000 -1.000000 0.000000
vn 0.000000 -1.000000 0.000000
vn 0.000000 -1.000000 0.000000
vn -0.707106 -0.707107 0.000000
vn -0.707106 -0.707107 0.000000
vn -0.707106 -0.707107 0.000000
vn -0.707106 -0.707107 0.000000
vn -1.000000 0.000000 0.000000
vn -1.000000 0.000000 0.000000
vn -1.000000 0.000000 0.000000
vn -1.000000 0.000000 0.000000
vn -0.707106 -0.707107 0.000000
vn -0.707106 -0.707107 0.000000
vn -0.707106 -0.707107 0.000000
vn -0.707106 -0.707107 0.000000
vn 0.000000 -1.000000 0.000000
vn 0.000000 -1.000000 0.000000
vn 0.000000 -1.000000 0.000000
vn 0.000000 -1.000000 0.000000
vn 0.707106 -0.707107 0.000000
vn 0.707106 -0.707107 0.000000
vn 0.707106 -0.707107 0.000000
vn 0.707106 -0.707107 0.000000
vn 1.000000 0.000000 0.000000
vn 1.000000 0.000000 0.000000
vn 1.000000 0.000000 0.000000
vn 1.000000 0.000000 0.000000
vn 0.707107 0.707107 0.000000
vn 0.707107 0.707107 0.000000
vn 0.707107 0.707107 0.000000
vn 0.707107 0.707107 0.000000
vn 0.000000 1.000000 0.000000
vn 0.000000 1.000000 0.000000
vn 0.000000 1.000000 0.000000
vn 0.000000 1.000000 0.000000
vn -0.707110 0.707104 0.000000
vn -0.707110 0.707104 0.000000
vn -0.707110 0.707104 0.000000
vn -0.707110 0.707104 0.000000
vn -1.000000 0.000000 0.000000
vn -1.000000 0.000000 0.000000
vn -1.000000 0.000000 0.000000
vn -1.000000 0.000000 0.000000
vn 0.000000 0.000000 1.000000
vn 0.000000 0.000000 1.000000
vn 0.000000 0.000000 1.000000
vn 0.000000 0.000000 1.000000
vn 0.000000 0.000000 -1.000000
vn 0.000000 0.000000 -1.000000
vn 0.000000 0.000000 -1.000000
vn 0.000000 0.000000 -1.000000
s off
g pCube42
usemtl lambert2SG
f 1/71/1 2/72/2 4/73/3 3/74/4
f 11/52/5 12/53/6 8/3/7 6/5/8
f 5/75/9 6/76/10 8/77/11 7/78/12
f 2/58/13 10/55/14 9/54/15 4/1/16
f 3/63/17 4/64/18 6/65/19 5/66/20
f 4/1/21 9/54/22 11/52/23 6/5/24
f 17/87/25 18/90/26 19/91/27 20/93/28
f 10/55/29 2/58/30 8/3/31 12/53/32
f 7/67/33 8/68/34 2/69/35 1/70/36
f 5/59/37 7/60/38 1/61/39 3/62/40
f 9/6/41 10/7/42 14/51/43 13/48/44
f 10/7/45 12/56/46 15/57/47 14/51/48
f 12/2/49 11/4/50 16/49/51 15/50/52
f 11/4/53 9/6/54 13/48/55 16/49/56
s 1
f 49/14/57 50/132/58 51/131/59 52/17/60
s 2
f 57/101/61 58/102/62 59/103/63 60/104/64
s off
f 13/11/65 14/10/66 22/94/67 21/89/68
f 15/12/69 16/13/70 23/88/71 24/92/72
f 25/84/73 22/94/74 24/92/75 26/85/76
f 27/86/77 19/91/78 18/90/79 28/83/80
f 21/89/81 29/81/82 30/96/83 23/88/84
f 31/82/85 17/87/86 20/93/87 32/79/88
f 25/84/89 26/85/90 27/86/91 28/83/92
f 30/80/93 29/95/94 31/82/95 32/79/96
f 14/10/97 15/12/98 24/92/99 22/94/100
f 16/13/101 13/11/102 21/89/103 23/88/104
s 3
f 19/8/105 27/23/106 34/140/107 33/134/108
f 27/23/106 26/22/109 35/139/110 34/140/107
f 26/22/109 24/21/111 36/138/112 35/139/110
f 24/21/111 23/20/113 37/137/114 36/138/112
f 23/20/113 30/24/115 38/136/116 37/137/114
f 30/24/115 32/25/117 39/135/118 38/136/116
f 32/25/117 20/9/119 40/133/120 39/135/118
f 20/9/119 19/8/105 33/134/108 40/133/120
s 4
f 17/109/121 31/110/122 42/111/123 41/112/124
f 31/110/122 29/113/125 43/114/126 42/111/123
f 29/113/125 21/117/127 44/118/128 43/114/126
f 21/117/127 22/121/129 45/122/130 44/118/128
f 22/121/129 25/123/131 46/124/132 45/122/130
f 25/123/131 28/119/133 47/120/134 46/124/132
f 28/119/133 18/115/135 48/116/136 47/120/134
f 18/115/135 17/109/121 41/112/124 48/116/136
s off
f 33/27/137 34/26/138 50/15/139 49/126/140
f 34/26/141 35/28/142 51/16/143 50/15/144
f 35/28/145 36/29/146 52/130/147 51/16/148
f 36/29/149 37/30/150 53/129/151 52/130/152
f 37/30/153 38/31/154 54/43/155 53/129/156
f 38/31/157 39/32/158 55/44/159 54/43/160
f 39/32/161 40/33/162 56/125/163 55/44/164
f 40/33/165 33/27/166 49/126/167 56/125/168
f 41/35/169 42/34/170 58/18/171 57/97/172
f 42/34/173 43/36/174 59/19/175 58/18/176
f 43/36/177 44/37/178 60/100/179 59/19/180
f 44/37/181 45/38/182 61/99/183 60/100/184
f 45/38/185 46/39/186 62/46/187 61/99/188
f 46/39/189 47/40/190 63/47/191 62/46/192
f 47/40/193 48/41/194 64/98/195 63/47/196
f 48/41/197 41/35/198 57/97/199 64/98/200
s 2
f 57/101/61 60/104/64 61/105/201 64/106/202
f 64/106/202 61/105/201 62/107/203 63/108/204
s 1
f 56/45/205 53/42/206 54/128/207 55/127/208
f 49/14/57 52/17/60 53/42/206 56/45/205
