# This file uses centimeters as units for non-parametric coordinates.

mtllib DoorWallTop.mtl
g default
v -199.093924 196.544796 14.948059
v 0.000040 196.544796 14.948059
v -199.093924 196.544796 -14.948059
v 0.000040 196.544796 -14.948059
v -199.093924 178.467220 -6.641724
v -0.000022 178.467220 -6.641724
v 0.000040 184.761531 -14.948059
v -199.093924 184.761531 -14.948059
v 0.000040 -0.000004 14.948059
v 0.000040 -0.000004 -6.641724
v -199.093924 -0.000004 -6.641724
v -199.093924 -0.000004 14.948059
vt 0.507653 0.992188
vt 0.507653 0.504276
vt 0.580920 0.504276
vt 0.580920 0.992188
vt 0.495732 0.445182
vt 0.007812 0.445182
vt 0.007812 0.007812
vt 0.495732 0.007812
vt 0.593095 0.504276
vt 0.646006 0.504276
vt 0.646006 0.941645
vt 0.593095 0.985946
vt 0.507653 0.495732
vt 0.507653 0.007812
vt 0.989325 0.007812
vt 0.989325 0.495732
vt 0.698894 0.504276
vt 0.751805 0.504276
vt 0.751805 0.985946
vt 0.698894 0.941645
vt 0.495732 0.499600
vt 0.007812 0.499600
vt 0.007812 0.470723
vt 0.495732 0.470723
vt 0.666362 0.985946
vt 0.678538 0.985946
vt 0.666362 0.957069
vt 0.678538 0.957069
vt 0.763981 0.504276
vt 0.816892 0.504276
vt 0.816892 0.992185
vt 0.763981 0.992185
vn 0.000000 1.000000 0.000000
vn 0.000000 1.000000 0.000000
vn 0.000000 1.000000 0.000000
vn 0.000000 1.000000 0.000000
vn 0.000000 0.000000 -1.000000
vn 0.000000 0.000000 -1.000000
vn 0.000000 0.000000 -1.000000
vn 0.000000 0.000000 -1.000000
vn 1.000000 0.000000 -0.000001
vn 1.000000 0.000000 -0.000001
vn 1.000000 0.000000 -0.000001
vn 1.000000 0.000000 -0.000001
vn 0.000000 0.000000 1.000000
vn 0.000000 0.000000 1.000000
vn 0.000000 0.000000 1.000000
vn 0.000000 0.000000 1.000000
vn -1.000000 0.000000 0.000000
vn -1.000000 0.000000 0.000000
vn -1.000000 0.000000 0.000000
vn -1.000000 0.000000 0.000000
vn 0.000000 0.000000 -1.000000
vn 0.000000 0.000000 -1.000000
vn 0.000000 0.000000 -1.000000
vn 0.000000 0.000000 -1.000000
vn 1.000000 0.000000 0.000000
vn 1.000000 0.000000 0.000000
vn 1.000000 0.000000 0.000000
vn -1.000000 0.000002 0.000000
vn -1.000000 0.000002 0.000000
vn -1.000000 0.000002 0.000000
vn 1.000000 0.000000 0.000007
vn 1.000000 0.000000 0.000007
vn 1.000000 0.000000 0.000007
vn 0.000000 -0.797018 -0.603956
vn 0.000000 -0.797018 -0.603956
vn 0.000000 -0.797018 -0.603956
vn 0.000000 -0.797018 -0.603956
vn -1.000000 0.000000 0.000000
vn -1.000000 0.000000 0.000000
vn -1.000000 0.000000 0.000000
vn 0.000000 -1.000000 0.000000
vn 0.000000 -1.000000 0.000000
vn 0.000000 -1.000000 0.000000
vn 0.000000 -1.000000 0.000000
s off
g polySurface3 pCube91
usemtl initialShadingGroup
f 1/1/1 2/2/2 4/3/3 3/4/4
f 5/5/5 6/6/6 10/7/7 11/8/8
f 9/9/9 10/10/10 6/11/11 2/12/12
f 12/13/13 9/14/14 2/15/15 1/16/16
f 11/17/17 12/18/18 1/19/19 5/20/20
f 3/21/21 4/22/22 7/23/23 8/24/24
f 2/12/25 6/11/26 4/25/27
f 5/20/28 1/19/29 3/26/30
f 4/25/31 6/11/32 7/27/33
f 6/6/34 5/5/35 8/24/36 7/23/37
f 5/20/38 3/26/39 8/28/40
f 10/29/41 9/30/42 12/31/43 11/32/44
