# This file uses centimeters as units for non-parametric coordinates.

mtllib Monitor.mtl
g default
v 15.268723 1.136178 -9.640744
v 54.502970 1.136178 -9.640744
v 15.268723 6.444237 -9.048924
v 54.502970 6.444237 -9.048924
v 15.268723 6.444237 -17.155253
v 54.502970 6.444237 -17.155253
v 15.268723 1.136178 -17.747073
v 54.502970 1.136178 -17.747073
v 14.559812 12.280921 -7.230958
v 51.685541 12.280921 -7.230958
v 51.685541 12.280921 -15.337285
v 14.559812 12.280921 -15.337285
v 13.830241 16.901628 -5.232676
v 49.983118 16.901628 -5.232676
v 49.983118 16.901628 -13.339005
v 13.830241 16.901628 -13.339005
v 12.492672 22.373526 -2.147944
v 50.226380 22.373526 -2.147944
v 50.226380 22.373526 -10.254274
v 12.492672 22.373526 -10.254274
v 11.398286 27.845425 1.272054
v 51.077581 27.845425 1.272054
v 51.077581 27.845425 -6.834275
v 11.398286 27.845425 -6.834275
v 51.077581 106.181362 1.272054
v 51.077581 106.181362 -6.834275
v -56.249478 27.845425 1.272054
v -56.249478 27.845425 -6.834275
v -56.249478 106.181362 1.272054
v -56.249478 106.181362 -6.834275
v 49.764620 104.868419 1.272054
v -54.936536 104.868419 1.272054
v -54.936536 29.158367 1.272054
v 49.764620 29.158367 1.272054
v 49.764620 104.868419 0.036392
v -54.936536 104.868419 0.036392
v -54.936536 29.158367 0.036392
v 49.764620 29.158367 0.036392
v -65.174128 0.000004 46.341033
v 65.174128 0.000004 46.341033
v -65.174128 2.635915 46.341033
v 65.174128 2.635915 46.341033
v -65.174128 2.635915 -46.341033
v 65.174128 2.635915 -46.341033
v -65.174128 0.000004 -46.341033
v 65.174128 0.000004 -46.341033
vt 0.586381 0.030936
vt 0.916038 0.007812
vt 0.798321 0.025389
vt 0.570777 0.007813
vt 0.584289 0.360749
vt 0.702234 0.344775
vt 0.796427 0.043791
vt 0.592745 0.379130
vt 0.552584 0.007813
vt 0.794430 0.058950
vt 0.597852 0.394266
vt 0.537678 0.007813
vt 0.790654 0.077882
vt 0.597108 0.413147
vt 0.519198 0.007813
vt 0.906877 0.095779
vt 0.787615 0.097320
vt 0.594536 0.432542
vt 0.713808 0.432624
vt 0.594375 0.668012
vt 0.909918 0.331230
vt 0.584289 0.099946
vt 0.587331 0.335397
vt 0.916989 0.668233
vt 0.029536 0.256409
vt 0.028905 0.026796
vt 0.346100 0.025934
vt 0.027193 0.259139
vt 0.349234 0.258116
vt 0.026408 0.024222
vt 0.348440 0.023202
vt 0.007926 0.007813
vt 0.410154 0.013982
vt 0.409698 0.296702
vt 0.012840 0.296061
vt 0.415042 0.302249
vt 0.415189 0.008120
vt 0.007812 0.301929
vt 0.013276 0.013355
vt 0.007812 0.703268
vt 0.007812 0.311454
vt 0.286406 0.311454
vt 0.286406 0.703268
vt 0.296051 0.703361
vt 0.296051 0.311547
vt 0.574644 0.311547
vt 0.574644 0.703361
vt 0.346736 0.255543
vt 0.902982 0.099776
vt 0.905921 0.327334
vt 0.588286 0.103841
vt 0.591226 0.331400
vt 0.904068 0.076417
vt 0.519198 0.030936
vt 0.500607 0.030936
vt 0.903093 0.057547
vt 0.537678 0.030936
vt 0.908014 0.042349
vt 0.552584 0.030936
vt 0.916245 0.023866
vt 0.570777 0.030936
vt 0.798113 0.009336
vt 0.811866 0.677466
vt 0.811866 0.992188
vt 0.584289 0.992188
vt 0.584289 0.677466
vt 0.917151 0.432763
vt 0.710532 0.413225
vt 0.706524 0.394341
vt 0.704342 0.379207
vt 0.702223 0.360829
vt 0.584300 0.344694
vt 0.586381 0.007813
vt 0.500607 0.007813
vt 0.952682 0.007813
vt 0.952682 0.330427
vt 0.928315 0.330427
vt 0.928315 0.007813
vt 0.965507 0.007813
vt 0.989992 0.007813
vt 0.989992 0.023846
vt 0.965507 0.023846
vt 0.989992 0.041475
vt 0.965507 0.041475
vt 0.989992 0.055432
vt 0.965507 0.055432
vt 0.989992 0.071959
vt 0.965507 0.071959
vt 0.989992 0.088487
vt 0.965507 0.088487
vt 0.989992 0.325097
vt 0.965507 0.325097
vt 0.426223 0.007813
vt 0.450590 0.007813
vt 0.450590 0.243283
vt 0.426223 0.243283
vt 0.463415 0.007813
vt 0.487782 0.007813
vt 0.487782 0.211156
vt 0.463415 0.211156
vn 0.000000 -0.110808 0.993842
vn 0.000000 -0.110808 0.993842
vn 0.000000 -0.110808 0.993842
vn 0.000000 -0.110808 0.993842
vn 0.000000 0.110808 -0.993842
vn 0.000000 0.110808 -0.993842
vn 0.000000 0.110808 -0.993842
vn 0.000000 0.110808 -0.993842
vn 1.000000 -0.000000 0.000000
vn 1.000000 -0.000000 0.000000
vn 1.000000 -0.000000 0.000000
vn 1.000000 -0.000000 0.000000
vn -1.000000 -0.000001 0.000000
vn -1.000000 -0.000001 0.000000
vn -1.000000 -0.000001 0.000000
vn -1.000000 -0.000001 0.000000
vn 0.000000 -0.297381 0.954759
vn 0.000000 -0.297381 0.954759
vn 0.000000 -0.297381 0.954759
vn 0.000000 -0.297381 0.954759
vn 0.900567 0.434717 0.000000
vn 0.900567 0.434717 0.000000
vn 0.900567 0.434717 0.000000
vn 0.900567 0.434717 0.000000
vn 0.000000 0.297382 -0.954759
vn 0.000000 0.297382 -0.954759
vn 0.000000 0.297382 -0.954759
vn 0.000000 0.297382 -0.954759
vn -0.992705 -0.120569 0.000000
vn -0.992705 -0.120569 0.000000
vn -0.992705 -0.120569 0.000000
vn -0.992705 -0.120569 0.000000
vn 0.000000 -0.396934 0.917847
vn 0.000000 -0.396934 0.917847
vn 0.000000 -0.396934 0.917847
vn 0.000000 -0.396934 0.917847
vn 0.938339 0.345716 0.000000
vn 0.938339 0.345716 0.000000
vn 0.938339 0.345716 0.000000
vn 0.938339 0.345716 0.000000
vn 0.000000 0.396933 -0.917847
vn 0.000000 0.396933 -0.917847
vn 0.000000 0.396933 -0.917847
vn 0.000000 0.396933 -0.917847
vn -0.987764 -0.155957 0.000000
vn -0.987764 -0.155957 0.000000
vn -0.987764 -0.155957 0.000000
vn -0.987764 -0.155957 0.000000
vn 0.000000 -0.491082 0.871113
vn 0.000000 -0.491082 0.871113
vn 0.000000 -0.491082 0.871113
vn 0.000000 -0.491082 0.871113
vn 0.999013 -0.044416 0.000000
vn 0.999013 -0.044416 0.000000
vn 0.999013 -0.044416 0.000000
vn 0.999013 -0.044416 0.000000
vn 0.000000 0.491082 -0.871113
vn 0.000000 0.491082 -0.871113
vn 0.000000 0.491082 -0.871113
vn 0.000000 0.491082 -0.871113
vn -0.971399 -0.237453 0.000000
vn -0.971399 -0.237453 0.000000
vn -0.971399 -0.237453 0.000000
vn -0.971399 -0.237453 0.000000
vn 0.000000 -0.530006 0.847994
vn 0.000000 -0.530005 0.847994
vn 0.000000 -0.530005 0.847994
vn 0.000000 -0.530005 0.847994
vn 0.988116 -0.153711 0.000000
vn 0.988116 -0.153711 0.000000
vn 0.988116 -0.153711 0.000000
vn 0.988116 -0.153711 0.000000
vn 0.000000 0.530005 -0.847994
vn 0.000000 0.530006 -0.847994
vn 0.000000 0.530005 -0.847994
vn 0.000000 0.530005 -0.847994
vn -0.980581 -0.196117 0.000000
vn -0.980581 -0.196117 0.000000
vn -0.980581 -0.196117 0.000000
vn -0.980581 -0.196117 0.000000
vn 1.000000 0.000000 0.000000
vn 1.000000 0.000000 0.000000
vn 1.000000 0.000000 0.000000
vn 1.000000 0.000000 0.000000
vn -1.000000 0.000000 0.000000
vn -1.000000 0.000000 0.000000
vn -1.000000 0.000000 0.000000
vn -1.000000 0.000000 0.000000
vn 0.000000 -1.000000 0.000000
vn 0.000000 -1.000000 0.000000
vn 0.000000 -1.000000 0.000000
vn 0.000000 -1.000000 0.000000
vn 0.000000 0.000000 1.000000
vn 0.000000 0.000000 1.000000
vn 0.000000 0.000000 1.000000
vn 0.000000 0.000000 1.000000
vn 0.000000 1.000000 0.000000
vn 0.000000 1.000000 0.000000
vn 0.000000 1.000000 0.000000
vn 0.000000 1.000000 0.000000
vn 0.000000 0.000000 -1.000000
vn 0.000000 0.000000 -1.000000
vn 0.000000 0.000000 -1.000000
vn 0.000000 0.000000 -1.000000
vn 0.000000 0.000000 -1.000000
vn 0.000000 0.000000 1.000000
vn -0.000000 0.000000 1.000000
vn -0.000000 0.000000 1.000000
vn 0.000000 0.000000 1.000000
vn -0.000000 0.000000 1.000000
vn -0.000000 0.000000 1.000000
vn 0.000000 0.000000 1.000000
vn 0.000000 0.000000 1.000000
vn 0.000000 0.000000 1.000000
vn 0.000000 -1.000000 0.000000
vn 0.000000 -1.000000 0.000000
vn 0.000000 -1.000000 0.000000
vn 0.000000 -1.000000 0.000000
vn 1.000000 0.000000 0.000000
vn 1.000000 0.000000 0.000000
vn 1.000000 0.000000 0.000000
vn 1.000000 0.000000 0.000000
vn 0.000000 1.000000 0.000000
vn -0.585962 0.810339 0.000000
vn -0.585962 0.810339 0.000000
vn 0.000000 1.000000 0.000000
vn -1.000000 0.000000 0.000000
vn -1.000000 0.000000 0.000000
vn 0.000000 0.000000 1.000000
vn 0.000000 0.000000 1.000000
vn 0.000000 0.000000 1.000000
vn 0.000000 0.000000 1.000000
vn 0.000000 1.000000 0.000000
vn 0.000000 1.000000 0.000000
vn 0.000000 1.000000 0.000000
vn 0.000000 1.000000 0.000000
vn 0.000000 0.000000 -1.000000
vn 0.000000 0.000000 -1.000000
vn 0.000000 0.000000 -1.000000
vn 0.000000 0.000000 -1.000000
vn 0.000000 -1.000000 0.000000
vn 0.000000 -1.000000 0.000000
vn 0.000000 -1.000000 0.000000
vn 0.000000 -1.000000 0.000000
vn 1.000000 0.000000 0.000000
vn 1.000000 0.000000 0.000000
vn 1.000000 0.000000 0.000000
vn 1.000000 0.000000 0.000000
vn -1.000000 0.000000 0.000000
vn -1.000000 0.000000 0.000000
vn -1.000000 0.000000 0.000000
vn -1.000000 0.000000 0.000000
s off
g pCube45
usemtl initialShadingGroup
f 1/62/1 2/2/2 4/60/3 3/3/4
f 5/71/5 6/5/6 8/72/7 7/6/8
f 2/79/9 8/80/10 6/81/11 4/82/12
f 7/73/13 1/1/14 3/61/15 5/4/16
f 3/3/17 4/60/18 10/58/19 9/7/20
f 4/82/21 6/81/22 11/83/23 10/84/24
f 6/5/25 5/71/26 12/70/27 11/8/28
f 5/4/29 3/61/30 9/59/31 12/9/32
f 9/7/33 10/58/34 14/56/35 13/10/36
f 10/84/37 11/83/38 15/85/39 14/86/40
f 11/8/41 12/70/42 16/69/43 15/11/44
f 12/9/45 9/59/46 13/57/47 16/12/48
f 13/10/49 14/56/50 18/53/51 17/13/52
f 14/86/53 15/85/54 19/87/55 18/88/56
f 15/11/57 16/69/58 20/68/59 19/14/60
f 16/12/61 13/57/62 17/54/63 20/15/64
f 17/13/65 18/53/66 22/16/67 21/17/68
f 18/88/69 19/87/70 23/89/71 22/90/72
f 19/14/73 20/68/74 24/19/75 23/18/76
f 20/15/77 17/54/78 21/55/79 24/74/80
f 22/90/81 23/89/82 26/91/83 25/92/84
f 28/93/85 27/94/86 29/95/87 30/96/88
f 24/97/89 21/98/90 27/99/91 28/100/92
f 35/63/93 36/64/94 37/65/95 38/66/96
f 26/75/97 30/76/98 29/77/99 25/78/100
s 1
f 23/18/101 24/19/102 26/20/103
f 26/20/103 24/19/102 28/67/104 30/24/105
s 2
f 25/21/106 29/23/107 32/52/108 31/50/109
f 29/23/107 27/22/110 33/51/111 32/52/108
f 27/22/110 21/17/112 34/49/113 33/51/111
f 21/17/112 22/16/114 34/49/113
f 22/16/114 25/21/106 31/50/109 34/49/113
s off
f 31/29/115 32/28/116 36/25/117 35/48/118
f 32/28/119 33/30/120 37/26/121 36/25/122
s 3
f 33/30/123 34/31/124 38/27/125 37/26/126
f 34/31/124 31/29/127 35/48/128 38/27/125
s off
f 39/32/129 40/37/130 42/33/131 41/39/132
f 41/40/133 42/41/134 44/42/135 43/43/136
f 43/35/137 44/34/138 46/36/139 45/38/140
f 45/44/141 46/45/142 40/46/143 39/47/144
f 40/37/145 46/36/146 44/34/147 42/33/148
f 45/38/149 39/32/150 41/39/151 43/35/152
