# This file uses centimeters as units for non-parametric coordinates.

mtllib Pipe_90Curve.mtl
g default
v -74.382322 -13.997607 10.169830
v -74.382322 -5.346642 16.455131
v -74.382322 5.346580 16.455130
v -74.382322 13.997564 10.169829
v -74.382322 17.301908 -0.000002
v -74.382322 13.997564 -10.169830
v -74.382322 5.346580 -16.455130
v -74.382322 -5.346642 -16.455128
v -74.382322 -13.997607 -10.169829
v -74.382322 -17.301932 -0.000001
v 0.000005 0.000017 0.000000
v -96.996405 42.895818 -10.169832
v -105.647389 42.895818 -16.455131
v -116.340612 42.895818 -16.455130
v -124.991577 42.895818 -10.169830
v -128.295940 42.895818 0.000000
v -124.991577 42.895818 10.169830
v -116.340612 42.895818 16.455130
v -105.647389 42.895818 16.455127
v -96.996405 42.895818 10.169829
v -93.692061 42.895818 -0.000001
v -96.996405 210.256065 -10.169832
v -105.647389 210.256065 -16.455134
v -116.340612 210.256065 -16.455130
v -124.991577 210.256065 -10.169830
v -128.295940 210.256065 0.000000
v -124.991577 210.256065 10.169830
v -116.340612 210.256065 16.455130
v -105.647389 210.256065 16.455127
v -96.996405 210.256065 10.169829
v -93.692061 210.256065 -0.000001
v -110.993991 210.256065 -0.000001
v -98.014319 -0.821557 16.455131
v -93.967897 8.383541 16.455130
v -90.694281 15.830631 10.169829
v -89.443880 18.675154 -0.000001
v -90.694281 15.830631 -10.169830
v -93.967897 8.383541 -16.455130
v -98.014319 -0.821557 -16.455130
v -101.287935 -8.268648 -10.169829
v -102.538326 -11.113132 -0.000000
v -101.287935 -8.268648 10.169830
v -113.484775 18.496033 16.455130
v -103.578973 21.440190 16.455130
v -95.565062 23.822048 10.169829
v -92.504042 24.731846 -0.000001
v -95.565062 23.822048 -10.169832
v -103.578973 21.440190 -16.455131
v -113.484775 18.496033 -16.455130
v -121.498686 16.114175 -10.169830
v -124.559707 15.204415 -0.000000
v -121.498686 16.114175 10.169830
v -4.291220 -13.997588 10.169830
v -4.291220 -17.301932 -0.000001
v -4.291220 -13.997588 -10.169829
v -4.291220 -5.346623 -16.455128
v -4.291201 5.346580 -16.455130
v -4.291201 13.997602 -10.169830
v -4.291201 17.301946 -0.000002
v -4.291201 13.997602 10.169829
v -4.291201 5.346580 16.455130
v -4.291220 -5.346623 16.455133
v -4.291220 -6.449547 19.849568
v -4.291220 -16.885059 12.267703
v -0.000014 -16.885059 12.267703
v -0.000014 -6.449547 19.849568
v -4.291201 6.449542 19.849568
v 0.000005 6.449561 19.849568
v -4.291201 16.885073 12.267703
v 0.000005 16.885073 12.267703
v -4.291201 20.871060 -0.000002
v 0.000005 20.871060 -0.000002
v -4.291201 16.885073 -12.267706
v 0.000005 16.885073 -12.267706
v -4.291201 6.449542 -19.849569
v 0.000005 6.449561 -19.849569
v -4.291220 -6.449547 -19.849566
v -0.000014 -6.449547 -19.849566
v -4.291220 -16.885059 -12.267703
v -0.000014 -16.885059 -12.267703
v -4.291220 -20.871046 -0.000001
v -0.000014 -20.871046 -0.000001
vt 0.446752 0.021250
vt 0.400302 0.038385
vt 0.489779 0.021345
vt 0.524585 0.046679
vt 0.537826 0.087656
vt 0.524555 0.128561
vt 0.489682 0.153851
vt 0.446647 0.153719
vt 0.411999 0.128299
vt 0.398613 0.087483
vt 0.044016 0.424521
vt 0.080737 0.424521
vt 0.118003 0.424521
vt 0.155652 0.424521
vt 0.193367 0.424521
vt 0.230836 0.424521
vt 0.267796 0.424521
vt 0.304095 0.424521
vt 0.339848 0.424521
vt 0.375297 0.424521
vt 0.267796 0.347289
vt 0.304095 0.347289
vt 0.339848 0.347289
vt 0.007813 0.347289
vt 0.044016 0.347289
vt 0.080737 0.347289
vt 0.118003 0.347289
vt 0.155652 0.347289
vt 0.193367 0.347289
vt 0.230836 0.347289
vt 0.267796 0.252900
vt 0.304095 0.252900
vt 0.304095 0.317428
vt 0.267796 0.317428
vt 0.339848 0.252900
vt 0.339848 0.317428
vt 0.007813 0.252900
vt 0.007813 0.317428
vt 0.044016 0.252900
vt 0.044016 0.317428
vt 0.080737 0.252900
vt 0.080737 0.317428
vt 0.118003 0.252900
vt 0.118003 0.317428
vt 0.155652 0.252900
vt 0.155652 0.317428
vt 0.193367 0.252900
vt 0.193367 0.317428
vt 0.230836 0.252900
vt 0.230836 0.317428
vt 0.384468 0.087795
vt 0.411876 0.046529
vt 0.400648 0.136755
vt 0.442330 0.167211
vt 0.494202 0.167262
vt 0.536157 0.136667
vt 0.551972 0.087438
vt 0.535930 0.038210
vt 0.494030 0.007850
vt 0.442263 0.007817
vt 0.267796 0.007817
vt 0.230836 0.007817
vt 0.304095 0.007817
vt 0.339848 0.007817
vt 0.375297 0.007817
vt 0.044016 0.007817
vt 0.080737 0.007817
vt 0.118003 0.007817
vt 0.155652 0.007817
vt 0.193367 0.007817
vt 0.628505 0.077817
vt 0.561930 0.056185
vt 0.587359 0.021185
vt 0.561930 0.099448
vt 0.628505 0.007816
vt 0.587359 0.134448
vt 0.669650 0.021185
vt 0.628505 0.147817
vt 0.695079 0.056185
vt 0.669650 0.134448
vt 0.695079 0.099448
vt 0.824940 0.059884
vt 0.803860 0.030869
vt 0.810896 0.021185
vt 0.836325 0.056185
vt 0.769750 0.019787
vt 0.769750 0.007816
vt 0.824940 0.095749
vt 0.836325 0.099448
vt 0.735641 0.030869
vt 0.728605 0.021185
vt 0.803860 0.124764
vt 0.810896 0.134448
vt 0.714561 0.059884
vt 0.703176 0.056185
vt 0.769750 0.135846
vt 0.769750 0.147817
vt 0.714561 0.095749
vt 0.703176 0.099448
vt 0.735641 0.124764
vt 0.728605 0.134448
vt 0.007812 0.992188
vt 0.044016 0.992188
vt 0.339848 0.992188
vt 0.304095 0.992188
vt 0.267796 0.992188
vt 0.230836 0.992188
vt 0.193367 0.992188
vt 0.155653 0.992188
vt 0.118003 0.992188
vt 0.080737 0.992188
vt 0.933720 0.018895
vt 0.954801 0.047910
vt 0.899611 0.065842
vt 0.954801 0.083775
vt 0.899611 0.007812
vt 0.933720 0.112790
vt 0.865502 0.018895
vt 0.899611 0.123872
vt 0.844422 0.047910
vt 0.865502 0.112790
vt 0.844422 0.083775
vt 0.375297 0.347289
vt 0.007812 0.424521
vt 0.375297 0.317428
vt 0.375297 0.252900
vt 0.375297 0.992188
vt 0.007812 0.007817
vn 0.000000 -0.587786 0.809017
vn 0.000000 -0.587786 0.809017
vn 0.000000 -0.587786 0.809017
vn 0.000000 -0.587786 0.809017
vn 0.000000 0.000000 1.000000
vn 0.000000 0.000000 1.000000
vn 0.000000 0.000000 1.000000
vn 0.000000 0.000000 1.000000
vn -0.000001 0.587786 0.809017
vn -0.000001 0.587786 0.809017
vn -0.000001 0.587786 0.809017
vn -0.000001 0.587786 0.809017
vn 0.000000 0.951057 0.309015
vn 0.000000 0.951057 0.309015
vn 0.000000 0.951057 0.309015
vn 0.000000 0.951057 0.309015
vn 0.000000 0.951057 -0.309015
vn 0.000000 0.951057 -0.309015
vn 0.000000 0.951057 -0.309015
vn 0.000000 0.951057 -0.309015
vn -0.000001 0.587786 -0.809017
vn -0.000001 0.587786 -0.809017
vn -0.000001 0.587786 -0.809017
vn -0.000001 0.587786 -0.809017
vn 0.000000 -0.000000 -1.000000
vn 0.000000 -0.000000 -1.000000
vn 0.000000 -0.000000 -1.000000
vn 0.000000 -0.000000 -1.000000
vn 0.000000 -0.587786 -0.809017
vn 0.000000 -0.587786 -0.809017
vn 0.000000 -0.587786 -0.809017
vn 0.000000 -0.587786 -0.809017
vn 0.000000 -0.951057 -0.309015
vn 0.000000 -0.951057 -0.309015
vn 0.000000 -0.951057 -0.309015
vn 0.000000 -0.951057 -0.309015
vn 0.000000 -0.951057 0.309015
vn 0.000000 -0.951057 0.309015
vn 0.000000 -0.951057 0.309015
vn 0.000000 -0.951057 0.309015
vn 0.587785 0.000000 -0.809017
vn 0.587785 0.000000 -0.809017
vn 0.587785 0.000000 -0.809017
vn 0.587785 0.000000 -0.809017
vn -0.000000 -0.000000 -1.000000
vn -0.000000 -0.000000 -1.000000
vn -0.000000 -0.000000 -1.000000
vn -0.000000 -0.000000 -1.000000
vn -0.587786 0.000000 -0.809017
vn -0.587786 0.000000 -0.809017
vn -0.587786 0.000000 -0.809017
vn -0.587786 0.000000 -0.809017
vn -0.951057 0.000000 -0.309016
vn -0.951057 0.000000 -0.309016
vn -0.951057 0.000000 -0.309016
vn -0.951057 0.000000 -0.309016
vn -0.951057 0.000000 0.309016
vn -0.951057 0.000000 0.309016
vn -0.951057 0.000000 0.309016
vn -0.951057 0.000000 0.309016
vn -0.587786 0.000000 0.809017
vn -0.587786 0.000000 0.809017
vn -0.587786 0.000000 0.809017
vn -0.587786 0.000000 0.809017
vn 0.000000 0.000000 1.000000
vn 0.000000 0.000000 1.000000
vn 0.000000 0.000000 1.000000
vn 0.000000 0.000000 1.000000
vn 0.587785 0.000000 0.809017
vn 0.587785 0.000000 0.809017
vn 0.587785 0.000000 0.809017
vn 0.587785 0.000000 0.809017
vn 0.951057 0.000000 0.309014
vn 0.951057 0.000000 0.309014
vn 0.951057 0.000000 0.309014
vn 0.951057 0.000000 0.309014
vn 0.951057 0.000000 -0.309014
vn 0.951057 0.000000 -0.309014
vn 0.951057 0.000000 -0.309014
vn 0.951057 0.000000 -0.309014
vn 0.000000 1.000000 0.000000
vn 0.000000 1.000000 0.000000
vn 0.000000 1.000000 0.000000
vn 0.000000 1.000000 0.000002
vn 0.000000 1.000000 0.000002
vn 0.000000 1.000000 0.000002
vn 0.000000 1.000000 -0.000002
vn 0.000000 1.000000 -0.000002
vn 0.000000 1.000000 -0.000002
vn 0.000000 1.000000 0.000000
vn 0.000000 1.000000 0.000000
vn 0.000000 1.000000 0.000000
vn 0.000000 1.000000 0.000000
vn 0.000000 1.000000 0.000000
vn 0.000000 1.000000 0.000000
vn 0.000000 1.000000 0.000000
vn 0.000000 1.000000 0.000000
vn 0.000000 1.000000 0.000000
vn 0.000000 1.000000 -0.000002
vn 0.000000 1.000000 -0.000002
vn 0.000000 1.000000 -0.000002
vn 0.000000 1.000000 0.000000
vn 0.000000 1.000000 0.000000
vn 0.000000 1.000000 0.000000
vn 0.000000 1.000000 0.000000
vn 0.000000 1.000000 0.000000
vn 0.000000 1.000000 0.000000
vn 0.000000 1.000000 0.000000
vn 0.000000 1.000000 0.000000
vn 0.000000 1.000000 0.000000
vn 0.000000 0.000000 1.000000
vn 0.000000 0.000000 1.000000
vn 0.000000 0.000000 1.000000
vn 0.000000 0.000000 1.000000
vn 0.581074 0.162795 0.797403
vn 0.579645 0.170840 0.796759
vn 0.596699 0.051526 0.800809
vn 0.596699 0.051526 0.800809
vn 0.935805 0.191716 0.295827
vn 0.935795 0.191768 0.295824
vn 0.951360 0.066920 0.300725
vn 0.951360 0.066920 0.300725
vn 0.935795 0.191768 -0.295824
vn 0.935805 0.191716 -0.295827
vn 0.951360 0.066920 -0.300724
vn 0.951360 0.066920 -0.300724
vn 0.579645 0.170840 -0.796759
vn 0.581074 0.162795 -0.797403
vn 0.596699 0.051526 -0.800809
vn 0.596699 0.051526 -0.800809
vn -0.000000 -0.000000 -1.000000
vn -0.000000 -0.000000 -1.000000
vn -0.000000 -0.000000 -1.000000
vn -0.000000 -0.000000 -1.000000
vn -0.551835 -0.253399 -0.794523
vn -0.557560 -0.233398 -0.796650
vn -0.593836 -0.073661 -0.801207
vn -0.593836 -0.073661 -0.801207
vn -0.862210 -0.411898 -0.294845
vn -0.867306 -0.400457 -0.295659
vn -0.945205 -0.125438 -0.301417
vn -0.945205 -0.125438 -0.301417
vn -0.867306 -0.400456 0.295659
vn -0.862210 -0.411898 0.294845
vn -0.945205 -0.125438 0.301417
vn -0.945205 -0.125438 0.301417
vn -0.557561 -0.233399 0.796650
vn -0.551835 -0.253399 0.794523
vn -0.593836 -0.073662 0.801207
vn -0.593836 -0.073662 0.801207
vn 0.000000 0.000000 1.000000
vn 0.000000 0.000000 1.000000
vn 0.000000 0.000000 1.000000
vn 0.000000 0.000000 1.000000
vn 0.081807 0.603011 0.793527
vn 0.081807 0.603011 0.793527
vn 0.283875 0.518142 0.806811
vn 0.252363 0.533452 0.807305
vn 0.097192 0.951014 0.293474
vn 0.097192 0.951014 0.293474
vn 0.392649 0.864884 0.312733
vn 0.370961 0.874560 0.312302
vn 0.097192 0.951013 -0.293474
vn 0.097192 0.951013 -0.293474
vn 0.370962 0.874559 -0.312303
vn 0.392649 0.864884 -0.312733
vn 0.081807 0.603011 -0.793527
vn 0.081807 0.603011 -0.793527
vn 0.252364 0.533452 -0.807305
vn 0.283876 0.518142 -0.806811
vn 0.000000 -0.000000 -1.000000
vn 0.000000 -0.000000 -1.000000
vn 0.000000 -0.000000 -1.000000
vn 0.000000 -0.000000 -1.000000
vn -0.120841 -0.595571 -0.794162
vn -0.120841 -0.595571 -0.794162
vn -0.305048 -0.518613 -0.798741
vn -0.330206 -0.506017 -0.796813
vn -0.202147 -0.933943 -0.294765
vn -0.202147 -0.933943 -0.294765
vn -0.510023 -0.807312 -0.296857
vn -0.522822 -0.799340 -0.296163
vn -0.202146 -0.933943 0.294765
vn -0.202146 -0.933943 0.294765
vn -0.522822 -0.799340 0.296162
vn -0.510023 -0.807312 0.296857
vn -0.120841 -0.595571 0.794162
vn -0.120841 -0.595571 0.794162
vn -0.330206 -0.506018 0.796812
vn -0.305049 -0.518613 0.798740
vn 0.000000 -0.951058 0.309012
vn 0.000000 -0.951058 0.309012
vn 0.000000 -0.951058 0.309012
vn 0.000000 -0.951058 0.309012
vn 0.000000 -0.951058 -0.309012
vn 0.000000 -0.951058 -0.309012
vn 0.000000 -0.951058 -0.309012
vn 0.000000 -0.951058 -0.309012
vn 0.000000 -0.587784 -0.809018
vn 0.000000 -0.587784 -0.809018
vn 0.000000 -0.587784 -0.809018
vn 0.000000 -0.587784 -0.809018
vn 0.000000 -0.000000 -1.000000
vn 0.000000 -0.000000 -1.000000
vn 0.000000 -0.000000 -1.000000
vn 0.000000 -0.000000 -1.000000
vn -0.000000 0.587784 -0.809018
vn -0.000000 0.587784 -0.809018
vn -0.000000 0.587783 -0.809018
vn -0.000000 0.587783 -0.809018
vn -0.000001 0.951058 -0.309014
vn -0.000001 0.951058 -0.309014
vn -0.000001 0.951058 -0.309014
vn -0.000001 0.951058 -0.309014
vn -0.000001 0.951058 0.309014
vn -0.000001 0.951058 0.309014
vn -0.000001 0.951058 0.309014
vn -0.000001 0.951058 0.309014
vn -0.000000 0.587784 0.809018
vn -0.000000 0.587784 0.809018
vn -0.000000 0.587784 0.809018
vn -0.000000 0.587784 0.809018
vn -0.000000 0.000000 1.000000
vn -0.000000 0.000000 1.000000
vn -0.000000 0.000000 1.000000
vn -0.000000 0.000000 1.000000
vn 0.000000 -0.587784 0.809017
vn 0.000000 -0.587784 0.809017
vn 0.000000 -0.587784 0.809017
vn 0.000000 -0.587784 0.809017
vn -1.000000 0.000001 -0.000000
vn -1.000000 -0.000001 0.000000
vn -1.000000 -0.000001 0.000000
vn -1.000000 0.000001 -0.000000
vn 1.000000 -0.000000 0.000000
vn 1.000000 -0.000001 0.000001
vn 1.000000 -0.000001 0.000001
vn -1.000000 0.000001 -0.000000
vn -1.000000 0.000001 -0.000000
vn 1.000000 0.000000 0.000000
vn -1.000000 0.000000 0.000000
vn -1.000000 0.000000 0.000000
vn 1.000000 0.000000 0.000000
vn -1.000000 0.000001 0.000000
vn -1.000000 0.000001 0.000000
vn 1.000000 0.000000 0.000000
vn -1.000000 0.000000 0.000000
vn -1.000000 0.000000 0.000000
vn 1.000000 0.000000 0.000000
vn -1.000000 0.000001 0.000000
vn -1.000000 0.000001 0.000000
vn 1.000000 0.000000 -0.000000
vn -1.000000 0.000001 0.000000
vn -1.000000 0.000001 0.000000
vn 1.000000 0.000000 -0.000001
vn -1.000000 0.000000 0.000000
vn -1.000000 0.000000 0.000000
vn 1.000000 -0.000001 -0.000001
vn -1.000000 -0.000001 0.000000
vn -1.000000 -0.000001 0.000000
vn 1.000000 -0.000001 0.000000
s off
g pCylinder14
usemtl lambert28SG
f 63/1/1 64/52/2 65/2/3 66/60/4
f 67/3/5 63/1/6 66/60/7 68/59/8
f 69/4/9 67/3/10 68/59/11 70/58/12
f 71/5/13 69/4/14 70/58/15 72/57/16
f 73/6/17 71/5/18 72/57/19 74/56/20
f 75/7/21 73/6/22 74/56/23 76/55/24
f 77/8/25 75/7/26 76/55/27 78/54/28
f 79/9/29 77/8/30 78/54/31 80/53/32
f 81/10/33 79/9/34 80/53/35 82/51/36
f 64/52/37 81/10/38 82/51/39 65/2/40
f 12/11/41 13/12/42 23/111/43 22/103/44
f 13/12/45 14/13/46 24/110/47 23/111/48
f 14/13/49 15/14/50 25/109/51 24/110/52
f 15/14/53 16/15/54 26/108/55 25/109/56
f 16/15/57 17/16/58 27/107/59 26/108/60
f 17/16/61 18/17/62 28/106/63 27/107/64
f 18/17/65 19/18/66 29/105/67 28/106/68
f 19/18/69 20/19/70 30/104/71 29/105/72
f 20/19/73 21/20/74 31/127/75 30/104/76
f 21/124/77 12/11/78 22/103/79 31/102/80
f 22/112/81 23/113/82 32/114/83
f 23/113/84 24/115/85 32/114/86
f 24/115/87 25/117/88 32/114/89
f 25/117/90 26/119/91 32/114/92
f 26/119/93 27/121/94 32/114/95
f 27/121/96 28/122/97 32/114/98
f 28/122/99 29/120/100 32/114/101
f 29/120/102 30/118/103 32/114/104
f 30/118/105 31/116/106 32/114/107
f 31/116/108 22/112/109 32/114/110
s 1
f 43/21/111 44/22/112 19/18/113 18/17/114
s 2
f 44/22/115 45/23/116 20/19/117 19/18/118
s 3
f 45/23/119 46/123/120 21/20/121 20/19/122
s 4
f 46/24/123 47/25/124 12/11/125 21/124/126
s 5
f 47/25/127 48/26/128 13/12/129 12/11/130
s 6
f 48/26/131 49/27/132 14/13/133 13/12/134
s 7
f 49/27/135 50/28/136 15/14/137 14/13/138
s 8
f 50/28/139 51/29/140 16/15/141 15/14/142
s 9
f 51/29/143 52/30/144 17/16/145 16/15/146
s 10
f 52/30/147 43/21/148 18/17/149 17/16/150
s 1
f 2/31/151 3/32/152 34/33/153 33/34/154
s 2
f 3/32/155 4/35/156 35/36/157 34/33/158
s 3
f 4/35/159 5/126/160 36/125/161 35/36/162
s 4
f 5/37/163 6/39/164 37/40/165 36/38/166
s 5
f 6/39/167 7/41/168 38/42/169 37/40/170
s 6
f 7/41/171 8/43/172 39/44/173 38/42/174
s 7
f 8/43/175 9/45/176 40/46/177 39/44/178
s 8
f 9/45/179 10/47/180 41/48/181 40/46/182
s 9
f 10/47/183 1/49/184 42/50/185 41/48/186
s 10
f 1/49/187 2/31/188 33/34/189 42/50/190
s 1
f 33/34/154 34/33/153 44/22/112 43/21/111
s 2
f 34/33/158 35/36/157 45/23/116 44/22/115
s 3
f 35/36/162 36/125/161 46/123/120 45/23/119
s 4
f 36/38/166 37/40/165 47/25/124 46/24/123
s 5
f 37/40/170 38/42/169 48/26/128 47/25/127
s 6
f 38/42/174 39/44/173 49/27/132 48/26/131
s 7
f 39/44/178 40/46/177 50/28/136 49/27/135
s 8
f 40/46/182 41/48/181 51/29/140 50/28/139
s 9
f 41/48/186 42/50/185 52/30/144 51/29/143
s 10
f 42/50/190 33/34/189 43/21/148 52/30/147
s off
f 10/47/191 54/70/192 53/62/193 1/49/194
f 9/45/195 55/69/196 54/70/197 10/47/198
f 8/43/199 56/68/200 55/69/201 9/45/202
f 7/41/203 57/67/204 56/68/205 8/43/206
f 6/39/207 58/66/208 57/67/209 7/41/210
f 5/37/211 59/128/212 58/66/213 6/39/214
f 4/35/215 60/64/216 59/65/217 5/126/218
f 3/32/219 61/63/220 60/64/221 4/35/222
f 2/31/223 62/61/224 61/63/225 3/32/226
f 1/49/227 53/62/228 62/61/229 2/31/230
s 11
f 62/82/231 53/83/232 64/84/233 63/85/234
s 12
f 11/71/235 66/72/236 65/73/237
s 11
f 61/88/238 62/82/231 63/85/234 67/89/239
s 12
f 11/71/235 68/74/240 66/72/236
s 11
f 60/92/241 61/88/238 67/89/239 69/93/242
s 12
f 11/71/235 70/76/243 68/74/240
s 11
f 59/96/244 60/92/241 69/93/242 71/97/245
s 12
f 11/71/235 72/78/246 70/76/243
s 11
f 58/100/247 59/96/244 71/97/245 73/101/248
s 12
f 11/71/235 74/80/249 72/78/246
s 11
f 57/98/250 58/100/247 73/101/248 75/99/251
s 12
f 11/71/235 76/81/252 74/80/249
s 11
f 56/94/253 57/98/250 75/99/251 77/95/254
s 12
f 11/71/235 78/79/255 76/81/252
s 11
f 55/90/256 56/94/253 77/95/254 79/91/257
s 12
f 11/71/235 80/77/258 78/79/255
s 11
f 54/86/259 55/90/256 79/91/257 81/87/260
s 12
f 11/71/235 82/75/261 80/77/258
s 11
f 53/83/232 54/86/259 81/87/260 64/84/233
s 12
f 11/71/235 65/73/237 82/75/261
