# This file uses centimeters as units for non-parametric coordinates.

mtllib Scales.mtl
g default
v -39.499952 -0.000002 49.233006
v 39.499952 -0.000002 49.233006
v -39.499952 15.480848 33.283080
v 39.499952 15.480848 33.283080
v -39.499952 15.480848 -50.431312
v 39.499952 15.480848 -50.431312
v -39.499952 -0.000002 -50.431312
v 39.499952 -0.000002 -50.431312
v -14.851067 15.480848 5.418014
v 13.992131 15.480848 6.276950
v 14.851063 15.480848 -22.566246
v -13.992136 15.480848 -23.425185
v -0.607387 15.480848 11.821104
v 20.395219 15.480848 -7.966758
v 0.607341 15.480848 -28.969337
v -20.395231 15.480848 -9.181476
v -14.851067 16.949167 5.418014
v -0.607387 16.949167 11.821104
v 13.992131 16.949167 6.276950
v 20.395219 16.949167 -7.966758
v 14.851063 16.949167 -22.566246
v 0.607341 16.949167 -28.969337
v -13.992136 16.949167 -23.425185
v -20.395231 16.949167 -9.181476
v -25.583241 16.949167 15.529447
v -1.046315 16.949167 26.559743
v -1.046315 19.863889 26.559743
v -25.583241 19.863889 15.529447
v 24.103559 16.949151 17.009102
v 24.103559 19.863873 17.009102
v 35.133851 16.949151 -7.527849
v 35.133851 19.863873 -7.527851
v 25.583196 16.949167 -32.677688
v 25.583196 19.863889 -32.677688
v 1.046236 16.949167 -43.707986
v 1.046236 19.863889 -43.707986
v -24.103563 16.949151 -34.157343
v -24.103563 19.863856 -34.157343
v -35.133872 16.949151 -9.620385
v -35.133872 19.863856 -9.620386
v 2.893476 3.362179 50.431312
v 39.094723 3.362179 50.431312
v 2.893476 17.318792 36.474699
v 39.094723 17.318792 36.474699
v 2.893476 14.742747 33.898654
v 39.094723 14.742747 33.898654
v 2.893476 0.786134 47.855267
v 39.094723 0.786134 47.855267
v 3.738097 3.959403 49.834088
v 38.250106 3.959403 49.834088
v 38.250106 16.721559 37.071932
v 3.738097 16.721559 37.071932
v 3.738097 3.630072 49.504749
v 38.250106 3.630072 49.504749
v 38.250106 16.392228 36.742584
v 3.738097 16.392228 36.742584
vt 0.539011 0.419457
vt 0.643468 0.419457
vt 0.753508 0.217192
vt 0.764376 0.217192
vt 0.764376 0.260663
vt 0.753508 0.260663
vt 0.869679 0.181082
vt 0.889775 0.181082
vt 0.889775 0.261467
vt 0.658394 0.664262
vt 0.524084 0.664262
vt 0.007812 0.007820
vt 0.410566 0.007820
vt 0.410566 0.410574
vt 0.007812 0.410574
vt 0.398662 0.664262
vt 0.783816 0.664262
vt 0.398662 0.419457
vt 0.888273 0.664262
vt 0.783816 0.419457
vt 0.888273 0.419457
vt 0.775244 0.217192
vt 0.775244 0.260663
vt 0.786111 0.217192
vt 0.786111 0.260663
vt 0.007812 0.778032
vt 0.009161 0.419457
vt 0.131304 0.535696
vt 0.105891 0.601867
vt 0.196065 0.506876
vt 0.134711 0.666628
vt 0.389134 0.420886
vt 0.262236 0.532290
vt 0.200882 0.692042
vt 0.291056 0.597050
vt 0.387786 0.779460
vt 0.265643 0.663221
vt 0.869679 0.261467
vt 0.909872 0.181081
vt 0.909872 0.261467
vt 0.929968 0.181081
vt 0.929968 0.261467
vt 0.950065 0.181082
vt 0.950065 0.261467
vt 0.970161 0.261467
vt 0.829486 0.181081
vt 0.796979 0.217192
vt 0.796979 0.260663
vt 0.807846 0.260663
vt 0.731773 0.217192
vt 0.731773 0.260663
vt 0.742641 0.217192
vt 0.742641 0.260663
vt 0.829486 0.261466
vt 0.849582 0.181081
vt 0.849582 0.261466
vt 0.693623 0.279766
vt 0.692823 0.054141
vt 0.739952 0.166788
vt 0.580976 0.326894
vt 0.579845 0.007812
vt 0.467998 0.280566
vt 0.467198 0.054941
vt 0.420870 0.167919
vt 0.604848 0.899195
vt 0.633020 0.834150
vt 0.699939 0.835222
vt 0.651409 0.947272
vt 0.606947 0.768236
vt 0.655024 0.721675
vt 0.538934 0.925268
vt 0.537862 0.992188
vt 0.541902 0.740064
vt 0.542974 0.673145
vt 0.473889 0.897096
vt 0.425812 0.943657
vt 0.475988 0.766137
vt 0.429427 0.718060
vt 0.447816 0.831182
vt 0.380897 0.830110
vt 0.970161 0.181082
vt 0.990258 0.181081
vt 0.990258 0.261466
vt 0.807846 0.217192
vt 0.818714 0.217192
vt 0.818714 0.260663
vt 0.851693 0.164468
vt 0.852261 0.007820
vt 0.934181 0.008117
vt 0.933614 0.164765
vt 0.925968 0.524255
vt 0.925968 0.688571
vt 0.909432 0.688571
vt 0.909432 0.524255
vt 0.909432 0.434666
vt 0.909432 0.270350
vt 0.925968 0.270350
vt 0.925968 0.434666
vt 0.925968 0.778159
vt 0.909432 0.778159
vt 0.750081 0.172431
vt 0.749539 0.008115
vt 0.753385 0.011936
vt 0.753901 0.168584
vt 0.839127 0.007820
vt 0.835306 0.011667
vt 0.839668 0.172135
vt 0.835822 0.168314
vt 0.991493 0.590841
vt 0.991493 0.747490
vt 0.989379 0.747490
vt 0.989379 0.590841
vt 0.991493 0.270350
vt 0.991493 0.352271
vt 0.989379 0.352271
vt 0.989379 0.270350
vt 0.991493 0.508920
vt 0.989379 0.508920
vn 0.000000 0.717580 0.696476
vn 0.000000 0.717580 0.696476
vn 0.000000 0.717580 0.696476
vn 0.000000 0.717580 0.696476
vn 0.000000 0.000000 -1.000000
vn 0.000000 0.000000 -1.000000
vn 0.000000 0.000000 -1.000000
vn 0.000000 0.000000 -1.000000
vn 0.000000 -1.000000 0.000000
vn 0.000000 -1.000000 0.000000
vn 0.000000 -1.000000 0.000000
vn 0.000000 -1.000000 0.000000
vn 1.000000 0.000000 0.000000
vn 1.000000 0.000000 0.000000
vn 1.000000 0.000000 0.000000
vn 1.000000 0.000000 0.000000
vn -1.000000 0.000000 0.000000
vn -1.000000 0.000000 0.000000
vn -1.000000 0.000000 0.000000
vn -1.000000 0.000000 0.000000
vn 0.000000 1.000000 0.000000
vn 0.000000 1.000000 0.000000
vn 0.000000 1.000000 0.000001
vn 0.000000 1.000000 0.000001
vn 0.000000 1.000000 -0.000001
vn 0.000000 1.000000 -0.000000
vn 0.000000 1.000000 -0.000000
vn 0.000000 1.000000 -0.000001
vn 0.000000 1.000000 -0.000001
vn 0.000000 1.000000 -0.000001
vn 0.000000 1.000000 -0.000000
vn 0.000000 1.000000 0.000001
vn -0.410013 0.000000 0.912080
vn -0.410013 0.000000 0.912080
vn -0.410013 0.000000 0.912080
vn -0.410013 0.000000 0.912080
vn 0.355013 0.000000 0.934861
vn 0.355013 0.000000 0.934861
vn 0.355013 0.000000 0.934861
vn 0.355013 0.000000 0.934861
vn 0.912080 0.000000 0.410013
vn 0.912080 0.000000 0.410013
vn 0.912080 0.000000 0.410013
vn 0.912080 0.000000 0.410013
vn 0.934861 0.000000 -0.355013
vn 0.934861 0.000000 -0.355013
vn 0.934861 0.000000 -0.355013
vn 0.934861 0.000000 -0.355013
vn 0.410016 0.000000 -0.912078
vn 0.410016 0.000000 -0.912078
vn 0.410016 0.000000 -0.912078
vn 0.410016 0.000000 -0.912078
vn -0.355015 0.000000 -0.934861
vn -0.355015 0.000000 -0.934861
vn -0.355015 0.000000 -0.934861
vn -0.355015 0.000000 -0.934861
vn -0.912078 0.000000 -0.410016
vn -0.912078 0.000000 -0.410016
vn -0.912078 0.000000 -0.410016
vn -0.912078 0.000000 -0.410016
vn -0.934861 0.000000 0.355013
vn -0.934861 0.000000 0.355013
vn -0.934861 0.000000 0.355013
vn -0.934861 0.000000 0.355013
vn -0.410015 0.000000 0.912079
vn -0.410015 0.000000 0.912079
vn -0.410015 0.000000 0.912079
vn -0.410015 0.000000 0.912079
vn 0.355013 0.000000 0.934861
vn 0.355013 0.000000 0.934861
vn 0.355013 0.000000 0.934861
vn 0.355013 0.000000 0.934861
vn 0.912079 0.000000 0.410015
vn 0.912079 0.000000 0.410015
vn 0.912079 0.000000 0.410015
vn 0.912079 0.000000 0.410015
vn 0.934861 0.000000 -0.355014
vn 0.934861 0.000000 -0.355014
vn 0.934861 0.000000 -0.355014
vn 0.934861 0.000000 -0.355014
vn 0.410015 0.000000 -0.912079
vn 0.410015 0.000000 -0.912079
vn 0.410015 0.000000 -0.912079
vn 0.410015 0.000000 -0.912079
vn -0.355013 0.000000 -0.934861
vn -0.355013 0.000000 -0.934861
vn -0.355013 0.000000 -0.934861
vn -0.355013 0.000000 -0.934861
vn -0.912079 0.000000 -0.410015
vn -0.912079 0.000000 -0.410015
vn -0.912079 0.000000 -0.410015
vn -0.912079 0.000000 -0.410015
vn -0.934861 0.000002 0.355015
vn -0.934861 0.000002 0.355015
vn -0.934861 0.000002 0.355015
vn -0.934861 0.000002 0.355015
vn 0.000000 -1.000000 -0.000000
vn -0.000000 -1.000000 -0.000001
vn -0.000000 -1.000000 -0.000001
vn 0.000000 -1.000000 -0.000000
vn -0.000001 -1.000000 -0.000001
vn -0.000001 -1.000000 -0.000001
vn -0.000001 -1.000000 -0.000001
vn -0.000001 -1.000000 -0.000001
vn -0.000000 -1.000000 -0.000000
vn -0.000000 -1.000000 -0.000000
vn 0.000000 -1.000000 0.000000
vn 0.000000 -1.000000 0.000000
vn 0.000001 -1.000000 0.000000
vn 0.000001 -1.000000 0.000000
vn 0.000001 -1.000000 0.000000
vn 0.000001 -1.000000 0.000000
vn -0.000000 1.000000 -0.000000
vn -0.000000 1.000000 -0.000000
vn -0.000001 1.000000 0.000001
vn 0.000000 1.000000 0.000000
vn 0.000000 1.000000 0.000000
vn 0.000000 1.000000 -0.000001
vn -0.000000 1.000000 -0.000000
vn -0.000000 1.000000 -0.000000
vn 0.000000 0.707107 0.707107
vn 0.000000 0.707107 0.707107
vn 0.000000 0.707107 0.707107
vn 0.000000 0.707107 0.707107
vn 0.000000 0.707106 -0.707107
vn 0.000000 0.707106 -0.707107
vn 0.000000 0.707106 -0.707107
vn 0.000000 0.707106 -0.707107
vn 0.000000 -0.707106 0.707107
vn 0.000000 -0.707106 0.707107
vn 0.000000 -0.707106 0.707107
vn 0.000000 -0.707106 0.707107
vn 1.000000 0.000000 0.000000
vn 1.000000 0.000000 0.000000
vn 1.000000 0.000000 0.000000
vn 1.000000 0.000000 0.000000
vn -1.000000 0.000000 0.000000
vn -1.000000 0.000000 0.000000
vn -1.000000 0.000000 0.000000
vn -1.000000 0.000000 0.000000
vn -0.000001 0.707109 0.707105
vn 0.000001 0.707107 0.707107
vn 0.000001 0.707107 0.707107
vn -0.000001 0.707109 0.707105
vn 0.000001 0.707108 0.707105
vn 0.000001 0.707108 0.707105
vn -0.000001 0.707110 0.707104
vn -0.000001 0.707110 0.707104
vn 0.000000 0.707117 -0.707096
vn 0.000000 0.707117 -0.707096
vn 0.000000 0.707117 -0.707096
vn 0.000000 0.707117 -0.707096
vn -1.000000 0.000006 0.000000
vn -1.000000 0.000006 0.000000
vn -1.000000 0.000006 0.000000
vn -1.000000 0.000006 0.000000
vn 0.000000 -0.707126 0.707087
vn 0.000000 -0.707126 0.707087
vn 0.000000 -0.707126 0.707087
vn 0.000000 -0.707126 0.707087
vn 1.000000 0.000001 0.000000
vn 1.000000 0.000001 0.000000
vn 1.000000 0.000001 0.000000
vn 1.000000 0.000001 0.000000
s off
g pCube71
usemtl lambert31SG
f 1/1/1 2/2/2 4/10/3 3/11/4
f 5/19/5 6/17/6 8/20/7 7/21/8
f 7/12/9 8/13/10 2/14/11 1/15/12
f 4/10/13 2/2/14 8/20/15 6/17/16
f 7/18/17 1/1/18 3/11/19 5/16/20
s 1
f 3/26/21 4/27/22 10/28/23 13/29/24
f 4/27/22 6/32/25 11/33/26 14/30/27
f 6/32/25 5/36/28 12/37/29 15/35/30
f 16/34/31 3/26/21 9/31/32
s off
f 9/3/33 13/4/34 18/5/35 17/6/36
f 13/4/37 10/22/38 19/23/39 18/5/40
f 10/22/41 14/24/42 20/25/43 19/23/44
f 14/24/45 11/47/46 21/48/47 20/25/48
f 11/47/49 15/84/50 22/49/51 21/48/52
f 15/84/53 12/85/54 23/86/55 22/49/56
f 12/50/57 16/52/58 24/53/59 23/51/60
f 16/52/61 9/3/62 17/6/63 24/53/64
f 25/7/65 26/8/66 27/9/67 28/38/68
f 26/8/69 29/39/70 30/40/71 27/9/72
f 29/39/73 31/41/74 32/42/75 30/40/76
f 31/41/77 33/43/78 34/44/79 32/42/80
f 33/43/81 35/81/82 36/45/83 34/44/84
f 35/81/85 37/82/86 38/83/87 36/45/88
f 37/46/89 39/55/90 40/56/91 38/54/92
f 39/55/93 25/7/94 28/38/95 40/56/96
s 4
f 17/65/97 18/66/98 26/67/99 25/68/100
f 18/66/98 19/69/101 29/70/102 26/67/99
f 19/69/101 20/73/103 31/74/104 29/70/102
f 20/73/103 21/77/105 33/78/106 31/74/104
f 21/77/105 22/79/107 35/80/108 33/78/106
f 22/79/107 23/75/109 37/76/110 35/80/108
f 23/75/109 24/71/111 39/72/112 37/76/110
s 5
f 38/57/113 34/58/114 36/59/115
s 4
f 24/71/111 17/65/97 25/68/100 39/72/112
s 1
f 6/32/25 15/35/30 11/33/26
f 5/36/28 3/26/21 16/34/31 12/37/29
f 3/26/21 13/29/24 9/31/32
f 4/27/22 14/30/27 10/28/23
s 5
f 30/63/116 28/62/117 27/64/118
f 38/57/113 40/60/119 32/61/120 34/58/114
f 32/61/120 40/60/119 28/62/117 30/63/116
s off
f 53/87/121 54/88/122 55/89/123 56/90/124
f 43/91/125 44/92/126 46/93/127 45/94/128
f 47/95/129 48/96/130 42/97/131 41/98/132
f 42/99/133 48/100/134 46/93/135 44/92/136
f 47/95/137 41/98/138 43/91/139 45/94/140
s 7
f 41/101/141 42/102/142 50/103/143 49/104/144
f 42/102/142 44/105/145 51/106/146 50/103/143
f 44/105/145 43/107/147 52/108/148 51/106/146
f 43/107/147 41/101/141 49/104/144 52/108/148
s off
f 49/109/149 50/110/150 54/111/151 53/112/152
f 50/113/153 51/114/154 55/115/155 54/116/156
f 51/114/157 52/117/158 56/118/159 55/115/160
f 52/117/161 49/109/162 53/112/163 56/118/164
