# This file uses centimeters as units for non-parametric coordinates.

mtllib Tub_1.mtl
g default
v -37.834977 83.580076 56.470617
v 37.834977 83.580076 56.470617
v 37.834977 83.580076 -56.470617
v -37.834977 83.580076 -56.470617
v -37.834977 4.469309 56.470617
v 37.834977 4.469309 56.470617
v 37.834977 4.469309 -56.470617
v -37.834977 4.469309 -56.470617
v -41.790037 -0.000009 56.471017
v -37.835376 -0.000009 60.425657
v -37.835376 83.580076 60.425657
v -41.790037 83.580076 56.471017
v 41.790037 -0.000009 56.471017
v 37.835386 -0.000009 60.425657
v 37.835386 83.580076 60.425657
v 41.790037 83.580076 56.471017
v -37.835376 83.580076 -60.425657
v -41.790037 83.580076 -56.471017
v -41.790037 -0.000009 -56.471017
v -37.835376 -0.000009 -60.425657
v 37.835386 83.580076 -60.425657
v 41.790037 83.580076 -56.471017
v 41.790037 -0.000009 -56.471017
v 37.835386 -0.000009 -60.425657
vt 0.229345 0.351882
vt 0.229345 0.007813
vt 0.351882 0.007813
vt 0.351882 0.351882
vt 0.210826 0.686042
vt 0.333050 0.686042
vt 0.333050 0.360805
vt 0.007812 0.007813
vt 0.007812 0.351882
vt 0.573414 0.007813
vt 0.930813 0.319460
vt 0.931386 0.018746
vt 0.708850 0.018322
vt 0.708277 0.319036
vt 0.210826 0.360805
vt 0.536063 0.360805
vt 0.007812 0.686042
vt 0.007812 0.360805
vt 0.726123 0.691475
vt 0.927599 0.691475
vt 0.927599 0.992188
vt 0.726123 0.992188
vt 0.536063 0.686042
vt 0.658287 0.686042
vt 0.658287 0.360805
vt 0.920877 0.008196
vt 0.360388 0.351882
vt 0.360388 0.007813
vt 0.719399 0.007812
vt 0.564909 0.007813
vt 0.564909 0.351882
vt 0.920264 0.329969
vt 0.718786 0.329585
vt 0.016318 0.351882
vt 0.016318 0.007813
vt 0.220839 0.007813
vt 0.220839 0.351882
vt 0.695951 0.351882
vt 0.573414 0.351882
vt 0.695951 0.007813
vt 0.678619 0.360899
vt 0.880096 0.360260
vt 0.880128 0.370791
vt 0.678653 0.371430
vt 0.890658 0.370756
vt 0.668123 0.371462
vt 0.891612 0.671469
vt 0.881082 0.671502
vt 0.679607 0.672141
vt 0.669077 0.672175
vt 0.881116 0.682032
vt 0.679640 0.682671
vn 0.000000 0.000000 1.000000
vn 0.000000 0.000000 1.000000
vn 0.000000 0.000000 1.000000
vn 0.000000 0.000000 1.000000
vn 0.000000 1.000000 0.000000
vn 0.000000 1.000000 0.000000
vn 0.000000 1.000000 0.000000
vn 0.000000 1.000000 0.000000
vn 0.000000 0.000000 -1.000000
vn 0.000000 0.000000 -1.000000
vn 0.000000 0.000000 -1.000000
vn 0.000000 0.000000 -1.000000
vn 1.000000 0.000000 0.000000
vn 1.000000 0.000000 0.000000
vn 1.000000 0.000000 0.000000
vn 1.000000 0.000000 0.000000
vn -1.000000 0.000000 0.000000
vn -1.000000 0.000000 0.000000
vn -1.000000 0.000000 0.000000
vn -1.000000 0.000000 0.000000
vn 0.000000 0.000000 -1.000000
vn 0.000000 0.000000 -1.000000
vn 0.000000 0.000000 -1.000000
vn 0.000000 0.000000 -1.000000
vn -1.000000 0.000000 0.000000
vn -1.000000 0.000000 0.000000
vn -1.000000 0.000000 0.000000
vn -1.000000 0.000000 0.000000
vn 0.000000 0.000000 1.000000
vn 0.000000 0.000000 1.000000
vn 0.000000 0.000000 1.000000
vn 0.000000 0.000000 1.000000
vn 1.000000 0.000000 0.000000
vn 1.000000 0.000000 0.000000
vn 1.000000 0.000000 0.000000
vn 1.000000 0.000000 0.000000
vn 0.000000 1.000000 0.000000
vn 0.000000 1.000000 0.000000
vn 0.000000 1.000000 0.000000
vn 0.000000 1.000000 0.000000
vn 0.000000 1.000000 0.000000
vn 0.000000 1.000000 0.000000
vn 0.000000 1.000000 0.000000
vn 0.000000 1.000000 0.000000
vn 0.000000 -1.000000 0.000000
vn 0.000000 -1.000000 0.000000
vn 0.000000 -1.000000 0.000000
vn 0.000000 -1.000000 0.000000
vn 0.000000 1.000000 0.000000
vn 0.000000 1.000000 0.000000
vn -0.707105 0.000000 0.707109
vn -0.707105 0.000000 0.707109
vn -0.707105 0.000000 0.707109
vn -0.707105 0.000000 0.707109
vn 0.707106 0.000000 0.707108
vn 0.707106 0.000000 0.707108
vn 0.707106 0.000000 0.707108
vn 0.707106 0.000000 0.707108
vn -0.707105 0.000000 -0.707109
vn -0.707105 0.000000 -0.707109
vn -0.707105 0.000000 -0.707109
vn -0.707105 0.000000 -0.707109
vn 0.707106 0.000000 -0.707108
vn 0.707106 0.000000 -0.707108
vn 0.707106 0.000000 -0.707108
vn 0.707106 0.000000 -0.707108
vn 0.000000 1.000000 0.000000
vn 0.000000 1.000000 0.000000
vn 0.000000 -1.000000 0.000000
vn 0.000000 -1.000000 0.000000
vn 0.000000 -1.000000 0.000000
vn 0.000000 -1.000000 0.000000
s off
g pCylinder18_f_0:pCube1
usemtl pCylinder18_f_0:lambert1SG
f 11/1/1 10/2/2 14/3/3 15/4/4
f 5/19/5 6/20/6 7/21/7 8/22/8
f 20/40/9 17/38/10 21/39/11 24/10/12
f 16/27/13 13/28/14 23/30/15 22/31/16
f 18/34/17 19/35/18 9/36/19 12/37/20
f 1/5/21 2/6/22 6/7/23 5/15/24
f 2/6/25 3/23/26 7/16/27 6/7/28
f 3/23/29 4/24/30 8/25/31 7/16/32
f 4/17/33 1/5/34 5/15/35 8/18/36
s 1
f 11/41/37 15/42/38 2/43/39 1/44/40
f 3/48/41 22/47/42 21/51/43
f 1/44/40 12/46/44 11/41/37
s 3
f 19/13/45 23/12/46 13/11/47 9/14/48
s 1
f 21/51/43 17/52/49 4/49/50 3/48/41
s off
f 9/36/51 10/2/52 11/1/53 12/37/54
f 14/3/55 13/28/56 16/27/57 15/4/58
f 18/34/59 17/9/60 20/8/61 19/35/62
f 21/39/63 22/31/64 23/30/65 24/10/66
s 1
f 2/43/39 16/45/67 22/47/42 3/48/41
f 17/52/49 18/50/68 4/49/50
f 4/49/50 18/50/68 12/46/44 1/44/40
f 15/42/38 16/45/67 2/43/39
s 3
f 9/14/48 13/11/47 14/32/69 10/33/70
f 19/13/45 20/29/71 24/26/72 23/12/46
