# This file uses centimeters as units for non-parametric coordinates.

mtllib Vial_12.mtl
g default
v 7.552853 -0.000001 4.568524
v -7.552841 -0.000001 4.568524
v 7.552853 -0.000001 -4.568487
v -7.552841 -0.000001 -4.568487
v -6.561651 2.680188 -3.577285
v 6.561639 2.680188 -3.577285
v -6.561651 2.680188 3.577340
v 6.561639 2.680188 3.577340
v -6.561651 50.130890 -3.577285
v -6.561651 50.130890 3.577340
v 6.561639 50.130890 3.577340
v 6.561639 50.130890 -3.577285
v 25.801770 50.130890 -8.349583
v -23.831754 50.130890 -8.349583
v -23.831754 2.680188 -8.349583
v 25.801770 2.680188 -8.349583
v -23.831754 50.130890 8.349620
v -23.831754 2.680188 8.349620
v 25.801770 50.130890 8.349620
v 25.801770 2.680188 8.349620
v -26.223340 -0.000001 7.682194
v -26.223340 1.334241 9.016436
v -27.557582 1.334241 7.682194
v -7.552841 -0.000001 7.682194
v -7.552841 1.334241 9.016436
v -27.557582 49.803572 7.682194
v -26.223340 49.803572 9.016436
v -26.223340 51.137814 7.682194
v -7.552841 49.803572 9.016436
v -7.552841 51.137814 7.682194
v -26.223340 51.137814 -7.682145
v -26.223340 49.803572 -9.016387
v -27.557582 49.803572 -7.682145
v -7.552841 49.803572 -9.016387
v -7.552841 51.137814 -7.682145
v -27.557582 1.334241 -7.682145
v -26.223340 1.334241 -9.016387
v -26.223340 -0.000001 -7.682145
v -7.552841 1.334241 -9.016387
v -7.552841 -0.000001 -7.682145
v 27.557607 1.334241 7.682194
v 26.223365 1.334241 9.016436
v 26.223365 -0.000001 7.682194
v 26.223365 49.803572 9.016436
v 27.557607 49.803572 7.682194
v 26.223365 51.137814 7.682194
v -26.223340 51.137814 4.568524
v -27.557582 49.803572 4.568524
v 26.223365 51.137814 4.568524
v 27.557607 49.803572 4.568524
v 27.557607 49.803572 -7.682145
v 26.223365 49.803572 -9.016387
v 26.223365 51.137814 -7.682145
v 26.223365 1.334241 -9.016387
v 27.557607 1.334241 -7.682145
v 26.223365 -0.000001 -7.682145
v -26.223340 -0.000001 -4.568487
v -27.557582 1.334241 -4.568487
v 27.557607 1.334241 -4.568487
v 26.223365 -0.000001 -4.568487
v 7.552853 -0.000001 7.682194
v 7.552853 1.334241 9.016436
v 7.552853 1.334241 -9.016387
v 7.552853 -0.000001 -7.682145
v 7.552853 49.803572 -9.016387
v 7.552853 51.137814 -7.682145
v 7.552853 49.803572 9.016436
v 7.552853 51.137814 7.682194
v -26.223340 51.137814 -4.568487
v -27.557582 49.803572 -4.568487
v 26.223365 51.137814 -4.568487
v 27.557607 49.803572 -4.568487
v 27.557607 1.334241 4.568518
v 26.223365 -0.000001 4.568518
v -26.223340 -0.000001 4.568518
v -27.557582 1.334241 4.568518
v -7.552841 51.137814 -4.991435
v -7.975813 51.137814 -4.568487
v -7.552841 51.137814 -4.072923
v -7.057276 51.137814 -4.568487
v -7.057276 89.202075 -4.568487
v -7.552841 89.202075 -4.072923
v -7.057176 89.697615 -4.072823
v 7.975825 51.137814 -4.568487
v 7.552853 51.137814 -4.991435
v 7.057307 51.137814 -4.568487
v 7.552853 51.137814 -4.072923
v 7.552853 89.202075 -4.072923
v 7.057307 89.202075 -4.568487
v 7.057208 89.697615 -4.072823
v -7.975813 51.137814 4.568518
v -7.552841 51.137814 4.991477
v -7.057276 51.137814 4.568518
v -7.552841 51.137814 4.072959
v -7.552841 89.202075 4.072959
v -7.057276 89.202075 4.568518
v -7.057226 89.697615 4.072910
v 7.975825 51.137814 4.568518
v 7.552853 51.137814 4.072959
v 7.057307 51.137814 4.568518
v 7.552853 51.137814 4.991477
v 7.057307 89.202075 4.568518
v 7.552853 89.202075 4.072959
v 7.057208 89.697615 4.072860
v -7.057179 89.697615 -4.072837
v -6.561651 89.202075 -3.577285
v 7.057185 89.697615 -4.072837
v 6.561639 89.202075 -3.577285
v -7.057229 89.697615 4.072929
v -6.561651 89.202075 3.577340
v 7.057185 89.697615 4.072880
v 6.561639 89.202075 3.577340
vt 0.385948 0.875918
vt 0.440611 0.875918
vt 0.440611 0.703891
vt 0.385948 0.703891
vt 0.145486 0.007812
vt 0.143927 0.017554
vt 0.131143 0.017554
vt 0.132117 0.007812
vt 0.150975 0.017554
vt 0.205964 0.007812
vt 0.215425 0.017554
vt 0.150975 0.371418
vt 0.143927 0.371418
vt 0.390620 0.007812
vt 0.381158 0.017554
vt 0.145486 0.381159
vt 0.132117 0.381159
vt 0.131143 0.371418
vt 0.215425 0.371418
vt 0.205964 0.381159
vt 0.381158 0.371418
vt 0.390620 0.381159
vt 0.077752 0.381159
vt 0.079311 0.371418
vt 0.092095 0.371418
vt 0.091121 0.381159
vt 0.072263 0.371418
vt 0.017274 0.381159
vt 0.007812 0.371418
vt 0.072263 0.017554
vt 0.079311 0.017554
vt 0.579311 0.381159
vt 0.077752 0.007812
vt 0.091121 0.007812
vt 0.092095 0.017554
vt 0.007812 0.017554
vt 0.017274 0.007812
vt 0.588772 0.017554
vt 0.452657 0.017554
vt 0.451098 0.007812
vt 0.007812 0.703891
vt 0.012480 0.703891
vt 0.012480 0.887309
vt 0.007812 0.887309
vt 0.253646 0.703891
vt 0.258314 0.703891
vt 0.258314 0.887309
vt 0.253646 0.887309
vt 0.070229 0.703891
vt 0.890267 0.310845
vt 0.894416 0.311811
vt 0.894436 0.400561
vt 0.890128 0.401039
vt 0.074896 0.703891
vt 0.946237 0.311791
vt 0.893853 0.404755
vt 0.946620 0.399408
vt 0.947311 0.403692
vt 0.074896 0.887309
vt 0.070229 0.887309
vt 0.894422 0.311817
vt 0.557975 0.875918
vt 0.557975 0.703891
vt 0.894443 0.400557
vt 0.946229 0.311795
vt 0.612638 0.875918
vt 0.946618 0.399405
vt 0.942660 0.395453
vt 0.942133 0.315606
vt 0.898498 0.396669
vt 0.898335 0.315836
vt 0.191230 0.703891
vt 0.950736 0.400511
vt 0.950549 0.311206
vt 0.946783 0.307577
vt 0.195898 0.703891
vt 0.195898 0.887309
vt 0.894040 0.307508
vt 0.191230 0.887309
vt 0.374648 0.703891
vt 0.374648 0.887309
vt 0.464467 0.007812
vt 0.465442 0.017554
vt 0.445609 0.017554
vt 0.452657 0.371418
vt 0.445609 0.371418
vt 0.451098 0.381159
vt 0.465442 0.371418
vt 0.464467 0.381159
vt 0.504489 0.371418
vt 0.505463 0.381159
vt 0.517274 0.371418
vt 0.518832 0.381159
vt 0.524321 0.371418
vt 0.517274 0.017554
vt 0.524321 0.017554
vt 0.518832 0.007812
vt 0.504489 0.017554
vt 0.505463 0.007812
vt 0.940397 0.747989
vt 0.923953 0.747989
vt 0.921366 0.745405
vt 0.921366 0.633880
vt 0.940397 0.633880
vt 0.940397 0.840309
vt 0.923953 0.840309
vt 0.921366 0.837281
vt 0.921366 0.751019
vt 0.918339 0.747989
vt 0.868556 0.747989
vt 0.865525 0.745405
vt 0.865525 0.633880
vt 0.921366 0.954417
vt 0.921366 0.842892
vt 0.940397 0.954417
vt 0.918339 0.840309
vt 0.865525 0.751019
vt 0.862942 0.747989
vt 0.846497 0.747989
vt 0.846497 0.633880
vt 0.865525 0.954417
vt 0.865525 0.842892
vt 0.868556 0.840309
vt 0.865525 0.837281
vt 0.862942 0.840309
vt 0.846497 0.840309
vt 0.846497 0.954417
vt 0.814715 0.747987
vt 0.814715 0.840308
vt 0.758873 0.840308
vt 0.758873 0.747987
vt 0.833744 0.840308
vt 0.833744 0.747987
vt 0.758873 0.954416
vt 0.814715 0.954416
vt 0.739844 0.840308
vt 0.739844 0.747987
vt 0.814715 0.633880
vt 0.758873 0.633880
vt 0.833744 0.954416
vt 0.833744 0.633880
vt 0.739844 0.954416
vt 0.739844 0.633880
vt 0.763966 0.381159
vt 0.754505 0.371418
vt 0.579311 0.007812
vt 0.763966 0.007812
vt 0.588772 0.371418
vt 0.754505 0.017554
vt 0.730001 0.875918
vt 0.730001 0.703891
vt 0.612638 0.703891
vt 0.711011 0.680852
vt 0.608951 0.680852
vt 0.608951 0.390855
vt 0.711011 0.390855
vt 0.992188 0.297813
vt 0.890128 0.297813
vt 0.890128 0.007812
vt 0.992188 0.007812
vt 0.846672 0.125398
vt 0.846672 0.205603
vt 0.802947 0.205603
vt 0.802947 0.125398
vt 0.875840 0.007812
vt 0.875840 0.311148
vt 0.773779 0.311148
vt 0.773779 0.007812
vt 0.802946 0.438432
vt 0.802946 0.518636
vt 0.773779 0.624184
vt 0.773779 0.320844
vt 0.846670 0.518636
vt 0.875839 0.624184
vt 0.846670 0.438432
vt 0.875839 0.320844
vt 0.598382 0.390855
vt 0.598382 0.694196
vt 0.308382 0.694196
vt 0.308382 0.390855
vt 0.007812 0.694193
vt 0.007812 0.390855
vt 0.297815 0.390855
vt 0.297815 0.694193
vn 0.000000 1.000000 0.000000
vn 0.000000 1.000000 0.000000
vn 0.000000 1.000000 0.000000
vn 0.000000 1.000000 0.000000
vn 0.000000 -1.000000 0.000000
vn 0.000000 -1.000000 0.000000
vn 0.000000 -1.000000 0.000000
vn 0.000000 -1.000000 0.000000
vn 0.000000 0.000000 1.000000
vn 0.000000 0.000000 1.000000
vn 0.000000 0.000000 1.000000
vn 0.000000 0.000000 1.000000
vn 1.000000 0.000000 0.000000
vn 1.000000 0.000000 0.000000
vn 1.000000 0.000000 0.000000
vn 1.000000 0.000000 0.000000
vn 0.000000 0.000000 -1.000000
vn 0.000000 0.000000 -1.000000
vn 0.000000 0.000000 -1.000000
vn 0.000000 0.000000 -1.000000
vn -1.000000 0.000000 0.000000
vn -1.000000 0.000000 0.000000
vn -1.000000 0.000000 0.000000
vn -1.000000 0.000000 0.000000
vn 0.000000 -1.000000 0.000000
vn 0.000000 -1.000000 0.000000
vn 0.000000 -1.000000 0.000000
vn 0.000000 -1.000000 0.000000
vn 0.000000 1.000000 0.000000
vn 0.000000 1.000000 0.000000
vn 0.000000 -1.000000 0.000000
vn 0.000000 -1.000000 0.000000
vn 0.000000 1.000000 0.000000
vn 0.000000 -1.000000 0.000000
vn 0.000000 -1.000000 0.000000
vn 0.000000 1.000000 0.000000
vn -0.707106 -0.707107 0.000000
vn -0.707106 -0.707107 0.000000
vn -0.707107 -0.707107 0.000000
vn -0.707107 -0.707107 0.000000
vn 0.000000 -0.707107 0.707107
vn 0.000000 -0.707107 0.707107
vn 0.000000 -0.707107 0.707107
vn 0.000000 -0.707107 0.707107
vn -0.707107 0.000000 0.707107
vn -0.707107 0.000000 0.707107
vn -0.707107 0.000000 0.707107
vn -0.707107 0.000000 0.707107
vn 0.000000 -0.707107 0.707107
vn 0.000000 -0.707107 0.707107
vn -0.707107 0.707107 0.000000
vn -0.707107 0.707107 0.000000
vn -0.707107 0.707107 0.000000
vn -0.707107 0.707107 0.000000
vn 0.000000 0.707107 0.707107
vn 0.000000 0.707107 0.707107
vn 0.000000 0.707107 0.707107
vn 0.000000 0.707107 0.707107
vn 0.000000 0.707107 0.707106
vn 0.000000 0.707107 0.707106
vn -0.707107 0.707107 0.000000
vn -0.707107 0.707107 0.000000
vn -0.707107 0.707107 0.000000
vn -0.707107 0.707107 0.000000
vn 0.000000 0.707107 -0.707107
vn 0.000000 0.707107 -0.707107
vn 0.000000 0.707107 -0.707107
vn 0.000000 0.707107 -0.707107
vn -0.707107 0.000000 -0.707107
vn -0.707107 0.000000 -0.707107
vn -0.707107 0.000000 -0.707107
vn -0.707107 0.000000 -0.707107
vn 0.000000 0.707107 -0.707106
vn 0.000000 0.707107 -0.707106
vn -0.707107 -0.707107 0.000000
vn -0.707107 -0.707107 0.000000
vn -0.707107 -0.707107 0.000000
vn -0.707107 -0.707107 0.000000
vn 0.000000 -0.707107 -0.707107
vn 0.000000 -0.707107 -0.707107
vn 0.000000 -0.707107 -0.707107
vn 0.000000 -0.707107 -0.707107
vn 0.000000 -0.707107 -0.707107
vn 0.000000 -0.707107 -0.707107
vn 0.707107 -0.707106 0.000000
vn 0.707107 -0.707106 0.000000
vn 0.707107 -0.707106 0.000000
vn 0.707107 -0.707106 0.000000
vn 0.707107 0.000000 0.707107
vn 0.707107 0.000000 0.707107
vn 0.707107 0.000000 0.707107
vn 0.707107 0.000000 0.707107
vn 0.000000 -0.707107 0.707107
vn 0.000000 -0.707107 0.707107
vn 0.000000 0.707107 0.707106
vn 0.000000 0.707107 0.707106
vn 0.707107 0.707107 0.000000
vn 0.707107 0.707107 0.000000
vn 0.707107 0.707107 0.000000
vn 0.707107 0.707107 0.000000
vn 0.707107 0.707107 0.000000
vn 0.707107 0.707107 0.000000
vn 0.707106 0.707107 0.000000
vn 0.707106 0.707107 0.000000
vn 0.707107 0.000000 -0.707107
vn 0.707107 0.000000 -0.707107
vn 0.707107 0.000000 -0.707107
vn 0.707107 0.000000 -0.707107
vn 0.000000 0.707107 -0.707106
vn 0.000000 0.707107 -0.707106
vn 0.000000 -0.707107 -0.707107
vn 0.000000 -0.707107 -0.707107
vn 0.707106 -0.707107 0.000000
vn 0.707106 -0.707107 0.000000
vn 0.707107 -0.707107 0.000000
vn 0.707107 -0.707107 0.000000
vn 0.000000 0.000000 1.000000
vn 0.000000 0.000000 1.000000
vn 0.000000 0.000000 1.000000
vn 0.000000 0.000000 1.000000
vn 0.000000 1.000000 0.000000
vn 0.000000 1.000000 0.000000
vn 0.000000 1.000000 0.000000
vn 0.000000 1.000000 0.000000
vn 0.000000 1.000000 0.000000
vn 0.000000 0.000000 -1.000000
vn 0.000000 0.000000 -1.000000
vn 0.000000 0.000000 -1.000000
vn 0.000000 0.000000 -1.000000
vn 0.000000 -1.000000 0.000000
vn 0.000000 -1.000000 0.000000
vn 0.000000 -1.000000 0.000000
vn 1.000000 0.000000 0.000000
vn 1.000000 0.000000 0.000000
vn 1.000000 0.000000 0.000000
vn 1.000000 0.000000 0.000000
vn -1.000000 0.000000 0.000000
vn -1.000000 0.000000 0.000000
vn -1.000000 0.000000 0.000000
vn -1.000000 0.000000 0.000000
vn 0.000000 -1.000000 0.000000
vn 0.000000 -1.000000 0.000000
vn 0.000000 -1.000000 0.000000
vn 0.000000 0.000000 -1.000000
vn 0.000000 0.000000 -1.000000
vn 0.000000 0.000000 -1.000000
vn 0.000000 0.000000 -1.000000
vn 0.000000 1.000000 0.000000
vn 0.000000 1.000000 0.000000
vn 0.000000 1.000000 0.000000
vn 0.000000 1.000000 0.000000
vn 0.000000 1.000000 0.000000
vn 0.000000 0.000000 1.000000
vn 0.000000 0.000000 1.000000
vn 0.000000 0.000000 1.000000
vn 0.000000 0.000000 1.000000
vn 0.000000 1.000000 0.000000
vn 0.000000 1.000000 0.000000
vn 0.000000 1.000000 0.000000
vn 0.000000 1.000000 0.000000
vn 0.000000 1.000000 0.000000
vn 0.000000 1.000000 0.000000
vn 0.000000 1.000000 0.000000
vn 0.000000 1.000000 0.000000
vn 0.000000 1.000000 0.000000
vn 0.000000 1.000000 0.000000
vn 0.000000 1.000000 0.000000
vn 0.000000 1.000000 0.000000
vn 1.000000 0.000000 0.000000
vn 1.000000 0.000000 0.000000
vn 1.000000 0.000000 0.000000
vn 1.000000 0.000000 0.000000
vn 0.000000 -1.000000 0.000000
vn 0.000000 -1.000000 0.000000
vn 0.000000 -1.000000 0.000000
vn 0.000000 -1.000000 0.000000
vn 0.000000 -1.000000 0.000000
vn 0.000000 -1.000000 0.000000
vn -1.000000 0.000000 0.000000
vn -1.000000 0.000000 0.000000
vn -1.000000 0.000000 0.000000
vn -1.000000 0.000000 0.000000
vn 0.000000 1.000000 0.000000
vn 0.000000 1.000000 0.000000
vn 0.000000 1.000000 0.000000
vn 0.000000 1.000000 0.000000
vn -0.577350 -0.577351 0.577351
vn -0.577350 -0.577351 0.577351
vn -0.577350 -0.577351 0.577351
vn -0.577350 0.577351 0.577349
vn -0.577350 0.577351 0.577349
vn -0.577350 0.577351 0.577349
vn -0.577350 0.577351 -0.577349
vn -0.577350 0.577351 -0.577349
vn -0.577350 0.577351 -0.577349
vn -0.577350 -0.577351 -0.577351
vn -0.577350 -0.577351 -0.577351
vn -0.577350 -0.577351 -0.577351
vn 0.577350 -0.577349 0.577351
vn 0.577350 -0.577349 0.577351
vn 0.577350 -0.577349 0.577351
vn 0.577351 0.577350 0.577350
vn 0.577351 0.577350 0.577350
vn 0.577351 0.577350 0.577350
vn 0.577351 0.577350 -0.577350
vn 0.577351 0.577350 -0.577350
vn 0.577351 0.577350 -0.577350
vn 0.577350 -0.577349 -0.577351
vn 0.577350 -0.577349 -0.577351
vn 0.577350 -0.577349 -0.577351
vn 0.000000 1.000000 0.000000
vn 0.000000 1.000000 0.000000
vn -0.707107 0.000000 -0.707107
vn -0.707107 0.000000 -0.707107
vn -0.707107 0.000000 -0.707107
vn -0.707107 0.000000 -0.707107
vn 0.000000 0.707198 -0.707015
vn 0.000000 0.707198 -0.707015
vn 0.000000 0.707198 -0.707015
vn 0.000000 0.707198 -0.707015
vn -0.707035 0.707178 -0.000002
vn -0.707035 0.707178 -0.000002
vn -0.707035 0.707178 -0.000002
vn -0.707036 0.707178 -0.000002
vn 0.707120 0.000000 -0.707094
vn 0.707120 0.000000 -0.707094
vn 0.707120 0.000000 -0.707094
vn 0.707120 0.000000 -0.707094
vn 0.707032 0.707182 0.000000
vn 0.707032 0.707182 0.000000
vn 0.707032 0.707182 0.000000
vn 0.707032 0.707182 0.000000
vn -0.707102 0.000000 0.707111
vn -0.707102 0.000000 0.707111
vn -0.707102 0.000000 0.707111
vn -0.707102 0.000000 0.707111
vn 0.000001 0.707177 0.707037
vn 0.000001 0.707177 0.707037
vn 0.000001 0.707177 0.707037
vn 0.000001 0.707177 0.707037
vn 0.707116 0.000000 0.707098
vn 0.707116 0.000000 0.707098
vn 0.707116 0.000000 0.707098
vn 0.707116 0.000000 0.707098
vn 0.000000 0.707112 0.707101
vn 0.000000 0.707112 0.707101
vn 0.000000 0.707112 0.707101
vn 0.000000 0.707112 0.707101
vn 0.707098 0.707116 0.000002
vn 0.707098 0.707116 0.000002
vn 0.707098 0.707116 0.000002
vn 0.707098 0.707116 0.000002
vn -0.707103 0.707111 0.000000
vn -0.707103 0.707111 0.000000
vn -0.707103 0.707111 0.000000
vn -0.707103 0.707111 0.000000
vn -0.000001 0.707122 -0.707092
vn -0.000001 0.707122 -0.707092
vn -0.000001 0.707122 -0.707092
vn -0.000001 0.707122 -0.707092
vn 0.000000 0.000000 -1.000000
vn 0.000000 0.000000 -1.000000
vn 0.000000 0.000000 -1.000000
vn 0.000000 0.000000 -1.000000
vn -1.000000 0.000000 0.000000
vn -1.000000 0.000000 0.000000
vn -1.000000 0.000000 0.000000
vn -1.000000 0.000000 0.000000
vn 0.000000 0.000000 1.000000
vn 0.000000 0.000000 1.000000
vn 0.000000 0.000000 1.000000
vn 0.000000 0.000000 1.000000
vn 1.000000 0.000000 0.000000
vn 1.000000 0.000000 0.000000
vn 1.000000 0.000000 0.000000
vn 1.000000 0.000000 0.000000
vn 0.000000 0.999588 0.028700
vn 0.000000 -0.998098 0.061641
vn 0.000000 -0.997360 0.072611
vn 0.000000 -0.993202 0.116404
vn 0.000000 -0.992998 0.118129
vn 0.000000 -0.990903 0.134579
vn 0.000000 0.992818 0.119635
vn 0.000000 -0.984286 0.176580
vn 1.000000 0.000000 0.000000
vn 1.000000 0.000000 0.000000
vn 1.000000 0.000000 0.000000
vn 1.000000 0.000000 0.000000
vn 0.000000 0.000000 -1.000000
vn 0.000000 0.000000 -1.000000
vn 0.000000 0.000000 -1.000000
vn 0.000000 0.000000 -1.000000
vn -1.000000 0.000000 0.000000
vn -1.000000 0.000000 0.000000
vn -1.000000 0.000000 0.000000
vn -1.000000 0.000000 0.000000
vn 0.000000 0.000000 1.000000
vn 0.000000 0.000000 1.000000
vn 0.000000 0.000000 1.000000
vn 0.000000 0.000000 1.000000
vn -0.577263 0.577524 -0.577264
vn -0.577263 0.577524 -0.577264
vn -0.577263 0.577524 -0.577264
vn 0.577277 0.577515 -0.577259
vn 0.577277 0.577515 -0.577259
vn 0.577277 0.577515 -0.577259
vn -0.577298 0.577443 0.577310
vn -0.577298 0.577443 0.577310
vn -0.577298 0.577443 0.577311
vn 0.577276 0.577513 0.577262
vn 0.577276 0.577513 0.577262
vn 0.577276 0.577513 0.577262
s 1
g pCube1
usemtl initialShadingGroup
f 6/161/1 5/162/2 7/163/3 8/164/4
s 2
f 1/128/5 2/129/6 4/130/7 3/131/8
s off
f 13/177/9 14/178/10 15/179/11 16/180/12
f 14/153/13 17/154/14 18/155/15 15/156/16
f 17/181/17 19/182/18 20/183/19 18/184/20
f 19/157/21 13/158/22 16/159/23 20/160/24
s 3
f 12/169/25 9/170/26 14/171/27 13/172/28
s 1
f 5/162/2 6/161/1 16/165/29 15/166/30
s 3
f 9/170/26 10/173/31 17/174/32 14/171/27
s 1
f 7/163/3 5/162/2 15/166/30 18/167/33
s 3
f 10/173/31 11/175/34 19/176/35 17/174/32
s 1
f 8/164/4 7/163/3 18/167/33 20/168/36
s 3
f 11/175/34 12/169/25 13/172/28 19/176/35
s 1
f 6/161/1 8/164/4 20/168/36 16/165/29
s 4
f 21/5/37 23/6/38 76/7/39 75/8/40
s 5
f 22/9/41 21/5/42 24/10/43 25/11/44
s off
f 23/6/45 22/9/46 27/12/47 26/13/48
s 5
f 25/11/44 24/10/43 61/14/49 62/15/50
s 6
f 26/13/51 28/16/52 47/17/53 48/18/54
s 7
f 28/16/55 27/12/56 29/19/57 30/20/58
f 30/20/58 29/19/57 67/21/59 68/22/60
s 6
f 31/23/61 33/24/62 70/25/63 69/26/64
s 8
f 32/27/65 31/23/66 35/28/67 34/29/68
s off
f 33/24/69 32/27/70 37/30/71 36/31/72
s 8
f 34/145/68 35/144/67 66/32/73 65/148/74
s 4
f 36/31/75 38/33/76 57/34/77 58/35/78
s 9
f 38/33/79 37/30/80 39/36/81 40/37/82
f 40/147/82 39/149/81 63/38/83 64/146/84
s 10
f 41/39/85 43/40/86 74/82/87 73/83/88
s off
f 42/84/89 41/39/90 45/85/91 44/86/92
s 5
f 43/40/93 42/84/94 62/15/50 61/14/49
s 7
f 44/86/95 46/87/96 68/22/60 67/21/59
s 11
f 46/87/97 45/85/98 50/88/99 49/89/100
s 6
f 48/18/54 47/17/53 69/26/64 70/25/63
s 11
f 49/89/100 50/88/99 72/90/101 71/91/102
f 51/92/103 53/93/104 71/91/102 72/90/101
s off
f 52/94/105 51/92/106 55/95/107 54/96/108
s 8
f 53/93/109 52/94/110 65/148/74 66/32/73
s 9
f 54/96/111 56/97/112 64/146/84 63/38/83
s 10
f 56/97/113 55/95/114 59/98/115 60/99/116
s 4
f 58/35/78 57/34/77 75/8/40 76/7/39
s 10
f 60/99/116 59/98/115 73/83/88 74/82/87
s 12
f 67/21/117 62/15/118 42/84/119 44/86/120
s 13
f 66/100/121 85/101/122 84/102/123 71/103/124 53/104/125
s 14
f 63/38/126 65/148/127 52/94/128 54/96/129
s 2
f 60/139/130 3/131/8 64/137/131 56/143/132
s 15
f 72/90/133 59/98/134 55/95/135 51/92/136
s 16
f 36/31/137 58/35/138 70/25/139 33/24/140
s 2
f 38/142/141 40/136/142 4/130/7 57/134/143
s 14
f 32/27/144 34/29/145 39/36/146 37/30/147
s 13
f 69/113/148 78/114/149 77/106/150 35/105/151 31/115/152
s 12
f 22/9/153 25/11/154 29/19/155 27/12/156
s 2
f 3/131/8 4/130/7 40/136/142 64/137/131
s 14
f 39/149/146 34/145/145 65/148/127 63/38/126
s 12
f 29/19/155 25/11/154 62/15/118 67/21/117
s 13
f 66/100/121 35/105/151 77/106/150 80/107/157 86/108/158 85/101/122
f 28/127/159 30/126/160 92/125/161 91/122/162 47/121/163
f 49/112/164 98/111/165 101/118/166 68/119/167 46/120/168
s 15
f 41/39/169 73/83/170 50/88/171 45/85/172
s 2
f 61/133/173 1/128/5 74/138/174 43/141/175
f 24/132/176 2/129/6 1/128/5 61/133/173
f 75/135/177 2/129/6 24/132/176 21/140/178
s 16
f 48/18/179 76/7/180 23/6/181 26/13/182
s 13
f 47/121/163 91/122/162 94/123/183 79/116/184 78/114/149 69/113/148
f 71/103/124 84/102/123 87/109/185 99/110/186 98/111/165 49/112/164
s 15
f 50/88/171 73/83/170 59/98/134 72/90/133
s 2
f 74/138/174 1/128/5 3/131/8 60/139/130
f 57/134/143 4/130/7 2/129/6 75/135/177
s 16
f 70/25/139 58/35/138 76/7/180 48/18/179
s off
f 21/5/187 22/9/188 23/6/189
f 26/13/190 27/12/191 28/16/192
f 31/23/193 32/27/194 33/24/195
f 36/31/196 37/30/197 38/33/198
f 41/39/199 42/84/200 43/40/201
f 44/86/202 45/85/203 46/87/204
f 51/92/205 52/94/206 53/93/207
f 54/96/208 55/95/209 56/97/210
s 13
f 101/118/166 100/117/211 93/124/212 92/125/161 30/126/160 68/119/167
s off
f 80/41/213 79/42/214 82/43/215 81/44/216
f 81/50/217 83/51/218 90/52/219 89/53/220
f 83/51/221 82/78/222 95/75/223 97/55/224
f 87/45/225 86/46/226 89/47/227 88/48/228
f 88/56/229 90/52/230 104/57/231 103/58/232
f 94/49/233 93/54/234 96/59/235 95/60/236
f 97/55/237 96/74/238 102/73/239 104/57/240
f 100/72/241 99/76/242 103/77/243 102/79/244
f 105/61/245 106/71/246 108/70/247 107/64/248
f 106/71/249 105/61/250 109/65/251 110/69/252
f 107/64/253 108/70/254 112/68/255 111/67/256
f 110/69/257 109/65/258 111/67/259 112/68/260
f 89/47/261 86/46/262 80/80/263 81/81/264
f 82/43/265 79/42/266 94/49/267 95/60/268
f 96/59/269 93/54/270 100/72/271 102/79/272
f 103/77/273 99/76/274 87/45/275 88/48/276
s 19
f 90/52/277 83/51/278 105/61/279 107/64/280
f 83/51/278 97/55/281 109/65/282 105/61/279
f 97/55/281 104/57/283 111/67/284 109/65/282
f 104/57/283 90/52/277 107/64/280 111/67/284
s off
f 106/1/285 110/2/286 10/3/287 9/4/288
f 110/2/289 112/62/290 11/63/291 10/3/292
f 112/62/293 108/66/294 12/152/295 11/63/296
f 108/66/297 106/150/298 9/151/299 12/152/300
s 13
f 77/106/150 78/114/149 79/116/184 80/107/157
s off
f 81/50/301 82/78/302 83/51/303
s 13
f 84/102/123 85/101/122 86/108/158 87/109/185
s off
f 88/56/304 89/53/305 90/52/306
s 13
f 91/122/162 92/125/161 93/124/212 94/123/183
s off
f 95/75/307 96/74/308 97/55/309
s 13
f 98/111/165 99/110/186 100/117/211 101/118/166
s off
f 102/73/310 103/58/311 104/57/312
