# This file uses centimeters as units for non-parametric coordinates.

mtllib Vial_8.mtl
g default
v 6.448178 49.121250 -4.684881
v 2.462976 49.121250 -7.580303
v -2.463007 49.121250 -7.580303
v -6.448208 49.121250 -4.684881
v -7.970418 49.121250 0.000008
v -6.448208 49.121250 4.684893
v -2.463007 49.121250 7.580311
v 2.462976 49.121250 7.580311
v 6.448178 49.121250 4.684893
v 7.970388 49.121250 0.000008
v 6.448178 120.890053 -4.684881
v 2.462976 120.890053 -7.580303
v -2.463007 120.890053 -7.580303
v -6.448208 120.890053 -4.684881
v -7.970418 120.890053 0.000008
v -6.448208 120.890053 4.684893
v -2.463007 120.890053 7.580311
v 2.462976 120.890053 7.580311
v 6.448178 120.890053 4.684893
v 7.970388 120.890053 0.000008
v 17.969725 18.194073 -13.055767
v 6.863809 18.194073 -21.124649
v -6.863840 18.194073 -21.124649
v -17.969732 18.194073 -13.055729
v -22.211830 18.194073 0.000030
v -17.969732 18.194073 13.055778
v -6.863840 18.194073 21.124662
v 6.863809 18.194073 21.124649
v 17.969725 18.194073 13.055740
v 22.211830 18.194073 -0.000015
v 19.658583 5.654927 -14.282778
v 7.508905 5.654927 -23.110006
v -7.508936 5.654927 -23.110001
v -19.658552 5.654927 -14.282747
v -24.299347 5.654927 0.000030
v -19.658552 5.654927 14.282797
v -7.508936 5.654927 23.110006
v 7.508905 5.654927 23.110001
v 19.658583 5.654927 14.282755
v 24.299339 5.654927 -0.000015
v 9.839667 -0.000008 -7.148914
v 3.758428 -0.000008 -11.567184
v -0.000015 -0.000008 0.000008
v -3.758428 -0.000008 -11.567184
v -9.839637 -0.000008 -7.148907
v -12.162493 -0.000023 0.000015
v -9.839637 -0.000023 7.148914
v -3.758428 -0.000008 11.567192
v 3.758428 -0.000008 11.567192
v 9.839667 -0.000008 7.148910
v 12.162493 -0.000008 -0.000008
v 5.618039 120.890053 4.081748
v 6.944260 120.890053 0.000008
v 5.618039 120.890053 -4.081736
v 2.145886 120.890053 -6.604389
v -2.145916 120.890053 -6.604389
v -5.618069 120.890053 -4.081736
v -6.944291 120.890053 0.000008
v -5.618069 120.890053 4.081748
v -2.145916 120.890053 6.604401
v 2.145886 120.890053 6.604401
v 5.618039 47.027039 -4.081736
v 2.145886 47.027039 -6.604389
v -2.145916 47.027039 -6.604389
v -5.618069 47.027039 -4.081736
v -6.944291 47.027039 0.000008
v -5.618069 47.027039 4.081748
v -2.145916 47.027039 6.604401
v 2.145886 47.027039 6.604401
v 5.618039 47.027039 4.081748
v 6.944260 47.027039 0.000008
v 17.269476 18.194073 -12.546891
v 6.596340 18.194073 -20.301224
v -6.596340 18.194073 -20.301224
v -17.269489 18.194073 -12.546891
v -21.346058 18.194073 0.000008
v -17.269489 18.194073 12.546907
v -6.596340 18.194073 20.301231
v 6.596340 18.194073 20.301231
v 17.269476 18.194073 12.546907
v 21.346043 18.194073 0.000008
v 17.848942 5.654911 -12.967905
v 6.817686 5.654911 -20.982410
v -6.817655 5.654911 -20.982410
v -17.848957 5.654911 -12.967905
v -22.062307 5.654911 0.000008
v -17.848957 5.654911 12.967905
v -6.817655 5.654911 20.982426
v 6.817686 5.654911 20.982426
v 17.848942 5.654911 12.967905
v 22.062315 5.654911 0.000008
v 7.795606 1.227155 -5.663775
v 2.977651 1.227155 -9.164151
v 0.000000 1.227155 0.000008
v -2.977636 1.227155 -9.164151
v -7.795606 1.227155 -5.663775
v -9.635804 1.227155 0.000008
v -7.795606 1.227155 5.663786
v -2.977636 1.227155 9.164159
v 2.977651 1.227155 9.164159
v 7.795606 1.227155 5.663786
v 9.635804 1.227155 0.000008
vt 0.371533 0.355125
vt 0.397836 0.357848
vt 0.393509 0.731967
vt 0.367518 0.732465
vt 0.106080 0.361518
vt 0.132994 0.358741
vt 0.159156 0.738196
vt 0.133275 0.739166
vt 0.161534 0.358101
vt 0.185115 0.737296
vt 0.191216 0.358284
vt 0.211159 0.736463
vt 0.221648 0.358478
vt 0.237266 0.735686
vt 0.252453 0.358236
vt 0.263399 0.734955
vt 0.283252 0.357420
vt 0.289515 0.734264
vt 0.313656 0.356199
vt 0.315578 0.733614
vt 0.343247 0.355102
vt 0.341572 0.733011
vt 0.390288 0.008502
vt 0.374313 0.042077
vt 0.268592 0.022765
vt 0.164421 0.038403
vt 0.154981 0.007818
vt 0.186266 0.060349
vt 0.212077 0.074814
vt 0.239085 0.083230
vt 0.266446 0.086396
vt 0.294044 0.084552
vt 0.321859 0.077369
vt 0.349341 0.063864
vt 0.851509 0.035922
vt 0.831839 0.054972
vt 0.761804 0.025300
vt 0.808925 0.067124
vt 0.785065 0.073833
vt 0.761077 0.075887
vt 0.737253 0.073568
vt 0.713938 0.066709
vt 0.692101 0.054695
vt 0.674396 0.036526
vt 0.667962 0.011819
vt 0.862103 0.007812
vt 0.451203 0.167769
vt 0.512183 0.162030
vt 0.007812 0.134824
vt 0.069795 0.152095
vt 0.122026 0.171879
vt 0.169675 0.187785
vt 0.215006 0.198107
vt 0.259407 0.202479
vt 0.303983 0.200966
vt 0.349808 0.193759
vt 0.398187 0.181745
vt 0.431111 0.098578
vt 0.486679 0.064946
vt 0.056699 0.041047
vt 0.098752 0.084721
vt 0.140619 0.112320
vt 0.181436 0.130456
vt 0.221349 0.141382
vt 0.260948 0.145850
vt 0.300866 0.144077
vt 0.341782 0.135900
vt 0.384594 0.120983
vt 0.494068 0.226707
vt 0.516860 0.219301
vt 0.516860 0.224293
vt 0.497002 0.230746
vt 0.539653 0.226707
vt 0.536718 0.230746
vt 0.553739 0.246095
vt 0.548991 0.247638
vt 0.553739 0.270061
vt 0.548991 0.268518
vt 0.539653 0.289449
vt 0.536718 0.285411
vt 0.516860 0.296855
vt 0.516860 0.291863
vt 0.494068 0.289449
vt 0.497002 0.285411
vt 0.479981 0.270061
vt 0.484729 0.268518
vt 0.479981 0.246095
vt 0.484729 0.247638
vt 0.859134 0.724586
vt 0.836500 0.725492
vt 0.829462 0.335428
vt 0.854202 0.335212
vt 0.813847 0.726438
vt 0.803614 0.336698
vt 0.791152 0.727420
vt 0.777080 0.338153
vt 0.768422 0.728434
vt 0.750208 0.339332
vt 0.745680 0.729481
vt 0.723327 0.340082
vt 0.722951 0.730563
vt 0.696760 0.340506
vt 0.700259 0.731686
vt 0.670836 0.340961
vt 0.677617 0.732855
vt 0.645914 0.342122
vt 0.655019 0.734070
vt 0.622454 0.345114
vt 0.881827 0.723715
vt 0.877207 0.337460
vt 0.884236 0.170709
vt 0.934110 0.157726
vt 0.839141 0.181934
vt 0.796708 0.188880
vt 0.755529 0.190789
vt 0.714421 0.187440
vt 0.672177 0.178764
vt 0.627345 0.164956
vt 0.577743 0.147441
vt 0.518265 0.131863
vt 0.992188 0.152269
vt 0.869956 0.110641
vt 0.912545 0.089523
vt 0.830562 0.124569
vt 0.792869 0.132366
vt 0.756065 0.134439
vt 0.719494 0.130909
vt 0.682529 0.121586
vt 0.644783 0.105544
vt 0.606260 0.080571
vt 0.569315 0.040220
vt 0.962250 0.056355
vn 0.587786 0.000000 -0.809017
vn 0.587786 0.000000 -0.809017
vn 0.587786 0.000000 -0.809017
vn 0.587786 0.000000 -0.809017
vn 0.000000 0.000000 -1.000000
vn 0.000000 0.000000 -1.000000
vn 0.000000 0.000000 -1.000000
vn 0.000000 0.000000 -1.000000
vn -0.587786 0.000000 -0.809017
vn -0.587786 0.000000 -0.809017
vn -0.587786 0.000000 -0.809017
vn -0.587786 0.000000 -0.809017
vn -0.951057 0.000000 -0.309016
vn -0.951057 0.000000 -0.309016
vn -0.951057 0.000000 -0.309016
vn -0.951057 0.000000 -0.309016
vn -0.951057 0.000000 0.309017
vn -0.951057 0.000000 0.309017
vn -0.951057 0.000000 0.309017
vn -0.951057 0.000000 0.309017
vn -0.587785 0.000000 0.809017
vn -0.587785 0.000000 0.809017
vn -0.587785 0.000000 0.809017
vn -0.587785 0.000000 0.809017
vn 0.000000 0.000000 1.000000
vn 0.000000 0.000000 1.000000
vn 0.000000 0.000000 1.000000
vn 0.000000 0.000000 1.000000
vn 0.587785 0.000000 0.809017
vn 0.587785 0.000000 0.809017
vn 0.587785 0.000000 0.809017
vn 0.587785 0.000000 0.809017
vn 0.951057 0.000000 0.309017
vn 0.951057 0.000000 0.309017
vn 0.951057 0.000000 0.309017
vn 0.951057 0.000000 0.309017
vn 0.951057 0.000000 -0.309016
vn 0.951057 0.000000 -0.309016
vn 0.951057 0.000000 -0.309016
vn 0.951057 0.000000 -0.309016
vn 0.000000 -1.000000 0.000000
vn 0.000000 -1.000000 0.000000
vn 0.000000 -1.000000 0.000000
vn 0.000000 -1.000000 0.000000
vn 0.000000 -1.000000 0.000000
vn 0.000000 -1.000000 0.000000
vn 0.000000 -1.000000 0.000001
vn 0.000000 -1.000000 0.000001
vn 0.000000 -1.000000 0.000001
vn 0.000001 -1.000000 -0.000001
vn 0.000001 -1.000000 -0.000001
vn 0.000001 -1.000000 -0.000001
vn 0.000001 -1.000000 -0.000001
vn 0.000001 -1.000000 -0.000001
vn 0.000001 -1.000000 -0.000001
vn 0.000002 -1.000000 0.000001
vn 0.000002 -1.000000 0.000001
vn 0.000002 -1.000000 0.000001
vn 0.000000 -1.000000 0.000000
vn 0.000000 -1.000000 0.000000
vn 0.000000 -1.000000 0.000000
vn 0.000000 -1.000000 0.000000
vn 0.000000 -1.000000 0.000000
vn 0.000000 -1.000000 0.000000
vn 0.000000 -1.000000 0.000000
vn 0.000000 -1.000000 0.000000
vn 0.000000 -1.000000 0.000000
vn 0.000000 -1.000000 0.000000
vn 0.000000 -1.000000 0.000000
vn 0.000000 -1.000000 0.000000
vn 0.000000 1.000000 0.000000
vn 0.000000 1.000000 0.000000
vn 0.000000 1.000000 0.000000
vn 0.000000 1.000000 -0.000001
vn 0.000000 1.000000 -0.000001
vn 0.000000 1.000000 -0.000001
vn 0.000000 1.000000 0.000000
vn 0.000000 1.000000 0.000000
vn 0.000000 1.000000 0.000000
vn 0.000000 1.000000 0.000000
vn 0.000000 1.000000 0.000000
vn 0.000000 1.000000 0.000000
vn 0.000000 1.000000 0.000000
vn 0.000000 1.000000 0.000000
vn 0.000000 1.000000 0.000000
vn 0.000000 1.000000 0.000000
vn 0.000000 1.000000 0.000000
vn 0.000000 1.000000 0.000000
vn 0.000000 1.000000 0.000001
vn 0.000000 1.000000 0.000001
vn 0.000000 1.000000 0.000001
vn 0.000000 1.000000 0.000001
vn 0.000000 1.000000 0.000001
vn 0.000000 1.000000 0.000001
vn 0.000000 1.000000 0.000000
vn 0.000000 1.000000 0.000000
vn 0.000000 1.000000 0.000000
vn 0.000000 1.000000 0.000000
vn 0.000000 1.000000 0.000000
vn 0.000000 1.000000 0.000000
vn 0.538415 0.401160 -0.741067
vn 0.538415 0.401160 -0.741067
vn 0.538415 0.401160 -0.741067
vn 0.538415 0.401160 -0.741067
vn 0.000000 0.401160 -0.916008
vn 0.000000 0.401160 -0.916008
vn 0.000000 0.401160 -0.916008
vn 0.000000 0.401160 -0.916008
vn -0.538417 0.401159 -0.741066
vn -0.538417 0.401159 -0.741066
vn -0.538417 0.401159 -0.741066
vn -0.538417 0.401159 -0.741066
vn -0.871175 0.401160 -0.283063
vn -0.871175 0.401160 -0.283063
vn -0.871175 0.401160 -0.283063
vn -0.871175 0.401160 -0.283063
vn -0.871175 0.401160 0.283063
vn -0.871175 0.401160 0.283063
vn -0.871175 0.401160 0.283063
vn -0.871175 0.401160 0.283063
vn -0.538415 0.401160 0.741067
vn -0.538415 0.401160 0.741066
vn -0.538415 0.401160 0.741066
vn -0.538415 0.401160 0.741066
vn 0.000001 0.401159 0.916008
vn 0.000001 0.401159 0.916008
vn 0.000001 0.401159 0.916008
vn 0.000001 0.401160 0.916008
vn 0.538416 0.401160 0.741066
vn 0.538416 0.401160 0.741066
vn 0.538416 0.401160 0.741066
vn 0.538416 0.401160 0.741066
vn 0.871175 0.401161 0.283063
vn 0.871175 0.401161 0.283063
vn 0.871175 0.401161 0.283063
vn 0.871175 0.401161 0.283063
vn 0.871175 0.401161 -0.283063
vn 0.871175 0.401161 -0.283063
vn 0.871175 0.401161 -0.283063
vn 0.871175 0.401161 -0.283063
vn 0.580552 0.156385 -0.799064
vn 0.580552 0.156385 -0.799064
vn 0.580552 0.156385 -0.799064
vn 0.580552 0.156385 -0.799064
vn -0.000000 0.156384 -0.987696
vn -0.000000 0.156384 -0.987696
vn -0.000000 0.156384 -0.987696
vn -0.000000 0.156384 -0.987696
vn -0.580555 0.156384 -0.799062
vn -0.580555 0.156384 -0.799062
vn -0.580555 0.156384 -0.799062
vn -0.580555 0.156384 -0.799062
vn -0.939354 0.156383 -0.305217
vn -0.939355 0.156383 -0.305217
vn -0.939355 0.156383 -0.305217
vn -0.939355 0.156383 -0.305217
vn -0.939354 0.156383 0.305217
vn -0.939354 0.156383 0.305217
vn -0.939354 0.156383 0.305217
vn -0.939354 0.156383 0.305217
vn -0.580553 0.156384 0.799063
vn -0.580553 0.156384 0.799063
vn -0.580553 0.156384 0.799063
vn -0.580553 0.156384 0.799063
vn 0.000001 0.156384 0.987696
vn 0.000001 0.156384 0.987696
vn 0.000001 0.156384 0.987696
vn 0.000001 0.156384 0.987696
vn 0.580553 0.156385 0.799063
vn 0.580553 0.156385 0.799063
vn 0.580553 0.156385 0.799063
vn 0.580553 0.156385 0.799063
vn 0.939355 0.156384 0.305216
vn 0.939355 0.156384 0.305216
vn 0.939355 0.156384 0.305216
vn 0.939355 0.156384 0.305216
vn 0.939355 0.156384 -0.305216
vn 0.939355 0.156384 -0.305216
vn 0.939355 0.156384 -0.305216
vn 0.939355 0.156384 -0.305216
vn 0.258595 -0.898023 -0.355927
vn 0.258595 -0.898023 -0.355927
vn 0.258595 -0.898023 -0.355927
vn 0.258595 -0.898023 -0.355927
vn 0.000000 -0.898022 -0.439950
vn 0.000000 -0.898022 -0.439950
vn 0.000000 -0.898022 -0.439950
vn 0.000000 -0.898022 -0.439950
vn -0.258597 -0.898023 -0.355926
vn -0.258597 -0.898022 -0.355926
vn -0.258597 -0.898022 -0.355926
vn -0.258597 -0.898023 -0.355926
vn -0.418417 -0.898022 -0.135954
vn -0.418417 -0.898022 -0.135954
vn -0.418417 -0.898022 -0.135954
vn -0.418417 -0.898022 -0.135954
vn -0.418417 -0.898022 0.135954
vn -0.418417 -0.898022 0.135954
vn -0.418417 -0.898022 0.135954
vn -0.418417 -0.898022 0.135954
vn -0.258596 -0.898022 0.355927
vn -0.258596 -0.898022 0.355927
vn -0.258596 -0.898022 0.355927
vn -0.258596 -0.898022 0.355927
vn 0.000000 -0.898022 0.439950
vn 0.000000 -0.898022 0.439950
vn 0.000000 -0.898022 0.439950
vn 0.000000 -0.898022 0.439950
vn 0.258596 -0.898022 0.355927
vn 0.258596 -0.898022 0.355927
vn 0.258596 -0.898022 0.355927
vn 0.258596 -0.898022 0.355927
vn 0.418417 -0.898023 0.135952
vn 0.418417 -0.898023 0.135952
vn 0.418417 -0.898023 0.135952
vn 0.418417 -0.898023 0.135952
vn 0.418417 -0.898023 -0.135952
vn 0.418417 -0.898023 -0.135952
vn 0.418417 -0.898023 -0.135952
vn 0.418417 -0.898023 -0.135952
vn 0.000000 1.000000 0.000001
vn 0.000000 1.000000 0.000001
vn 0.000000 1.000000 0.000001
vn 0.000000 1.000000 0.000001
vn 0.000000 1.000000 0.000000
vn 0.000000 1.000000 0.000000
vn 0.000000 1.000000 0.000000
vn 0.000000 1.000000 0.000000
vn 0.000000 1.000000 -0.000003
vn 0.000000 1.000000 -0.000003
vn 0.000000 1.000000 -0.000003
vn 0.000000 1.000000 -0.000003
vn 0.000000 1.000000 0.000004
vn 0.000000 1.000000 0.000004
vn 0.000000 1.000000 0.000004
vn 0.000000 1.000000 0.000004
vn 0.000000 1.000000 0.000000
vn 0.000000 1.000000 0.000000
vn 0.000000 1.000000 0.000000
vn 0.000000 1.000000 0.000000
vn 0.000000 1.000000 -0.000001
vn 0.000000 1.000000 -0.000001
vn 0.000000 1.000000 -0.000001
vn 0.000000 1.000000 -0.000001
vn 0.000000 1.000000 0.000000
vn 0.000000 1.000000 0.000000
vn 0.000000 1.000000 0.000000
vn 0.000000 1.000000 0.000000
vn 0.000000 1.000000 0.000003
vn 0.000000 1.000000 0.000003
vn 0.000000 1.000000 0.000003
vn 0.000000 1.000000 0.000003
vn 0.000000 1.000000 -0.000004
vn 0.000000 1.000000 -0.000004
vn 0.000000 1.000000 -0.000004
vn 0.000000 1.000000 -0.000004
vn 0.000000 1.000000 0.000000
vn 0.000000 1.000000 0.000000
vn 0.000000 1.000000 0.000000
vn 0.000000 1.000000 0.000000
vn -0.587783 0.000000 0.809018
vn -0.587783 0.000000 0.809018
vn -0.574009 -0.215201 0.790064
vn -0.574009 -0.215202 0.790064
vn 0.000000 0.000000 1.000000
vn 0.000000 0.000000 1.000000
vn 0.000000 -0.215200 0.976570
vn 0.000000 -0.215200 0.976570
vn 0.587783 0.000000 0.809018
vn 0.587783 0.000000 0.809018
vn 0.574009 -0.215202 0.790064
vn 0.574009 -0.215201 0.790064
vn 0.951058 0.000000 0.309013
vn 0.951058 0.000000 0.309013
vn 0.928775 -0.215201 0.301770
vn 0.928775 -0.215202 0.301770
vn 0.951058 0.000000 -0.309014
vn 0.951058 0.000000 -0.309014
vn 0.928775 -0.215202 -0.301771
vn 0.928775 -0.215202 -0.301771
vn 0.587783 0.000000 -0.809018
vn 0.587783 0.000000 -0.809018
vn 0.574009 -0.215201 -0.790065
vn 0.574009 -0.215202 -0.790065
vn 0.000000 0.000000 -1.000000
vn 0.000000 0.000000 -1.000000
vn 0.000000 -0.215200 -0.976570
vn 0.000000 -0.215200 -0.976570
vn -0.587783 0.000000 -0.809018
vn -0.587783 0.000000 -0.809018
vn -0.574009 -0.215202 -0.790064
vn -0.574009 -0.215201 -0.790064
vn -0.951058 0.000000 -0.309014
vn -0.951058 0.000000 -0.309014
vn -0.928775 -0.215202 -0.301771
vn -0.928775 -0.215202 -0.301771
vn -0.951058 0.000000 0.309013
vn -0.951058 0.000000 0.309013
vn -0.928775 -0.215202 0.301770
vn -0.928775 -0.215202 0.301770
vn -0.574009 -0.215202 0.790064
vn -0.574009 -0.215201 0.790064
vn -0.563589 -0.283927 0.775728
vn -0.563589 -0.283926 0.775728
vn 0.000000 -0.215200 0.976570
vn 0.000000 -0.215200 0.976570
vn 0.000000 -0.283924 0.958847
vn 0.000000 -0.283924 0.958847
vn 0.574009 -0.215201 0.790064
vn 0.574009 -0.215202 0.790064
vn 0.563588 -0.283925 0.775728
vn 0.563588 -0.283926 0.775728
vn 0.928775 -0.215202 0.301770
vn 0.928775 -0.215201 0.301770
vn 0.911920 -0.283927 0.296290
vn 0.911920 -0.283927 0.296290
vn 0.928775 -0.215202 -0.301771
vn 0.928775 -0.215202 -0.301771
vn 0.911920 -0.283927 -0.296290
vn 0.911920 -0.283927 -0.296290
vn 0.574009 -0.215202 -0.790065
vn 0.574009 -0.215201 -0.790065
vn 0.563588 -0.283926 -0.775728
vn 0.563588 -0.283925 -0.775728
vn 0.000000 -0.215200 -0.976570
vn 0.000000 -0.215200 -0.976570
vn 0.000000 -0.283924 -0.958847
vn 0.000000 -0.283924 -0.958847
vn -0.574009 -0.215201 -0.790064
vn -0.574009 -0.215202 -0.790064
vn -0.563589 -0.283926 -0.775728
vn -0.563589 -0.283927 -0.775728
vn -0.928775 -0.215202 -0.301771
vn -0.928775 -0.215202 -0.301771
vn -0.911919 -0.283928 -0.296290
vn -0.911920 -0.283927 -0.296290
vn -0.928775 -0.215202 0.301770
vn -0.928775 -0.215202 0.301770
vn -0.911920 -0.283927 0.296290
vn -0.911920 -0.283928 0.296290
vn -0.563589 -0.283926 0.775728
vn -0.563589 -0.283927 0.775728
vn -0.541613 0.388475 0.745482
vn -0.541614 0.388469 0.745484
vn 0.000000 -0.283924 0.958847
vn 0.000000 -0.283924 0.958847
vn 0.000000 0.388470 0.921461
vn 0.000000 0.388470 0.921461
vn 0.563588 -0.283926 0.775728
vn 0.563588 -0.283925 0.775728
vn 0.541613 0.388469 0.745484
vn 0.541611 0.388476 0.745482
vn 0.911920 -0.283927 0.296290
vn 0.911920 -0.283927 0.296290
vn 0.876363 0.388476 0.284736
vn 0.876365 0.388471 0.284736
vn 0.911920 -0.283927 -0.296290
vn 0.911920 -0.283927 -0.296290
vn 0.876365 0.388471 -0.284736
vn 0.876363 0.388476 -0.284736
vn 0.563588 -0.283925 -0.775728
vn 0.563588 -0.283926 -0.775728
vn 0.541612 0.388476 -0.745482
vn 0.541613 0.388469 -0.745484
vn 0.000000 -0.283924 -0.958847
vn 0.000000 -0.283924 -0.958847
vn 0.000000 0.388470 -0.921461
vn 0.000000 0.388470 -0.921461
vn -0.563589 -0.283927 -0.775728
vn -0.563589 -0.283926 -0.775728
vn -0.541614 0.388469 -0.745483
vn -0.541613 0.388475 -0.745481
vn -0.911920 -0.283927 -0.296290
vn -0.911919 -0.283928 -0.296290
vn -0.876363 0.388475 -0.284737
vn -0.876365 0.388471 -0.284737
vn -0.911920 -0.283928 0.296290
vn -0.911920 -0.283927 0.296290
vn -0.876365 0.388471 0.284737
vn -0.876363 0.388475 0.284737
vn -0.541614 0.388469 0.745484
vn -0.541613 0.388475 0.745482
vn -0.206214 0.936436 0.283836
vn -0.206214 0.936436 0.283836
vn 0.000000 0.388470 0.921461
vn 0.000000 0.388470 0.921461
vn 0.000000 0.936436 0.350839
vn 0.000000 0.936436 0.350839
vn 0.541611 0.388476 0.745482
vn 0.541613 0.388469 0.745484
vn 0.206214 0.936436 0.283836
vn 0.206214 0.936436 0.283836
vn 0.876365 0.388471 0.284736
vn 0.876363 0.388476 0.284736
vn 0.333667 0.936437 0.108410
vn 0.333667 0.936437 0.108410
vn 0.876363 0.388476 -0.284736
vn 0.876365 0.388471 -0.284736
vn 0.333667 0.936437 -0.108410
vn 0.333667 0.936437 -0.108410
vn 0.541613 0.388469 -0.745484
vn 0.541612 0.388476 -0.745482
vn 0.206214 0.936436 -0.283836
vn 0.206214 0.936436 -0.283836
vn 0.000000 0.388470 -0.921461
vn 0.000000 0.388470 -0.921461
vn 0.000000 0.936436 -0.350839
vn 0.000000 0.936436 -0.350839
vn -0.541613 0.388475 -0.745481
vn -0.541614 0.388469 -0.745483
vn -0.206214 0.936436 -0.283836
vn -0.206214 0.936436 -0.283836
vn -0.876365 0.388471 -0.284737
vn -0.876363 0.388475 -0.284737
vn -0.333667 0.936437 -0.108411
vn -0.333667 0.936437 -0.108411
vn -0.876363 0.388475 0.284737
vn -0.876365 0.388471 0.284737
vn -0.333667 0.936437 0.108411
vn -0.333667 0.936437 0.108411
s off
g Vial_8:pCylinder6
usemtl lambert19SG
f 1/1/1 2/2/2 12/3/3 11/4/4
f 2/5/5 3/6/6 13/7/7 12/8/8
f 3/6/9 4/9/10 14/10/11 13/7/12
f 4/9/13 5/11/14 15/12/15 14/10/16
f 5/11/17 6/13/18 16/14/19 15/12/20
f 6/13/21 7/15/22 17/16/23 16/14/24
f 7/15/25 8/17/26 18/18/27 17/16/28
f 8/17/29 9/19/30 19/20/31 18/18/32
f 9/19/33 10/21/34 20/22/35 19/20/36
f 10/21/37 1/1/38 11/4/39 20/22/40
f 42/23/41 41/24/42 43/25/43
f 44/26/44 42/27/45 43/25/46
f 45/28/47 44/26/48 43/25/49
f 46/29/50 45/28/51 43/25/52
f 47/30/53 46/29/54 43/25/55
f 48/31/56 47/30/57 43/25/58
f 49/32/59 48/31/60 43/25/61
f 50/33/62 49/32/63 43/25/64
f 51/34/65 50/33/66 43/25/67
f 41/24/68 51/34/69 43/25/70
f 92/35/71 93/36/72 94/37/73
f 93/36/74 95/38/75 94/37/76
f 95/38/77 96/39/78 94/37/79
f 96/39/80 97/40/81 94/37/82
f 97/40/83 98/41/84 94/37/85
f 98/41/86 99/42/87 94/37/88
f 99/42/89 100/43/90 94/37/91
f 100/43/92 101/44/93 94/37/94
f 101/44/95 102/45/96 94/37/97
f 102/46/98 92/35/99 94/37/100
f 2/2/101 1/1/102 21/47/103 22/48/104
f 3/6/105 2/5/106 22/49/107 23/50/108
f 4/9/109 3/6/110 23/50/111 24/51/112
f 5/11/113 4/9/114 24/51/115 25/52/116
f 6/13/117 5/11/118 25/52/119 26/53/120
f 7/15/121 6/13/122 26/53/123 27/54/124
f 8/17/125 7/15/126 27/54/127 28/55/128
f 9/19/129 8/17/130 28/55/131 29/56/132
f 10/21/133 9/19/134 29/56/135 30/57/136
f 1/1/137 10/21/138 30/57/139 21/47/140
f 22/48/141 21/47/142 31/58/143 32/59/144
f 23/50/145 22/49/146 32/60/147 33/61/148
f 24/51/149 23/50/150 33/61/151 34/62/152
f 25/52/153 24/51/154 34/62/155 35/63/156
f 26/53/157 25/52/158 35/63/159 36/64/160
f 27/54/161 26/53/162 36/64/163 37/65/164
f 28/55/165 27/54/166 37/65/167 38/66/168
f 29/56/169 28/55/170 38/66/171 39/67/172
f 30/57/173 29/56/174 39/67/175 40/68/176
f 21/47/177 30/57/178 40/68/179 31/58/180
f 32/59/181 31/58/182 41/24/183 42/23/184
f 33/61/185 32/60/186 42/27/187 44/26/188
f 34/62/189 33/61/190 44/26/191 45/28/192
f 35/63/193 34/62/194 45/28/195 46/29/196
f 36/64/197 35/63/198 46/29/199 47/30/200
f 37/65/201 36/64/202 47/30/203 48/31/204
f 38/66/205 37/65/206 48/31/207 49/32/208
f 39/67/209 38/66/210 49/32/211 50/33/212
f 40/68/213 39/67/214 50/33/215 51/34/216
f 31/58/217 40/68/218 51/34/219 41/24/220
f 19/69/221 20/70/222 53/71/223 52/72/224
f 20/70/225 11/73/226 54/74/227 53/71/228
f 11/73/229 12/75/230 55/76/231 54/74/232
f 12/75/233 13/77/234 56/78/235 55/76/236
f 13/77/237 14/79/238 57/80/239 56/78/240
f 14/79/241 15/81/242 58/82/243 57/80/244
f 15/81/245 16/83/246 59/84/247 58/82/248
f 16/83/249 17/85/250 60/86/251 59/84/252
f 17/85/253 18/87/254 61/88/255 60/86/256
f 18/87/257 19/69/258 52/72/259 61/88/260
f 54/89/261 55/90/262 63/91/263 62/92/264
f 55/90/265 56/93/266 64/94/267 63/91/268
f 56/93/269 57/95/270 65/96/271 64/94/272
f 57/95/273 58/97/274 66/98/275 65/96/276
f 58/97/277 59/99/278 67/100/279 66/98/280
f 59/99/281 60/101/282 68/102/283 67/100/284
f 60/101/285 61/103/286 69/104/287 68/102/288
f 61/103/289 52/105/290 70/106/291 69/104/292
f 52/105/293 53/107/294 71/108/295 70/106/296
f 53/109/297 54/89/298 62/92/299 71/110/300
f 62/92/301 63/91/302 73/111/303 72/112/304
f 63/91/305 64/94/306 74/113/307 73/111/308
f 64/94/309 65/96/310 75/114/311 74/113/312
f 65/96/313 66/98/314 76/115/315 75/114/316
f 66/98/317 67/100/318 77/116/319 76/115/320
f 67/100/321 68/102/322 78/117/323 77/116/324
f 68/102/325 69/104/326 79/118/327 78/117/328
f 69/104/329 70/106/330 80/119/331 79/118/332
f 70/106/333 71/108/334 81/120/335 80/119/336
f 71/110/337 62/92/338 72/112/339 81/121/340
f 72/112/341 73/111/342 83/122/343 82/123/344
f 73/111/345 74/113/346 84/124/347 83/122/348
f 74/113/349 75/114/350 85/125/351 84/124/352
f 75/114/353 76/115/354 86/126/355 85/125/356
f 76/115/357 77/116/358 87/127/359 86/126/360
f 77/116/361 78/117/362 88/128/363 87/127/364
f 78/117/365 79/118/366 89/129/367 88/128/368
f 79/118/369 80/119/370 90/130/371 89/129/372
f 80/119/373 81/120/374 91/131/375 90/130/376
f 81/121/377 72/112/378 82/123/379 91/132/380
f 82/123/381 83/122/382 93/36/383 92/35/384
f 83/122/385 84/124/386 95/38/387 93/36/388
f 84/124/389 85/125/390 96/39/391 95/38/392
f 85/125/393 86/126/394 97/40/395 96/39/396
f 86/126/397 87/127/398 98/41/399 97/40/400
f 87/127/401 88/128/402 99/42/403 98/41/404
f 88/128/405 89/129/406 100/43/407 99/42/408
f 89/129/409 90/130/410 101/44/411 100/43/412
f 90/130/413 91/131/414 102/45/415 101/44/416
f 91/132/417 82/123/418 92/35/419 102/46/420
