# This file uses centimeters as units for non-parametric coordinates.

mtllib Vial_6.mtl
g default
v 21.642656 4.166039 -15.724324
v 8.266758 4.166039 -25.442476
v -8.266765 4.166039 -25.442476
v -21.642662 4.166039 -15.724324
v -26.751797 4.166039 0.000000
v -21.642662 4.166039 15.724311
v -8.266765 4.166039 25.442472
v 8.266758 4.166039 25.442472
v 21.642656 4.166039 15.724311
v 26.751802 4.166039 0.000000
v 21.642656 93.311996 -15.724324
v 8.266758 93.311996 -25.442476
v -8.266765 93.311996 -25.442476
v -21.642662 93.311996 -15.724324
v -26.751797 93.311996 0.000000
v -21.642662 93.311996 15.724311
v -8.266765 93.311996 25.442472
v 8.266758 93.311996 25.442472
v 21.642656 93.311996 15.724311
v 26.751802 93.311996 0.000000
v -20.305553 93.311996 14.752853
v -7.756030 93.311996 23.870619
v 7.756036 93.311996 23.870619
v 20.305567 93.311996 14.752853
v 25.099058 93.311996 0.000000
v 20.305567 93.311996 -14.752859
v 7.756036 93.311996 -23.870625
v -7.756043 93.311996 -23.870625
v -20.305567 93.311996 -14.752859
v -25.099047 93.311996 0.000000
v 20.305567 8.984725 -14.752859
v 7.756036 8.984725 -23.870625
v 0.000000 8.984725 0.000000
v -7.756043 8.984725 -23.870625
v -20.305567 8.984725 -14.752859
v -25.099049 4.439507 -0.000001
v -20.305567 8.984725 14.752853
v -7.756030 8.984725 23.870619
v 7.756036 8.984725 23.870619
v 20.305567 8.984725 14.752853
v 25.099058 4.439507 0.000000
v 15.028439 0.000000 -10.918796
v 5.740351 0.000000 -17.666992
v 0.000000 0.000000 0.000000
v -5.740351 0.000000 -17.666992
v -15.028445 0.000000 -10.918796
v -18.576162 0.000000 0.000000
v -15.028445 0.000000 10.918796
v -5.740351 0.000000 17.666986
v 5.740351 0.000000 17.666986
v 15.028439 0.000000 10.918796
v 18.576176 0.000000 0.000000
vt 0.727647 0.461747
vt 0.653476 0.487855
vt 0.546639 0.115209
vt 0.594382 0.077947
vt 0.797688 0.438060
vt 0.642585 0.027141
vt 0.081756 0.469252
vt 0.007812 0.441290
vt 0.172360 0.028050
vt 0.217253 0.077007
vt 0.159224 0.495212
vt 0.262357 0.114197
vt 0.240069 0.515373
vt 0.308498 0.140623
vt 0.323333 0.527425
vt 0.355721 0.156677
vt 0.407604 0.530091
vt 0.403767 0.162446
vt 0.491261 0.523166
vt 0.452263 0.157903
vt 0.572746 0.507531
vt 0.500867 0.142894
vt 0.551288 0.052635
vt 0.517987 0.085075
vt 0.404951 0.033923
vt 0.572022 0.007820
vt 0.260989 0.054118
vt 0.241085 0.012573
vt 0.293390 0.085283
vt 0.329646 0.107019
vt 0.367240 0.119922
vt 0.405350 0.124361
vt 0.443654 0.120411
vt 0.481682 0.107698
vt 0.952994 0.246486
vt 0.992188 0.300430
vt 0.889579 0.333769
vt 0.992188 0.367108
vt 0.952994 0.421052
vt 0.889579 0.441657
vt 0.826165 0.421052
vt 0.786971 0.367108
vt 0.786971 0.300430
vt 0.826165 0.246486
vt 0.889579 0.225881
vt 0.750447 0.213932
vt 0.709055 0.156962
vt 0.715751 0.154787
vt 0.754584 0.208238
vt 0.709055 0.086544
vt 0.715751 0.088719
vt 0.750447 0.029573
vt 0.754584 0.035268
vt 0.817419 0.007812
vt 0.817419 0.014852
vt 0.884391 0.029573
vt 0.880255 0.035268
vt 0.925784 0.086544
vt 0.919088 0.088719
vt 0.925784 0.156962
vt 0.919088 0.154787
vt 0.884391 0.213932
vt 0.880255 0.208238
vt 0.817419 0.235693
vt 0.817419 0.228653
vt 0.703898 0.539394
vt 0.633176 0.539394
vt 0.633176 0.874922
vt 0.703898 0.874922
vt 0.774621 0.539394
vt 0.774621 0.874922
vt 0.138118 0.539394
vt 0.067395 0.539394
vt 0.067395 0.874922
vt 0.138118 0.874922
vt 0.208840 0.521309
vt 0.208840 0.874922
vt 0.279563 0.539394
vt 0.279563 0.874922
vt 0.350286 0.539394
vt 0.350286 0.874922
vt 0.421008 0.539394
vt 0.421008 0.874922
vt 0.491731 0.539394
vt 0.491731 0.874922
vt 0.562453 0.521309
vt 0.562453 0.874922
vn 0.587785 0.000000 -0.809017
vn 0.587785 0.000000 -0.809017
vn 0.587785 0.000000 -0.809017
vn 0.587785 0.000000 -0.809017
vn 0.000000 0.000000 -1.000000
vn 0.000000 0.000000 -1.000000
vn 0.000000 0.000000 -1.000000
vn 0.000000 0.000000 -1.000000
vn -0.587785 0.000000 -0.809017
vn -0.587785 0.000000 -0.809017
vn -0.587785 0.000000 -0.809017
vn -0.587785 0.000000 -0.809017
vn -0.951057 0.000000 -0.309016
vn -0.951057 0.000000 -0.309016
vn -0.951057 0.000000 -0.309016
vn -0.951057 0.000000 -0.309016
vn -0.951057 0.000000 0.309017
vn -0.951057 0.000000 0.309017
vn -0.951057 0.000000 0.309017
vn -0.951057 0.000000 0.309017
vn -0.587785 0.000000 0.809017
vn -0.587785 0.000000 0.809017
vn -0.587785 0.000000 0.809017
vn -0.587785 0.000000 0.809017
vn 0.000000 0.000000 1.000000
vn 0.000000 0.000000 1.000000
vn 0.000000 0.000000 1.000000
vn 0.000000 0.000000 1.000000
vn 0.587785 0.000000 0.809017
vn 0.587785 0.000000 0.809017
vn 0.587785 0.000000 0.809017
vn 0.587785 0.000000 0.809017
vn 0.951056 0.000000 0.309017
vn 0.951056 0.000000 0.309017
vn 0.951056 0.000000 0.309017
vn 0.951056 0.000000 0.309017
vn 0.951056 0.000000 -0.309017
vn 0.951056 0.000000 -0.309017
vn 0.951056 0.000000 -0.309017
vn 0.951056 0.000000 -0.309017
vn 0.000000 -1.000000 0.000000
vn 0.000000 -1.000000 0.000000
vn 0.000000 -1.000000 0.000000
vn 0.000000 -1.000000 0.000000
vn 0.000000 -1.000000 0.000000
vn 0.000000 -1.000000 0.000000
vn 0.000000 -1.000000 0.000000
vn 0.000000 -1.000000 0.000000
vn 0.000000 -1.000000 0.000000
vn 0.000000 -1.000000 0.000000
vn 0.000000 -1.000000 0.000000
vn 0.000000 -1.000000 0.000000
vn 0.000000 -1.000000 0.000000
vn 0.000000 -1.000000 0.000000
vn 0.000000 -1.000000 0.000000
vn 0.000000 -1.000000 0.000000
vn 0.000000 -1.000000 0.000000
vn 0.000000 -1.000000 0.000000
vn 0.000000 -1.000000 0.000000
vn 0.000000 -1.000000 0.000000
vn 0.000000 -1.000000 0.000000
vn 0.000000 -1.000000 0.000000
vn 0.000000 -1.000000 0.000000
vn 0.000000 -1.000000 0.000000
vn 0.000000 -1.000000 0.000000
vn 0.000000 -1.000000 0.000000
vn 0.000000 -1.000000 0.000000
vn 0.000000 -1.000000 0.000000
vn 0.000000 -1.000000 0.000000
vn 0.000000 -1.000000 0.000000
vn 0.000000 1.000000 0.000000
vn 0.000000 1.000000 0.000000
vn 0.000000 1.000000 0.000000
vn 0.000000 1.000000 0.000000
vn 0.000000 1.000000 0.000000
vn 0.000000 1.000000 0.000000
vn 0.000000 1.000000 0.000000
vn 0.000000 1.000000 0.000000
vn 0.000000 1.000000 0.000000
vn -0.173064 0.955672 0.238202
vn -0.173064 0.955672 0.238202
vn -0.173064 0.955672 0.238202
vn -0.173064 0.955672 -0.238202
vn -0.173064 0.955672 -0.238202
vn -0.173064 0.955672 -0.238202
vn 0.000000 1.000000 0.000000
vn 0.000000 1.000000 0.000000
vn 0.000000 1.000000 0.000000
vn 0.000000 1.000000 0.000000
vn 0.000000 1.000000 0.000000
vn 0.000000 1.000000 0.000000
vn 0.000000 1.000000 0.000000
vn 0.000000 1.000000 0.000000
vn 0.000000 1.000000 0.000000
vn 0.173064 0.955672 -0.238202
vn 0.173064 0.955672 -0.238202
vn 0.173064 0.955672 -0.238202
vn 0.173064 0.955672 0.238202
vn 0.173064 0.955672 0.238202
vn 0.173064 0.955672 0.238202
vn 0.000000 1.000000 0.000001
vn 0.000000 1.000000 0.000001
vn 0.000000 1.000000 0.000001
vn 0.000000 1.000000 0.000001
vn 0.000000 1.000000 0.000000
vn 0.000000 1.000000 0.000000
vn 0.000000 1.000000 0.000000
vn 0.000000 1.000000 0.000000
vn 0.000000 1.000000 -0.000003
vn 0.000000 1.000000 -0.000003
vn 0.000000 1.000000 -0.000003
vn 0.000000 1.000000 -0.000003
vn 0.000000 1.000000 0.000000
vn 0.000000 1.000000 0.000000
vn 0.000000 1.000000 0.000000
vn 0.000000 1.000000 0.000000
vn 0.000000 1.000000 -0.000001
vn 0.000000 1.000000 -0.000001
vn 0.000000 1.000000 -0.000001
vn 0.000000 1.000000 -0.000001
vn 0.000000 1.000000 0.000002
vn 0.000000 1.000000 0.000002
vn 0.000000 1.000000 0.000002
vn 0.000000 1.000000 0.000002
vn 0.000000 1.000000 -0.000003
vn 0.000000 1.000000 -0.000003
vn 0.000000 1.000000 -0.000003
vn 0.000000 1.000000 -0.000003
vn 0.000000 1.000000 -0.000001
vn 0.000000 1.000000 -0.000001
vn 0.000000 1.000000 -0.000001
vn 0.000000 1.000000 -0.000001
vn 0.000000 1.000000 0.000000
vn 0.000000 1.000000 0.000000
vn 0.000000 1.000000 0.000000
vn 0.000000 1.000000 0.000000
vn 0.000000 1.000000 0.000000
vn 0.000000 1.000000 0.000000
vn 0.000000 1.000000 0.000000
vn 0.000000 1.000000 0.000000
vn -0.587785 0.000000 0.809017
vn -0.587785 0.000000 0.809017
vn -0.587785 0.000000 0.809017
vn -0.587785 0.000000 0.809017
vn 0.000000 0.000000 1.000000
vn 0.000000 0.000000 1.000000
vn 0.000000 0.000000 1.000000
vn 0.000000 0.000000 1.000000
vn 0.587785 0.000000 0.809017
vn 0.587785 0.000000 0.809017
vn 0.587785 0.000000 0.809017
vn 0.587785 0.000000 0.809017
vn 0.951057 -0.000000 0.309016
vn 0.951057 -0.000000 0.309016
vn 0.951057 -0.000000 0.309016
vn 0.951057 -0.000000 0.309016
vn 0.951057 0.000000 -0.309017
vn 0.951057 0.000000 -0.309017
vn 0.951057 0.000000 -0.309017
vn 0.951057 0.000000 -0.309017
vn 0.587785 0.000000 -0.809017
vn 0.587785 0.000000 -0.809017
vn 0.587785 0.000000 -0.809017
vn 0.587785 0.000000 -0.809017
vn 0.000000 0.000000 -1.000000
vn 0.000000 0.000000 -1.000000
vn 0.000000 0.000000 -1.000000
vn 0.000000 0.000000 -1.000000
vn -0.587785 0.000000 -0.809017
vn -0.587785 0.000000 -0.809017
vn -0.587785 0.000000 -0.809017
vn -0.587785 0.000000 -0.809017
vn -0.951057 0.000000 -0.309017
vn -0.951057 0.000000 -0.309017
vn -0.951057 0.000000 -0.309017
vn -0.951057 0.000000 -0.309017
vn -0.951057 0.000000 0.309017
vn -0.951057 0.000000 0.309017
vn -0.951057 0.000000 0.309017
vn -0.951057 0.000000 0.309017
vn 0.277596 -0.881452 -0.382078
vn 0.277596 -0.881452 -0.382078
vn 0.277596 -0.881452 -0.382078
vn 0.277596 -0.881452 -0.382078
vn 0.000000 -0.881452 -0.472274
vn 0.000000 -0.881452 -0.472274
vn 0.000000 -0.881452 -0.472274
vn 0.000000 -0.881452 -0.472274
vn -0.277596 -0.881452 -0.382078
vn -0.277596 -0.881452 -0.382078
vn -0.277596 -0.881452 -0.382078
vn -0.277596 -0.881452 -0.382078
vn -0.449160 -0.881452 -0.145940
vn -0.449160 -0.881452 -0.145940
vn -0.449160 -0.881452 -0.145940
vn -0.449160 -0.881452 -0.145940
vn -0.449160 -0.881452 0.145940
vn -0.449160 -0.881452 0.145940
vn -0.449160 -0.881452 0.145940
vn -0.449160 -0.881452 0.145940
vn -0.277596 -0.881452 0.382078
vn -0.277596 -0.881452 0.382078
vn -0.277596 -0.881452 0.382078
vn -0.277596 -0.881452 0.382078
vn 0.000000 -0.881452 0.472274
vn 0.000000 -0.881452 0.472274
vn 0.000000 -0.881452 0.472274
vn 0.000000 -0.881452 0.472274
vn 0.277596 -0.881452 0.382078
vn 0.277596 -0.881452 0.382078
vn 0.277596 -0.881452 0.382078
vn 0.277596 -0.881452 0.382078
vn 0.449160 -0.881451 0.145941
vn 0.449160 -0.881451 0.145941
vn 0.449160 -0.881451 0.145941
vn 0.449160 -0.881451 0.145941
vn 0.449159 -0.881452 -0.145941
vn 0.449160 -0.881451 -0.145941
vn 0.449160 -0.881451 -0.145941
vn 0.449159 -0.881452 -0.145941
s off
g Vial_6:pCylinder2
usemtl lambert17SG
f 12/1/1 11/2/2 1/3/3 2/4/4
f 13/5/5 12/1/6 2/4/7 3/6/8
f 14/7/9 13/8/10 3/9/11 4/10/12
f 15/11/13 14/7/14 4/10/15 5/12/16
f 16/13/17 15/11/18 5/12/19 6/14/20
f 17/15/21 16/13/22 6/14/23 7/16/24
f 18/17/25 17/15/26 7/16/27 8/18/28
f 19/19/29 18/17/30 8/18/31 9/20/32
f 20/21/33 19/19/34 9/20/35 10/22/36
f 1/3/37 11/2/38 20/21/39 10/22/40
f 43/23/41 42/24/42 44/25/43
f 45/26/44 43/23/45 44/25/46
f 46/27/47 45/28/48 44/25/49
f 47/29/50 46/27/51 44/25/52
f 48/30/53 47/29/54 44/25/55
f 49/31/56 48/30/57 44/25/58
f 50/32/59 49/31/60 44/25/61
f 51/33/62 50/32/63 44/25/64
f 52/34/65 51/33/66 44/25/67
f 42/24/68 52/34/69 44/25/70
f 31/35/71 32/36/72 33/37/73
f 32/36/74 34/38/75 33/37/76
f 34/38/77 35/39/78 33/37/79
f 35/39/80 36/40/81 33/37/82
f 36/40/83 37/41/84 33/37/85
f 37/41/86 38/42/87 33/37/88
f 38/42/89 39/43/90 33/37/91
f 39/43/92 40/44/93 33/37/94
f 40/44/95 41/45/96 33/37/97
f 41/45/98 31/35/99 33/37/100
f 16/46/101 17/47/102 22/48/103 21/49/104
f 17/47/105 18/50/106 23/51/107 22/48/108
f 18/50/109 19/52/110 24/53/111 23/51/112
f 19/52/113 20/54/114 25/55/115 24/53/116
f 20/54/117 11/56/118 26/57/119 25/55/120
f 11/56/121 12/58/122 27/59/123 26/57/124
f 12/58/125 13/60/126 28/61/127 27/59/128
f 13/60/129 14/62/130 29/63/131 28/61/132
f 14/62/133 15/64/134 30/65/135 29/63/136
f 15/64/137 16/46/138 21/49/139 30/65/140
f 32/66/141 31/67/142 26/68/143 27/69/144
f 34/70/145 32/66/146 27/69/147 28/71/148
f 35/72/149 34/73/150 28/74/151 29/75/152
f 36/76/153 35/72/154 29/75/155 30/77/156
f 37/78/157 36/76/158 30/77/159 21/79/160
f 38/80/161 37/78/162 21/79/163 22/81/164
f 39/82/165 38/80/166 22/81/167 23/83/168
f 40/84/169 39/82/170 23/83/171 24/85/172
f 41/86/173 40/84/174 24/85/175 25/87/176
f 26/68/177 31/67/178 41/86/179 25/87/180
f 2/4/181 1/3/182 42/24/183 43/23/184
f 3/6/185 2/4/186 43/23/187 45/26/188
f 4/10/189 3/9/190 45/28/191 46/27/192
f 5/12/193 4/10/194 46/27/195 47/29/196
f 6/14/197 5/12/198 47/29/199 48/30/200
f 7/16/201 6/14/202 48/30/203 49/31/204
f 8/18/205 7/16/206 49/31/207 50/32/208
f 9/20/209 8/18/210 50/32/211 51/33/212
f 10/22/213 9/20/214 51/33/215 52/34/216
f 1/3/217 10/22/218 52/34/219 42/24/220
