# This file uses centimeters as units for non-parametric coordinates.

mtllib Vial_12.mtl
g default
v 7.552853 -0.000001 4.568524
v -7.552841 -0.000001 4.568524
v 7.552853 -0.000001 -4.568487
v -7.552841 -0.000001 -4.568487
v -26.223339 -0.000001 7.682194
v -26.223339 1.334241 9.016436
v -27.557583 1.334241 7.682194
v -7.552841 -0.000001 7.682194
v -7.552841 1.334241 9.016436
v -27.557583 49.803574 7.682194
v -26.223339 49.803574 9.016436
v -26.223339 51.137814 7.682194
v -7.552841 49.803574 9.016436
v -7.552841 51.137814 7.682194
v -26.223339 51.137814 -7.682145
v -26.223339 49.803574 -9.016387
v -27.557583 49.803574 -7.682145
v -7.552841 49.803574 -9.016387
v -7.552841 51.137814 -7.682145
v -27.557583 1.334241 -7.682145
v -26.223339 1.334241 -9.016387
v -26.223339 -0.000001 -7.682145
v -7.552841 1.334241 -9.016387
v -7.552841 -0.000001 -7.682145
v 27.557608 1.334241 7.682194
v 26.223366 1.334241 9.016436
v 26.223366 -0.000001 7.682194
v 26.223366 49.803574 9.016436
v 27.557608 49.803574 7.682194
v 26.223366 51.137814 7.682194
v -26.223339 51.137814 4.568524
v -27.557583 49.803574 4.568524
v 26.223366 51.137814 4.568524
v 27.557608 49.803574 4.568524
v 27.557608 49.803574 -7.682145
v 26.223366 49.803574 -9.016387
v 26.223366 51.137814 -7.682145
v 26.223366 1.334241 -9.016387
v 27.557608 1.334241 -7.682145
v 26.223366 -0.000001 -7.682145
v -26.223339 -0.000001 -4.568487
v -27.557583 1.334241 -4.568487
v 27.557608 1.334241 -4.568487
v 26.223366 -0.000001 -4.568487
v 7.552853 -0.000001 7.682194
v 7.552853 1.334241 9.016436
v 7.552853 1.334241 -9.016387
v 7.552853 -0.000001 -7.682145
v 7.552853 49.803574 -9.016387
v 7.552853 51.137814 -7.682145
v 7.552853 49.803574 9.016436
v 7.552853 51.137814 7.682194
v -26.223339 51.137814 -4.568487
v -27.557583 49.803574 -4.568487
v 26.223366 51.137814 -4.568487
v 27.557608 49.803574 -4.568487
v 27.557608 1.334241 4.568518
v 26.223366 -0.000001 4.568518
v -26.223339 -0.000001 4.568518
v -27.557583 1.334241 4.568518
v -7.552841 51.137814 -4.991435
v -7.975813 51.137814 -4.568487
v -7.552841 51.137814 -4.072923
v -7.057276 51.137814 -4.568487
v -7.057276 89.202072 -4.568487
v -7.552841 89.202072 -4.072923
v -7.057176 89.697617 -4.072823
v 7.975825 51.137814 -4.568487
v 7.552853 51.137814 -4.991435
v 7.057307 51.137814 -4.568487
v 7.552853 51.137814 -4.072923
v 7.552853 89.202072 -4.072923
v 7.057307 89.202072 -4.568487
v 7.057208 89.697617 -4.072823
v -7.975813 51.137814 4.568518
v -7.552841 51.137814 4.991477
v -7.057276 51.137814 4.568518
v -7.552841 51.137814 4.072959
v -7.552841 89.202072 4.072959
v -7.057276 89.202072 4.568518
v -7.057226 89.697617 4.072910
v 7.975825 51.137814 4.568518
v 7.552853 51.137814 4.072959
v 7.057307 51.137814 4.568518
v 7.552853 51.137814 4.991477
v 7.057307 89.202072 4.568518
v 7.552853 89.202072 4.072959
v 7.057208 89.697617 4.072860
v -7.057179 89.697617 -4.072837
v -6.561651 89.202072 -3.577285
v 7.057185 89.697617 -4.072837
v 6.561639 89.202072 -3.577285
v -7.057229 89.697617 4.072929
v -6.561651 89.202072 3.577340
v 7.057185 89.697617 4.072880
v 6.561639 89.202072 3.577340
vt 0.634805 0.508300
vt 0.634805 0.612855
vt 0.571563 0.612855
vt 0.571563 0.508300
vt 0.259632 0.007812
vt 0.259632 0.020485
vt 0.232876 0.020485
vt 0.232876 0.007812
vt 0.259632 0.020485
vt 0.394067 0.007812
vt 0.394067 0.020485
vt 0.259632 0.358395
vt 0.259632 0.358395
vt 0.500145 0.007812
vt 0.500145 0.020485
vt 0.259632 0.371040
vt 0.232876 0.371040
vt 0.232876 0.358395
vt 0.394067 0.358395
vt 0.394067 0.371040
vt 0.500145 0.358395
vt 0.500145 0.371040
vt 0.141017 0.371040
vt 0.141017 0.358395
vt 0.167873 0.358395
vt 0.167873 0.371040
vt 0.141017 0.358395
vt 0.007812 0.371040
vt 0.007812 0.358395
vt 0.141017 0.020485
vt 0.141017 0.020485
vt 0.992188 0.358395
vt 0.992188 0.371040
vt 0.886933 0.371040
vt 0.886933 0.358395
vt 0.141017 0.007812
vt 0.167873 0.007812
vt 0.167873 0.020485
vt 0.007812 0.020485
vt 0.007812 0.007812
vt 0.992188 0.007812
vt 0.992188 0.020485
vt 0.886933 0.020485
vt 0.886933 0.007812
vt 0.634454 0.020485
vt 0.634454 0.007812
vt 0.661081 0.007812
vt 0.661081 0.020485
vt 0.634454 0.020485
vt 0.634454 0.358395
vt 0.634454 0.358395
vt 0.634454 0.371040
vt 0.661081 0.358395
vt 0.661081 0.371040
vt 0.726342 0.358395
vt 0.726342 0.371040
vt 0.752986 0.358395
vt 0.752986 0.371040
vt 0.752986 0.358395
vt 0.752986 0.020485
vt 0.752986 0.020485
vt 0.752986 0.007812
vt 0.726342 0.020485
vt 0.726342 0.007812
vt 0.539883 0.508302
vt 0.521260 0.508302
vt 0.518330 0.505376
vt 0.518330 0.379072
vt 0.539883 0.379072
vt 0.571563 0.379072
vt 0.550012 0.508300
vt 0.550012 0.379072
vt 0.550012 0.742084
vt 0.550012 0.612855
vt 0.571563 0.742084
vt 0.518330 0.742085
vt 0.518330 0.615781
vt 0.521260 0.612856
vt 0.539883 0.612856
vt 0.539883 0.742085
vt 0.518330 0.609426
vt 0.518330 0.511734
vt 0.433540 0.742085
vt 0.433540 0.612856
vt 0.452164 0.612856
vt 0.455089 0.615781
vt 0.455089 0.742085
vt 0.455089 0.379072
vt 0.455089 0.505376
vt 0.452164 0.508302
vt 0.433540 0.508302
vt 0.433540 0.379072
vt 0.656356 0.508300
vt 0.634805 0.379072
vt 0.656356 0.379072
vt 0.656356 0.612855
vt 0.634805 0.742084
vt 0.656356 0.742084
vt 0.458522 0.612856
vt 0.514902 0.612856
vt 0.514902 0.508302
vt 0.458522 0.508302
vt 0.455089 0.511734
vt 0.455089 0.609426
vt 0.007812 0.379072
vt 0.013099 0.379072
vt 0.013099 0.586795
vt 0.007812 0.586795
vt 0.666642 0.382852
vt 0.671341 0.383946
vt 0.671364 0.484459
vt 0.666485 0.485001
vt 0.670916 0.379072
vt 0.730650 0.379151
vt 0.730031 0.383923
vt 0.286222 0.379072
vt 0.291508 0.379072
vt 0.291508 0.586795
vt 0.286222 0.586795
vt 0.670704 0.489209
vt 0.730465 0.483154
vt 0.731247 0.488005
vt 0.078500 0.379072
vt 0.083786 0.379072
vt 0.083786 0.586795
vt 0.078500 0.586795
vt 0.734915 0.383261
vt 0.735126 0.484403
vt 0.215535 0.379072
vt 0.220822 0.379072
vt 0.220822 0.586795
vt 0.215535 0.586795
vt 0.671348 0.383953
vt 0.675780 0.388504
vt 0.675964 0.480051
vt 0.671372 0.484455
vt 0.730022 0.383928
vt 0.725383 0.388244
vt 0.725980 0.478674
vt 0.730463 0.483150
vt 0.423258 0.379072
vt 0.423258 0.586795
vn 0.000000 -1.000000 0.000000
vn 0.000000 -1.000000 0.000000
vn 0.000000 -1.000000 0.000000
vn 0.000000 -1.000000 0.000000
vn -0.707106 -0.707107 0.000000
vn -0.707106 -0.707107 0.000000
vn -0.707107 -0.707107 0.000000
vn -0.707107 -0.707107 0.000000
vn 0.000000 -0.707107 0.707107
vn 0.000000 -0.707107 0.707107
vn 0.000000 -0.707107 0.707107
vn 0.000000 -0.707107 0.707107
vn -0.707107 0.000000 0.707107
vn -0.707107 0.000000 0.707107
vn -0.707107 0.000000 0.707107
vn -0.707107 0.000000 0.707107
vn 0.000000 -0.707107 0.707107
vn 0.000000 -0.707107 0.707107
vn 0.000000 -0.707107 0.707107
vn 0.000000 -0.707107 0.707107
vn -0.707107 0.707107 0.000000
vn -0.707107 0.707107 0.000000
vn -0.707107 0.707107 0.000000
vn -0.707107 0.707107 0.000000
vn 0.000000 0.707107 0.707107
vn 0.000000 0.707107 0.707107
vn 0.000000 0.707107 0.707107
vn 0.000000 0.707107 0.707107
vn 0.000000 0.707107 0.707107
vn 0.000000 0.707107 0.707107
vn 0.000000 0.707107 0.707106
vn 0.000000 0.707107 0.707106
vn -0.707107 0.707107 0.000000
vn -0.707107 0.707107 0.000000
vn -0.707107 0.707107 0.000000
vn -0.707107 0.707107 0.000000
vn 0.000000 0.707107 -0.707107
vn 0.000000 0.707107 -0.707107
vn 0.000000 0.707107 -0.707107
vn 0.000000 0.707107 -0.707107
vn -0.707107 0.000000 -0.707107
vn -0.707107 0.000000 -0.707107
vn -0.707107 0.000000 -0.707107
vn -0.707107 0.000000 -0.707107
vn 0.000000 0.707107 -0.707107
vn 0.000000 0.707107 -0.707107
vn 0.000000 0.707107 -0.707106
vn 0.000000 0.707107 -0.707106
vn -0.707107 -0.707107 0.000000
vn -0.707107 -0.707107 0.000000
vn -0.707107 -0.707107 0.000000
vn -0.707107 -0.707107 0.000000
vn 0.000000 -0.707107 -0.707107
vn 0.000000 -0.707107 -0.707107
vn 0.000000 -0.707107 -0.707107
vn 0.000000 -0.707107 -0.707107
vn 0.000000 -0.707107 -0.707107
vn 0.000000 -0.707107 -0.707107
vn 0.000000 -0.707107 -0.707107
vn 0.000000 -0.707107 -0.707107
vn 0.707107 -0.707106 0.000000
vn 0.707107 -0.707106 0.000000
vn 0.707107 -0.707106 0.000000
vn 0.707107 -0.707106 0.000000
vn 0.707107 0.000000 0.707107
vn 0.707107 0.000000 0.707107
vn 0.707107 0.000000 0.707107
vn 0.707107 0.000000 0.707107
vn 0.000000 -0.707107 0.707107
vn 0.000000 -0.707107 0.707107
vn 0.000000 -0.707107 0.707107
vn 0.000000 -0.707107 0.707107
vn 0.000000 0.707107 0.707106
vn 0.000000 0.707107 0.707106
vn 0.000000 0.707107 0.707106
vn 0.000000 0.707107 0.707106
vn 0.707107 0.707107 0.000000
vn 0.707107 0.707107 0.000000
vn 0.707107 0.707107 0.000000
vn 0.707107 0.707107 0.000000
vn -0.707107 0.707107 0.000000
vn -0.707107 0.707107 0.000000
vn -0.707107 0.707107 0.000000
vn -0.707107 0.707107 0.000000
vn 0.707107 0.707107 0.000000
vn 0.707107 0.707107 0.000000
vn 0.707107 0.707107 0.000000
vn 0.707107 0.707107 0.000000
vn 0.707106 0.707107 0.000000
vn 0.707106 0.707107 0.000000
vn 0.707107 0.707107 0.000000
vn 0.707107 0.707107 0.000000
vn 0.707107 0.000000 -0.707107
vn 0.707107 0.000000 -0.707107
vn 0.707107 0.000000 -0.707107
vn 0.707107 0.000000 -0.707107
vn 0.000000 0.707107 -0.707106
vn 0.000000 0.707107 -0.707106
vn 0.000000 0.707107 -0.707106
vn 0.000000 0.707107 -0.707106
vn 0.000000 -0.707107 -0.707107
vn 0.000000 -0.707107 -0.707107
vn 0.000000 -0.707107 -0.707107
vn 0.000000 -0.707107 -0.707107
vn 0.707106 -0.707107 0.000000
vn 0.707106 -0.707107 0.000000
vn 0.707107 -0.707107 0.000000
vn 0.707107 -0.707107 0.000000
vn -0.707107 -0.707107 0.000000
vn -0.707107 -0.707107 0.000000
vn -0.707107 -0.707107 0.000000
vn -0.707107 -0.707107 0.000000
vn 0.707107 -0.707107 0.000000
vn 0.707107 -0.707107 0.000000
vn 0.707107 -0.707106 0.000000
vn 0.707107 -0.707106 0.000000
vn 0.000000 0.000000 1.000000
vn 0.000000 0.000000 1.000000
vn 0.000000 0.000000 1.000000
vn 0.000000 0.000000 1.000000
vn 0.000000 1.000000 0.000000
vn 0.000000 1.000000 0.000000
vn 0.000000 1.000000 0.000000
vn 0.000000 1.000000 0.000000
vn 0.000000 1.000000 0.000000
vn 0.000000 0.000000 -1.000000
vn 0.000000 0.000000 -1.000000
vn 0.000000 0.000000 -1.000000
vn 0.000000 0.000000 -1.000000
vn 0.000000 -1.000000 0.000000
vn 0.000000 -1.000000 0.000000
vn 0.000000 -1.000000 0.000000
vn 0.000000 -1.000000 0.000000
vn 1.000000 0.000000 0.000000
vn 1.000000 0.000000 0.000000
vn 1.000000 0.000000 0.000000
vn 1.000000 0.000000 0.000000
vn -1.000000 0.000000 0.000000
vn -1.000000 0.000000 0.000000
vn -1.000000 0.000000 0.000000
vn -1.000000 0.000000 0.000000
vn 0.000000 -1.000000 0.000000
vn 0.000000 -1.000000 0.000000
vn 0.000000 -1.000000 0.000000
vn 0.000000 -1.000000 0.000000
vn 0.000000 0.000000 -1.000000
vn 0.000000 0.000000 -1.000000
vn 0.000000 0.000000 -1.000000
vn 0.000000 0.000000 -1.000000
vn 0.000000 1.000000 0.000000
vn 0.000000 1.000000 0.000000
vn 0.000000 1.000000 0.000000
vn 0.000000 1.000000 0.000000
vn 0.000000 1.000000 0.000000
vn 0.000000 0.000000 1.000000
vn 0.000000 0.000000 1.000000
vn 0.000000 0.000000 1.000000
vn 0.000000 0.000000 1.000000
vn 0.000000 -1.000000 0.000000
vn 0.000000 -1.000000 0.000000
vn 0.000000 -1.000000 0.000000
vn 0.000000 -1.000000 0.000000
vn 0.000000 0.000000 -1.000000
vn 0.000000 0.000000 -1.000000
vn 0.000000 0.000000 -1.000000
vn 0.000000 0.000000 -1.000000
vn 0.000000 0.000000 1.000000
vn 0.000000 0.000000 1.000000
vn 0.000000 0.000000 1.000000
vn 0.000000 0.000000 1.000000
vn 0.000000 1.000000 0.000000
vn 0.000000 1.000000 0.000000
vn 0.000000 1.000000 0.000000
vn 0.000000 1.000000 0.000000
vn 0.000000 1.000000 0.000000
vn 0.000000 1.000000 0.000000
vn 0.000000 1.000000 0.000000
vn 0.000000 1.000000 0.000000
vn 0.000000 1.000000 0.000000
vn 0.000000 1.000000 0.000000
vn 0.000000 1.000000 0.000000
vn 0.000000 1.000000 0.000000
vn 0.000000 1.000000 0.000000
vn 0.000000 1.000000 0.000000
vn 0.000000 1.000000 0.000000
vn 0.000000 1.000000 0.000000
vn 1.000000 0.000000 0.000000
vn 1.000000 0.000000 0.000000
vn 1.000000 0.000000 0.000000
vn 1.000000 0.000000 0.000000
vn 0.000000 -1.000000 0.000000
vn 0.000000 -1.000000 0.000000
vn 0.000000 -1.000000 0.000000
vn 0.000000 -1.000000 0.000000
vn 0.000000 -1.000000 0.000000
vn 0.000000 -1.000000 0.000000
vn 0.000000 -1.000000 0.000000
vn 0.000000 -1.000000 0.000000
vn 0.000000 -1.000000 0.000000
vn 0.000000 -1.000000 0.000000
vn 0.000000 -1.000000 0.000000
vn 0.000000 -1.000000 0.000000
vn -1.000000 0.000000 0.000000
vn -1.000000 0.000000 0.000000
vn -1.000000 0.000000 0.000000
vn -1.000000 0.000000 0.000000
vn 0.000000 1.000000 0.000000
vn 0.000000 1.000000 0.000000
vn 0.000000 1.000000 0.000000
vn 0.000000 1.000000 0.000000
vn 0.000000 1.000000 0.000000
vn 0.000000 1.000000 0.000000
vn 0.000000 1.000000 0.000000
vn 0.000000 1.000000 0.000000
vn 0.000000 1.000000 0.000000
vn 0.000000 1.000000 0.000000
vn 0.000000 1.000000 0.000000
vn 0.000000 1.000000 0.000000
vn 1.000000 0.000000 0.000000
vn 1.000000 0.000000 0.000000
vn 1.000000 0.000000 0.000000
vn 1.000000 0.000000 0.000000
vn 0.000000 -1.000000 0.000000
vn 0.000000 -1.000000 0.000000
vn 0.000000 -1.000000 0.000000
vn 0.000000 -1.000000 0.000000
vn 0.000000 -1.000000 0.000000
vn 0.000000 -1.000000 0.000000
vn 0.000000 -1.000000 0.000000
vn 0.000000 -1.000000 0.000000
vn -1.000000 0.000000 0.000000
vn -1.000000 0.000000 0.000000
vn -1.000000 0.000000 0.000000
vn -1.000000 0.000000 0.000000
vn -0.577350 -0.577351 0.577351
vn -0.577350 -0.577351 0.577351
vn -0.577350 -0.577351 0.577351
vn -0.577350 0.577351 0.577349
vn -0.577350 0.577351 0.577349
vn -0.577350 0.577351 0.577349
vn -0.577350 0.577351 -0.577349
vn -0.577350 0.577351 -0.577349
vn -0.577350 0.577351 -0.577349
vn -0.577350 -0.577351 -0.577351
vn -0.577350 -0.577351 -0.577351
vn -0.577350 -0.577351 -0.577351
vn 0.577350 -0.577349 0.577351
vn 0.577350 -0.577349 0.577351
vn 0.577350 -0.577349 0.577351
vn 0.577351 0.577350 0.577350
vn 0.577351 0.577350 0.577350
vn 0.577351 0.577350 0.577350
vn 0.577351 0.577350 -0.577350
vn 0.577351 0.577350 -0.577350
vn 0.577351 0.577350 -0.577350
vn 0.577350 -0.577349 -0.577351
vn 0.577350 -0.577349 -0.577351
vn 0.577350 -0.577349 -0.577351
vn 0.000000 1.000000 0.000000
vn 0.000000 1.000000 0.000000
vn 0.000000 1.000000 0.000000
vn 0.000000 1.000000 0.000000
vn 0.000000 1.000000 0.000000
vn 0.000000 1.000000 0.000000
vn -0.707107 0.000000 -0.707107
vn -0.707107 0.000000 -0.707107
vn -0.707107 0.000000 -0.707107
vn -0.707107 0.000000 -0.707107
vn 0.000000 0.707198 -0.707015
vn 0.000000 0.707198 -0.707015
vn 0.000000 0.707198 -0.707015
vn 0.000000 0.707198 -0.707015
vn -0.707035 0.707178 -0.000002
vn -0.707035 0.707178 -0.000002
vn -0.707035 0.707178 -0.000002
vn -0.707036 0.707178 -0.000002
vn 0.707120 0.000000 -0.707094
vn 0.707120 0.000000 -0.707094
vn 0.707120 0.000000 -0.707094
vn 0.707120 0.000000 -0.707094
vn 0.707032 0.707182 0.000000
vn 0.707032 0.707182 0.000000
vn 0.707032 0.707182 0.000000
vn 0.707032 0.707182 0.000000
vn -0.707102 0.000000 0.707111
vn -0.707102 0.000000 0.707111
vn -0.707102 0.000000 0.707111
vn -0.707102 0.000000 0.707111
vn 0.000001 0.707177 0.707037
vn 0.000001 0.707177 0.707037
vn 0.000001 0.707177 0.707037
vn 0.000001 0.707177 0.707037
vn 0.707116 0.000000 0.707098
vn 0.707116 0.000000 0.707098
vn 0.707116 0.000000 0.707098
vn 0.707116 0.000000 0.707098
vn 0.000000 0.707112 0.707101
vn 0.000000 0.707112 0.707101
vn 0.000000 0.707112 0.707101
vn 0.000000 0.707112 0.707101
vn 0.707098 0.707116 0.000002
vn 0.707098 0.707116 0.000002
vn 0.707098 0.707116 0.000002
vn 0.707098 0.707116 0.000002
vn -0.707103 0.707111 0.000000
vn -0.707103 0.707111 0.000000
vn -0.707103 0.707111 0.000000
vn -0.707103 0.707111 0.000000
vn -0.000001 0.707122 -0.707092
vn -0.000001 0.707122 -0.707092
vn -0.000001 0.707122 -0.707092
vn -0.000001 0.707122 -0.707092
vn 0.000000 0.000000 -1.000000
vn 0.000000 0.000000 -1.000000
vn 0.000000 0.000000 -1.000000
vn 0.000000 0.000000 -1.000000
vn -1.000000 0.000000 0.000000
vn -1.000000 0.000000 0.000000
vn -1.000000 0.000000 0.000000
vn -1.000000 0.000000 0.000000
vn 0.000000 0.000000 1.000000
vn 0.000000 0.000000 1.000000
vn 0.000000 0.000000 1.000000
vn 0.000000 0.000000 1.000000
vn 1.000000 0.000000 0.000000
vn 1.000000 0.000000 0.000000
vn 1.000000 0.000000 0.000000
vn 1.000000 0.000000 0.000000
vn 0.000000 0.999588 0.028700
vn 0.000000 -0.998098 0.061641
vn 0.000000 -0.997360 0.072611
vn 0.000000 -0.993202 0.116404
vn 0.000000 -0.998098 0.061641
vn 0.000000 -0.992998 0.118129
vn 0.000000 -0.990903 0.134579
vn 0.000000 -0.997360 0.072611
vn 0.000000 -0.992998 0.118129
vn 0.000000 0.992818 0.119635
vn 0.000000 -0.984286 0.176580
vn 0.000000 -0.990903 0.134579
vn 0.000000 0.992818 0.119635
vn 0.000000 0.999588 0.028700
vn 0.000000 -0.993202 0.116404
vn 0.000000 -0.984286 0.176580
vn 0.000000 1.000000 0.000000
vn 0.000000 1.000000 0.000000
vn 0.000000 1.000000 0.000000
vn 0.000000 1.000000 0.000000
vn -0.577263 0.577524 -0.577264
vn -0.577263 0.577524 -0.577264
vn -0.577263 0.577524 -0.577264
vn 0.000000 1.000000 0.000000
vn 0.000000 1.000000 0.000000
vn 0.000000 1.000000 0.000000
vn 0.000000 1.000000 0.000000
vn 0.577277 0.577515 -0.577259
vn 0.577277 0.577515 -0.577259
vn 0.577277 0.577515 -0.577259
vn 0.000000 1.000000 0.000000
vn 0.000000 1.000000 0.000000
vn 0.000000 1.000000 0.000000
vn 0.000000 1.000000 0.000000
vn -0.577298 0.577443 0.577310
vn -0.577298 0.577443 0.577310
vn -0.577298 0.577443 0.577311
vn 0.000000 1.000000 0.000000
vn 0.000000 1.000000 0.000000
vn 0.000000 1.000000 0.000000
vn 0.000000 1.000000 0.000000
vn 0.577276 0.577513 0.577262
vn 0.577276 0.577513 0.577262
vn 0.577276 0.577513 0.577262
vn 0.000000 1.000000 0.000000
vn 0.000000 1.000000 0.000000
vn 0.000000 1.000000 0.000000
vn 0.000000 1.000000 0.000000
s off
g Vial_12:pCube1
usemtl lambert23SG
f 1/1/1 2/2/2 4/3/3 3/4/4
f 5/5/5 7/6/6 60/7/7 59/8/8
f 6/9/9 5/5/10 8/10/11 9/11/12
f 7/6/13 6/9/14 11/12/15 10/13/16
f 9/11/17 8/10/18 45/14/19 46/15/20
f 10/13/21 12/16/22 31/17/23 32/18/24
f 12/16/25 11/12/26 13/19/27 14/20/28
f 14/20/29 13/19/30 51/21/31 52/22/32
f 15/23/33 17/24/34 54/25/35 53/26/36
f 16/27/37 15/23/38 19/28/39 18/29/40
f 17/24/41 16/27/42 21/30/43 20/31/44
f 18/32/45 19/33/46 50/34/47 49/35/48
f 20/31/49 22/36/50 41/37/51 42/38/52
f 22/36/53 21/30/54 23/39/55 24/40/56
f 24/41/57 23/42/58 47/43/59 48/44/60
f 25/45/61 27/46/62 58/47/63 57/48/64
f 26/49/65 25/45/66 29/50/67 28/51/68
f 27/46/69 26/49/70 46/15/71 45/14/72
f 28/51/73 30/52/74 52/22/75 51/21/76
f 30/52/77 29/50/78 34/53/79 33/54/80
f 32/18/81 31/17/82 53/26/83 54/25/84
f 33/54/85 34/53/86 56/55/87 55/56/88
f 35/57/89 37/58/90 55/56/91 56/55/92
f 36/59/93 35/57/94 39/60/95 38/61/96
f 37/58/97 36/59/98 49/35/99 50/34/100
f 38/61/101 40/62/102 48/44/103 47/43/104
f 40/62/105 39/60/106 43/63/107 44/64/108
f 42/38/109 41/37/110 59/8/111 60/7/112
f 44/64/113 43/63/114 57/48/115 58/47/116
f 51/21/117 46/15/118 26/49/119 28/51/120
f 50/65/121 69/66/122 68/67/123 55/68/124 37/69/125
f 47/43/126 49/35/127 36/59/128 38/61/129
f 44/70/130 3/4/131 48/71/132 40/72/133
f 56/55/134 43/63/135 39/60/136 35/57/137
f 20/31/138 42/38/139 54/25/140 17/24/141
f 22/73/142 24/74/143 4/3/144 41/75/145
f 16/27/146 18/29/147 23/39/148 21/30/149
f 53/76/150 62/77/151 61/78/152 19/79/153 15/80/154
f 6/9/155 9/11/156 13/19/157 11/12/158
f 3/4/159 4/3/160 24/74/161 48/71/162
f 23/42/163 18/32/164 49/35/165 47/43/166
f 13/19/167 9/11/168 46/15/169 51/21/170
f 50/65/171 19/79/172 61/78/173 64/81/174 70/82/175 69/66/176
f 12/83/177 14/84/178 76/85/179 75/86/180 31/87/181
f 33/88/182 82/89/183 85/90/184 52/91/185 30/92/186
f 25/45/187 57/48/188 34/53/189 29/50/190
f 45/93/191 1/1/192 58/94/193 27/95/194
f 8/96/195 2/2/196 1/1/197 45/93/198
f 59/97/199 2/2/200 8/96/201 5/98/202
f 32/18/203 60/7/204 7/6/205 10/13/206
f 31/87/207 75/86/208 78/99/209 63/100/210 62/77/211 53/76/212
f 55/68/213 68/67/214 71/101/215 83/102/216 82/89/217 33/88/218
f 34/53/219 57/48/220 43/63/221 56/55/222
f 58/94/223 1/1/224 3/4/225 44/70/226
f 41/75/227 4/3/228 2/2/229 59/97/230
f 54/25/231 42/38/232 60/7/233 32/18/234
f 5/5/235 6/9/236 7/6/237
f 10/13/238 11/12/239 12/16/240
f 15/23/241 16/27/242 17/24/243
f 20/31/244 21/30/245 22/36/246
f 25/45/247 26/49/248 27/46/249
f 28/51/250 29/50/251 30/52/252
f 35/57/253 36/59/254 37/58/255
f 38/61/256 39/60/257 40/62/258
f 85/90/259 84/103/260 77/104/261 76/85/262 14/84/263 52/91/264
f 64/105/265 63/106/266 66/107/267 65/108/268
f 65/109/269 67/110/270 74/111/271 73/112/272
f 67/110/273 66/113/274 79/114/275 81/115/276
f 71/116/277 70/117/278 73/118/279 72/119/280
f 72/120/281 74/111/282 88/121/283 87/122/284
f 78/123/285 77/124/286 80/125/287 79/126/288
f 81/115/289 80/127/290 86/128/291 88/121/292
f 84/129/293 83/130/294 87/131/295 86/132/296
f 89/133/297 90/134/298 92/135/299 91/136/300
f 90/134/301 89/133/302 93/137/303 94/138/304
f 91/136/305 92/135/306 96/139/307 95/140/308
f 94/138/309 93/137/310 95/140/311 96/139/312
f 73/118/313 70/117/314 64/141/315 65/142/316
f 66/107/317 63/106/318 78/123/319 79/126/320
f 80/125/321 77/124/322 84/129/323 86/132/324
f 87/131/325 83/130/326 71/116/327 72/119/328
f 74/111/329 67/110/330 89/133/331 91/136/332
f 67/110/333 81/115/334 93/137/335 89/133/336
f 81/115/337 88/121/338 95/140/339 93/137/340
f 88/121/341 74/111/342 91/136/343 95/140/344
f 61/78/345 62/77/346 63/100/347 64/81/348
f 65/109/349 66/113/350 67/110/351
f 68/67/352 69/66/353 70/82/354 71/101/355
f 72/120/356 73/112/357 74/111/358
f 75/86/359 76/85/360 77/104/361 78/99/362
f 79/114/363 80/127/364 81/115/365
f 82/89/366 83/102/367 84/103/368 85/90/369
f 86/128/370 87/122/371 88/121/372
f 92/135/373 90/134/374 94/138/375 96/139/376
