# This file uses centimeters as units for non-parametric coordinates.

mtllib Vial_7.mtl
g default
v 10.306508 39.902287 -7.488104
v 3.936725 39.902287 -12.116015
v -3.936739 39.902287 -12.116015
v -10.306511 39.902287 -7.488104
v -12.739545 39.902287 0.000006
v -10.306511 39.902287 7.488123
v -3.936739 39.902287 12.116039
v 3.936725 39.902287 12.116039
v 10.306508 39.902287 7.488123
v 12.739545 39.902287 0.000006
v 10.306508 74.145378 -7.488104
v 3.936725 74.145378 -12.116015
v -3.936739 74.145378 -12.116015
v -10.306511 74.145378 -7.488104
v -12.739545 74.145378 0.000006
v -10.306511 74.145378 7.488123
v -3.936739 74.145378 12.116039
v 3.936725 74.145378 12.116039
v 10.306508 74.145378 7.488123
v 12.739545 74.145378 0.000006
v 21.463718 26.871618 -15.594302
v 8.198387 26.871618 -25.232117
v -8.198424 26.871618 -25.232117
v -21.463720 26.871618 -15.594302
v -26.530619 26.871618 0.000006
v -21.463720 26.871618 15.594308
v -8.198424 26.871618 25.232122
v 8.198387 26.871618 25.232115
v 21.463718 26.871618 15.594308
v 26.530615 26.871618 0.000006
v 21.463718 7.876166 -15.594302
v 8.198387 7.876166 -25.232117
v -8.198424 7.876166 -25.232100
v -21.463720 7.876166 -15.594302
v -26.530619 7.876166 0.000018
v -21.463720 7.876166 15.594317
v -8.198424 7.876166 25.232122
v 8.198387 7.876166 25.232105
v 21.463718 7.876166 15.594299
v 26.530615 7.876166 0.000006
v 12.232026 -0.000008 -8.887087
v 4.672210 -0.000008 -14.379620
v 0.000000 -0.000008 0.000006
v -4.672238 -0.000008 -14.379620
v -12.232053 -0.000008 -8.887087
v -15.119632 -0.000008 0.000006
v -12.232053 -0.000008 8.887105
v -4.672238 -0.000008 14.379644
v 4.672210 -0.000008 14.379626
v 12.232026 -0.000008 8.887105
v 15.119626 -0.000008 0.000006
v 8.931707 74.145378 6.489286
v 11.040199 74.145378 0.000006
v 8.931707 74.145378 -6.489262
v 3.411591 74.145378 -10.499862
v -3.411619 74.145378 -10.499862
v -8.931724 74.145378 -6.489262
v -11.040212 74.145378 0.000006
v -8.931724 74.145378 6.489286
v -3.411619 74.145378 10.499880
v 3.411591 74.145378 10.499874
v 8.931707 39.902287 -6.489262
v 3.411591 39.902287 -10.499862
v -3.411619 39.902287 -10.499862
v -8.931724 39.902287 -6.489262
v -11.040212 39.902287 0.000006
v -8.931724 39.902287 6.489286
v -3.411619 39.902287 10.499880
v 3.411591 39.902287 10.499886
v 8.931707 39.902287 6.489292
v 11.040199 39.902287 0.000006
v 19.478704 26.871618 -14.152080
v 7.440169 26.871618 -22.898592
v -7.440205 26.871618 -22.898611
v -19.478720 26.871618 -14.152116
v -24.077003 26.871618 0.000006
v -19.478720 26.871618 14.152147
v -7.440205 26.871618 22.898623
v 7.440169 26.871618 22.898623
v 19.478704 26.871618 14.152123
v 24.076979 26.871618 0.000006
v 19.478704 7.876166 -14.152080
v 7.440169 7.876166 -22.898592
v -7.440205 7.876166 -22.898611
v -19.478720 7.876166 -14.152116
v -24.077003 7.876166 0.000006
v -19.478720 7.876166 14.152147
v -7.440205 7.876166 22.898623
v 7.440169 7.876166 22.898623
v 19.478704 7.876166 14.152110
v 24.076979 7.876166 0.000006
v 10.897672 1.261790 -7.917603
v 4.162516 1.261790 -12.810977
v 0.000000 1.261790 0.000006
v -4.162550 1.261790 -12.810983
v -10.897693 1.261790 -7.917627
v -13.470278 1.261790 0.000006
v -10.897693 1.261790 7.917646
v -4.162550 1.261790 12.811001
v 4.162516 1.261790 12.811001
v 10.897672 1.261790 7.917627
v 13.470251 1.261790 0.000006
vt 0.415524 0.204900
vt 0.360649 0.205417
vt 0.357824 0.019668
vt 0.404957 0.018901
vt 0.305891 0.205710
vt 0.310763 0.019715
vt 0.251743 0.205661
vt 0.264241 0.018982
vt 0.198917 0.204863
vt 0.218665 0.017376
vt 0.148710 0.202131
vt 0.174242 0.014862
vt 0.103960 0.194306
vt 0.130595 0.011847
vt 0.619817 0.192289
vt 0.574105 0.199472
vt 0.542027 0.011906
vt 0.585081 0.007812
vt 0.523328 0.202605
vt 0.497497 0.015108
vt 0.470008 0.204081
vt 0.451673 0.017406
vt 0.707519 0.250220
vt 0.736291 0.210619
vt 0.782846 0.274696
vt 0.707519 0.299171
vt 0.736291 0.338772
vt 0.782846 0.353899
vt 0.829400 0.338772
vt 0.858172 0.299171
vt 0.858172 0.250220
vt 0.829400 0.210619
vt 0.782846 0.195492
vt 0.492598 0.802268
vt 0.496612 0.842049
vt 0.372178 0.813157
vt 0.234620 0.849231
vt 0.248236 0.805112
vt 0.275417 0.772671
vt 0.307590 0.750163
vt 0.341508 0.736647
vt 0.375832 0.731784
vt 0.409726 0.735611
vt 0.442143 0.748406
vt 0.471140 0.770551
vt 0.414873 0.302688
vt 0.354455 0.303035
vt 0.294168 0.303416
vt 0.232739 0.303530
vt 0.168479 0.302845
vt 0.098949 0.299497
vt 0.022353 0.285912
vt 0.697996 0.303942
vt 0.614067 0.306020
vt 0.542084 0.303915
vt 0.476765 0.302792
vt 0.417205 0.403141
vt 0.355763 0.403808
vt 0.294009 0.404086
vt 0.230671 0.403774
vt 0.164069 0.402982
vt 0.091448 0.402925
vt 0.007812 0.410294
vt 0.688819 0.430156
vt 0.614269 0.409449
vt 0.544635 0.403524
vt 0.479617 0.402607
vt 0.412550 0.474358
vt 0.352326 0.475149
vt 0.291572 0.475434
vt 0.230117 0.475215
vt 0.168200 0.475111
vt 0.107377 0.477396
vt 0.052774 0.489117
vt 0.636119 0.496106
vt 0.588448 0.478365
vt 0.531584 0.473717
vt 0.472396 0.473478
vt 0.887252 0.285619
vt 0.926478 0.272873
vt 0.926478 0.281775
vt 0.892485 0.292820
vt 0.965704 0.285619
vt 0.960472 0.292820
vt 0.989947 0.318986
vt 0.981481 0.321737
vt 0.989947 0.360231
vt 0.981481 0.357480
vt 0.965704 0.393599
vt 0.960472 0.386397
vt 0.926478 0.406344
vt 0.926478 0.397442
vt 0.887252 0.393599
vt 0.892485 0.386397
vt 0.863009 0.360231
vt 0.871475 0.357480
vt 0.863009 0.318986
vt 0.871475 0.321737
vt 0.920569 0.186861
vt 0.956378 0.186861
vt 0.956378 0.007814
vt 0.920569 0.007814
vt 0.992188 0.186861
vt 0.992188 0.007814
vt 0.634093 0.186861
vt 0.669903 0.186861
vt 0.669903 0.007814
vt 0.634093 0.007814
vt 0.705712 0.186861
vt 0.705712 0.007814
vt 0.741521 0.186861
vt 0.741521 0.007814
vt 0.777331 0.186861
vt 0.777331 0.007814
vt 0.813140 0.186861
vt 0.813140 0.007814
vt 0.848950 0.186861
vt 0.848950 0.007814
vt 0.884759 0.186861
vt 0.884759 0.007814
vt 0.624060 0.538797
vt 0.670192 0.547799
vt 0.695540 0.698546
vt 0.624147 0.660345
vt 0.095663 0.550000
vt 0.137523 0.545766
vt 0.129849 0.657106
vt 0.059643 0.678491
vt 0.187754 0.527744
vt 0.191950 0.626305
vt 0.244630 0.507195
vt 0.252012 0.598500
vt 0.307273 0.491128
vt 0.312947 0.579214
vt 0.373910 0.483659
vt 0.375279 0.571203
vt 0.441875 0.486574
vt 0.438235 0.575778
vt 0.508076 0.499362
vt 0.500641 0.593184
vt 0.569556 0.518905
vt 0.562001 0.622382
vt 0.599046 0.824978
vt 0.565383 0.764125
vt 0.180825 0.760093
vt 0.127276 0.814172
vt 0.230555 0.720535
vt 0.279664 0.691762
vt 0.329189 0.673850
vt 0.379085 0.667315
vt 0.428714 0.672610
vt 0.477145 0.690086
vt 0.523263 0.720183
vn 0.587785 0.000000 -0.809017
vn 0.587785 0.000000 -0.809017
vn 0.587785 0.000000 -0.809017
vn 0.587785 0.000000 -0.809017
vn 0.000000 0.000000 -1.000000
vn 0.000000 0.000000 -1.000000
vn 0.000000 0.000000 -1.000000
vn 0.000000 0.000000 -1.000000
vn -0.587785 0.000000 -0.809017
vn -0.587785 0.000000 -0.809017
vn -0.587785 0.000000 -0.809017
vn -0.587785 0.000000 -0.809017
vn -0.951057 0.000000 -0.309017
vn -0.951057 0.000000 -0.309017
vn -0.951057 0.000000 -0.309017
vn -0.951057 0.000000 -0.309017
vn -0.951057 0.000000 0.309017
vn -0.951057 0.000000 0.309017
vn -0.951057 0.000000 0.309017
vn -0.951057 0.000000 0.309017
vn -0.587786 0.000000 0.809017
vn -0.587786 0.000000 0.809017
vn -0.587786 0.000000 0.809017
vn -0.587786 0.000000 0.809017
vn 0.000000 0.000000 1.000000
vn 0.000000 0.000000 1.000000
vn 0.000000 0.000000 1.000000
vn 0.000000 0.000000 1.000000
vn 0.587785 0.000000 0.809017
vn 0.587785 0.000000 0.809017
vn 0.587785 0.000000 0.809017
vn 0.587785 0.000000 0.809017
vn 0.951057 0.000000 0.309017
vn 0.951057 0.000000 0.309017
vn 0.951057 0.000000 0.309017
vn 0.951057 0.000000 0.309017
vn 0.951056 0.000000 -0.309017
vn 0.951056 0.000000 -0.309017
vn 0.951056 0.000000 -0.309017
vn 0.951056 0.000000 -0.309017
vn 0.000000 -1.000000 0.000000
vn 0.000000 -1.000000 0.000000
vn 0.000000 -1.000000 0.000000
vn 0.000000 -1.000000 0.000000
vn 0.000000 -1.000000 0.000000
vn 0.000000 -1.000000 0.000000
vn 0.000000 -1.000000 0.000000
vn 0.000000 -1.000000 0.000000
vn 0.000000 -1.000000 0.000000
vn 0.000000 -1.000000 0.000000
vn 0.000000 -1.000000 0.000000
vn 0.000000 -1.000000 0.000000
vn 0.000000 -1.000000 0.000000
vn 0.000000 -1.000000 0.000000
vn 0.000000 -1.000000 0.000000
vn 0.000000 -1.000000 0.000000
vn 0.000000 -1.000000 0.000000
vn 0.000000 -1.000000 0.000000
vn 0.000000 -1.000000 0.000000
vn 0.000000 -1.000000 0.000000
vn 0.000000 -1.000000 0.000000
vn 0.000000 -1.000000 0.000000
vn 0.000000 -1.000000 0.000000
vn 0.000000 -1.000000 0.000000
vn 0.000000 -1.000000 0.000000
vn 0.000000 -1.000000 0.000000
vn 0.000000 -1.000000 0.000000
vn 0.000000 -1.000000 -0.000001
vn 0.000000 -1.000000 -0.000001
vn 0.000000 -1.000000 -0.000001
vn 0.000000 1.000000 -0.000001
vn 0.000000 1.000000 -0.000001
vn 0.000000 1.000000 -0.000001
vn 0.000000 1.000000 0.000000
vn 0.000000 1.000000 0.000000
vn 0.000000 1.000000 0.000000
vn 0.000000 1.000000 0.000000
vn 0.000000 1.000000 0.000000
vn 0.000000 1.000000 0.000000
vn 0.000000 1.000000 -0.000001
vn 0.000000 1.000000 -0.000001
vn 0.000000 1.000000 -0.000001
vn 0.000000 1.000000 0.000000
vn 0.000000 1.000000 0.000000
vn 0.000000 1.000000 0.000000
vn 0.000000 1.000000 0.000000
vn 0.000000 1.000000 0.000000
vn 0.000000 1.000000 0.000000
vn 0.000000 1.000000 0.000000
vn 0.000000 1.000000 0.000000
vn 0.000000 1.000000 0.000000
vn 0.000000 1.000000 0.000000
vn 0.000000 1.000000 0.000000
vn 0.000000 1.000000 0.000000
vn 0.000000 1.000000 0.000000
vn 0.000000 1.000000 0.000000
vn 0.000000 1.000000 0.000000
vn 0.000000 1.000000 0.000000
vn 0.000000 1.000000 0.000000
vn 0.000000 1.000000 0.000000
vn 0.414266 0.709413 -0.570190
vn 0.414266 0.709413 -0.570190
vn 0.414267 0.709413 -0.570190
vn 0.414266 0.709413 -0.570190
vn 0.000000 0.709413 -0.704793
vn 0.000000 0.709413 -0.704793
vn 0.000000 0.709413 -0.704793
vn 0.000000 0.709413 -0.704793
vn -0.414267 0.709413 -0.570189
vn -0.414267 0.709413 -0.570189
vn -0.414267 0.709413 -0.570189
vn -0.414267 0.709413 -0.570189
vn -0.670298 0.709413 -0.217793
vn -0.670298 0.709413 -0.217793
vn -0.670298 0.709413 -0.217793
vn -0.670298 0.709413 -0.217793
vn -0.670298 0.709413 0.217793
vn -0.670298 0.709413 0.217793
vn -0.670298 0.709413 0.217793
vn -0.670298 0.709413 0.217793
vn -0.414267 0.709413 0.570189
vn -0.414267 0.709413 0.570189
vn -0.414267 0.709413 0.570189
vn -0.414267 0.709413 0.570189
vn 0.000000 0.709413 0.704793
vn 0.000000 0.709413 0.704793
vn 0.000000 0.709413 0.704793
vn 0.000000 0.709413 0.704793
vn 0.414267 0.709413 0.570190
vn 0.414267 0.709413 0.570190
vn 0.414267 0.709413 0.570190
vn 0.414267 0.709413 0.570190
vn 0.670298 0.709413 0.217793
vn 0.670298 0.709413 0.217793
vn 0.670298 0.709413 0.217793
vn 0.670298 0.709413 0.217793
vn 0.670298 0.709413 -0.217793
vn 0.670298 0.709413 -0.217793
vn 0.670298 0.709413 -0.217793
vn 0.670298 0.709413 -0.217793
vn 0.587785 0.000000 -0.809017
vn 0.587785 0.000000 -0.809017
vn 0.587785 0.000000 -0.809017
vn 0.587785 0.000000 -0.809017
vn -0.000001 0.000000 -1.000000
vn -0.000001 0.000000 -1.000000
vn -0.000001 0.000000 -1.000000
vn -0.000001 0.000000 -1.000000
vn -0.587785 0.000000 -0.809017
vn -0.587785 0.000000 -0.809017
vn -0.587785 0.000000 -0.809017
vn -0.587785 0.000000 -0.809017
vn -0.951057 0.000000 -0.309017
vn -0.951057 0.000000 -0.309017
vn -0.951057 0.000000 -0.309017
vn -0.951057 0.000000 -0.309017
vn -0.951056 0.000000 0.309017
vn -0.951056 0.000000 0.309017
vn -0.951056 0.000000 0.309017
vn -0.951056 0.000000 0.309017
vn -0.587786 0.000000 0.809017
vn -0.587786 0.000000 0.809017
vn -0.587786 0.000000 0.809017
vn -0.587786 0.000000 0.809017
vn 0.000001 -0.000000 1.000000
vn 0.000001 -0.000000 1.000000
vn 0.000001 -0.000000 1.000000
vn 0.000001 -0.000000 1.000000
vn 0.587784 -0.000000 0.809018
vn 0.587784 -0.000000 0.809018
vn 0.587784 -0.000000 0.809018
vn 0.587784 -0.000000 0.809018
vn 0.951056 -0.000000 0.309017
vn 0.951056 -0.000000 0.309017
vn 0.951056 -0.000000 0.309017
vn 0.951056 -0.000000 0.309017
vn 0.951057 0.000000 -0.309017
vn 0.951057 0.000000 -0.309017
vn 0.951057 0.000000 -0.309017
vn 0.951057 0.000000 -0.309017
vn 0.345244 -0.809323 -0.475188
vn 0.345244 -0.809323 -0.475188
vn 0.345244 -0.809323 -0.475188
vn 0.345244 -0.809323 -0.475188
vn 0.000000 -0.809323 -0.587364
vn 0.000000 -0.809323 -0.587364
vn 0.000000 -0.809323 -0.587364
vn 0.000000 -0.809323 -0.587364
vn -0.345244 -0.809323 -0.475188
vn -0.345244 -0.809323 -0.475188
vn -0.345244 -0.809323 -0.475188
vn -0.345244 -0.809323 -0.475188
vn -0.558617 -0.809322 -0.181506
vn -0.558617 -0.809323 -0.181506
vn -0.558617 -0.809322 -0.181506
vn -0.558617 -0.809322 -0.181506
vn -0.558617 -0.809323 0.181506
vn -0.558617 -0.809323 0.181506
vn -0.558617 -0.809323 0.181506
vn -0.558617 -0.809323 0.181506
vn -0.345244 -0.809322 0.475188
vn -0.345244 -0.809322 0.475188
vn -0.345244 -0.809322 0.475188
vn -0.345244 -0.809322 0.475188
vn 0.000001 -0.809322 0.587365
vn 0.000001 -0.809322 0.587365
vn 0.000001 -0.809322 0.587365
vn 0.000001 -0.809322 0.587365
vn 0.345244 -0.809322 0.475188
vn 0.345244 -0.809322 0.475188
vn 0.345244 -0.809322 0.475188
vn 0.345244 -0.809322 0.475188
vn 0.558616 -0.809323 0.181506
vn 0.558616 -0.809323 0.181506
vn 0.558617 -0.809323 0.181506
vn 0.558617 -0.809323 0.181506
vn 0.558616 -0.809323 -0.181506
vn 0.558616 -0.809323 -0.181506
vn 0.558616 -0.809323 -0.181506
vn 0.558616 -0.809323 -0.181506
vn 0.000000 1.000000 0.000000
vn 0.000000 1.000000 0.000000
vn 0.000000 1.000000 0.000000
vn 0.000000 1.000000 0.000000
vn 0.000000 1.000000 0.000000
vn 0.000000 1.000000 0.000000
vn 0.000000 1.000000 0.000000
vn 0.000000 1.000000 0.000000
vn 0.000000 1.000000 0.000000
vn 0.000000 1.000000 0.000000
vn 0.000000 1.000000 0.000000
vn 0.000000 1.000000 0.000000
vn 0.000000 1.000000 0.000000
vn 0.000000 1.000000 0.000000
vn 0.000000 1.000000 0.000000
vn 0.000000 1.000000 0.000000
vn 0.000000 1.000000 -0.000001
vn 0.000000 1.000000 -0.000001
vn 0.000000 1.000000 -0.000001
vn 0.000000 1.000000 -0.000001
vn 0.000000 1.000000 0.000000
vn 0.000000 1.000000 0.000000
vn 0.000000 1.000000 0.000000
vn 0.000000 1.000000 0.000000
vn 0.000000 1.000000 0.000000
vn 0.000000 1.000000 0.000000
vn 0.000000 1.000000 0.000000
vn 0.000000 1.000000 0.000000
vn 0.000000 1.000000 0.000001
vn 0.000000 1.000000 0.000001
vn 0.000000 1.000000 0.000001
vn 0.000000 1.000000 0.000001
vn 0.000000 1.000000 -0.000001
vn 0.000000 1.000000 -0.000001
vn 0.000000 1.000000 -0.000001
vn 0.000000 1.000000 -0.000001
vn 0.000000 1.000000 0.000000
vn 0.000000 1.000000 0.000000
vn 0.000000 1.000000 0.000000
vn 0.000000 1.000000 0.000000
vn -0.587785 0.000000 0.809017
vn -0.587785 0.000000 0.809017
vn -0.587785 0.000000 0.809017
vn -0.587785 0.000000 0.809017
vn 0.000000 0.000000 1.000000
vn 0.000000 0.000000 1.000000
vn 0.000000 0.000000 1.000000
vn 0.000000 0.000000 1.000000
vn 0.587786 0.000000 0.809016
vn 0.587786 0.000000 0.809016
vn 0.587786 0.000000 0.809016
vn 0.587786 0.000000 0.809016
vn 0.951057 0.000000 0.309017
vn 0.951057 0.000000 0.309017
vn 0.951057 0.000000 0.309017
vn 0.951057 0.000000 0.309017
vn 0.951057 0.000000 -0.309016
vn 0.951057 0.000000 -0.309016
vn 0.951057 0.000000 -0.309016
vn 0.951057 0.000000 -0.309016
vn 0.587786 0.000000 -0.809017
vn 0.587786 0.000000 -0.809017
vn 0.587786 0.000000 -0.809017
vn 0.587786 0.000000 -0.809017
vn 0.000000 0.000000 -1.000000
vn 0.000000 0.000000 -1.000000
vn 0.000000 0.000000 -1.000000
vn 0.000000 0.000000 -1.000000
vn -0.587784 0.000000 -0.809018
vn -0.587785 0.000000 -0.809017
vn -0.587784 0.000000 -0.809018
vn -0.587784 0.000000 -0.809018
vn -0.951057 0.000000 -0.309016
vn -0.951057 0.000000 -0.309017
vn -0.951057 0.000000 -0.309017
vn -0.951057 0.000000 -0.309017
vn -0.951056 0.000000 0.309017
vn -0.951056 0.000000 0.309017
vn -0.951056 0.000000 0.309017
vn -0.951056 0.000000 0.309017
vn -0.425824 -0.689322 0.586097
vn -0.425824 -0.689322 0.586097
vn -0.425824 -0.689322 0.586097
vn -0.425824 -0.689322 0.586097
vn -0.000001 -0.689322 0.724455
vn -0.000001 -0.689322 0.724455
vn -0.000001 -0.689322 0.724455
vn -0.000001 -0.689322 0.724455
vn 0.425824 -0.689322 0.586096
vn 0.425824 -0.689322 0.586096
vn 0.425824 -0.689322 0.586096
vn 0.425824 -0.689322 0.586096
vn 0.688998 -0.689322 0.223868
vn 0.688998 -0.689322 0.223868
vn 0.688998 -0.689322 0.223868
vn 0.688998 -0.689322 0.223868
vn 0.688998 -0.689322 -0.223868
vn 0.688998 -0.689322 -0.223868
vn 0.688998 -0.689322 -0.223868
vn 0.688998 -0.689322 -0.223868
vn 0.425824 -0.689322 -0.586096
vn 0.425824 -0.689322 -0.586096
vn 0.425824 -0.689322 -0.586096
vn 0.425824 -0.689322 -0.586096
vn 0.000000 -0.689322 -0.724455
vn 0.000000 -0.689322 -0.724455
vn 0.000000 -0.689322 -0.724455
vn 0.000000 -0.689322 -0.724455
vn -0.425824 -0.689322 -0.586097
vn -0.425824 -0.689322 -0.586097
vn -0.425824 -0.689322 -0.586097
vn -0.425824 -0.689322 -0.586097
vn -0.688998 -0.689322 -0.223868
vn -0.688998 -0.689322 -0.223868
vn -0.688998 -0.689322 -0.223868
vn -0.688998 -0.689322 -0.223868
vn -0.688998 -0.689322 0.223869
vn -0.688998 -0.689322 0.223869
vn -0.688998 -0.689322 0.223869
vn -0.688998 -0.689322 0.223869
vn -0.587785 0.000000 0.809017
vn -0.587785 0.000000 0.809017
vn -0.587785 0.000000 0.809017
vn -0.587785 0.000000 0.809017
vn -0.000001 0.000000 1.000000
vn -0.000001 0.000000 1.000000
vn -0.000001 0.000000 1.000000
vn -0.000001 0.000000 1.000000
vn 0.587785 0.000000 0.809017
vn 0.587785 0.000000 0.809017
vn 0.587785 0.000000 0.809017
vn 0.587785 0.000000 0.809017
vn 0.951057 0.000000 0.309016
vn 0.951057 0.000000 0.309016
vn 0.951057 0.000000 0.309016
vn 0.951057 0.000000 0.309016
vn 0.951057 0.000000 -0.309016
vn 0.951057 0.000000 -0.309016
vn 0.951057 0.000000 -0.309016
vn 0.951057 0.000000 -0.309016
vn 0.587784 0.000000 -0.809018
vn 0.587784 0.000000 -0.809018
vn 0.587784 0.000000 -0.809018
vn 0.587784 0.000000 -0.809018
vn 0.000000 0.000000 -1.000000
vn 0.000000 0.000000 -1.000000
vn 0.000000 0.000000 -1.000000
vn 0.000000 0.000000 -1.000000
vn -0.587785 0.000000 -0.809017
vn -0.587785 0.000000 -0.809017
vn -0.587785 0.000000 -0.809017
vn -0.587785 0.000000 -0.809017
vn -0.951057 0.000000 -0.309015
vn -0.951057 0.000000 -0.309015
vn -0.951057 0.000000 -0.309015
vn -0.951057 0.000000 -0.309015
vn -0.951057 0.000000 0.309016
vn -0.951057 0.000000 0.309016
vn -0.951057 0.000000 0.309016
vn -0.951057 0.000000 0.309016
vn -0.322301 0.836261 0.443609
vn -0.322301 0.836261 0.443609
vn -0.322301 0.836261 0.443609
vn -0.322301 0.836261 0.443609
vn -0.000001 0.836262 0.548330
vn -0.000001 0.836262 0.548330
vn -0.000001 0.836262 0.548330
vn -0.000001 0.836262 0.548330
vn 0.322301 0.836262 0.443609
vn 0.322301 0.836262 0.443609
vn 0.322301 0.836262 0.443609
vn 0.322301 0.836262 0.443609
vn 0.521494 0.836261 0.169443
vn 0.521494 0.836261 0.169443
vn 0.521494 0.836261 0.169443
vn 0.521494 0.836261 0.169443
vn 0.521494 0.836261 -0.169443
vn 0.521494 0.836261 -0.169443
vn 0.521494 0.836261 -0.169443
vn 0.521494 0.836261 -0.169443
vn 0.322300 0.836262 -0.443609
vn 0.322300 0.836262 -0.443609
vn 0.322300 0.836262 -0.443609
vn 0.322300 0.836262 -0.443609
vn 0.000000 0.836262 -0.548330
vn 0.000000 0.836262 -0.548330
vn 0.000000 0.836262 -0.548330
vn 0.000000 0.836262 -0.548330
vn -0.322301 0.836261 -0.443609
vn -0.322301 0.836261 -0.443609
vn -0.322301 0.836261 -0.443609
vn -0.322301 0.836261 -0.443609
vn -0.521494 0.836261 -0.169443
vn -0.521494 0.836261 -0.169443
vn -0.521494 0.836261 -0.169443
vn -0.521494 0.836261 -0.169443
vn -0.521494 0.836261 0.169443
vn -0.521494 0.836261 0.169443
vn -0.521494 0.836261 0.169443
vn -0.521494 0.836261 0.169443
s off
g Vial_7:pCylinder9
usemtl lambert18SG
f 1/1/1 2/2/2 12/3/3 11/4/4
f 2/2/5 3/5/6 13/6/7 12/3/8
f 3/5/9 4/7/10 14/8/11 13/6/12
f 4/7/13 5/9/14 15/10/15 14/8/16
f 5/9/17 6/11/18 16/12/19 15/10/20
f 6/11/21 7/13/22 17/14/23 16/12/24
f 7/15/25 8/16/26 18/17/27 17/18/28
f 8/16/29 9/19/30 19/20/31 18/17/32
f 9/19/33 10/21/34 20/22/35 19/20/36
f 10/21/37 1/1/38 11/4/39 20/22/40
f 42/23/41 41/24/42 43/25/43
f 44/26/44 42/23/45 43/25/46
f 45/27/47 44/26/48 43/25/49
f 46/28/50 45/27/51 43/25/52
f 47/29/53 46/28/54 43/25/55
f 48/30/56 47/29/57 43/25/58
f 49/31/59 48/30/60 43/25/61
f 50/32/62 49/31/63 43/25/64
f 51/33/65 50/32/66 43/25/67
f 41/24/68 51/33/69 43/25/70
f 92/34/71 93/35/72 94/36/73
f 93/37/74 95/38/75 94/36/76
f 95/38/77 96/39/78 94/36/79
f 96/39/80 97/40/81 94/36/82
f 97/40/83 98/41/84 94/36/85
f 98/41/86 99/42/87 94/36/88
f 99/42/89 100/43/90 94/36/91
f 100/43/92 101/44/93 94/36/94
f 101/44/95 102/45/96 94/36/97
f 102/45/98 92/34/99 94/36/100
f 2/2/101 1/1/102 21/46/103 22/47/104
f 3/5/105 2/2/106 22/47/107 23/48/108
f 4/7/109 3/5/110 23/48/111 24/49/112
f 5/9/113 4/7/114 24/49/115 25/50/116
f 6/11/117 5/9/118 25/50/119 26/51/120
f 7/13/121 6/11/122 26/51/123 27/52/124
f 8/16/125 7/15/126 27/53/127 28/54/128
f 9/19/129 8/16/130 28/54/131 29/55/132
f 10/21/133 9/19/134 29/55/135 30/56/136
f 1/1/137 10/21/138 30/56/139 21/46/140
f 22/47/141 21/46/142 31/57/143 32/58/144
f 23/48/145 22/47/146 32/58/147 33/59/148
f 24/49/149 23/48/150 33/59/151 34/60/152
f 25/50/153 24/49/154 34/60/155 35/61/156
f 26/51/157 25/50/158 35/61/159 36/62/160
f 27/52/161 26/51/162 36/62/163 37/63/164
f 28/54/165 27/53/166 37/64/167 38/65/168
f 29/55/169 28/54/170 38/65/171 39/66/172
f 30/56/173 29/55/174 39/66/175 40/67/176
f 21/46/177 30/56/178 40/67/179 31/57/180
f 32/58/181 31/57/182 41/68/183 42/69/184
f 33/59/185 32/58/186 42/69/187 44/70/188
f 34/60/189 33/59/190 44/70/191 45/71/192
f 35/61/193 34/60/194 45/71/195 46/72/196
f 36/62/197 35/61/198 46/72/199 47/73/200
f 37/63/201 36/62/202 47/73/203 48/74/204
f 38/65/205 37/64/206 48/75/207 49/76/208
f 39/66/209 38/65/210 49/76/211 50/77/212
f 40/67/213 39/66/214 50/77/215 51/78/216
f 31/57/217 40/67/218 51/78/219 41/68/220
f 19/79/221 20/80/222 53/81/223 52/82/224
f 20/80/225 11/83/226 54/84/227 53/81/228
f 11/83/229 12/85/230 55/86/231 54/84/232
f 12/85/233 13/87/234 56/88/235 55/86/236
f 13/87/237 14/89/238 57/90/239 56/88/240
f 14/89/241 15/91/242 58/92/243 57/90/244
f 15/91/245 16/93/246 59/94/247 58/92/248
f 16/93/249 17/95/250 60/96/251 59/94/252
f 17/95/253 18/97/254 61/98/255 60/96/256
f 18/97/257 19/79/258 52/82/259 61/98/260
f 54/99/261 55/100/262 63/101/263 62/102/264
f 55/100/265 56/103/266 64/104/267 63/101/268
f 56/105/269 57/106/270 65/107/271 64/108/272
f 57/106/273 58/109/274 66/110/275 65/107/276
f 58/109/277 59/111/278 67/112/279 66/110/280
f 59/111/281 60/113/282 68/114/283 67/112/284
f 60/113/285 61/115/286 69/116/287 68/114/288
f 61/115/289 52/117/290 70/118/291 69/116/292
f 52/117/293 53/119/294 71/120/295 70/118/296
f 53/119/297 54/99/298 62/102/299 71/120/300
f 62/121/301 63/122/302 73/123/303 72/124/304
f 63/125/305 64/126/306 74/127/307 73/128/308
f 64/126/309 65/129/310 75/130/311 74/127/312
f 65/129/313 66/131/314 76/132/315 75/130/316
f 66/131/317 67/133/318 77/134/319 76/132/320
f 67/133/321 68/135/322 78/136/323 77/134/324
f 68/135/325 69/137/326 79/138/327 78/136/328
f 69/137/329 70/139/330 80/140/331 79/138/332
f 70/139/333 71/141/334 81/142/335 80/140/336
f 71/141/337 62/121/338 72/124/339 81/142/340
f 72/124/341 73/123/342 83/143/343 82/144/344
f 73/128/345 74/127/346 84/145/347 83/146/348
f 74/127/349 75/130/350 85/147/351 84/145/352
f 75/130/353 76/132/354 86/148/355 85/147/356
f 76/132/357 77/134/358 87/149/359 86/148/360
f 77/134/361 78/136/362 88/150/363 87/149/364
f 78/136/365 79/138/366 89/151/367 88/150/368
f 79/138/369 80/140/370 90/152/371 89/151/372
f 80/140/373 81/142/374 91/153/375 90/152/376
f 81/142/377 72/124/378 82/144/379 91/153/380
f 82/144/381 83/143/382 93/35/383 92/34/384
f 83/146/385 84/145/386 95/38/387 93/37/388
f 84/145/389 85/147/390 96/39/391 95/38/392
f 85/147/393 86/148/394 97/40/395 96/39/396
f 86/148/397 87/149/398 98/41/399 97/40/400
f 87/149/401 88/150/402 99/42/403 98/41/404
f 88/150/405 89/151/406 100/43/407 99/42/408
f 89/151/409 90/152/410 101/44/411 100/43/412
f 90/152/413 91/153/414 102/45/415 101/44/416
f 91/153/417 82/144/418 92/34/419 102/45/420
