# This file uses centimeters as units for non-parametric coordinates.

mtllib Vial_5.mtl
g default
v 26.167087 5.036940 -19.011497
v 9.994937 5.036940 -30.761268
v -9.994935 5.036940 -30.761268
v -26.167094 5.036940 -19.011497
v -32.344297 5.036940 0.000000
v -26.167085 5.036940 19.011509
v -9.994935 5.036940 30.761261
v 9.994937 5.036940 30.761261
v 26.167087 5.036940 19.011509
v 32.344309 5.036940 0.000000
v 26.167087 94.149020 -19.011497
v 9.994937 94.149020 -30.761268
v -9.994935 94.149020 -30.761268
v -30.198623 94.149020 -19.011497
v -39.831434 94.149020 0.000000
v -30.198623 94.149020 19.011509
v -9.994935 94.149020 30.761261
v 9.994937 94.149020 30.761261
v 26.167087 94.149020 19.011509
v 32.344309 94.149020 0.000000
v 26.167087 80.573509 -19.011497
v 9.994937 80.190680 -30.761268
v -9.994935 80.190680 -30.761268
v -26.167094 80.573509 -19.011497
v -32.344297 80.956400 0.000000
v -26.167085 80.573509 19.011509
v -9.994935 80.190680 30.761261
v 9.994937 80.190680 30.761261
v 26.167087 80.573509 19.011509
v 32.344309 80.956400 0.000000
v -28.581997 94.149020 17.836969
v -9.377438 94.149020 28.860820
v 9.377448 94.149020 28.860820
v 24.550471 94.149020 17.836961
v 30.346051 94.149020 0.000000
v 24.550471 94.149020 -17.836969
v 9.377448 94.149020 -28.860820
v -9.377446 94.149020 -28.860820
v -28.581997 94.149020 -17.836961
v -37.833169 94.149020 0.000008
v 24.550471 10.862981 -17.836969
v 9.377448 10.862981 -28.860820
v 0.000000 10.862981 0.000000
v -9.377446 10.862981 -28.860820
v -24.550467 10.862981 -17.836961
v -30.346051 5.367609 0.000008
v -24.550467 10.862981 17.836969
v -9.377438 10.862981 28.860820
v 9.377448 10.862981 28.860820
v 24.550471 10.862981 17.836961
v 30.346051 5.367609 0.000000
v 24.550471 80.190680 -17.836969
v 9.377448 80.190680 -28.860820
v -9.377446 80.190680 -28.860820
v -24.550467 80.190680 -17.836961
v -30.346051 80.190680 0.000008
v -24.550467 80.190680 17.836969
v -9.377438 80.190680 28.860820
v 9.377448 80.190680 28.860820
v 24.550471 80.190680 17.836961
v 30.346051 80.190680 0.000000
v 18.170155 -0.000000 -13.201388
v 6.940382 -0.000000 -21.360299
v 0.000000 -0.000000 0.000000
v -6.940378 -0.000000 -21.360299
v -18.170153 -0.000000 -13.201388
v -22.459541 -0.000000 0.000000
v -18.170151 -0.000000 13.201396
v -6.940378 -0.000000 21.360299
v 6.940382 -0.000000 21.360299
v 18.170155 -0.000000 13.201392
v 22.459552 -0.000000 0.000000
vt 0.608768 0.322971
vt 0.608768 0.379609
vt 0.007812 0.321373
vt 0.007812 0.379609
vt 0.086755 0.322971
vt 0.096236 0.379609
vt 0.169978 0.324568
vt 0.169978 0.379609
vt 0.253201 0.322971
vt 0.243721 0.379609
vt 0.332144 0.321373
vt 0.332144 0.379609
vt 0.405579 0.321373
vt 0.405579 0.379609
vt 0.474759 0.322971
vt 0.474759 0.379609
vt 0.541764 0.324568
vt 0.541764 0.379609
vt 0.589431 0.691832
vt 0.589431 0.411074
vt 0.007812 0.691832
vt 0.007812 0.411074
vt 0.084412 0.691832
vt 0.084412 0.411074
vt 0.165519 0.691832
vt 0.165519 0.388820
vt 0.246625 0.691832
vt 0.246625 0.411074
vt 0.323225 0.691832
vt 0.323225 0.411074
vt 0.394122 0.691832
vt 0.394122 0.411074
vt 0.460685 0.691832
vt 0.460685 0.411074
vt 0.525058 0.691832
vt 0.525058 0.388820
vt 0.589431 0.748359
vt 0.655994 0.748359
vt 0.007812 0.748359
vt 0.094245 0.748359
vt 0.165519 0.748359
vt 0.236793 0.748359
vt 0.323225 0.748359
vt 0.394122 0.748359
vt 0.460685 0.748359
vt 0.525058 0.748359
vt 0.608768 0.007824
vt 0.007812 0.007824
vt 0.086755 0.007824
vt 0.169978 0.007824
vt 0.253201 0.007824
vt 0.332144 0.007824
vt 0.405579 0.007824
vt 0.474759 0.007824
vt 0.541764 0.007824
vt 0.751383 0.007824
vt 0.677948 0.007824
vt 0.677948 0.379609
vt 0.763408 0.165255
vt 0.807102 0.225393
vt 0.763408 0.090921
vt 0.786516 0.578430
vt 0.740372 0.499085
vt 0.747836 0.496660
vt 0.791128 0.572080
vt 0.740372 0.420580
vt 0.747836 0.423006
vt 0.861178 0.616260
vt 0.861178 0.608411
vt 0.786516 0.357069
vt 0.791128 0.363419
vt 0.935840 0.578430
vt 0.931227 0.572080
vt 0.861178 0.332810
vt 0.861178 0.340658
vt 0.981983 0.499085
vt 0.974520 0.496660
vt 0.935840 0.357069
vt 0.931227 0.363419
vt 0.981983 0.420580
vt 0.974520 0.423006
vt 0.769341 0.782712
vt 0.802479 0.737101
vt 0.856099 0.810902
vt 0.731157 0.770306
vt 0.778881 0.704620
vt 0.856099 0.719678
vt 0.769341 0.839091
vt 0.856099 0.679530
vt 0.731157 0.851498
vt 0.909718 0.737101
vt 0.802479 0.884703
vt 0.933318 0.704620
vt 0.778881 0.917184
vt 0.942858 0.782712
vt 0.856099 0.902125
vt 0.981041 0.770306
vt 0.856099 0.942274
vt 0.942858 0.839091
vt 0.909718 0.884703
vt 0.981041 0.851498
vt 0.933318 0.917184
vt 0.948494 0.030782
vt 0.992188 0.090921
vt 0.877798 0.128088
vt 0.992188 0.165255
vt 0.877798 0.007812
vt 0.948494 0.225393
vt 0.807102 0.030782
vt 0.877798 0.248363
vt 0.677948 0.321373
vt 0.751383 0.321373
vt 0.751383 0.379609
vt 0.655994 0.691832
vt 0.726891 0.691832
vt 0.726891 0.411074
vt 0.655994 0.411074
vt 0.726891 0.748359
vn 0.587786 0.000000 -0.809017
vn 0.587786 0.000000 -0.809017
vn 0.587786 0.000000 -0.809017
vn 0.587786 0.000000 -0.809017
vn 0.000000 0.000000 -1.000000
vn 0.000000 0.000000 -1.000000
vn 0.000000 0.000000 -1.000000
vn 0.000000 0.000000 -1.000000
vn -0.541517 -0.079289 -0.836943
vn -0.541517 -0.079289 -0.836943
vn -0.541517 -0.079289 -0.836943
vn -0.541517 -0.079289 -0.836943
vn -0.859240 -0.369742 -0.353550
vn -0.859240 -0.369742 -0.353550
vn -0.859240 -0.369742 -0.353550
vn -0.859240 -0.369742 -0.353550
vn -0.859240 -0.369742 0.353550
vn -0.859240 -0.369742 0.353550
vn -0.859240 -0.369742 0.353550
vn -0.859240 -0.369742 0.353550
vn -0.541516 -0.079289 0.836943
vn -0.541516 -0.079289 0.836943
vn -0.541516 -0.079289 0.836943
vn -0.541516 -0.079289 0.836943
vn 0.000000 0.000000 1.000000
vn 0.000000 0.000000 1.000000
vn 0.000000 0.000000 1.000000
vn 0.000000 0.000000 1.000000
vn 0.587785 0.000000 0.809017
vn 0.587785 0.000000 0.809017
vn 0.587785 0.000000 0.809017
vn 0.587785 0.000000 0.809017
vn 0.951056 0.000000 0.309017
vn 0.951056 0.000000 0.309017
vn 0.951056 0.000000 0.309017
vn 0.951056 0.000000 0.309017
vn 0.951056 0.000000 -0.309018
vn 0.951056 0.000000 -0.309018
vn 0.951056 0.000000 -0.309018
vn 0.951056 0.000000 -0.309018
vn 0.000000 -1.000000 0.000000
vn 0.000000 -1.000000 0.000000
vn 0.000000 -1.000000 0.000000
vn 0.000000 -1.000000 0.000000
vn 0.000000 -1.000000 0.000000
vn 0.000000 -1.000000 0.000000
vn 0.000000 -1.000000 0.000000
vn 0.000000 -1.000000 0.000000
vn 0.000000 -1.000000 0.000000
vn 0.000000 -1.000000 0.000000
vn 0.000000 -1.000000 0.000000
vn 0.000000 -1.000000 0.000000
vn 0.000000 -1.000000 -0.000000
vn 0.000000 -1.000000 -0.000000
vn 0.000000 -1.000000 -0.000000
vn 0.000000 -1.000000 0.000000
vn 0.000000 -1.000000 0.000000
vn 0.000000 -1.000000 0.000000
vn 0.000000 -1.000000 -0.000000
vn 0.000000 -1.000000 -0.000000
vn 0.000000 -1.000000 -0.000000
vn 0.000000 -1.000000 0.000000
vn 0.000000 -1.000000 0.000000
vn 0.000000 -1.000000 0.000000
vn 0.000000 -1.000000 0.000000
vn 0.000000 -1.000000 0.000000
vn 0.000000 -1.000000 0.000000
vn 0.000000 -1.000000 0.000000
vn 0.000000 -1.000000 0.000000
vn 0.000000 -1.000000 0.000000
vn 0.000000 1.000000 0.000000
vn 0.000000 1.000000 0.000000
vn 0.000000 1.000000 0.000000
vn 0.000000 1.000000 0.000000
vn 0.000000 1.000000 0.000000
vn 0.000000 1.000000 0.000000
vn 0.000000 1.000000 0.000000
vn 0.000000 1.000000 0.000000
vn 0.000000 1.000000 0.000000
vn -0.173063 0.955672 0.238201
vn -0.173063 0.955672 0.238201
vn -0.173063 0.955672 0.238201
vn -0.173063 0.955672 -0.238201
vn -0.173063 0.955672 -0.238201
vn -0.173063 0.955672 -0.238201
vn 0.000000 1.000000 0.000000
vn 0.000000 1.000000 0.000000
vn 0.000000 1.000000 0.000000
vn 0.000000 1.000000 0.000000
vn 0.000000 1.000000 0.000000
vn 0.000000 1.000000 0.000000
vn 0.000000 1.000000 -0.000000
vn 0.000000 1.000000 -0.000000
vn 0.000000 1.000000 -0.000000
vn 0.173063 0.955672 -0.238201
vn 0.173063 0.955672 -0.238201
vn 0.173063 0.955672 -0.238201
vn 0.173063 0.955673 0.238200
vn 0.173063 0.955673 0.238200
vn 0.173063 0.955672 0.238200
vn 0.587786 0.000000 -0.809017
vn 0.587786 0.000000 -0.809017
vn 0.587786 0.000000 -0.809017
vn 0.587786 0.000000 -0.809017
vn 0.000000 0.000000 -1.000000
vn 0.000000 0.000000 -1.000000
vn 0.000000 0.000000 -1.000000
vn 0.000000 0.000000 -1.000000
vn -0.587786 0.000000 -0.809017
vn -0.587786 0.000000 -0.809017
vn -0.587786 0.000000 -0.809017
vn -0.587786 0.000000 -0.809017
vn -0.951057 0.000000 -0.309017
vn -0.951057 0.000000 -0.309017
vn -0.951057 0.000000 -0.309017
vn -0.951057 0.000000 -0.309017
vn -0.951057 0.000000 0.309017
vn -0.951057 0.000000 0.309017
vn -0.951057 0.000000 0.309017
vn -0.951057 0.000000 0.309017
vn -0.587785 0.000000 0.809017
vn -0.587785 0.000000 0.809017
vn -0.587785 0.000000 0.809017
vn -0.587785 0.000000 0.809017
vn 0.000000 0.000000 1.000000
vn 0.000000 0.000000 1.000000
vn 0.000000 0.000000 1.000000
vn 0.000000 0.000000 1.000000
vn 0.587785 0.000000 0.809017
vn 0.587785 0.000000 0.809017
vn 0.587785 0.000000 0.809017
vn 0.587785 0.000000 0.809017
vn 0.951056 0.000000 0.309017
vn 0.951056 0.000000 0.309017
vn 0.951056 0.000000 0.309017
vn 0.951056 0.000000 0.309017
vn 0.951056 0.000000 -0.309018
vn 0.951056 0.000000 -0.309018
vn 0.951056 0.000000 -0.309018
vn 0.951056 0.000000 -0.309017
vn 0.000000 1.000000 -0.000001
vn 0.000000 1.000000 -0.000001
vn 0.000000 1.000000 -0.000001
vn 0.000000 1.000000 -0.000001
vn 0.000000 1.000000 -0.000001
vn 0.000000 1.000000 -0.000001
vn 0.000000 1.000000 -0.000001
vn 0.000000 1.000000 -0.000001
vn 0.000000 1.000000 0.000001
vn 0.000000 1.000000 0.000001
vn 0.000000 1.000000 0.000001
vn 0.000000 1.000000 0.000001
vn 0.000000 1.000000 0.000001
vn 0.000000 1.000000 0.000001
vn 0.000000 1.000000 0.000001
vn 0.000000 1.000000 0.000001
vn 0.000000 1.000000 -0.000000
vn 0.000000 1.000000 -0.000000
vn 0.000000 1.000000 -0.000000
vn 0.000000 1.000000 -0.000000
vn 0.000000 1.000000 0.000000
vn 0.000000 1.000000 0.000000
vn 0.000000 1.000000 0.000000
vn 0.000000 1.000000 0.000000
vn 0.000000 1.000000 0.000003
vn 0.000000 1.000000 0.000003
vn 0.000000 1.000000 0.000003
vn 0.000000 1.000000 0.000003
vn 0.000000 1.000000 0.000001
vn 0.000000 1.000000 0.000001
vn 0.000000 1.000000 0.000001
vn 0.000000 1.000000 0.000001
vn 0.000000 1.000000 0.000001
vn 0.000000 1.000000 0.000001
vn 0.000000 1.000000 0.000001
vn 0.000000 1.000000 0.000001
vn 0.000000 1.000000 -0.000001
vn 0.000000 1.000000 -0.000001
vn 0.000000 1.000000 -0.000001
vn 0.000000 1.000000 -0.000001
vn -0.587785 0.000000 0.809017
vn -0.587785 0.000000 0.809017
vn -0.587785 0.000000 0.809017
vn -0.587785 0.000000 0.809017
vn 0.000000 0.000000 1.000000
vn 0.000000 0.000000 1.000000
vn 0.000000 0.000000 1.000000
vn 0.000000 0.000000 1.000000
vn 0.587786 0.000000 0.809017
vn 0.587786 0.000000 0.809017
vn 0.587786 0.000000 0.809017
vn 0.587786 0.000000 0.809017
vn 0.951057 0.000000 0.309017
vn 0.951057 0.000000 0.309017
vn 0.951057 0.000000 0.309017
vn 0.951057 0.000000 0.309017
vn 0.951056 0.000000 -0.309017
vn 0.951056 0.000000 -0.309017
vn 0.951056 0.000000 -0.309017
vn 0.951056 0.000000 -0.309017
vn 0.587785 0.000000 -0.809017
vn 0.587785 0.000000 -0.809017
vn 0.587785 0.000000 -0.809017
vn 0.587785 0.000000 -0.809017
vn 0.000000 0.000000 -1.000000
vn 0.000000 0.000000 -1.000000
vn 0.000000 0.000000 -1.000000
vn 0.000000 0.000000 -1.000000
vn -0.587786 0.000000 -0.809017
vn -0.587786 0.000000 -0.809017
vn -0.587786 0.000000 -0.809017
vn -0.587786 0.000000 -0.809017
vn -0.951057 0.000000 -0.309017
vn -0.951057 0.000000 -0.309017
vn -0.951057 0.000000 -0.309017
vn -0.951057 0.000000 -0.309017
vn -0.951057 0.000000 0.309017
vn -0.951057 0.000000 0.309017
vn -0.951057 0.000000 0.309017
vn -0.951057 0.000000 0.309017
vn -0.587785 0.000000 0.809017
vn -0.587785 0.000000 0.809017
vn -0.587785 0.000000 0.809017
vn -0.587785 0.000000 0.809017
vn 0.000000 0.000000 1.000000
vn 0.000000 0.000000 1.000000
vn 0.000000 0.000000 1.000000
vn 0.000000 0.000000 1.000000
vn 0.538221 0.077726 0.839212
vn 0.538221 0.077726 0.839212
vn 0.538221 0.077726 0.839212
vn 0.538221 0.077726 0.839212
vn 0.861254 0.355360 0.363264
vn 0.861254 0.355360 0.363264
vn 0.861254 0.355360 0.363264
vn 0.861254 0.355360 0.363264
vn 0.861254 0.355360 -0.363265
vn 0.861254 0.355360 -0.363265
vn 0.861254 0.355360 -0.363265
vn 0.861254 0.355360 -0.363265
vn 0.538220 0.077726 -0.839213
vn 0.538220 0.077726 -0.839213
vn 0.538220 0.077726 -0.839213
vn 0.538220 0.077726 -0.839213
vn 0.000000 0.000000 -1.000000
vn 0.000000 0.000000 -1.000000
vn 0.000000 0.000000 -1.000000
vn 0.000000 0.000000 -1.000000
vn -0.587786 0.000000 -0.809017
vn -0.587786 0.000000 -0.809017
vn -0.587786 0.000000 -0.809017
vn -0.587786 0.000000 -0.809017
vn -0.951057 0.000000 -0.309017
vn -0.951057 0.000000 -0.309017
vn -0.951057 0.000000 -0.309017
vn -0.951057 0.000000 -0.309017
vn -0.951057 0.000000 0.309017
vn -0.951057 0.000000 0.309017
vn -0.951057 0.000000 0.309017
vn -0.951057 0.000000 0.309017
vn 0.277595 -0.881452 -0.382077
vn 0.277595 -0.881452 -0.382077
vn 0.277595 -0.881452 -0.382077
vn 0.277595 -0.881452 -0.382077
vn 0.000000 -0.881452 -0.472273
vn 0.000000 -0.881452 -0.472273
vn 0.000000 -0.881452 -0.472273
vn 0.000000 -0.881452 -0.472273
vn -0.277595 -0.881452 -0.382077
vn -0.277595 -0.881452 -0.382077
vn -0.277595 -0.881452 -0.382077
vn -0.277595 -0.881452 -0.382077
vn -0.449158 -0.881452 -0.145940
vn -0.449158 -0.881452 -0.145940
vn -0.449158 -0.881452 -0.145940
vn -0.449158 -0.881452 -0.145940
vn -0.449159 -0.881452 0.145940
vn -0.449159 -0.881452 0.145940
vn -0.449159 -0.881452 0.145940
vn -0.449159 -0.881452 0.145940
vn -0.277595 -0.881452 0.382077
vn -0.277595 -0.881452 0.382077
vn -0.277595 -0.881452 0.382077
vn -0.277595 -0.881452 0.382077
vn 0.000000 -0.881452 0.472273
vn 0.000000 -0.881452 0.472273
vn 0.000000 -0.881452 0.472273
vn 0.000000 -0.881452 0.472273
vn 0.277595 -0.881452 0.382077
vn 0.277595 -0.881452 0.382077
vn 0.277595 -0.881452 0.382077
vn 0.277595 -0.881452 0.382077
vn 0.449158 -0.881452 0.145941
vn 0.449158 -0.881452 0.145941
vn 0.449158 -0.881452 0.145941
vn 0.449158 -0.881452 0.145941
vn 0.449159 -0.881452 -0.145941
vn 0.449159 -0.881452 -0.145941
vn 0.449159 -0.881452 -0.145941
vn 0.449159 -0.881452 -0.145941
s off
g pCylinder1
usemtl initialShadingGroup
f 21/1/1 22/111/2 12/58/3 11/2/4
f 22/111/5 23/112/6 13/113/7 12/58/8
f 23/3/9 24/5/10 14/6/11 13/4/12
f 24/5/13 25/7/14 15/8/15 14/6/16
f 25/7/17 26/9/18 16/10/19 15/8/20
f 26/9/21 27/11/22 17/12/23 16/10/24
f 27/11/25 28/13/26 18/14/27 17/12/28
f 28/13/29 29/15/30 19/16/31 18/14/32
f 29/15/33 30/17/34 20/18/35 19/16/36
f 30/17/37 21/1/38 11/2/39 20/18/40
f 63/82/41 62/83/42 64/84/43
f 65/88/44 63/82/45 64/84/46
f 66/92/47 65/88/48 64/84/49
f 67/96/50 66/92/51 64/84/52
f 68/100/53 67/96/54 64/84/55
f 69/99/56 68/100/57 64/84/58
f 70/95/59 69/99/60 64/84/61
f 71/91/62 70/95/63 64/84/64
f 72/87/65 71/91/66 64/84/67
f 62/83/68 72/87/69 64/84/70
f 41/103/71 42/104/72 43/105/73
f 42/104/74 44/106/75 43/105/76
f 44/106/77 45/108/78 43/105/79
f 45/108/80 46/110/81 43/105/82
f 46/110/83 47/60/84 43/105/85
f 47/60/86 48/59/87 43/105/88
f 48/59/89 49/61/90 43/105/91
f 49/61/92 50/109/93 43/105/94
f 50/109/95 51/107/96 43/105/97
f 51/107/98 41/103/99 43/105/100
f 1/47/101 2/57/102 22/111/103 21/1/104
f 2/57/105 3/56/106 23/112/107 22/111/108
f 3/48/109 4/49/110 24/5/111 23/3/112
f 4/49/113 5/50/114 25/7/115 24/5/116
f 5/50/117 6/51/118 26/9/119 25/7/120
f 6/51/121 7/52/122 27/11/123 26/9/124
f 7/52/125 8/53/126 28/13/127 27/11/128
f 8/53/129 9/54/130 29/15/131 28/13/132
f 9/54/133 10/55/134 30/17/135 29/15/136
f 10/55/137 1/47/138 21/1/139 30/17/140
f 16/62/141 17/63/142 32/64/143 31/65/144
f 17/63/145 18/66/146 33/67/147 32/64/148
f 18/66/149 19/70/150 34/71/151 33/67/152
f 19/70/153 20/74/154 35/75/155 34/71/156
f 20/74/157 11/78/158 36/79/159 35/75/160
f 11/78/161 12/80/162 37/81/163 36/79/164
f 12/80/165 13/76/166 38/77/167 37/81/168
f 13/76/169 14/72/170 39/73/171 38/77/172
f 14/72/173 15/68/174 40/69/175 39/73/176
f 15/68/177 16/62/178 31/65/179 40/69/180
f 52/19/181 53/114/182 42/117/183 41/20/184
f 53/114/185 54/115/186 44/116/187 42/117/188
f 54/21/189 55/23/190 45/24/191 44/22/192
f 55/23/193 56/25/194 46/26/195 45/24/196
f 56/25/197 57/27/198 47/28/199 46/26/200
f 57/27/201 58/29/202 48/30/203 47/28/204
f 58/29/205 59/31/206 49/32/207 48/30/208
f 59/31/209 60/33/210 50/34/211 49/32/212
f 60/33/213 61/35/214 51/36/215 50/34/216
f 61/35/217 52/19/218 41/20/219 51/36/220
f 36/37/221 37/38/222 53/114/223 52/19/224
f 37/38/225 38/118/226 54/115/227 53/114/228
f 38/39/229 39/40/230 55/23/231 54/21/232
f 39/40/233 40/41/234 56/25/235 55/23/236
f 40/41/237 31/42/238 57/27/239 56/25/240
f 31/42/241 32/43/242 58/29/243 57/27/244
f 32/43/245 33/44/246 59/31/247 58/29/248
f 33/44/249 34/45/250 60/33/251 59/31/252
f 34/45/253 35/46/254 61/35/255 60/33/256
f 35/46/257 36/37/258 52/19/259 61/35/260
f 2/85/261 1/86/262 62/83/263 63/82/264
f 3/90/265 2/85/266 63/82/267 65/88/268
f 4/94/269 3/90/270 65/88/271 66/92/272
f 5/98/273 4/94/274 66/92/275 67/96/276
f 6/102/277 5/98/278 67/96/279 68/100/280
f 7/101/281 6/102/282 68/100/283 69/99/284
f 8/97/285 7/101/286 69/99/287 70/95/288
f 9/93/289 8/97/290 70/95/291 71/91/292
f 10/89/293 9/93/294 71/91/295 72/87/296
f 1/86/297 10/89/298 72/87/299 62/83/300
