# This file uses centimeters as units for non-parametric coordinates.

mtllib Vial_4.mtl
g default
v 6.787398 9.168323 -4.931342
v 2.592551 9.168323 -7.979072
v -2.592567 9.168323 -7.979072
v -6.787414 9.168323 -4.931342
v -8.389701 9.168323 -0.000004
v -6.787406 9.168323 4.931334
v -2.592567 9.168323 7.979072
v 2.592551 9.168323 7.979072
v 6.787390 9.168323 4.931334
v 8.389685 9.168323 -0.000004
v 6.787398 108.653638 -4.931342
v 2.592551 108.653638 -7.979072
v -2.592567 108.653638 -7.979072
v -6.787414 108.653638 -4.931342
v -8.389701 108.653638 -0.000004
v -6.787406 108.653638 4.931334
v -2.592567 108.653638 7.979072
v 2.592551 108.653638 7.979072
v 6.787390 108.653638 4.931334
v 8.389685 108.653638 -0.000004
v 6.056911 4.445920 -4.400609
v 2.313531 4.445920 -7.120337
v -2.313547 4.445920 -7.120337
v -6.056927 4.445920 -4.400609
v -7.486776 4.445920 -0.000004
v -6.056927 4.445920 4.400609
v -2.313547 4.445920 7.120333
v 2.313531 4.445920 7.120333
v 6.056911 4.445920 4.400609
v 7.486760 4.445920 -0.000004
v 4.051532 1.520758 -2.943621
v 1.547544 1.520758 -4.762880
v -1.547568 1.520758 -4.762880
v -4.051548 1.520758 -2.943621
v -5.007992 1.520758 -0.000004
v -4.051548 1.520758 2.943621
v -1.547560 1.520758 4.762876
v 1.547552 1.520758 4.762876
v 4.051532 1.520758 2.943617
v 5.007984 1.520758 -0.000004
v -0.000008 0.000001 -0.000004
v 2.274374 108.653638 6.999793
v 5.954378 108.653638 4.326112
v 7.360016 108.653638 -0.000004
v 5.954378 108.653638 -4.326112
v 2.274374 108.653638 -6.999801
v -2.274374 108.653638 -6.999801
v -5.954394 108.653638 -4.326112
v -7.360024 108.653638 -0.000004
v -5.954386 108.653638 4.326112
v -2.274374 108.653638 6.999793
v 5.954378 9.168323 -4.326448
v 2.274374 9.168323 -6.999801
v -2.274374 9.168323 -6.999801
v -5.954394 9.168323 -4.326112
v -7.360024 9.168323 -0.000004
v -5.954386 9.168323 4.325943
v -2.274374 9.168323 6.999625
v 2.274374 9.168323 6.999625
v 5.954378 9.168323 4.326112
v 7.360016 9.168323 -0.000168
v 5.954378 4.445920 -4.326448
v 2.274374 4.445920 -6.999793
v -2.274374 4.445920 -6.999793
v -5.954394 4.445920 -4.326112
v -7.360024 4.445920 0.000004
v -5.954386 4.445920 4.325943
v -2.274374 4.445920 6.999625
v 2.274358 4.445920 6.999625
v 5.954378 4.445920 4.326104
v 7.360016 4.445920 -0.000176
v -0.000008 1.520758 -0.000092
vt 0.114117 0.845226
vt 0.074964 0.859034
vt 0.034444 0.872997
vt 0.388157 0.858629
vt 0.349360 0.844761
vt 0.310435 0.834486
vt 0.271255 0.828286
vt 0.231908 0.826240
vt 0.192523 0.828377
vt 0.153232 0.834739
vt 0.138715 0.880186
vt 0.110365 0.898121
vt 0.084252 0.923274
vt 0.352458 0.897000
vt 0.325001 0.879504
vt 0.295138 0.867812
vt 0.263958 0.861089
vt 0.232184 0.858912
vt 0.200349 0.861186
vt 0.168971 0.868117
vt 0.165879 0.904444
vt 0.148914 0.920465
vt 0.140096 0.943564
vt 0.314158 0.918432
vt 0.297489 0.903373
vt 0.276999 0.893474
vt 0.254752 0.887936
vt 0.231830 0.886228
vt 0.208886 0.888184
vt 0.186558 0.894040
vt 0.232525 0.930424
vt 0.847792 0.871003
vt 0.508682 0.871392
vt 0.810113 0.871046
vt 0.772434 0.871090
vt 0.734756 0.871133
vt 0.697077 0.871176
vt 0.659398 0.871219
vt 0.621719 0.871262
vt 0.584040 0.871306
vt 0.546361 0.871349
vt 0.733811 0.047061
vt 0.771488 0.047018
vt 0.696132 0.047104
vt 0.658453 0.047147
vt 0.620774 0.047191
vt 0.583097 0.047234
vt 0.545418 0.047277
vt 0.507739 0.047320
vt 0.846848 0.046932
vt 0.809168 0.046975
vt 0.141309 0.009117
vt 0.096232 0.010284
vt 0.186811 0.008239
vt 0.232566 0.007814
vt 0.278406 0.007919
vt 0.324168 0.008549
vt 0.369693 0.009618
vt 0.414821 0.010948
vt 0.459406 0.012265
vt 0.051727 0.011494
vt 0.322748 0.939370
vt 0.376352 0.921812
vt 0.427812 0.874166
vt 0.007812 0.012447
vt 0.860000 0.055832
vt 0.885246 0.021085
vt 0.890259 0.027985
vt 0.868112 0.058468
vt 0.926094 0.007812
vt 0.926094 0.016341
vt 0.860000 0.098782
vt 0.868112 0.096147
vt 0.966942 0.021085
vt 0.961929 0.027985
vt 0.885246 0.133530
vt 0.890259 0.126629
vt 0.992188 0.055832
vt 0.984076 0.058468
vt 0.926094 0.146802
vt 0.926094 0.138273
vt 0.992188 0.098782
vt 0.984076 0.096147
vt 0.966942 0.133530
vt 0.961929 0.126630
vt 0.809123 0.007857
vt 0.771443 0.007901
vt 0.846803 0.007814
vt 0.507694 0.008203
vt 0.545373 0.008160
vt 0.583052 0.008117
vt 0.620729 0.008073
vt 0.658408 0.008030
vt 0.696087 0.007987
vt 0.733766 0.007944
vt 0.470016 0.008246
vt 0.470061 0.047363
vt 0.471004 0.871435
vt 0.957670 0.168548
vt 0.980724 0.200283
vt 0.920362 0.219896
vt 0.980724 0.239509
vt 0.920363 0.156427
vt 0.957667 0.271243
vt 0.883055 0.168548
vt 0.920361 0.283365
vt 0.860000 0.200283
vt 0.883057 0.271243
vt 0.860000 0.239509
vn 0.587785 0.000000 -0.809017
vn 0.587785 0.000000 -0.809017
vn 0.587785 0.000000 -0.809017
vn 0.587785 0.000000 -0.809017
vn 0.000000 0.000000 -1.000000
vn 0.000000 0.000000 -1.000000
vn 0.000000 0.000000 -1.000000
vn 0.000000 0.000000 -1.000000
vn -0.587785 0.000000 -0.809017
vn -0.587785 0.000000 -0.809017
vn -0.587785 0.000000 -0.809017
vn -0.587785 0.000000 -0.809017
vn -0.951057 0.000000 -0.309017
vn -0.951057 0.000000 -0.309017
vn -0.951057 0.000000 -0.309017
vn -0.951057 0.000000 -0.309017
vn -0.951056 0.000000 0.309018
vn -0.951056 0.000000 0.309018
vn -0.951056 0.000000 0.309018
vn -0.951056 0.000000 0.309018
vn -0.587787 0.000000 0.809016
vn -0.587787 0.000000 0.809016
vn -0.587787 0.000000 0.809016
vn -0.587787 0.000000 0.809016
vn 0.000000 0.000000 1.000000
vn 0.000000 0.000000 1.000000
vn 0.000000 0.000000 1.000000
vn 0.000000 0.000000 1.000000
vn 0.587787 0.000000 0.809016
vn 0.587787 0.000000 0.809016
vn 0.587787 0.000000 0.809016
vn 0.587787 0.000000 0.809016
vn 0.951056 0.000000 0.309018
vn 0.951056 0.000000 0.309018
vn 0.951056 0.000000 0.309018
vn 0.951056 0.000000 0.309018
vn 0.951057 0.000000 -0.309017
vn 0.951057 0.000000 -0.309017
vn 0.951057 0.000000 -0.309017
vn 0.951057 0.000000 -0.309017
vn 0.578302 -0.178910 -0.795964
vn 0.578302 -0.178910 -0.795964
vn 0.578302 -0.178910 -0.795964
vn 0.578302 -0.178910 -0.795964
vn 0.000000 -0.178909 -0.983866
vn 0.000000 -0.178909 -0.983866
vn 0.000000 -0.178909 -0.983866
vn 0.000000 -0.178909 -0.983866
vn -0.578302 -0.178910 -0.795964
vn -0.578302 -0.178910 -0.795964
vn -0.578302 -0.178910 -0.795964
vn -0.578301 -0.178910 -0.795964
vn -0.935712 -0.178909 -0.304032
vn -0.935712 -0.178909 -0.304032
vn -0.935712 -0.178909 -0.304032
vn -0.935712 -0.178909 -0.304032
vn -0.935712 -0.178908 0.304032
vn -0.935712 -0.178908 0.304032
vn -0.935712 -0.178908 0.304032
vn -0.935712 -0.178908 0.304032
vn -0.578302 -0.178909 0.795964
vn -0.578302 -0.178909 0.795964
vn -0.578302 -0.178909 0.795964
vn -0.578302 -0.178909 0.795964
vn 0.000000 -0.178910 0.983865
vn 0.000000 -0.178910 0.983865
vn 0.000000 -0.178910 0.983865
vn 0.000000 -0.178910 0.983865
vn 0.578302 -0.178909 0.795964
vn 0.578303 -0.178909 0.795964
vn 0.578303 -0.178909 0.795964
vn 0.578303 -0.178909 0.795964
vn 0.935712 -0.178908 0.304032
vn 0.935712 -0.178908 0.304032
vn 0.935712 -0.178908 0.304032
vn 0.935712 -0.178908 0.304032
vn 0.935712 -0.178909 -0.304032
vn 0.935712 -0.178909 -0.304032
vn 0.935712 -0.178909 -0.304032
vn 0.935712 -0.178909 -0.304032
vn 0.457658 -0.627504 -0.629911
vn 0.457658 -0.627504 -0.629911
vn 0.457658 -0.627504 -0.629911
vn 0.457658 -0.627504 -0.629911
vn 0.000000 -0.627503 -0.778614
vn 0.000000 -0.627503 -0.778614
vn 0.000000 -0.627503 -0.778614
vn 0.000000 -0.627503 -0.778614
vn -0.457659 -0.627503 -0.629911
vn -0.457659 -0.627503 -0.629911
vn -0.457659 -0.627503 -0.629911
vn -0.457659 -0.627503 -0.629911
vn -0.740505 -0.627504 -0.240605
vn -0.740505 -0.627504 -0.240605
vn -0.740505 -0.627504 -0.240605
vn -0.740505 -0.627504 -0.240605
vn -0.740505 -0.627504 0.240605
vn -0.740505 -0.627504 0.240605
vn -0.740505 -0.627504 0.240605
vn -0.740505 -0.627504 0.240605
vn -0.457658 -0.627504 0.629911
vn -0.457658 -0.627504 0.629911
vn -0.457658 -0.627504 0.629912
vn -0.457658 -0.627504 0.629911
vn 0.000000 -0.627503 0.778614
vn 0.000000 -0.627503 0.778614
vn 0.000000 -0.627503 0.778614
vn 0.000000 -0.627503 0.778614
vn 0.457658 -0.627504 0.629911
vn 0.457658 -0.627504 0.629911
vn 0.457658 -0.627504 0.629911
vn 0.457658 -0.627504 0.629911
vn 0.740505 -0.627504 0.240606
vn 0.740505 -0.627504 0.240606
vn 0.740505 -0.627504 0.240606
vn 0.740505 -0.627504 0.240606
vn 0.740505 -0.627504 -0.240607
vn 0.740505 -0.627504 -0.240607
vn 0.740505 -0.627504 -0.240607
vn 0.740505 -0.627504 -0.240607
vn 0.178784 -0.952619 -0.246074
vn 0.178784 -0.952619 -0.246074
vn 0.178784 -0.952619 -0.246074
vn 0.000000 -0.952619 -0.304166
vn 0.000000 -0.952619 -0.304166
vn 0.000000 -0.952619 -0.304166
vn -0.178785 -0.952619 -0.246074
vn -0.178785 -0.952619 -0.246074
vn -0.178785 -0.952619 -0.246074
vn -0.289278 -0.952619 -0.093993
vn -0.289278 -0.952619 -0.093993
vn -0.289278 -0.952619 -0.093993
vn -0.289278 -0.952619 0.093993
vn -0.289278 -0.952619 0.093993
vn -0.289278 -0.952619 0.093993
vn -0.178784 -0.952619 0.246074
vn -0.178784 -0.952619 0.246074
vn -0.178784 -0.952619 0.246074
vn 0.000000 -0.952619 0.304165
vn 0.000000 -0.952619 0.304165
vn 0.000000 -0.952619 0.304165
vn 0.178785 -0.952619 0.246074
vn 0.178785 -0.952619 0.246074
vn 0.178785 -0.952619 0.246074
vn 0.289278 -0.952619 0.093993
vn 0.289278 -0.952619 0.093993
vn 0.289278 -0.952619 0.093993
vn 0.289278 -0.952619 -0.093993
vn 0.289278 -0.952619 -0.093993
vn 0.289278 -0.952619 -0.093993
vn 0.000000 1.000000 -0.000002
vn 0.000000 1.000000 -0.000002
vn 0.000000 1.000000 -0.000002
vn 0.000000 1.000000 -0.000002
vn 0.000000 1.000000 0.000000
vn 0.000000 1.000000 0.000000
vn 0.000000 1.000000 0.000000
vn 0.000000 1.000000 0.000000
vn 0.000000 1.000000 -0.000002
vn 0.000000 1.000000 -0.000002
vn 0.000000 1.000000 -0.000002
vn 0.000000 1.000000 -0.000002
vn 0.000000 1.000000 0.000000
vn 0.000000 1.000000 0.000000
vn 0.000000 1.000000 0.000000
vn 0.000000 1.000000 0.000000
vn 0.000000 1.000000 0.000005
vn 0.000000 1.000000 0.000005
vn 0.000000 1.000000 0.000005
vn 0.000000 1.000000 0.000005
vn 0.000000 1.000000 -0.000001
vn 0.000000 1.000000 -0.000001
vn 0.000000 1.000000 -0.000001
vn 0.000000 1.000000 -0.000001
vn 0.000000 1.000000 -0.000001
vn 0.000000 1.000000 -0.000001
vn 0.000000 1.000000 -0.000001
vn 0.000000 1.000000 -0.000001
vn 0.000000 1.000000 -0.000001
vn 0.000000 1.000000 -0.000001
vn 0.000000 1.000000 -0.000001
vn 0.000000 1.000000 -0.000001
vn 0.000000 1.000000 0.000000
vn 0.000000 1.000000 0.000000
vn 0.000000 1.000000 0.000000
vn 0.000000 1.000000 0.000000
vn 0.000000 1.000000 -0.000005
vn 0.000000 1.000000 -0.000005
vn 0.000000 1.000000 -0.000005
vn 0.000000 1.000000 -0.000005
vn -0.587763 -0.000001 0.809033
vn -0.587763 -0.000001 0.809034
vn -0.587763 -0.000001 0.809034
vn -0.587763 -0.000001 0.809033
vn 0.000000 0.000000 1.000000
vn 0.000000 0.000000 1.000000
vn 0.000000 0.000000 1.000000
vn 0.000000 0.000000 1.000000
vn 0.587785 0.000000 0.809017
vn 0.587785 0.000000 0.809017
vn 0.587785 0.000000 0.809017
vn 0.587785 0.000000 0.809017
vn 0.951057 0.000000 0.309015
vn 0.951057 0.000000 0.309015
vn 0.951057 0.000000 0.309015
vn 0.951057 0.000000 0.309015
vn 0.951055 0.000000 -0.309022
vn 0.951055 0.000000 -0.309022
vn 0.951055 0.000000 -0.309022
vn 0.951055 0.000000 -0.309022
vn 0.587785 0.000001 -0.809017
vn 0.587785 0.000001 -0.809017
vn 0.587785 0.000001 -0.809017
vn 0.587785 0.000001 -0.809017
vn 0.000000 0.000002 -1.000000
vn 0.000000 0.000002 -1.000000
vn 0.000000 0.000002 -1.000000
vn 0.000000 0.000002 -1.000000
vn -0.587774 0.000001 -0.809026
vn -0.587774 0.000001 -0.809026
vn -0.587774 0.000001 -0.809026
vn -0.587774 0.000001 -0.809026
vn -0.951058 0.000000 -0.309011
vn -0.951058 0.000000 -0.309011
vn -0.951058 0.000000 -0.309011
vn -0.951058 0.000000 -0.309011
vn -0.951058 -0.000001 0.309011
vn -0.951058 -0.000001 0.309011
vn -0.951058 -0.000001 0.309011
vn -0.951058 -0.000001 0.309011
vn -0.587738 0.000001 0.809051
vn -0.587738 0.000001 0.809051
vn -0.587738 0.000001 0.809051
vn -0.587738 0.000001 0.809051
vn 0.000000 0.000002 1.000000
vn 0.000000 0.000002 1.000000
vn 0.000000 0.000002 1.000000
vn 0.000000 0.000002 1.000000
vn 0.587784 0.000001 0.809018
vn 0.587784 0.000001 0.809018
vn 0.587784 0.000001 0.809018
vn 0.587784 0.000001 0.809018
vn 0.951057 0.000000 0.309015
vn 0.951057 0.000000 0.309015
vn 0.951057 0.000000 0.309015
vn 0.951057 0.000000 0.309015
vn 0.951053 -0.000000 -0.309028
vn 0.951053 -0.000000 -0.309028
vn 0.951053 -0.000000 -0.309028
vn 0.951053 -0.000000 -0.309028
vn 0.587785 0.000000 -0.809017
vn 0.587785 0.000000 -0.809017
vn 0.587785 0.000000 -0.809017
vn 0.587785 0.000000 -0.809017
vn 0.000000 0.000000 -1.000000
vn 0.000000 0.000000 -1.000000
vn 0.000000 0.000000 -1.000000
vn 0.000000 0.000000 -1.000000
vn -0.587761 0.000002 -0.809035
vn -0.587761 0.000002 -0.809035
vn -0.587761 0.000002 -0.809035
vn -0.587761 0.000002 -0.809035
vn -0.951060 0.000001 -0.309006
vn -0.951060 0.000001 -0.309006
vn -0.951060 0.000001 -0.309006
vn -0.951060 0.000001 -0.309006
vn -0.951060 -0.000000 0.309006
vn -0.951060 -0.000000 0.309006
vn -0.951060 -0.000000 0.309006
vn -0.951060 -0.000000 0.309006
vn -0.226617 0.922676 0.311951
vn -0.226617 0.922676 0.311951
vn -0.226617 0.922676 0.311951
vn 0.000000 0.922673 0.385584
vn 0.000000 0.922673 0.385584
vn 0.000000 0.922673 0.385584
vn 0.226639 0.922674 0.311943
vn 0.226639 0.922674 0.311943
vn 0.226639 0.922674 0.311943
vn 0.366709 0.922674 0.119151
vn 0.366709 0.922674 0.119151
vn 0.366709 0.922674 0.119151
vn 0.366706 0.922675 -0.119155
vn 0.366706 0.922675 -0.119155
vn 0.366706 0.922675 -0.119155
vn 0.226639 0.922674 -0.311942
vn 0.226639 0.922674 -0.311942
vn 0.226639 0.922674 -0.311942
vn 0.000000 0.922673 -0.385583
vn 0.000000 0.922673 -0.385583
vn 0.000000 0.922673 -0.385583
vn -0.226628 0.922675 -0.311946
vn -0.226628 0.922675 -0.311946
vn -0.226628 0.922675 -0.311946
vn -0.366709 0.922675 -0.119146
vn -0.366709 0.922675 -0.119146
vn -0.366709 0.922675 -0.119146
vn -0.366706 0.922676 0.119146
vn -0.366706 0.922676 0.119146
vn -0.366706 0.922676 0.119146
s off
g pCylinder3
usemtl initialShadingGroup
f 1/1/1 2/2/2 12/61/3 11/53/4
f 2/2/5 3/3/6 13/65/7 12/61/8
f 3/64/9 4/4/10 14/59/11 13/60/12
f 4/4/13 5/5/14 15/58/15 14/59/16
f 5/5/17 6/6/18 16/57/19 15/58/20
f 6/6/21 7/7/22 17/56/23 16/57/24
f 7/7/25 8/8/26 18/55/27 17/56/28
f 8/8/29 9/9/30 19/54/31 18/55/32
f 9/9/33 10/10/34 20/52/35 19/54/36
f 10/10/37 1/1/38 11/53/39 20/52/40
f 2/2/41 1/1/42 21/11/43 22/12/44
f 3/3/45 2/2/46 22/12/47 23/13/48
f 4/4/49 3/64/50 23/63/51 24/14/52
f 5/5/53 4/4/54 24/14/55 25/15/56
f 6/6/57 5/5/58 25/15/59 26/16/60
f 7/7/61 6/6/62 26/16/63 27/17/64
f 8/8/65 7/7/66 27/17/67 28/18/68
f 9/9/69 8/8/70 28/18/71 29/19/72
f 10/10/73 9/9/74 29/19/75 30/20/76
f 1/1/77 10/10/78 30/20/79 21/11/80
f 22/12/81 21/11/82 31/21/83 32/22/84
f 23/13/85 22/12/86 32/22/87 33/23/88
f 24/14/89 23/63/90 33/62/91 34/24/92
f 25/15/93 24/14/94 34/24/95 35/25/96
f 26/16/97 25/15/98 35/25/99 36/26/100
f 27/17/101 26/16/102 36/26/103 37/27/104
f 28/18/105 27/17/106 37/27/107 38/28/108
f 29/19/109 28/18/110 38/28/111 39/29/112
f 30/20/113 29/19/114 39/29/115 40/30/116
f 21/11/117 30/20/118 40/30/119 31/21/120
f 32/22/121 31/21/122 41/31/123
f 33/23/124 32/22/125 41/31/126
f 34/24/127 33/62/128 41/31/129
f 35/25/130 34/24/131 41/31/132
f 36/26/133 35/25/134 41/31/135
f 37/27/136 36/26/137 41/31/138
f 38/28/139 37/27/140 41/31/141
f 39/29/142 38/28/143 41/31/144
f 40/30/145 39/29/146 41/31/147
f 31/21/148 40/30/149 41/31/150
f 18/66/151 19/67/152 43/68/153 42/69/154
f 19/67/155 20/70/156 44/71/157 43/68/158
f 20/70/159 11/74/160 45/75/161 44/71/162
f 11/74/163 12/78/164 46/79/165 45/75/166
f 12/78/167 13/82/168 47/83/169 46/79/170
f 13/82/171 14/84/172 48/85/173 47/83/174
f 14/84/175 15/80/176 49/81/177 48/85/178
f 15/80/179 16/76/180 50/77/181 49/81/182
f 16/76/183 17/72/184 51/73/185 50/77/186
f 17/72/187 18/66/188 42/69/189 51/73/190
f 45/35/191 46/36/192 53/42/193 52/43/194
f 46/36/195 47/37/196 54/44/197 53/42/198
f 47/37/199 48/38/200 55/45/201 54/44/202
f 48/38/203 49/39/204 56/46/205 55/45/206
f 49/39/207 50/40/208 57/47/209 56/46/210
f 50/40/211 51/41/212 58/48/213 57/47/214
f 51/41/215 42/33/216 59/49/217 58/48/218
f 42/33/219 43/98/220 60/97/221 59/49/222
f 43/32/223 44/34/224 61/51/225 60/50/226
f 44/34/227 45/35/228 52/43/229 61/51/230
f 52/43/231 53/42/232 63/95/233 62/87/234
f 53/42/235 54/44/236 64/94/237 63/95/238
f 54/44/239 55/45/240 65/93/241 64/94/242
f 55/45/243 56/46/244 66/92/245 65/93/246
f 56/46/247 57/47/248 67/91/249 66/92/250
f 57/47/251 58/48/252 68/90/253 67/91/254
f 58/48/255 59/49/256 69/89/257 68/90/258
f 59/49/259 60/97/260 70/96/261 69/89/262
f 60/50/263 61/51/264 71/86/265 70/88/266
f 61/51/267 52/43/268 62/87/269 71/86/270
f 62/99/271 63/100/272 72/101/273
f 63/100/274 64/102/275 72/101/276
f 64/102/277 65/104/278 72/101/279
f 65/104/280 66/106/281 72/101/282
f 66/106/283 67/108/284 72/101/285
f 67/108/286 68/109/287 72/101/288
f 68/109/289 69/107/290 72/101/291
f 69/107/292 70/105/293 72/101/294
f 70/105/295 71/103/296 72/101/297
f 71/103/298 62/99/299 72/101/300
