# This file uses centimeters as units for non-parametric coordinates.

mtllib Wall_5.mtl
g default
v 497.734891 0.000000 14.948073
v 497.734891 531.311769 14.948073
v 497.734891 531.311769 -14.948075
v 497.734830 46.867303 -6.641618
v 497.734830 513.234193 -6.641618
v 497.734891 519.528566 -14.948075
v 497.734830 0.000000 -14.948075
v -497.734896 0.000000 14.948049
v -497.734896 531.311769 14.948049
v -497.734896 531.311769 -14.948075
v -497.734896 46.867303 -6.641667
v -497.734896 513.234193 -6.641667
v -497.734896 519.528566 -14.948075
v -497.734896 0.000000 -14.948075
vt 0.009023 0.473671
vt 0.008996 0.463482
vt 0.869751 0.461235
vt 0.869778 0.471423
vt 0.008973 0.454470
vt 0.869727 0.452223
vt 0.007920 0.051216
vt 0.868675 0.048969
vt 0.007812 0.010060
vt 0.868567 0.007812
vt 0.868570 0.943334
vt 0.007812 0.943334
vt 0.007813 0.483922
vt 0.868570 0.483922
vt 0.966337 0.936888
vt 0.985005 0.921257
vt 0.992187 0.936888
vt 0.966337 0.477476
vt 0.985005 0.518001
vt 0.992187 0.926699
vt 0.992187 0.477476
vt 0.973519 0.451593
vt 0.992188 0.467225
vt 0.966337 0.467225
vt 0.973519 0.048338
vt 0.992188 0.007813
vt 0.966337 0.457036
vt 0.966337 0.007813
vt 0.925331 0.007813
vt 0.951181 0.007813
vt 0.951181 0.868571
vt 0.925331 0.868571
vt 0.884324 0.007813
vt 0.910175 0.007813
vt 0.910175 0.868570
vt 0.884324 0.868570
vn 0.000000 1.000000 0.000000
vn 0.000000 1.000000 0.000000
vn 0.000000 1.000000 0.000000
vn 0.000000 1.000000 0.000000
vn 0.000000 0.000000 -1.000000
vn 0.000000 0.000000 -1.000000
vn 0.000000 0.000000 -1.000000
vn 0.000000 0.000000 -1.000000
vn 1.000000 -0.000003 0.000000
vn 1.000000 -0.000003 0.000000
vn 1.000000 -0.000003 0.000000
vn 0.000000 0.174513 -0.984655
vn 0.000000 0.174513 -0.984655
vn 0.000000 0.174513 -0.984655
vn 0.000000 0.174513 -0.984655
vn 1.000000 0.000000 0.000006
vn 1.000000 0.000000 0.000006
vn 1.000000 0.000000 0.000006
vn 0.000000 -0.797016 -0.603958
vn 0.000000 -0.797016 -0.603958
vn 0.000000 -0.797016 -0.603958
vn 0.000000 -0.797016 -0.603958
vn 1.000000 0.000001 -0.000002
vn 1.000000 0.000001 -0.000002
vn 1.000000 0.000001 -0.000002
vn 0.000000 -1.000000 0.000000
vn 0.000000 -1.000000 0.000000
vn 0.000000 -1.000000 0.000000
vn 0.000000 -1.000000 0.000000
vn 1.000000 0.000000 -0.000002
vn 1.000000 0.000000 -0.000002
vn 1.000000 0.000000 -0.000002
vn 1.000000 0.000000 -0.000002
vn 0.000000 0.000000 -1.000000
vn 0.000000 0.000000 -1.000000
vn 0.000000 0.000000 -1.000000
vn 0.000000 0.000000 -1.000000
vn -1.000000 -0.000001 0.000000
vn -1.000000 -0.000001 0.000000
vn -1.000000 -0.000001 0.000000
vn -1.000000 0.000000 0.000000
vn -1.000000 0.000000 0.000000
vn -1.000000 0.000000 0.000000
vn -1.000000 0.000000 0.000000
vn -1.000000 0.000000 0.000000
vn -1.000000 0.000000 0.000000
vn -1.000000 0.000000 0.000000
vn -1.000000 0.000000 0.000000
vn -1.000000 0.000000 0.000000
vn -1.000000 0.000000 0.000000
vn 0.000000 0.000000 1.000000
vn 0.000000 0.000000 1.000000
vn 0.000000 0.000000 1.000000
vn 0.000000 0.000000 1.000000
s off
g DoorWallTop:DoorWallTop:DoorWallTop:Wall1:pCube80
usemtl lambert42SG
f 2/29/1 3/30/2 10/31/3 9/32/4
f 3/1/5 6/2/6 13/3/7 10/4/8
f 2/15/9 5/16/10 3/17/11
f 4/7/12 7/9/13 14/10/14 11/8/15
f 3/17/16 5/16/17 6/20/18
f 6/2/19 5/5/20 12/6/21 13/3/22
f 4/19/23 1/18/24 7/21/25
f 7/33/26 1/34/27 8/35/28 14/36/29
f 1/18/30 4/19/31 5/16/32 2/15/33
f 5/5/34 4/7/35 11/8/36 12/6/37
f 12/22/38 9/23/39 10/24/40
f 12/22/41 10/24/42 13/27/43
f 8/26/44 11/25/45 14/28/46
f 11/25/47 8/26/48 9/23/49 12/22/50
f 2/11/51 9/12/52 8/13/53 1/14/54
