# This file uses centimeters as units for non-parametric coordinates.

mtllib Wall_2.mtl
g default
v -398.187883 0.000000 29.896124
v -398.187883 531.311771 29.896124
v -398.187883 531.311771 0.000000
v -398.187883 46.867301 8.306408
v -398.187883 513.234195 8.306408
v -398.187883 519.528567 0.000000
v -398.187883 0.000000 0.000000
v 0.000075 0.000000 29.896124
v 0.000075 531.311771 29.896124
v 0.000075 531.311771 0.000000
v 0.000014 46.867301 8.306408
v 0.000014 513.234195 8.306408
v 0.000075 519.528567 0.000000
v 0.000014 0.000000 0.000000
vt 0.446103 0.003906
vt 0.881688 0.003906
vt 0.881688 0.585118
vt 0.446103 0.585118
vt 0.003906 0.016855
vt 0.003906 0.003906
vt 0.441478 0.003906
vt 0.441478 0.016855
vt 0.441478 0.023772
vt 0.003906 0.023772
vt 0.441478 0.536266
vt 0.003906 0.536266
vt 0.003906 0.587769
vt 0.441478 0.587769
vt 0.963390 0.439491
vt 0.963390 0.003906
vt 0.996094 0.003906
vt 0.996094 0.439491
vt 0.996094 0.879248
vt 0.963390 0.879248
vt 0.963390 0.443663
vt 0.996094 0.443663
vt 0.934931 0.565342
vt 0.958549 0.585118
vt 0.925845 0.585118
vt 0.934931 0.055175
vt 0.958549 0.003906
vt 0.925845 0.572228
vt 0.925845 0.003906
vt 0.888300 0.585118
vt 0.911917 0.565342
vt 0.921004 0.585118
vt 0.888300 0.003906
vt 0.911917 0.055175
vt 0.921004 0.572228
vt 0.921004 0.003906
vn 0.000000 1.000000 0.000000
vn 0.000000 1.000000 0.000000
vn 0.000000 1.000000 0.000000
vn 0.000000 1.000000 0.000000
vn 0.000000 0.000000 -1.000000
vn 0.000000 0.000000 -1.000000
vn 0.000000 0.000000 -1.000000
vn 0.000000 0.000000 -1.000000
vn -1.000000 -0.000001 0.000000
vn -1.000000 -0.000001 0.000000
vn -1.000000 -0.000001 0.000000
vn 0.000000 0.174513 -0.984655
vn 0.000000 0.174513 -0.984655
vn 0.000000 0.174513 -0.984655
vn 0.000000 0.174513 -0.984655
vn -1.000000 0.000000 0.000000
vn -1.000000 0.000000 0.000000
vn -1.000000 0.000000 0.000000
vn -1.000000 0.000000 0.000000
vn -1.000000 0.000000 0.000000
vn -1.000000 0.000000 0.000000
vn -1.000000 0.000000 0.000000
vn -1.000000 0.000000 0.000000
vn -1.000000 0.000000 0.000000
vn -1.000000 0.000000 0.000000
vn 1.000000 -0.000003 0.000000
vn 1.000000 -0.000003 0.000000
vn 1.000000 -0.000003 0.000000
vn 1.000000 0.000000 0.000006
vn 1.000000 0.000000 0.000006
vn 1.000000 0.000000 0.000006
vn -0.000000 -0.797016 -0.603958
vn -0.000000 -0.797016 -0.603958
vn -0.000000 -0.797016 -0.603958
vn -0.000000 -0.797016 -0.603958
vn 1.000000 0.000001 -0.000002
vn 1.000000 0.000001 -0.000002
vn 1.000000 0.000001 -0.000002
vn -0.000000 -1.000000 0.000000
vn -0.000000 -1.000000 0.000000
vn -0.000000 -1.000000 0.000000
vn -0.000000 -1.000000 0.000000
vn 1.000000 0.000000 -0.000002
vn 1.000000 0.000000 -0.000002
vn 1.000000 0.000000 -0.000002
vn 1.000000 0.000000 -0.000002
vn 0.000000 0.000000 -1.000000
vn 0.000000 0.000000 -1.000000
vn 0.000000 0.000000 -1.000000
vn 0.000000 0.000000 -1.000000
vn 0.000000 0.000000 1.000000
vn 0.000000 0.000000 1.000000
vn 0.000000 0.000000 1.000000
vn 0.000000 0.000000 1.000000
s off
g pCube102
usemtl Wall:lambert3SG
f 3/19/1 2/20/2 9/21/3 10/22/4
f 6/5/5 3/6/6 10/7/7 13/8/8
f 5/23/9 2/24/10 3/25/11
f 7/13/12 4/12/13 11/11/14 14/14/15
f 5/23/16 3/25/17 6/28/18
f 1/27/19 4/26/20 7/29/21
f 4/26/22 1/27/23 2/24/24 5/23/25
f 9/30/26 12/31/27 10/32/28
f 10/32/29 12/31/30 13/35/31
f 6/5/32 13/8/33 12/9/34 5/10/35
f 11/34/36 8/33/37 14/36/38
f 7/15/39 14/16/40 8/17/41 1/18/42
f 8/33/43 11/34/44 12/31/45 9/30/46
f 5/10/47 12/9/48 11/11/49 4/12/50
f 1/1/51 8/2/52 9/3/53 2/4/54
