# This file uses centimeters as units for non-parametric coordinates.

mtllib Wall_12WithWindow.mtl
g default
v -1194.563721 0.000000 14.948074
v -1194.563721 531.311768 14.948074
v -1194.563721 531.311768 -14.948074
v -1194.563721 46.867302 -6.641617
v -1194.563721 513.234192 -6.641617
v -1194.563721 519.528564 -14.948074
v -1194.563721 0.000000 -14.948074
v -398.187836 170.808334 14.948059
v -398.187897 170.808350 -6.641647
v -398.187775 360.503418 14.948059
v -398.187836 360.503418 -6.641663
v 1194.563721 0.000004 14.948074
v 1194.563721 531.311768 14.948074
v 1194.563721 531.311768 -14.948074
v 1194.563599 46.867302 -6.641617
v 1194.563599 513.234192 -6.641617
v 1194.563721 519.528564 -14.948074
v 1194.563599 0.000000 -14.948074
v 398.187988 360.503418 14.948059
v 398.187988 360.503418 -6.641663
v 398.187866 170.808334 14.948044
v 398.187866 170.808350 -6.641647
vt 0.033277 0.650426
vt 0.041908 0.643199
vt 0.045228 0.650426
vt 0.033277 0.438023
vt 0.041908 0.456759
vt 0.045228 0.645716
vt 0.045228 0.438023
vt 0.054954 0.643200
vt 0.063585 0.650426
vt 0.051633 0.650426
vt 0.054954 0.456759
vt 0.063585 0.438023
vt 0.051633 0.645716
vt 0.051633 0.438023
vt 0.984142 0.959013
vt 0.984142 0.003906
vt 0.996094 0.003906
vt 0.996094 0.959013
vt 0.977737 0.959006
vt 0.965786 0.959006
vt 0.965786 0.003906
vt 0.977737 0.003906
vt 0.959012 0.434352
vt 0.003906 0.434352
vt 0.322275 0.366067
vt 0.640643 0.366067
vt 0.003906 0.221948
vt 0.322275 0.290233
vt 0.959012 0.221948
vt 0.640643 0.290233
vt 0.003912 0.218277
vt 0.003911 0.199249
vt 0.959017 0.199224
vt 0.959018 0.218252
vt 0.322279 0.149692
vt 0.640647 0.149684
vt 0.003906 0.012808
vt 0.322277 0.073857
vt 0.959012 0.012783
vt 0.640645 0.073849
vt 0.003906 0.008642
vt 0.959012 0.008617
vt 0.003906 0.003931
vt 0.959012 0.003906
vt 0.093306 0.438023
vt 0.093306 0.513858
vt 0.084675 0.513858
vt 0.084675 0.438023
vt 0.069990 0.513858
vt 0.069990 0.438023
vt 0.078621 0.438023
vt 0.078621 0.513858
vt 0.003906 0.756391
vt 0.003906 0.438023
vt 0.012537 0.438023
vt 0.012537 0.756391
vt 0.018591 0.756391
vt 0.018591 0.438023
vt 0.027222 0.438023
vt 0.027222 0.756391
vn -1.000000 0.000004 0.000000
vn -1.000000 0.000004 0.000000
vn -1.000000 0.000004 0.000000
vn -1.000000 0.000000 0.000000
vn -1.000000 0.000000 0.000000
vn -1.000000 0.000000 0.000000
vn -1.000000 0.000000 0.000000
vn -1.000000 0.000000 0.000000
vn -1.000000 0.000000 0.000000
vn -1.000000 0.000000 0.000000
vn -1.000000 0.000000 0.000000
vn -1.000000 0.000000 0.000000
vn -1.000000 0.000000 0.000000
vn 1.000000 -0.000000 -0.000003
vn 1.000000 -0.000000 -0.000003
vn 1.000000 -0.000000 -0.000003
vn 1.000000 -0.000000 -0.000003
vn 1.000000 -0.000014 0.000000
vn 1.000000 -0.000014 0.000000
vn 1.000000 -0.000014 0.000000
vn 1.000000 0.000000 0.000015
vn 1.000000 0.000000 0.000015
vn 1.000000 0.000000 0.000015
vn 1.000000 0.000000 -0.000006
vn 1.000000 0.000000 -0.000006
vn 1.000000 0.000000 -0.000006
vn 1.000000 0.000000 -0.000006
vn 0.000000 0.174514 -0.984655
vn 0.000000 0.174514 -0.984655
vn 0.000000 0.174514 -0.984655
vn 0.000000 0.174514 -0.984655
vn 0.000000 -1.000000 0.000000
vn 0.000000 -1.000000 0.000000
vn 0.000000 -1.000000 0.000000
vn 0.000000 -1.000000 0.000000
vn 0.000000 1.000000 0.000000
vn 0.000000 1.000000 0.000000
vn 0.000000 1.000000 0.000000
vn 0.000000 1.000000 0.000000
vn 0.000000 1.000000 0.000000
vn 0.000000 1.000000 0.000000
vn 0.000000 1.000000 0.000000
vn 0.000000 1.000000 0.000000
vn 0.000000 0.000000 -1.000000
vn 0.000000 0.000000 -1.000000
vn 0.000000 0.000000 -1.000000
vn 0.000000 0.000000 -1.000000
vn 0.000000 -0.797019 -0.603954
vn 0.000000 -0.797019 -0.603954
vn 0.000000 -0.797019 -0.603954
vn 0.000000 -0.797019 -0.603954
vn 0.000000 -1.000000 -0.000001
vn 0.000000 -1.000000 -0.000001
vn 0.000000 -1.000000 -0.000001
vn 0.000000 -1.000000 -0.000001
vn -1.000000 0.000000 0.000000
vn -1.000000 0.000000 0.000000
vn -1.000000 0.000000 0.000000
vn -1.000000 0.000000 0.000000
vn 1.000000 0.000000 -0.000004
vn 1.000000 0.000000 -0.000004
vn 1.000000 0.000000 -0.000004
vn -0.000000 -0.000000 -1.000000
vn -0.000000 -0.000000 -1.000000
vn -0.000000 -0.000000 -1.000000
vn -0.000000 -0.000000 -1.000000
vn 0.000000 -0.000000 -1.000000
vn 0.000000 -0.000000 -1.000000
vn 0.000000 -0.000000 -1.000000
vn 0.000000 -0.000000 -1.000000
vn 0.000000 -0.000000 -1.000000
vn 0.000000 -0.000000 -1.000000
vn 0.000000 -0.000000 -1.000000
vn 0.000000 -0.000000 -1.000000
vn 0.000000 0.000000 -1.000000
vn 0.000000 0.000000 -1.000000
vn 0.000000 0.000000 -1.000000
vn 0.000000 0.000000 -1.000000
vn 0.000000 -0.000000 1.000000
vn 0.000000 -0.000000 1.000000
vn 0.000000 -0.000000 1.000000
vn 0.000000 -0.000000 1.000000
vn 0.000000 0.000000 1.000000
vn 0.000000 0.000000 1.000000
vn 0.000000 0.000000 1.000000
vn 0.000000 0.000000 1.000000
vn 0.000000 -0.000000 1.000000
vn 0.000000 -0.000000 1.000000
vn 0.000000 -0.000000 1.000000
vn 0.000000 -0.000000 1.000000
vn -0.000000 -0.000000 1.000000
vn -0.000000 -0.000000 1.000000
vn -0.000000 -0.000000 1.000000
vn -0.000000 -0.000000 1.000000
s off
g pCube114
usemtl Wall:lambert3SG
f 5/8/1 2/9/2 3/10/3
f 5/8/4 3/10/5 6/13/6
f 1/12/7 4/11/8 7/14/9
f 4/11/10 1/12/11 2/9/12 5/8/13
f 9/45/14 11/46/15 10/47/16 8/48/17
f 13/1/18 16/2/19 14/3/20
f 14/3/21 16/2/22 17/6/23
f 12/4/24 15/5/25 16/2/26 13/1/27
usemtl WallBottomSection:lambert8SG
f 7/31/28 4/32/29 15/33/30 18/34/31
f 7/15/32 18/16/33 12/17/34 1/18/35
f 8/53/36 21/54/37 22/55/38 9/56/39
usemtl WallTopSection:lambert9SG
f 3/19/40 2/20/41 13/21/42 14/22/43
f 6/41/44 3/43/45 14/44/46 17/42/47
f 6/41/48 17/42/49 16/39/50 5/37/51
f 11/57/52 20/58/53 19/59/54 10/60/55
usemtl Wall:lambert3SG
f 20/49/56 22/50/57 21/51/58 19/52/59
usemtl Wall:lambert3SG WallBottomSection:lambert8SG
f 18/7/60 15/5/61 12/4/62
usemtl Wall:lambert3SG
f 4/32/63 5/37/64 11/38/65 9/35/66
usemtl WallBottomSection:lambert8SG
f 15/33/67 4/32/68 9/35/69 22/36/70
usemtl Wall:lambert3SG
f 16/39/71 15/33/72 22/36/73 20/40/74
usemtl initialShadingGroup
f 16/39/75 20/40/76 11/38/77 5/37/78
usemtl WallTopSection:lambert9SG
f 13/23/79 2/24/80 10/25/81 19/26/82
usemtl WallBottomSection:lambert8SG
f 1/27/83 12/29/84 21/30/85 8/28/86
usemtl initialShadingGroup
f 2/24/87 1/27/88 8/28/89 10/25/90
f 12/29/91 13/23/92 19/26/93 21/30/94
