# This file uses centimeters as units for non-parametric coordinates.

mtllib Wall_3.mtl
g default
v 298.640935 -0.000002 14.948061
v 298.640935 531.311766 14.948061
v 298.640935 531.311766 -14.948088
v 298.640882 46.867300 -6.641630
v 298.640882 513.234190 -6.641630
v 298.640935 519.528563 -14.948088
v 298.640882 -0.000002 -14.948088
v -298.640956 -0.000002 14.948061
v -298.640956 531.311766 14.948061
v -298.640956 531.311766 -14.948088
v -298.640956 46.867300 -6.641630
v -298.640956 513.234190 -6.641630
v -298.640956 519.528563 -14.948088
v -298.640956 -0.000002 -14.948088
vt 0.934664 0.007815
vt 0.992188 0.007812
vt 0.046015 0.873997
vt 0.046015 0.855680
vt 0.796066 0.656123
vt 0.837597 0.640817
vt 0.853595 0.652236
vt 0.046015 0.114484
vt 0.046015 0.040491
vt 0.853595 0.629552
vt 0.046015 0.839478
vt 0.837589 0.116590
vt 0.796064 0.032506
vt 0.853595 0.007812
vt 0.992166 0.399712
vt 0.934639 0.399709
vt 0.785168 0.027590
vt 0.785166 0.664756
vt 0.996094 0.879248
vt 0.963390 0.879248
vt 0.003906 0.016855
vt 0.003906 0.003906
vt 0.934931 0.565342
vt 0.958549 0.585118
vt 0.925845 0.585118
vt 0.003906 0.587769
vt 0.003906 0.536266
vt 0.925845 0.572228
vt 0.958549 0.003906
vt 0.934931 0.055175
vt 0.925845 0.003906
vt 0.003906 0.023772
vt 0.963390 0.439491
vt 0.996094 0.439491
vt 0.446103 0.003906
vt 0.446103 0.585118
vn 0.000000 1.000000 0.000000
vn 0.000000 1.000000 0.000000
vn 0.000000 1.000000 0.000000
vn 0.000000 1.000000 0.000000
vn 0.000000 0.000000 -1.000000
vn 0.000000 0.000000 -1.000000
vn 0.000000 0.000000 -1.000000
vn 0.000000 0.000000 -1.000000
vn 1.000000 -0.000003 0.000000
vn 1.000000 -0.000003 0.000000
vn 1.000000 -0.000003 0.000000
vn 0.000000 0.174513 -0.984655
vn 0.000000 0.174513 -0.984655
vn 0.000000 0.174513 -0.984655
vn 0.000000 0.174513 -0.984655
vn 1.000000 0.000000 0.000006
vn 1.000000 0.000000 0.000006
vn 1.000000 0.000000 0.000006
vn 0.000000 -0.797016 -0.603958
vn 0.000000 -0.797016 -0.603958
vn -0.000000 -0.797016 -0.603958
vn -0.000000 -0.797016 -0.603958
vn 1.000000 0.000001 -0.000002
vn 1.000000 0.000001 -0.000002
vn 1.000000 0.000001 -0.000002
vn 0.000000 -1.000000 0.000000
vn 0.000000 -1.000000 0.000000
vn -0.000000 -1.000000 0.000000
vn -0.000000 -1.000000 0.000000
vn 1.000000 0.000000 -0.000002
vn 1.000000 0.000000 -0.000002
vn 1.000000 0.000000 -0.000002
vn 1.000000 0.000000 -0.000002
vn 0.000000 0.000000 -1.000000
vn 0.000000 0.000000 -1.000000
vn 0.000000 0.000000 -1.000000
vn 0.000000 0.000000 -1.000000
vn -1.000000 -0.000001 0.000000
vn -1.000000 -0.000001 0.000000
vn -1.000000 -0.000001 0.000000
vn -1.000000 0.000000 0.000000
vn -1.000000 0.000000 0.000000
vn -1.000000 0.000000 0.000000
vn -1.000000 0.000000 0.000000
vn -1.000000 0.000000 0.000000
vn -1.000000 0.000000 0.000000
vn -1.000000 0.000000 0.000000
vn -1.000000 0.000000 0.000000
vn -1.000000 0.000000 0.000000
vn -1.000000 0.000000 0.000000
vn 0.000000 0.000000 1.000000
vn 0.000000 0.000000 1.000000
vn 0.000000 0.000000 1.000000
vn 0.000000 0.000000 1.000000
s off
g DoorWallTop:DoorWallTop:DoorWallTop:Wall1:pCube79
usemtl Wall1:lambert3SG
f 2/1/1 3/2/2 10/19/3 9/20/4
f 3/3/5 6/4/6 13/21/7 10/22/8
f 2/5/9 5/6/10 3/7/11
f 4/8/12 7/9/13 14/26/14 11/27/15
f 3/7/16 5/6/17 6/10/18
f 6/4/19 5/11/20 12/32/21 13/21/22
f 4/12/23 1/13/24 7/14/25
f 7/16/26 1/15/27 8/34/28 14/33/29
f 1/13/30 4/12/31 5/6/32 2/5/33
f 5/11/34 4/8/35 11/27/36 12/32/37
usemtl Wall:lambert3SG
f 12/23/38 9/24/39 10/25/40
f 12/23/41 10/25/42 13/28/43
f 8/29/44 11/30/45 14/31/46
f 11/30/47 8/29/48 9/24/49 12/23/50
f 2/18/51 9/36/52 8/35/53 1/17/54
